<svg width="24" height="24" viewBox="0 0 24 24" fill="none" xmlns="http://www.w3.org/2000/svg">
<g filter="url(#filter0_i_3803_2245)">
<path d="M8.21875 10.605V6.43423C8.23271 5.44578 8.63516 4.50255 9.33909 3.80849C10.043 3.11444 10.9918 2.72534 11.9804 2.72534C12.9689 2.72534 13.9177 3.11444 14.6217 3.80849C15.3256 4.50255 15.728 5.44578 15.742 6.43423V10.6065" stroke="#C2C2C6" stroke-width="2.0625"/>
</g>
<path d="M8.21875 10.605V6.43423C8.23271 5.44578 8.63516 4.50255 9.33909 3.80849C10.043 3.11444 10.9918 2.72534 11.9804 2.72534C12.9689 2.72534 13.9177 3.11444 14.6217 3.80849C15.3256 4.50255 15.728 5.44578 15.742 6.43423V10.6065" stroke="url(#paint0_radial_3803_2245)" stroke-width="2.0625"/>
<g filter="url(#filter1_f_3803_2245)">
<path d="M8.50781 10.6049V6.28489C8.50781 4.13464 10.2283 2.39014 12.3516 2.39014C14.4748 2.39014 16.1953 4.13464 16.1953 6.28564V10.6056" stroke="url(#paint1_radial_3803_2245)" stroke-width="0.75"/>
<path d="M8.50781 10.6049V6.28489C8.50781 4.13464 10.2283 2.39014 12.3516 2.39014C14.4748 2.39014 16.1953 4.13464 16.1953 6.28564V10.6056" stroke="url(#paint2_radial_3803_2245)" stroke-width="0.75"/>
</g>
<g filter="url(#filter2_iiii_3803_2245)">
<path d="M17.9769 8.34375H6.02344C4.7808 8.34375 3.77344 9.35111 3.77344 10.5938V20.2267C3.77344 21.4694 4.7808 22.4767 6.02344 22.4767H17.9769C19.2196 22.4767 20.2269 21.4694 20.2269 20.2267V10.5938C20.2269 9.35111 19.2196 8.34375 17.9769 8.34375Z" fill="url(#paint3_linear_3803_2245)"/>
</g>
<path d="M17.9769 8.34375H6.02344C4.7808 8.34375 3.77344 9.35111 3.77344 10.5938V20.2267C3.77344 21.4694 4.7808 22.4767 6.02344 22.4767H17.9769C19.2196 22.4767 20.2269 21.4694 20.2269 20.2267V10.5938C20.2269 9.35111 19.2196 8.34375 17.9769 8.34375Z" fill="url(#paint4_radial_3803_2245)"/>
<path d="M17.9769 8.34375H6.02344C4.7808 8.34375 3.77344 9.35111 3.77344 10.5938V20.2267C3.77344 21.4694 4.7808 22.4767 6.02344 22.4767H17.9769C19.2196 22.4767 20.2269 21.4694 20.2269 20.2267V10.5938C20.2269 9.35111 19.2196 8.34375 17.9769 8.34375Z" fill="url(#paint5_linear_3803_2245)"/>
<path d="M17.9769 8.34375H6.02344C4.7808 8.34375 3.77344 9.35111 3.77344 10.5938V20.2267C3.77344 21.4694 4.7808 22.4767 6.02344 22.4767H17.9769C19.2196 22.4767 20.2269 21.4694 20.2269 20.2267V10.5938C20.2269 9.35111 19.2196 8.34375 17.9769 8.34375Z" fill="url(#paint6_radial_3803_2245)"/>
<g filter="url(#filter3_f_3803_2245)">
<path d="M13.0454 15.3465C13.4012 15.1173 13.6731 14.7787 13.8201 14.3818C13.9671 13.9849 13.9813 13.5509 13.8606 13.1452C13.7398 12.7395 13.4907 12.3839 13.1507 12.1319C12.8106 11.8799 12.3979 11.745 11.9746 11.7476C11.5513 11.7502 11.1403 11.89 10.8033 12.1462C10.4663 12.4023 10.2216 12.7609 10.1058 13.168C9.99003 13.5752 10.0095 14.0089 10.1613 14.404C10.3131 14.7992 10.5891 15.1344 10.9477 15.3593V17.8298C10.9477 18.1079 11.0582 18.3747 11.2549 18.5714C11.4516 18.7681 11.7184 18.8786 11.9965 18.8786C12.2747 18.8786 12.5415 18.7681 12.7382 18.5714C12.9349 18.3747 13.0454 18.1079 13.0454 17.8298V15.3465Z" stroke="url(#paint7_linear_3803_2245)" stroke-width="1.3125"/>
<path d="M13.0454 15.3465C13.4012 15.1173 13.6731 14.7787 13.8201 14.3818C13.9671 13.9849 13.9813 13.5509 13.8606 13.1452C13.7398 12.7395 13.4907 12.3839 13.1507 12.1319C12.8106 11.8799 12.3979 11.745 11.9746 11.7476C11.5513 11.7502 11.1403 11.89 10.8033 12.1462C10.4663 12.4023 10.2216 12.7609 10.1058 13.168C9.99003 13.5752 10.0095 14.0089 10.1613 14.404C10.3131 14.7992 10.5891 15.1344 10.9477 15.3593V17.8298C10.9477 18.1079 11.0582 18.3747 11.2549 18.5714C11.4516 18.7681 11.7184 18.8786 11.9965 18.8786C12.2747 18.8786 12.5415 18.7681 12.7382 18.5714C12.9349 18.3747 13.0454 18.1079 13.0454 17.8298V15.3465Z" stroke="url(#paint8_linear_3803_2245)" stroke-width="1.3125"/>
</g>
<path d="M13.0454 15.3465C13.4012 15.1173 13.6731 14.7787 13.8201 14.3818C13.9671 13.9849 13.9813 13.5509 13.8606 13.1452C13.7398 12.7395 13.4907 12.3839 13.1507 12.1319C12.8106 11.8799 12.3979 11.745 11.9746 11.7476C11.5513 11.7502 11.1403 11.89 10.8033 12.1462C10.4663 12.4023 10.2216 12.7609 10.1058 13.168C9.99003 13.5752 10.0095 14.0089 10.1613 14.404C10.3131 14.7992 10.5891 15.1344 10.9477 15.3593V17.8298C10.9477 18.1079 11.0582 18.3747 11.2549 18.5714C11.4516 18.7681 11.7184 18.8786 11.9965 18.8786C12.2747 18.8786 12.5415 18.7681 12.7382 18.5714C12.9349 18.3747 13.0454 18.1079 13.0454 17.8298V15.3465Z" fill="url(#paint9_radial_3803_2245)"/>
<defs>
<filter id="filter0_i_3803_2245" x="7.1875" y="1.69409" width="10.3359" height="8.91235" filterUnits="userSpaceOnUse" color-interpolation-filters="sRGB">
<feFlood flood-opacity="0" result="BackgroundImageFix"/>
<feBlend mode="normal" in="SourceGraphic" in2="BackgroundImageFix" result="shape"/>
<feColorMatrix in="SourceAlpha" type="matrix" values="0 0 0 0 0 0 0 0 0 0 0 0 0 0 0 0 0 0 127 0" result="hardAlpha"/>
<feOffset dx="0.75"/>
<feGaussianBlur stdDeviation="0.375"/>
<feComposite in2="hardAlpha" operator="arithmetic" k2="-1" k3="1"/>
<feColorMatrix type="matrix" values="0 0 0 0 0.560784 0 0 0 0 0.556863 0 0 0 0 0.576471 0 0 0 1 0"/>
<feBlend mode="normal" in2="shape" result="effect1_innerShadow_3803_2245"/>
</filter>
<filter id="filter1_f_3803_2245" x="7.57031" y="1.45264" width="9.5625" height="9.71558" filterUnits="userSpaceOnUse" color-interpolation-filters="sRGB">
<feFlood flood-opacity="0" result="BackgroundImageFix"/>
<feBlend mode="normal" in="SourceGraphic" in2="BackgroundImageFix" result="shape"/>
<feGaussianBlur stdDeviation="0.28125" result="effect1_foregroundBlur_3803_2245"/>
</filter>
<filter id="filter2_iiii_3803_2245" x="3.21094" y="7.78125" width="17.5781" height="15.2581" filterUnits="userSpaceOnUse" color-interpolation-filters="sRGB">
<feFlood flood-opacity="0" result="BackgroundImageFix"/>
<feBlend mode="normal" in="SourceGraphic" in2="BackgroundImageFix" result="shape"/>
<feColorMatrix in="SourceAlpha" type="matrix" values="0 0 0 0 0 0 0 0 0 0 0 0 0 0 0 0 0 0 127 0" result="hardAlpha"/>
<feOffset dy="-0.5625"/>
<feGaussianBlur stdDeviation="0.28125"/>
<feComposite in2="hardAlpha" operator="arithmetic" k2="-1" k3="1"/>
<feColorMatrix type="matrix" values="0 0 0 0 0.898039 0 0 0 0 0.364706 0 0 0 0 0.423529 0 0 0 1 0"/>
<feBlend mode="normal" in2="shape" result="effect1_innerShadow_3803_2245"/>
<feColorMatrix in="SourceAlpha" type="matrix" values="0 0 0 0 0 0 0 0 0 0 0 0 0 0 0 0 0 0 127 0" result="hardAlpha"/>
<feOffset dx="-0.75"/>
<feGaussianBlur stdDeviation="0.28125"/>
<feComposite in2="hardAlpha" operator="arithmetic" k2="-1" k3="1"/>
<feColorMatrix type="matrix" values="0 0 0 0 1 0 0 0 0 0.772549 0 0 0 0 0.364706 0 0 0 1 0"/>
<feBlend mode="normal" in2="effect1_innerShadow_3803_2245" result="effect2_innerShadow_3803_2245"/>
<feColorMatrix in="SourceAlpha" type="matrix" values="0 0 0 0 0 0 0 0 0 0 0 0 0 0 0 0 0 0 127 0" result="hardAlpha"/>
<feOffset dy="0.75"/>
<feGaussianBlur stdDeviation="0.28125"/>
<feComposite in2="hardAlpha" operator="arithmetic" k2="-1" k3="1"/>
<feColorMatrix type="matrix" values="0 0 0 0 1 0 0 0 0 0.843137 0 0 0 0 0.266667 0 0 0 1 0"/>
<feBlend mode="normal" in2="effect2_innerShadow_3803_2245" result="effect3_innerShadow_3803_2245"/>
<feColorMatrix in="SourceAlpha" type="matrix" values="0 0 0 0 0 0 0 0 0 0 0 0 0 0 0 0 0 0 127 0" result="hardAlpha"/>
<feOffset dx="0.5625"/>
<feGaussianBlur stdDeviation="0.28125"/>
<feComposite in2="hardAlpha" operator="arithmetic" k2="-1" k3="1"/>
<feColorMatrix type="matrix" values="0 0 0 0 0.729412 0 0 0 0 0.478431 0 0 0 0 0.207843 0 0 0 1 0"/>
<feBlend mode="normal" in2="effect3_innerShadow_3803_2245" result="effect4_innerShadow_3803_2245"/>
</filter>
<filter id="filter3_f_3803_2245" x="9" y="10.7163" width="5.97656" height="9.1936" filterUnits="userSpaceOnUse" color-interpolation-filters="sRGB">
<feFlood flood-opacity="0" result="BackgroundImageFix"/>
<feBlend mode="normal" in="SourceGraphic" in2="BackgroundImageFix" result="shape"/>
<feGaussianBlur stdDeviation="0.1875" result="effect1_foregroundBlur_3803_2245"/>
</filter>
<radialGradient id="paint0_radial_3803_2245" cx="0" cy="0" r="1" gradientUnits="userSpaceOnUse" gradientTransform="translate(11.9807 5.74198) rotate(-90) scale(3.63281 3.96643)">
<stop offset="0.531" stop-color="#AB83C0"/>
<stop offset="1" stop-color="#CBBBDC" stop-opacity="0"/>
</radialGradient>
<radialGradient id="paint1_radial_3803_2245" cx="0" cy="0" r="1" gradientUnits="userSpaceOnUse" gradientTransform="translate(16.4248 3.44539) rotate(136.74) scale(3.93298 5.40248)">
<stop offset="0.216" stop-color="#EDECF3"/>
<stop offset="1" stop-color="#EDECF3" stop-opacity="0"/>
</radialGradient>
<radialGradient id="paint2_radial_3803_2245" cx="0" cy="0" r="1" gradientUnits="userSpaceOnUse" gradientTransform="translate(9.41231 9.49189) rotate(-90) scale(5.34375 3.87239)">
<stop stop-color="#EDECF3"/>
<stop offset="1" stop-color="#EDECF3" stop-opacity="0"/>
</radialGradient>
<linearGradient id="paint3_linear_3803_2245" x1="7.61719" y1="10.641" x2="12.8207" y2="22.4767" gradientUnits="userSpaceOnUse">
<stop stop-color="#FFC74E"/>
<stop offset="1" stop-color="#F7864E"/>
</linearGradient>
<radialGradient id="paint4_radial_3803_2245" cx="0" cy="0" r="1" gradientTransform="matrix(-1.64063 -1.80468 4.2043 -3.82214 19.8047 22.4767)" gradientUnits="userSpaceOnUse">
<stop stop-color="#FF8650"/>
<stop offset="1" stop-color="#FF8650" stop-opacity="0"/>
</radialGradient>
<linearGradient id="paint5_linear_3803_2245" x1="12.0002" y1="8.10975" x2="12.0002" y2="9.23475" gradientUnits="userSpaceOnUse">
<stop stop-color="#F3D04E"/>
<stop offset="1" stop-color="#F3D04E" stop-opacity="0"/>
</linearGradient>
<radialGradient id="paint6_radial_3803_2245" cx="0" cy="0" r="1" gradientUnits="userSpaceOnUse" gradientTransform="translate(19.9929 8.34297) rotate(126.254) scale(1.74385 3.93878)">
<stop stop-color="#FFF760"/>
<stop offset="1" stop-color="#FFF760" stop-opacity="0"/>
</radialGradient>
<linearGradient id="paint7_linear_3803_2245" x1="14.3407" y1="16.3125" x2="11.4344" y2="16.3125" gradientUnits="userSpaceOnUse">
<stop offset="0.331" stop-color="#D98A40"/>
<stop offset="1" stop-color="#D98A40" stop-opacity="0"/>
</linearGradient>
<linearGradient id="paint8_linear_3803_2245" x1="9.65315" y1="15.6098" x2="11.6924" y2="15.6098" gradientUnits="userSpaceOnUse">
<stop stop-color="#FFCD63"/>
<stop offset="1" stop-color="#FFCD63" stop-opacity="0"/>
</linearGradient>
<radialGradient id="paint9_radial_3803_2245" cx="0" cy="0" r="1" gradientUnits="userSpaceOnUse" gradientTransform="translate(10.0309 14.0158) rotate(34.061) scale(4.26841 5.87039)">
<stop offset="0.217" stop-color="#564F80"/>
<stop offset="1" stop-color="#473154"/>
</radialGradient>
</defs>
</svg>
