<svg width="20" height="24" viewBox="0 0 20 24" fill="none" xmlns="http://www.w3.org/2000/svg">
<path d="M16.7045 12.763C16.7166 11.8431 16.9669 10.9411 17.4321 10.141C17.8972 9.34093 18.5621 8.66869 19.3648 8.18687C18.8548 7.47582 18.1821 6.89066 17.4 6.47785C16.6178 6.06505 15.7479 5.83597 14.8592 5.80883C12.9635 5.61456 11.1258 6.91628 10.1598 6.91628C9.17506 6.91628 7.68776 5.82812 6.08616 5.86028C5.05021 5.89296 4.04059 6.18707 3.15568 6.71395C2.27077 7.24083 1.54075 7.98252 1.03674 8.86675C-1.14648 12.5571 0.482005 17.9808 2.57338 20.9639C3.61975 22.4246 4.84264 24.0562 6.44279 23.9984C8.00863 23.9349 8.59344 23.0235 10.4835 23.0235C12.3561 23.0235 12.9048 23.9984 14.5374 23.9616C16.2176 23.9349 17.2762 22.4944 18.2859 21.0198C19.0377 19.979 19.6162 18.8287 20 17.6115C19.0238 17.2084 18.1908 16.5337 17.6048 15.6715C17.0187 14.8093 16.7056 13.7977 16.7045 12.763Z" fill="white"/>
<path d="M13.6201 3.84713C14.5362 2.77343 14.9875 1.39335 14.8782 0C13.4786 0.143519 12.1857 0.796596 11.2572 1.82911C10.8033 2.33351 10.4556 2.92033 10.234 3.55601C10.0125 4.19168 9.92146 4.86375 9.96613 5.5338C10.6662 5.54084 11.3588 5.3927 11.9917 5.10054C12.6246 4.80838 13.1814 4.37982 13.6201 3.84713Z" fill="white"/>
</svg>
