<svg width="32" height="32" viewBox="0 0 32 32" fill="none" xmlns="http://www.w3.org/2000/svg">
<path d="M0 4C0 1.79086 1.79086 0 4 0H28C30.2091 0 32 1.79086 32 4V28C32 30.2091 30.2091 32 28 32H4C1.79086 32 0 30.2091 0 28V4Z" fill="#156AE1"/>
<path d="M21 6H11C8.23858 6 6 8.23858 6 11V21C6 23.7614 8.23858 26 11 26H21C23.7614 26 26 23.7614 26 21V11C26 8.23858 23.7614 6 21 6Z" stroke="white" stroke-width="2" stroke-linecap="round" stroke-linejoin="round"/>
<path d="M21.4997 10.5H21.5097M19.9997 15.37C20.1231 16.2022 19.981 17.0522 19.5935 17.799C19.206 18.5458 18.5929 19.1514 17.8413 19.5297C17.0898 19.9079 16.2382 20.0396 15.4075 19.9059C14.5768 19.7723 13.8095 19.3801 13.2145 18.7852C12.6196 18.1902 12.2274 17.4229 12.0938 16.5922C11.9601 15.7616 12.0918 14.9099 12.47 14.1584C12.8483 13.4069 13.4539 12.7937 14.2007 12.4062C14.9475 12.0187 15.7975 11.8766 16.6297 12C17.4786 12.1259 18.2646 12.5215 18.8714 13.1283C19.4782 13.7351 19.8738 14.5211 19.9997 15.37Z" stroke="white" stroke-width="2" stroke-linecap="round" stroke-linejoin="round"/>
</svg>
