<svg width="22" height="22" viewBox="0 0 22 22" fill="none" xmlns="http://www.w3.org/2000/svg">
<path d="M12.582 15.318C12.7885 15.4128 13.0212 15.4345 13.2417 15.3794C13.4622 15.3244 13.6573 15.1958 13.795 15.015L14.15 14.55C14.3363 14.3016 14.5779 14.1 14.8556 13.9611C15.1333 13.8223 15.4395 13.75 15.75 13.75H18.75C19.2804 13.75 19.7891 13.9607 20.1642 14.3358C20.5393 14.7109 20.75 15.2196 20.75 15.75V18.75C20.75 19.2804 20.5393 19.7891 20.1642 20.1642C19.7891 20.5393 19.2804 20.75 18.75 20.75C13.9761 20.75 9.39773 18.8536 6.02208 15.4779C2.64642 12.1023 0.75 7.5239 0.75 2.75C0.75 2.21957 0.960714 1.71086 1.33579 1.33579C1.71086 0.960714 2.21957 0.75 2.75 0.75H5.75C6.28043 0.75 6.78914 0.960714 7.16421 1.33579C7.53929 1.71086 7.75 2.21957 7.75 2.75V5.75C7.75 6.06049 7.67771 6.36672 7.53885 6.64443C7.4 6.92214 7.19839 7.16371 6.95 7.35L6.482 7.701C6.29842 7.84118 6.16902 8.04059 6.11579 8.26535C6.06256 8.49012 6.08878 8.72638 6.19 8.934C7.55668 11.7099 9.80442 13.9548 12.582 15.318Z" stroke="#156AE1" stroke-width="1.5" stroke-linecap="round" stroke-linejoin="round"/>
</svg>
