<svg width="32" height="32" viewBox="0 0 32 32" fill="none" xmlns="http://www.w3.org/2000/svg">
<path d="M0 4C0 1.79086 1.79086 0 4 0H28C30.2091 0 32 1.79086 32 4V28C32 30.2091 30.2091 32 28 32H4C1.79086 32 0 30.2091 0 28V4Z" fill="#156AE1"/>
<path d="M20.7223 18.0602C20.4668 17.9289 19.1941 17.3055 18.9574 17.2211C18.7207 17.132 18.5473 17.0898 18.3762 17.3523C18.2027 17.6125 17.7105 18.1914 17.5559 18.3672C17.4059 18.5406 17.2535 18.5617 16.998 18.4328C15.4793 17.6734 14.4832 17.0781 13.4824 15.3602C13.2176 14.9031 13.7473 14.9359 14.2418 13.9492C14.3262 13.7758 14.284 13.6281 14.2184 13.4969C14.1527 13.3656 13.6371 12.0953 13.4215 11.5773C13.2129 11.0734 12.9973 11.1437 12.8402 11.1344C12.6902 11.125 12.5191 11.125 12.3457 11.125C12.1723 11.125 11.8934 11.1906 11.6566 11.4461C11.4199 11.7063 10.752 12.332 10.752 13.6023C10.752 14.8727 11.6777 16.1031 11.8043 16.2766C11.9355 16.45 13.6254 19.0563 16.2199 20.1789C17.8605 20.8867 18.5027 20.9477 19.323 20.8258C19.8223 20.7508 20.8512 20.2023 21.0645 19.5953C21.2777 18.9906 21.2777 18.4727 21.2145 18.3648C21.1512 18.25 20.9777 18.1844 20.7223 18.0602Z" fill="white"/>
<path d="M25.6845 11.9312C25.1548 10.6727 24.3954 9.54297 23.4275 8.57266C22.4595 7.60469 21.3298 6.84297 20.0689 6.31563C18.7798 5.77422 17.4111 5.5 16.0001 5.5H15.9533C14.5329 5.50703 13.1572 5.78828 11.8634 6.34141C10.6142 6.87578 9.49388 7.63516 8.53529 8.60312C7.5767 9.57109 6.82435 10.6961 6.30404 11.95C5.76498 13.2484 5.4931 14.6289 5.50013 16.0492C5.50716 17.6758 5.89623 19.2906 6.62513 20.7344V24.2969C6.62513 24.8922 7.10795 25.375 7.70326 25.375H11.2681C12.7119 26.1039 14.3267 26.493 15.9533 26.5H16.0025C17.4064 26.5 18.7681 26.2281 20.0501 25.6961C21.304 25.1734 22.4314 24.4234 23.397 23.4648C24.365 22.5063 25.1267 21.3859 25.6587 20.1367C26.2119 18.843 26.4931 17.4672 26.5001 16.0469C26.5072 14.6195 26.2306 13.2344 25.6845 11.9312ZM22.1431 22.1969C20.5001 23.8234 18.3204 24.7188 16.0001 24.7188H15.9603C14.547 24.7117 13.1431 24.3602 11.9033 23.6992L11.7064 23.5938H8.40638V20.2938L8.30091 20.0969C7.63998 18.857 7.28841 17.4531 7.28138 16.0398C7.27201 13.7031 8.16498 11.5094 9.80326 9.85703C11.4392 8.20469 13.6259 7.29062 15.9626 7.28125H16.0025C17.1744 7.28125 18.3111 7.50859 19.3822 7.95859C20.4275 8.39687 21.365 9.02734 22.1712 9.83359C22.9751 10.6375 23.6079 11.5773 24.0462 12.6227C24.5009 13.7055 24.7283 14.8539 24.7236 16.0398C24.7095 18.3742 23.7931 20.5609 22.1431 22.1969Z" fill="white"/>
</svg>
