<svg width="24" height="24" viewBox="0 0 24 24" fill="none" xmlns="http://www.w3.org/2000/svg">
<path d="M10.6596 10.6599C10.3029 11.0148 10.1015 11.4967 10.0996 11.9999C10.0996 12.5038 10.2998 12.9871 10.6561 13.3434C11.0124 13.6997 11.4957 13.8999 11.9996 13.8999C12.5028 13.8981 12.9847 13.6967 13.3396 13.3399" stroke="white" stroke-width="1.5" stroke-linecap="round" stroke-linejoin="round"/>
<path d="M11.9998 6.30005C10.8725 6.30005 9.77042 6.63435 8.83306 7.26067C7.8957 7.887 7.16511 8.77721 6.73369 9.81875C6.30227 10.8603 6.1894 12.0064 6.40933 13.1121C6.62927 14.2178 7.17214 15.2334 7.9693 16.0306C8.76646 16.8277 9.7821 17.3706 10.8878 17.5905C11.9935 17.8105 13.1396 17.6976 14.1811 17.2662C15.2226 16.8347 16.1129 16.1042 16.7392 15.1668C17.3655 14.2294 17.6998 13.1274 17.6998 12" stroke="white" stroke-width="1.5" stroke-linecap="round" stroke-linejoin="round"/>
<path d="M12 2.5C10.1211 2.5 8.28435 3.05717 6.72209 4.10104C5.15982 5.14491 3.94218 6.62861 3.22315 8.36451C2.50412 10.1004 2.31598 12.0105 2.68254 13.8534C3.0491 15.6962 3.95389 17.3889 5.28249 18.7175C6.61109 20.0461 8.30383 20.9509 10.1466 21.3175C11.9895 21.684 13.8996 21.4959 15.6355 20.7769C17.3714 20.0578 18.8551 18.8402 19.899 17.2779C20.9428 15.7157 21.5 13.8789 21.5 12M15.525 8.476L12.95 11.05" stroke="white" stroke-width="1.5" stroke-linecap="round" stroke-linejoin="round"/>
<path d="M20.9402 5.84409L17.7002 6.3001L18.1562 3.06009C18.1596 3.02246 18.1516 2.98469 18.1334 2.95159C18.1152 2.9185 18.0875 2.89159 18.0539 2.87431C18.0203 2.85703 17.9823 2.85016 17.9448 2.85457C17.9072 2.85899 17.8719 2.87449 17.8432 2.89909L15.6952 5.03609C15.4746 5.25832 15.3123 5.53162 15.2228 5.8317C15.1333 6.13178 15.1194 6.44933 15.1822 6.7561L15.5242 8.47609L17.2442 8.8171C17.551 8.87995 17.8685 8.866 18.1686 8.7765C18.4687 8.687 18.742 8.52472 18.9642 8.30409L21.1002 6.1571C21.1249 6.12836 21.1405 6.09291 21.1448 6.05528C21.1492 6.01764 21.1423 5.97956 21.1249 5.94591C21.1075 5.91227 21.0804 5.8846 21.0471 5.86645C21.0139 5.84831 20.9759 5.84052 20.9382 5.84409" stroke="white" stroke-width="1.5" stroke-linecap="round" stroke-linejoin="round"/>
</svg>
