<svg width="69" height="49" viewBox="0 0 69 49" fill="none" xmlns="http://www.w3.org/2000/svg">
<g clip-path="url(#clip0_3032_33943)">
<path d="M61.3333 0H17.25V16.3333H69V7.25926C69 5.33398 68.1923 3.48756 66.7545 2.12619C65.3167 0.764812 63.3667 0 61.3333 0Z" fill="#068241"/>
<path d="M17.25 16.3335H69V32.6668H17.25V16.3335Z" fill="#EEEEEE"/>
<path d="M17.25 48.9998H61.3333C63.3667 48.9998 65.3167 48.235 66.7545 46.8736C68.1923 45.5123 69 43.6659 69 41.7406V32.6665H17.25V48.9998Z" fill="#141414"/>
<path d="M7.66667 0C5.63334 0 3.68329 0.794228 2.24551 2.20796C0.807736 3.6217 0 5.53914 0 7.53846L0 41.4615C0 43.4609 0.807736 45.3783 2.24551 46.792C3.68329 48.2058 5.63334 49 7.66667 49H17.25V0H7.66667Z" fill="#EC2028"/>
</g>
<defs>
<clipPath id="clip0_3032_33943">
<rect width="69" height="49" fill="white"/>
</clipPath>
</defs>
</svg>
