<svg width="69" height="49" viewBox="0 0 69 49" fill="none" xmlns="http://www.w3.org/2000/svg">
<g clip-path="url(#clip0_2085_43387)">
<path d="M69 41.4615C69 43.4609 68.1923 45.3783 66.7545 46.792C65.3167 48.2058 63.3667 49 61.3333 49H7.66667C5.63334 49 3.68329 48.2058 2.24551 46.792C0.807736 45.3783 0 43.4609 0 41.4615V7.53846C0 5.53914 0.807736 3.6217 2.24551 2.20796C3.68329 0.794228 5.63334 0 7.66667 0H61.3333C63.3667 0 65.3167 0.794228 66.7545 2.20796C68.1923 3.6217 69 5.53914 69 7.53846V41.4615Z" fill="#141414"/>
<path d="M0 15H69V34H0V15Z" fill="#EEEEEE"/>
<path d="M61.3333 0H7.66667C5.63334 0 3.68329 0.790176 2.24551 2.1967C0.807736 3.60322 0 5.51088 0 7.5L0 15H69V7.5C69 5.51088 68.1923 3.60322 66.7545 2.1967C65.3167 0.790176 63.3667 0 61.3333 0Z" fill="#CE1225"/>
<path d="M28 31.1248C28 31.1248 28.0324 31.6167 28.4741 31.8627C28.4741 31.8627 28.3485 32.2326 28.8226 32.4471C29.2967 32.6616 31.0067 33 33.9831 33C36.9594 33 38.6371 32.693 39.0808 32.4766C39.5245 32.2621 39.5549 31.7702 39.5549 31.7702C39.5549 31.7702 40.029 31.5243 39.9986 31.2173C39.9662 30.9103 39.334 30.5719 39.334 30.5719C39.334 30.5719 39.176 30.1725 38.7323 30.019C38.2886 29.8655 36.8642 30.6959 34.1411 30.5719C31.418 30.4499 29.8681 30.0485 29.3615 30.08C28.855 30.1115 28.6342 30.6034 28.6342 30.6034C28.6342 30.6034 28.0628 30.8494 28 31.1248Z" fill="#BF9300"/>
<path d="M29.0011 31.0886C28.9778 31.3113 29.338 31.7998 29.338 31.7998C29.338 31.7998 29.338 32.3602 29.7019 32.5111C30.0657 32.662 31.5497 33.0356 33.9586 32.9973C36.3674 32.9589 38.0755 32.7721 38.2708 32.547C38.4662 32.3219 38.6347 31.8358 38.6347 31.8358C38.6347 31.8358 39.0272 31.4622 38.9985 31.1628C38.9698 30.8634 38.4106 30.6766 38.4106 30.6766C38.4106 30.6766 38.2529 30.2264 38.0665 30.0396C37.8801 29.8528 36.6757 30.7868 34.0984 30.7868C31.5766 30.7868 30.1213 29.963 29.8703 30.0013C29.6176 30.0396 29.451 30.6743 29.451 30.6743C29.451 30.6743 29.0298 30.8275 29.0011 31.0886Z" fill="#EEEEEE"/>
<path d="M39.4966 19.9064C39.4966 19.9064 39.4378 18.5804 38.1613 18.7484C36.8849 18.9183 36.7956 19.5108 35.4299 19.6517L35.1487 19.677C34.9209 19.0897 34.7952 18.471 34.7764 17.8452C34.7764 16.998 35.0443 16.6313 34.123 16.2085C33.2037 15.7858 33.0251 16.1796 33.0251 16.1796C33.0251 16.1796 32.3128 15.84 31.9861 16.0947C31.6594 16.3494 31.838 16.998 31.9861 16.8011C32.1343 16.6042 32.7288 17.1678 32.7288 17.1678C32.9302 18.1053 32.3584 19.1206 31.9671 19.686C31.8323 19.6734 31.724 19.6679 31.572 19.6517C30.2063 19.5108 30.117 18.9183 28.8406 18.7484C27.5641 18.5786 27.5053 19.9064 27.5053 19.9064L27 30.1528L28.039 29.3904L28.0447 29.2694L30.2063 27.443L30.5672 27.0998L29.6726 29.5873C29.6726 29.5873 28.3068 29.5024 28.6924 30.5466C28.6924 30.5466 28.8995 29.954 29.2566 30.0661C29.6137 30.1781 30.6508 30.4328 30.6508 30.4328L31.0079 30.9693L31.4524 30.5737L32.8466 30.5177C32.8466 30.5177 33.2911 30.6297 33.2626 30.9982C33.3442 30.8397 33.3689 30.6601 33.3328 30.487L33.7526 30.4599C33.7075 30.6416 33.7304 30.8326 33.8172 31C33.7868 30.6333 34.2332 30.5195 34.2332 30.5195L35.6274 30.5755L36.0738 30.9711L36.4309 30.4346C36.4309 30.4346 37.468 30.1799 37.8232 30.0679C38.1784 29.9559 38.3873 30.5484 38.3873 30.5484C38.7729 29.5042 37.4072 29.5891 37.4072 29.5891L36.5544 27.2172L36.7937 27.4448L38.9553 29.2712L38.961 29.3922L40 30.1546L39.4966 19.9064ZM33.595 26.1171C31.4543 24.8598 31.2776 21.6858 31.2776 21.6858C31.2776 21.6858 32.6016 21.6208 33.5627 20.9795C34.4288 21.7111 35.9066 21.628 35.9066 21.628C35.9066 21.628 35.806 24.8146 33.595 26.1171ZM38.488 19.5126L36.6778 21.1493L36.3739 21.2649C36.0624 21.2757 34.5466 21.2793 33.5912 20.4718C32.404 21.2631 30.7724 21.3191 30.7724 21.3191L30.5197 21.2233L28.5158 19.5126L27.9896 19.7185C28.0124 19.5144 28.1302 19.0556 28.7836 19.1459C29.8549 19.2922 30.2975 19.8522 31.4258 19.9642L31.7449 19.9949L31.6328 20.1322C31.8076 20.1322 32.0659 20.0834 32.2558 20.0437L32.4705 20.0636L32.3736 20.3851C32.5256 20.3418 32.7459 20.2171 32.9264 20.1069L33.4202 20.1521L33.5323 20.3002L33.9084 20.1214L34.161 20.0979C34.3795 20.2189 34.691 20.3273 34.691 20.3273L34.7499 20.0455C35.0177 20.2153 35.4622 20.2153 35.4622 20.2153C35.4109 20.1756 35.3596 20.0744 35.3064 19.9877L35.5799 19.9606C36.7082 19.8486 37.1489 19.2886 38.2221 19.1423C38.8755 19.0537 38.9933 19.5108 39.0161 19.7149L38.488 19.5126Z" fill="#BF9300"/>
<path d="M33.2441 26.3568L32.0265 30L30 29.6816L32.0957 25L33.2441 26.3568ZM34.7559 26.3568L35.9713 30L38 29.6816L35.9043 25L34.7559 26.3568Z" fill="#EEEEEE"/>
<path d="M32 22.3304C32 22.3304 32.1598 23.8052 32.9913 24.9495V22C32.9913 22 32.4465 22.2539 32 22.3304ZM36 22.3809C36 22.3809 35.8402 23.8557 35.0087 25V22.0505C35.0067 22.0505 35.5515 22.3044 36 22.3809Z" fill="#BF9300"/>
<path d="M32 16.0551C32 16.0551 32.2202 15.8348 32.8525 16.2754C33.2626 16.5623 33.6263 16.7806 33.6263 16.7806C33.6263 16.7806 33.8848 16.5078 34.2646 16.5704C34.6444 16.6331 34.4323 17.1605 34.4949 18.264C34.5576 19.3695 35 19.8424 35 19.8424L34.4626 19.5271L34.4949 19.8747L33.895 19.5897L33.6101 20L33.3253 19.5574L32.8646 19.8383L32.7253 19.4624L32.1879 19.7474C32.1879 19.7474 32.9778 18.7692 33.0404 17.6941C33.0586 17.3727 32.9778 16.6513 32.9778 16.6513C32.9778 16.6513 32.4747 16.0227 32 16.0551Z" fill="#EEEEEE"/>
<path d="M30.1907 31.0503C29.8791 31.3184 30.001 31.4813 30.1907 31.599C30.3804 31.7168 31.5222 31.9147 33.8354 31.9899C36.2008 32.0676 37.6699 31.6767 37.8596 31.5189C38.0493 31.3635 38.0771 31.0879 37.7517 31.0102C37.4244 30.9325 35.7935 31.3234 33.8076 31.3234C31.3603 31.3259 30.3264 30.9325 30.1907 31.0503Z" fill="#BF9300"/>
</g>
<defs>
<clipPath id="clip0_2085_43387">
<rect width="69" height="49" fill="white"/>
</clipPath>
</defs>
</svg>
