<svg width="69" height="49" viewBox="0 0 69 49" fill="none" xmlns="http://www.w3.org/2000/svg">
<g clip-path="url(#clip0_2085_43346)">
<path d="M61.3333 0H7.66667C5.63334 0 3.68329 0.793275 2.24551 2.20531C0.807736 3.61735 0 5.53249 0 7.52941L0 16H69V7.52941C69 5.53249 68.1923 3.61735 66.7545 2.20531C65.3167 0.793275 63.3667 0 61.3333 0Z" fill="#141414"/>
<path d="M0 41.4706C0 43.4675 0.807736 45.3826 2.24551 46.7947C3.68329 48.2067 5.63334 49 7.66667 49H61.3333C63.3667 49 65.3167 48.2067 66.7545 46.7947C68.1923 45.3826 69 43.4675 69 41.4706V33H0V41.4706Z" fill="#007A3D"/>
<path d="M0 16H69V33H0V16Z" fill="#EEEEEE"/>
<path d="M2.6248 2C1.8 2.70374 1.13948 3.5686 0.686975 4.53731C0.234472 5.50603 0.000311505 6.55649 0 7.61914L0 41.379C0 43.6165 1.01417 45.6252 2.6248 47L34 24.4991L2.6248 2Z" fill="#CE1126"/>
<path d="M12.5 27.102L14.5025 29L14.3034 26.2094L17 25.7874L14.7491 24.2083L16.1087 21.7833L13.5013 22.602L12.5 20L11.4987 22.602L8.89128 21.7833L10.2491 24.2083L8 25.7874L10.6947 26.2094L10.4975 29L12.5 27.102Z" fill="white"/>
</g>
<defs>
<clipPath id="clip0_2085_43346">
<rect width="69" height="49" fill="white"/>
</clipPath>
</defs>
</svg>
