<svg width="69" height="49" viewBox="0 0 69 49" fill="none" xmlns="http://www.w3.org/2000/svg">
<g clip-path="url(#clip0_2085_43336)">
<path d="M61.3333 0H7.66667C5.63334 0 3.68329 0.793275 2.24551 2.20531C0.807736 3.61735 0 5.53249 0 7.52941L0 16H69V7.52941C69 5.53249 68.1923 3.61735 66.7545 2.20531C65.3167 0.793275 63.3667 0 61.3333 0Z" fill="#007A3D"/>
<path d="M0 41.4706C0 43.4675 0.807736 45.3826 2.24551 46.7947C3.68329 48.2067 5.63334 49 7.66667 49H61.3333C63.3667 49 65.3167 48.2067 66.7545 46.7947C68.1923 45.3826 69 43.4675 69 41.4706V33H0V41.4706Z" fill="#CE1126"/>
<path d="M0 16H69V33H0V16Z" fill="#EEEEEE"/>
<path d="M2.27611 2C1.55551 2.70682 0.982926 3.5512 0.592042 4.48348C0.201159 5.41577 -0.000134958 6.41713 6.78857e-08 7.42868V41.5713C6.78857e-08 43.6995 0.872667 45.621 2.27611 47L17 33.0357V15.9643L2.27611 2Z" fill="#141414"/>
</g>
<defs>
<clipPath id="clip0_2085_43336">
<rect width="69" height="49" fill="white"/>
</clipPath>
</defs>
</svg>
