<svg width="69" height="49" viewBox="0 0 69 49" fill="none" xmlns="http://www.w3.org/2000/svg">
<g clip-path="url(#clip0_3032_33935)">
<path d="M61.32 0H21V49H61.32C63.3569 49 65.3103 48.2058 66.7506 46.792C68.1909 45.3783 69 43.4609 69 41.4615V7.53846C69 5.53914 68.1909 3.6217 66.7506 2.20796C65.3103 0.794228 63.3569 0 61.32 0Z" fill="#8D1B3D"/>
<path d="M20.9267 43.5553L31 40.834L20.9267 38.1107L31 35.3893L20.9267 32.666L31 29.9447L20.9267 27.2214L31 24.5L20.9267 21.7786L31 19.0572L20.9267 16.334L31 13.6126L20.9267 10.8893L31 8.16604L20.9267 5.44465L31 2.72327L20.9267 0H7.6097C5.59148 0 3.65592 0.794228 2.22883 2.20796C0.801734 3.6217 0 5.53914 0 7.53846L0 41.4615C0 43.4609 0.801734 45.3783 2.22883 46.792C3.65592 48.2058 5.59148 49 7.6097 49H20.9267L31 46.2786L20.9267 43.5553Z" fill="#EEEEEE"/>
</g>
<defs>
<clipPath id="clip0_3032_33935">
<rect width="69" height="49" fill="white"/>
</clipPath>
</defs>
</svg>
