<svg width="32" height="32" viewBox="0 0 32 32" fill="none" xmlns="http://www.w3.org/2000/svg">
<path d="M0 4C0 1.79086 1.79086 0 4 0H28C30.2091 0 32 1.79086 32 4V28C32 30.2091 30.2091 32 28 32H4C1.79086 32 0 30.2091 0 28V4Z" fill="#156AE1"/>
<path d="M20.7228 18.0602C20.4673 17.9289 19.1946 17.3055 18.9579 17.2211C18.7212 17.132 18.5478 17.0898 18.3767 17.3523C18.2032 17.6125 17.711 18.1914 17.5563 18.3672C17.4063 18.5406 17.254 18.5617 16.9985 18.4328C15.4798 17.6734 14.4837 17.0781 13.4829 15.3602C13.2181 14.9031 13.7478 14.9359 14.2423 13.9492C14.3267 13.7758 14.2845 13.6281 14.2188 13.4969C14.1532 13.3656 13.6376 12.0953 13.422 11.5773C13.2134 11.0734 12.9978 11.1437 12.8407 11.1344C12.6907 11.125 12.5196 11.125 12.3462 11.125C12.1728 11.125 11.8938 11.1906 11.6571 11.4461C11.4204 11.7063 10.7524 12.332 10.7524 13.6023C10.7524 14.8727 11.6782 16.1031 11.8048 16.2766C11.936 16.45 13.6259 19.0563 16.2204 20.1789C17.861 20.8867 18.5032 20.9477 19.3235 20.8258C19.8228 20.7508 20.8517 20.2023 21.0649 19.5953C21.2782 18.9906 21.2782 18.4727 21.2149 18.3648C21.1517 18.25 20.9782 18.1844 20.7228 18.0602Z" fill="white"/>
<path d="M25.6845 11.9312C25.1548 10.6727 24.3954 9.54297 23.4275 8.57266C22.4595 7.60469 21.3298 6.84297 20.0689 6.31563C18.7798 5.77422 17.4111 5.5 16.0001 5.5H15.9533C14.5329 5.50703 13.1572 5.78828 11.8634 6.34141C10.6142 6.87578 9.49388 7.63516 8.53529 8.60312C7.5767 9.57109 6.82435 10.6961 6.30404 11.95C5.76498 13.2484 5.4931 14.6289 5.50013 16.0492C5.50716 17.6758 5.89623 19.2906 6.62513 20.7344V24.2969C6.62513 24.8922 7.10795 25.375 7.70326 25.375H11.2681C12.7119 26.1039 14.3267 26.493 15.9533 26.5H16.0025C17.4064 26.5 18.7681 26.2281 20.0501 25.6961C21.304 25.1734 22.4314 24.4234 23.397 23.4648C24.365 22.5063 25.1267 21.3859 25.6587 20.1367C26.2119 18.843 26.4931 17.4672 26.5001 16.0469C26.5072 14.6195 26.2306 13.2344 25.6845 11.9312ZM22.1431 22.1969C20.5001 23.8234 18.3204 24.7188 16.0001 24.7188H15.9603C14.547 24.7117 13.1431 24.3602 11.9033 23.6992L11.7064 23.5938H8.40638V20.2938L8.30091 20.0969C7.63998 18.857 7.28841 17.4531 7.28138 16.0398C7.27201 13.7031 8.16498 11.5094 9.80326 9.85703C11.4392 8.20469 13.6259 7.29062 15.9626 7.28125H16.0025C17.1744 7.28125 18.3111 7.50859 19.3822 7.95859C20.4275 8.39687 21.365 9.02734 22.1712 9.83359C22.9751 10.6375 23.6079 11.5773 24.0462 12.6227C24.5009 13.7055 24.7283 14.8539 24.7236 16.0398C24.7095 18.3742 23.7931 20.5609 22.1431 22.1969Z" fill="white"/>
</svg>
