<svg width="32" height="32" viewBox="0 0 32 32" fill="none" xmlns="http://www.w3.org/2000/svg">
<path d="M0 4C0 1.79086 1.79086 0 4 0H28C30.2091 0 32 1.79086 32 4V28C32 30.2091 30.2091 32 28 32H4C1.79086 32 0 30.2091 0 28V4Z" fill="#156AE1"/>
<path d="M17 25H13V13H17V15C17.4211 14.4643 17.9555 14.0284 18.565 13.7236C19.1744 13.4188 19.8438 13.2526 20.525 13.237C21.7164 13.2436 22.8565 13.7224 23.6954 14.5684C24.5343 15.4144 25.0035 16.5586 25 17.75V25H21V18.25C20.9226 17.7096 20.6527 17.2153 20.2398 16.8581C19.8269 16.5009 19.2989 16.3048 18.753 16.306C18.5087 16.3137 18.2684 16.3707 18.0466 16.4736C17.8249 16.5765 17.6262 16.7231 17.4624 16.9046C17.2987 17.0862 17.1734 17.2989 17.0939 17.5301C17.0144 17.7613 16.9825 18.0062 17 18.25V25ZM11 25H7V13H11V25ZM9 11C8.46957 11 7.96086 10.7893 7.58579 10.4142C7.21071 10.0391 7 9.53043 7 9C7 8.46957 7.21071 7.96086 7.58579 7.58579C7.96086 7.21071 8.46957 7 9 7C9.53043 7 10.0391 7.21071 10.4142 7.58579C10.7893 7.96086 11 8.46957 11 9C11 9.53043 10.7893 10.0391 10.4142 10.4142C10.0391 10.7893 9.53043 11 9 11Z" fill="white"/>
</svg>
