<svg width="32" height="32" viewBox="0 0 32 32" fill="none" xmlns="http://www.w3.org/2000/svg">
<path d="M0 4C0 1.79086 1.79086 0 4 0H28C30.2091 0 32 1.79086 32 4V28C32 30.2091 30.2091 32 28 32H4C1.79086 32 0 30.2091 0 28V4Z" fill="#156AE1"/>
<path d="M21 6H11C8.23858 6 6 8.23858 6 11V21C6 23.7614 8.23858 26 11 26H21C23.7614 26 26 23.7614 26 21V11C26 8.23858 23.7614 6 21 6Z" stroke="white" stroke-width="2" stroke-linecap="round" stroke-linejoin="round"/>
<path d="M21.5002 10.5H21.5102M20.0002 15.37C20.1236 16.2022 19.9815 17.0522 19.594 17.799C19.2065 18.5458 18.5933 19.1514 17.8418 19.5297C17.0903 19.9079 16.2386 20.0396 15.408 19.9059C14.5773 19.7723 13.81 19.3801 13.215 18.7852C12.6201 18.1902 12.2279 17.4229 12.0943 16.5922C11.9606 15.7616 12.0923 14.9099 12.4705 14.1584C12.8488 13.4069 13.4544 12.7937 14.2012 12.4062C14.948 12.0187 15.7979 11.8766 16.6302 12C17.4791 12.1259 18.265 12.5215 18.8719 13.1283C19.4787 13.7351 19.8743 14.5211 20.0002 15.37Z" stroke="white" stroke-width="2" stroke-linecap="round" stroke-linejoin="round"/>
</svg>
