<svg width="42" height="42" viewBox="0 0 42 42" fill="none" xmlns="http://www.w3.org/2000/svg">
<circle cx="20.625" cy="20.625" r="20.625" fill="#156AE1"/>
<path d="M26.625 16.625C28.2819 16.625 29.625 15.2819 29.625 13.625C29.625 11.9681 28.2819 10.625 26.625 10.625C24.9681 10.625 23.625 11.9681 23.625 13.625C23.625 15.2819 24.9681 16.625 26.625 16.625Z" stroke="white" stroke-width="1.5" stroke-linecap="round" stroke-linejoin="round"/>
<path d="M14.625 23.625C16.2819 23.625 17.625 22.2819 17.625 20.625C17.625 18.9681 16.2819 17.625 14.625 17.625C12.9681 17.625 11.625 18.9681 11.625 20.625C11.625 22.2819 12.9681 23.625 14.625 23.625Z" stroke="white" stroke-width="1.5" stroke-linecap="round" stroke-linejoin="round"/>
<path d="M26.625 30.625C28.2819 30.625 29.625 29.2819 29.625 27.625C29.625 25.9681 28.2819 24.625 26.625 24.625C24.9681 24.625 23.625 25.9681 23.625 27.625C23.625 29.2819 24.9681 30.625 26.625 30.625Z" stroke="white" stroke-width="1.5" stroke-linecap="round" stroke-linejoin="round"/>
<path d="M17.2148 22.135L24.0448 26.115" stroke="white" stroke-width="1.5" stroke-linecap="round" stroke-linejoin="round"/>
<path d="M24.0348 15.135L17.2148 19.115" stroke="white" stroke-width="1.5" stroke-linecap="round" stroke-linejoin="round"/>
</svg>
