<svg width="42" height="42" viewBox="0 0 42 42" fill="none" xmlns="http://www.w3.org/2000/svg">
<circle cx="20.625" cy="20.625" r="20.625" fill="#156AE1"/>
<path d="M11.938 19.625H14.938C15.4684 19.625 15.9771 19.8357 16.3522 20.2108C16.7273 20.5859 16.938 21.0946 16.938 21.625V24.625C16.938 25.1554 16.7273 25.6641 16.3522 26.0392C15.9771 26.4143 15.4684 26.625 14.938 26.625H13.938C13.4076 26.625 12.8988 26.4143 12.5238 26.0392C12.1487 25.6641 11.938 25.1554 11.938 24.625V19.625ZM11.938 19.625C11.938 18.4431 12.1708 17.2728 12.6231 16.1808C13.0754 15.0889 13.7383 14.0968 14.574 13.261C15.4098 12.4253 16.4019 11.7624 17.4938 11.3101C18.5858 10.8578 19.7561 10.625 20.938 10.625C22.1199 10.625 23.2902 10.8578 24.3821 11.3101C25.4741 11.7624 26.4662 12.4253 27.3019 13.261C28.1377 14.0968 28.8006 15.0889 29.2529 16.1808C29.7052 17.2728 29.938 18.4431 29.938 19.625M29.938 19.625V24.625C29.938 25.1554 29.7273 25.6641 29.3522 26.0392C28.9771 26.4143 28.4684 26.625 27.938 26.625H26.938C26.4076 26.625 25.8988 26.4143 25.5238 26.0392C25.1487 25.6641 24.938 25.1554 24.938 24.625V21.625C24.938 21.0946 25.1487 20.5859 25.5238 20.2108C25.8988 19.8357 26.4076 19.625 26.938 19.625H29.938Z" stroke="white" stroke-width="1.5" stroke-linecap="round" stroke-linejoin="round"/>
<path d="M29.938 24.625V26.625C29.938 27.6859 29.5166 28.7033 28.7664 29.4534C28.0163 30.2036 26.9989 30.625 25.938 30.625H20.938" stroke="white" stroke-width="1.5" stroke-linecap="round" stroke-linejoin="round"/>
</svg>
