<svg width="42" height="42" viewBox="0 0 42 42" fill="none" xmlns="http://www.w3.org/2000/svg">
<circle cx="20.625" cy="20.625" r="20.625" fill="#156AE1"/>
<path d="M16.938 30.625C17.4903 30.625 17.938 30.1773 17.938 29.625C17.938 29.0727 17.4903 28.625 16.938 28.625C16.3857 28.625 15.938 29.0727 15.938 29.625C15.938 30.1773 16.3857 30.625 16.938 30.625Z" stroke="white" stroke-width="1.5" stroke-linecap="round" stroke-linejoin="round"/>
<path d="M27.938 30.625C28.4903 30.625 28.938 30.1773 28.938 29.625C28.938 29.0727 28.4903 28.625 27.938 28.625C27.3857 28.625 26.938 29.0727 26.938 29.625C26.938 30.1773 27.3857 30.625 27.938 30.625Z" stroke="white" stroke-width="1.5" stroke-linecap="round" stroke-linejoin="round"/>
<path d="M10.9878 10.675H12.9878L15.6478 23.095C15.7454 23.5499 15.9985 23.9565 16.3635 24.2449C16.7285 24.5333 17.1827 24.6854 17.6478 24.675H27.4278C27.883 24.6743 28.3243 24.5183 28.6788 24.2329C29.0334 23.9474 29.2799 23.5496 29.3778 23.105L31.0278 15.675H14.0578" stroke="white" stroke-width="1.5" stroke-linecap="round" stroke-linejoin="round"/>
</svg>
