<svg width="216" height="144" viewBox="0 0 216 144" fill="none" xmlns="http://www.w3.org/2000/svg">
<g filter="url(#filter0_d_2491_36003)">
<mask id="path-1-inside-1_2491_36003" fill="white">
<path d="M24 28C24 21.3726 29.3726 16 36 16L182 16C188.627 16 194 21.3726 194 28V100C194 106.627 188.627 112 182 112H36C29.3726 112 24 106.627 24 100V28Z"/>
</mask>
<path d="M24 28C24 21.3726 29.3726 16 36 16L182 16C188.627 16 194 21.3726 194 28V100C194 106.627 188.627 112 182 112H36C29.3726 112 24 106.627 24 100V28Z" fill="white"/>
<path d="M24 28C24 19.1634 31.1634 12 40 12L178 12C186.837 12 194 19.1634 194 28C194 23.5817 188.627 20 182 20H36C29.3726 20 24 23.5817 24 28ZM24 28M194 112H24H194M194 112M24 112V16V112M24 112M194 16V112V16" fill="#338C4D" mask="url(#path-1-inside-1_2491_36003)"/>
<path d="M80.2134 43C79.7841 43 79.4201 42.9627 79.1214 42.888C78.8228 42.804 78.5754 42.678 78.3794 42.51C78.1928 42.3327 78.0574 42.104 77.9734 41.824C77.8894 41.544 77.8474 41.208 77.8474 40.816V40.704L75.4814 41.11C75.5281 41.4367 75.5608 41.7213 75.5794 41.964C75.6074 42.1973 75.6214 42.4213 75.6214 42.636C75.6214 43.9147 75.2808 44.8527 74.5994 45.45C73.9181 46.0567 72.8448 46.36 71.3794 46.36C70.1568 46.36 69.2048 46.052 68.5234 45.436C67.8421 44.82 67.5014 43.9613 67.5014 42.86C67.5014 42.4307 67.5574 41.978 67.6694 41.502C67.7908 41.0167 67.9541 40.536 68.1594 40.06L69.0274 40.326C68.8501 40.69 68.7054 41.0727 68.5934 41.474C68.4814 41.866 68.4254 42.2393 68.4254 42.594C68.4254 43.3873 68.6494 44.0033 69.0974 44.442C69.5454 44.8807 70.1661 45.1 70.9594 45.1H71.7994C72.7888 45.1 73.5121 44.8993 73.9694 44.498C74.4361 44.106 74.6694 43.4853 74.6694 42.636C74.6694 42.4867 74.6648 42.3373 74.6554 42.188C74.6461 42.0387 74.6274 41.8753 74.5994 41.698C74.5808 41.5113 74.5481 41.306 74.5014 41.082C74.4641 40.858 74.4174 40.606 74.3614 40.326L74.1234 39.164L75.1034 38.968L75.2854 39.976L77.8474 39.542V38.394H78.8274V40.816C78.8274 41.1707 78.9254 41.4227 79.1214 41.572C79.3174 41.7213 79.6208 41.796 80.0314 41.796H80.5214V42.72L80.2414 43H80.2134ZM71.5894 38.632C71.4028 38.632 71.2534 38.5807 71.1414 38.478C71.0294 38.366 70.9734 38.1887 70.9734 37.946C70.9734 37.7033 71.0294 37.5307 71.1414 37.428C71.2534 37.316 71.4028 37.26 71.5894 37.26H71.7434C71.9301 37.26 72.0794 37.316 72.1914 37.428C72.3034 37.5307 72.3594 37.7033 72.3594 37.946C72.3594 38.1887 72.3034 38.366 72.1914 38.478C72.0794 38.5807 71.9301 38.632 71.7434 38.632H71.5894ZM79.1634 45.8C78.9768 45.8 78.8274 45.744 78.7154 45.632C78.6034 45.5293 78.5474 45.3567 78.5474 45.114C78.5474 44.8713 78.6034 44.694 78.7154 44.582C78.8274 44.4793 78.9768 44.428 79.1634 44.428H79.3174C79.5041 44.428 79.6534 44.4793 79.7654 44.582C79.8774 44.694 79.9334 44.8713 79.9334 45.114C79.9334 45.3567 79.8774 45.5293 79.7654 45.632C79.6534 45.744 79.5041 45.8 79.3174 45.8H79.1634ZM77.3574 45.8C77.1708 45.8 77.0214 45.744 76.9094 45.632C76.7974 45.5293 76.7414 45.3567 76.7414 45.114C76.7414 44.8713 76.7974 44.694 76.9094 44.582C77.0214 44.4793 77.1708 44.428 77.3574 44.428H77.5114C77.6981 44.428 77.8474 44.4793 77.9594 44.582C78.0714 44.694 78.1274 44.8713 78.1274 45.114C78.1274 45.3567 78.0714 45.5293 77.9594 45.632C77.8474 45.744 77.6981 45.8 77.5114 45.8H77.3574ZM80.0776 42.076L80.3576 41.796H82.3876L82.4156 41.74C81.9396 41.3667 81.5709 40.9653 81.3096 40.536C81.0483 40.0973 80.9176 39.5887 80.9176 39.01C80.9176 38.6367 80.9783 38.2867 81.0996 37.96C81.2209 37.6333 81.3936 37.3487 81.6176 37.106C81.8416 36.854 82.1076 36.658 82.4156 36.518C82.7329 36.3687 83.0783 36.294 83.4516 36.294C83.8249 36.294 84.1656 36.3687 84.4736 36.518C84.7909 36.658 85.0616 36.8493 85.2856 37.092C85.5096 37.3347 85.6823 37.624 85.8036 37.96C85.9249 38.2867 85.9856 38.6367 85.9856 39.01C85.9856 39.5887 85.8549 40.0973 85.5936 40.536C85.3323 40.9653 84.9636 41.3667 84.4876 41.74L84.5156 41.796H86.5456V42.72L86.2656 43H86.0696C85.5936 43 85.1363 42.9487 84.6976 42.846C84.2589 42.734 83.8436 42.5707 83.4516 42.356C83.0596 42.5707 82.6443 42.734 82.2056 42.846C81.7669 42.9487 81.3096 43 80.8336 43H80.0776V42.076ZM83.4516 41.376C83.9276 41.1147 84.3056 40.8067 84.5856 40.452C84.8656 40.088 85.0056 39.654 85.0056 39.15C85.0056 38.646 84.8703 38.2447 84.5996 37.946C84.3289 37.6473 83.9696 37.498 83.5216 37.498H83.3816C82.9336 37.498 82.5743 37.6473 82.3036 37.946C82.0329 38.2447 81.8976 38.646 81.8976 39.15C81.8976 39.654 82.0376 40.088 82.3176 40.452C82.5976 40.8067 82.9756 41.1147 83.4516 41.376ZM83.3676 34.614C83.1809 34.614 83.0316 34.5627 82.9196 34.46C82.8076 34.348 82.7516 34.1707 82.7516 33.928C82.7516 33.6853 82.8076 33.5127 82.9196 33.41C83.0316 33.298 83.1809 33.242 83.3676 33.242H83.5216C83.7083 33.242 83.8576 33.298 83.9696 33.41C84.0816 33.5127 84.1376 33.6853 84.1376 33.928C84.1376 34.1707 84.0816 34.348 83.9696 34.46C83.8576 34.5627 83.7083 34.614 83.5216 34.614H83.3676ZM88.505 39.402L88.575 39.43C88.883 39.0193 89.191 38.6787 89.499 38.408C89.807 38.128 90.1196 37.904 90.437 37.736C90.7636 37.568 91.0903 37.4467 91.417 37.372C91.753 37.2973 92.0983 37.26 92.453 37.26C93.3583 37.26 94.063 37.512 94.567 38.016C95.071 38.5107 95.323 39.1967 95.323 40.074C95.323 41.1287 95.057 41.88 94.525 42.328C93.993 42.776 93.209 43 92.173 43H86.111V42.076L86.391 41.796H87.119L87.637 40.914V32.64H88.673V37.764L88.505 39.402ZM92.173 41.796C92.873 41.796 93.4096 41.6793 93.783 41.446C94.1563 41.2127 94.343 40.802 94.343 40.214C94.343 39.6353 94.1936 39.2013 93.895 38.912C93.6056 38.6133 93.195 38.464 92.663 38.464H92.243C91.8696 38.464 91.529 38.5013 91.221 38.576C90.9223 38.6413 90.633 38.7627 90.353 38.94C90.0823 39.108 89.8116 39.346 89.541 39.654C89.2796 39.9527 88.9996 40.3307 88.701 40.788L88.099 41.726L88.141 41.796H92.173ZM91.949 35.58C91.7623 35.58 91.613 35.5287 91.501 35.426C91.389 35.314 91.333 35.1367 91.333 34.894C91.333 34.6513 91.389 34.4787 91.501 34.376C91.613 34.264 91.7623 34.208 91.949 34.208H92.103C92.2896 34.208 92.439 34.264 92.551 34.376C92.663 34.4787 92.719 34.6513 92.719 34.894C92.719 35.1367 92.663 35.314 92.551 35.426C92.439 35.5287 92.2896 35.58 92.103 35.58H91.949ZM96.2499 45.156H96.9919C98.0093 45.156 98.7933 44.9647 99.3439 44.582C99.9039 44.2087 100.249 43.6813 100.38 43H98.7419C97.9953 43 97.4166 42.804 97.0059 42.412C96.5953 42.02 96.3899 41.4693 96.3899 40.76C96.3899 40.34 96.4506 39.9433 96.5719 39.57C96.7026 39.1967 96.8799 38.8747 97.1039 38.604C97.3279 38.324 97.5939 38.1047 97.9019 37.946C98.2193 37.778 98.5646 37.694 98.9379 37.694C99.7126 37.694 100.319 38.0393 100.758 38.73C101.206 39.4207 101.43 40.3913 101.43 41.642V41.796H102.074V42.72L101.794 43H101.304C101.099 44.0733 100.637 44.8993 99.9179 45.478C99.2086 46.066 98.2333 46.36 96.9919 46.36H96.2499V45.156ZM97.3699 40.62C97.3699 41.0307 97.4773 41.3293 97.6919 41.516C97.9159 41.7027 98.2659 41.796 98.7419 41.796H100.45V41.362C100.45 40.606 100.305 40.0087 100.016 39.57C99.7359 39.122 99.3486 38.898 98.8539 38.898C98.3779 38.898 98.0093 39.0567 97.7479 39.374C97.4959 39.6913 97.3699 40.1067 97.3699 40.62ZM101.637 42.076L101.917 41.796C102.225 41.796 102.458 41.782 102.617 41.754C102.785 41.726 102.92 41.67 103.023 41.586C102.995 41.4833 102.976 41.3807 102.967 41.278C102.957 41.1753 102.953 41.0633 102.953 40.942C102.953 40.438 103.116 39.9807 103.443 39.57C103.779 39.15 104.283 38.7207 104.955 38.282L105.641 37.834H106.733L107.727 40.536C107.82 40.788 107.904 40.998 107.979 41.166C108.063 41.3247 108.151 41.4507 108.245 41.544C108.347 41.6373 108.455 41.7027 108.567 41.74C108.688 41.7773 108.828 41.796 108.987 41.796H109.253V42.72L108.973 43C108.534 43 108.184 42.9393 107.923 42.818C107.661 42.6873 107.428 42.4353 107.223 42.062L107.139 42.09V43H105.473C104.269 43 103.494 42.65 103.149 41.95H103.093C102.971 42.3047 102.803 42.5707 102.589 42.748C102.374 42.916 102.057 43 101.637 43V42.076ZM103.877 40.816C103.877 41.152 104.012 41.3993 104.283 41.558C104.553 41.7167 104.978 41.796 105.557 41.796H107.083C106.98 41.5813 106.868 41.306 106.747 40.97L105.963 38.856L105.431 39.178C105.011 39.43 104.647 39.6913 104.339 39.962C104.031 40.2327 103.877 40.5173 103.877 40.816ZM108.818 42.076L109.098 41.796H109.504C109.952 41.796 110.274 41.6933 110.47 41.488C110.676 41.2827 110.778 40.956 110.778 40.508V32.64H111.814V40.508C111.814 41.3667 111.628 41.9967 111.254 42.398C110.89 42.7993 110.307 43 109.504 43H108.818V42.076ZM113.748 32.64H114.784V43H113.748V32.64ZM124.67 43.168C123.69 43.168 122.864 43.1167 122.192 43.014C121.529 42.9113 120.992 42.748 120.582 42.524C120.171 42.3 119.872 42.006 119.686 41.642C119.508 41.2687 119.42 40.816 119.42 40.284C119.42 39.9107 119.466 39.528 119.56 39.136C119.662 38.744 119.816 38.31 120.022 37.834L120.89 38.1C120.507 38.8933 120.316 39.5747 120.316 40.144C120.316 40.7133 120.586 41.1333 121.128 41.404C121.669 41.6653 122.523 41.796 123.69 41.796H125.65C126.312 41.796 126.858 41.7773 127.288 41.74C127.717 41.7027 128.058 41.6373 128.31 41.544C128.562 41.4507 128.734 41.3247 128.828 41.166C128.93 40.998 128.982 40.788 128.982 40.536C128.982 40.3773 128.972 40.1813 128.954 39.948C128.935 39.7053 128.888 39.388 128.814 38.996L128.604 37.834L129.584 37.68L129.766 38.842C129.831 39.262 129.873 39.6073 129.892 39.878C129.92 40.1393 129.934 40.3587 129.934 40.536C129.934 41.0213 129.84 41.432 129.654 41.768C129.476 42.104 129.178 42.3747 128.758 42.58C128.347 42.7853 127.806 42.9347 127.134 43.028C126.471 43.1213 125.65 43.168 124.67 43.168ZM125.454 37.834C125.267 37.834 125.118 37.7827 125.006 37.68C124.894 37.568 124.838 37.3907 124.838 37.148C124.838 36.9053 124.894 36.7327 125.006 36.63C125.118 36.518 125.267 36.462 125.454 36.462H125.608C125.794 36.462 125.944 36.518 126.056 36.63C126.168 36.7327 126.224 36.9053 126.224 37.148C126.224 37.3907 126.168 37.568 126.056 37.68C125.944 37.7827 125.794 37.834 125.608 37.834H125.454ZM123.648 37.834C123.461 37.834 123.312 37.7827 123.2 37.68C123.088 37.568 123.032 37.3907 123.032 37.148C123.032 36.9053 123.088 36.7327 123.2 36.63C123.312 36.518 123.461 36.462 123.648 36.462H123.802C123.988 36.462 124.138 36.518 124.25 36.63C124.362 36.7327 124.418 36.9053 124.418 37.148C124.418 37.3907 124.362 37.568 124.25 37.68C124.138 37.7827 123.988 37.834 123.802 37.834H123.648ZM133.888 43C133.44 43 133.057 42.9627 132.74 42.888C132.432 42.8133 132.18 42.692 131.984 42.524C131.797 42.3467 131.662 42.118 131.578 41.838C131.494 41.558 131.452 41.2173 131.452 40.816V32.64H132.488V40.816C132.488 41.1707 132.586 41.4227 132.782 41.572C132.978 41.7213 133.281 41.796 133.692 41.796H134.182V42.72L133.902 43H133.888ZM133.735 42.076L134.015 41.796H136.045L136.073 41.74C135.597 41.3667 135.229 40.9653 134.967 40.536C134.706 40.0973 134.575 39.5887 134.575 39.01C134.575 38.6367 134.636 38.2867 134.757 37.96C134.879 37.6333 135.051 37.3487 135.275 37.106C135.499 36.854 135.765 36.658 136.073 36.518C136.391 36.3687 136.736 36.294 137.109 36.294C137.483 36.294 137.823 36.3687 138.131 36.518C138.449 36.658 138.719 36.8493 138.943 37.092C139.167 37.3347 139.34 37.624 139.461 37.96C139.583 38.2867 139.643 38.6367 139.643 39.01C139.643 39.5887 139.513 40.0973 139.251 40.536C138.99 40.9653 138.621 41.3667 138.145 41.74L138.173 41.796H140.203V42.72L139.923 43H139.727C139.251 43 138.794 42.9487 138.355 42.846C137.917 42.734 137.501 42.5707 137.109 42.356C136.717 42.5707 136.302 42.734 135.863 42.846C135.425 42.9487 134.967 43 134.491 43H133.735V42.076ZM137.109 41.376C137.585 41.1147 137.963 40.8067 138.243 40.452C138.523 40.088 138.663 39.654 138.663 39.15C138.663 38.646 138.528 38.2447 138.257 37.946C137.987 37.6473 137.627 37.498 137.179 37.498H137.039C136.591 37.498 136.232 37.6473 135.961 37.946C135.691 38.2447 135.555 38.646 135.555 39.15C135.555 39.654 135.695 40.088 135.975 40.452C136.255 40.8067 136.633 41.1147 137.109 41.376ZM137.025 34.614C136.839 34.614 136.689 34.5627 136.577 34.46C136.465 34.348 136.409 34.1707 136.409 33.928C136.409 33.6853 136.465 33.5127 136.577 33.41C136.689 33.298 136.839 33.242 137.025 33.242H137.179C137.366 33.242 137.515 33.298 137.627 33.41C137.739 33.5127 137.795 33.6853 137.795 33.928C137.795 34.1707 137.739 34.348 137.627 34.46C137.515 34.5627 137.366 34.614 137.179 34.614H137.025ZM139.769 42.076L140.049 41.796H140.539C141.332 41.796 141.729 41.3993 141.729 40.606V32.64H142.765V40.606C142.765 41.3993 143.161 41.796 143.955 41.796H144.445V42.72L144.165 43C142.839 43 142.065 42.5427 141.841 41.628H141.771C141.668 42.1413 141.467 42.5007 141.169 42.706C140.87 42.902 140.403 43 139.769 43V42.076ZM145.845 42.188C145.63 42.4773 145.378 42.6873 145.089 42.818C144.809 42.9393 144.45 43 144.011 43V42.076L144.291 41.796C144.468 41.796 144.618 41.7727 144.739 41.726C144.87 41.6793 144.982 41.6093 145.075 41.516C145.178 41.4133 145.266 41.2827 145.341 41.124C145.425 40.956 145.509 40.76 145.593 40.536L145.985 39.5C146.2 38.94 146.484 38.5107 146.839 38.212C147.194 37.904 147.665 37.75 148.253 37.75C148.944 37.75 149.476 38.0627 149.849 38.688C150.232 39.3133 150.423 40.1813 150.423 41.292V41.95L149.597 43.168L145.845 42.188ZM146.405 41.082L149.443 41.894V41.292C149.443 40.564 149.322 39.9947 149.079 39.584C148.846 39.164 148.514 38.954 148.085 38.954C147.73 38.954 147.455 39.0613 147.259 39.276C147.072 39.4907 146.914 39.7613 146.783 40.088L146.405 41.082Z" fill="#0D1530"/>
<rect x="32" y="69" width="93" height="22" rx="9" fill="#338C4D" fill-opacity="0.12"/>
<path d="M38.668 84C38.26 84 37.94 83.892 37.708 83.676C37.476 83.46 37.36 83.124 37.36 82.668V81.792H38.428V82.644H40.348C40.724 82.644 40.98 82.568 41.116 82.416C41.26 82.264 41.332 82.072 41.332 81.84C41.332 81.6 41.24 81.344 41.056 81.072C40.872 80.8 40.556 80.448 40.108 80.016L38.884 78.756L39.856 77.772L40.96 78.972C41.224 79.252 41.444 79.516 41.62 79.764C41.804 80.004 41.952 80.24 42.064 80.472C42.176 80.696 42.256 80.924 42.304 81.156C42.36 81.38 42.388 81.624 42.388 81.888C42.388 82.552 42.2 83.072 41.824 83.448C41.448 83.816 40.916 84 40.228 84H38.668ZM44.3839 84C43.9759 84 43.6559 83.892 43.4239 83.676C43.1919 83.46 43.0759 83.124 43.0759 82.668V81.792H44.1439V82.644H45.7759C46.1999 82.644 46.4919 82.608 46.6519 82.536C46.8119 82.464 46.8919 82.328 46.8919 82.128C46.8919 82.04 46.8719 81.932 46.8319 81.804C46.7919 81.668 46.7359 81.496 46.6639 81.288L45.5479 78.18L46.6879 77.772L47.9119 81.168C48.0159 81.464 48.1119 81.708 48.1999 81.9C48.2959 82.084 48.3919 82.232 48.4879 82.344C48.5839 82.456 48.6839 82.536 48.7879 82.584C48.8999 82.624 49.0279 82.644 49.1719 82.644H49.4959V83.712L49.1959 84C48.9319 84 48.6999 83.98 48.4999 83.94C48.2999 83.892 48.1199 83.82 47.9599 83.724C47.8079 83.62 47.6679 83.484 47.5399 83.316C47.4199 83.148 47.2999 82.936 47.1799 82.68L47.1199 82.692C47.0479 83.164 46.8879 83.5 46.6399 83.7C46.3919 83.9 46.0119 84 45.4999 84H44.3839ZM49.0931 82.932L49.3811 82.644H49.9691C50.3611 82.644 50.7211 82.636 51.0491 82.62C51.3771 82.604 51.6971 82.568 52.0091 82.512C52.3211 82.448 52.6411 82.36 52.9691 82.248C53.2971 82.128 53.6611 81.972 54.0611 81.78L54.8891 81.384V81.324L53.0411 80.928L50.8451 80.388V81.36H49.7771V80.436C49.7771 80.004 49.8811 79.684 50.0891 79.476C50.3051 79.26 50.6051 79.152 50.9891 79.152C51.0931 79.152 51.2131 79.164 51.3491 79.188C51.4931 79.212 51.7211 79.264 52.0331 79.344L54.6971 80.028C55.4651 80.228 56.1251 80.328 56.6771 80.328H56.8931V81.684H55.9571L54.5411 82.572C54.0291 82.892 53.5731 83.148 53.1731 83.34C52.7731 83.524 52.3971 83.668 52.0451 83.772C51.6931 83.868 51.3491 83.932 51.0131 83.964C50.6851 83.988 50.3371 84 49.9691 84H49.0931V82.932ZM53.0531 86.484C52.8691 86.484 52.7211 86.428 52.6091 86.316C52.5051 86.204 52.4531 86.032 52.4531 85.8C52.4531 85.56 52.5051 85.384 52.6091 85.272C52.7211 85.168 52.8691 85.116 53.0531 85.116H53.2331C53.4171 85.116 53.5651 85.168 53.6771 85.272C53.7891 85.384 53.8451 85.56 53.8451 85.8C53.8451 86.032 53.7891 86.204 53.6771 86.316C53.5651 86.428 53.4171 86.484 53.2331 86.484H53.0531ZM71.2788 84C70.5828 84 70.0708 83.864 69.7428 83.592C69.4228 83.312 69.2428 82.852 69.2028 82.212L67.3068 82.524C67.3228 82.692 67.3348 82.848 67.3428 82.992C67.3588 83.136 67.3668 83.272 67.3668 83.4C67.3668 84.592 67.0708 85.468 66.4788 86.028C65.8868 86.596 64.9548 86.88 63.6828 86.88C62.5628 86.88 61.6988 86.608 61.0908 86.064C60.4908 85.52 60.1908 84.752 60.1908 83.76C60.1908 83.4 60.2388 83.004 60.3348 82.572C60.4388 82.14 60.5788 81.716 60.7548 81.3L61.6668 81.576C61.5148 81.904 61.3908 82.24 61.2948 82.584C61.1988 82.928 61.1508 83.24 61.1508 83.52C61.1508 84.128 61.3388 84.596 61.7148 84.924C62.0908 85.26 62.6108 85.428 63.2748 85.428H64.1028C64.8788 85.428 65.4468 85.264 65.8068 84.936C66.1748 84.616 66.3588 84.104 66.3588 83.4C66.3588 83.176 66.3388 82.92 66.2988 82.632C66.2588 82.336 66.1988 81.996 66.1188 81.612L65.8908 80.568L66.9348 80.364L67.0908 81.24L69.1908 80.892V79.872H70.2348V81.78C70.2348 82.124 70.3188 82.356 70.4868 82.476C70.6548 82.588 70.9068 82.644 71.2428 82.644H71.6388V83.712L71.3508 84H71.2788ZM63.7308 80.34C63.5468 80.34 63.3988 80.284 63.2868 80.172C63.1828 80.06 63.1308 79.888 63.1308 79.656C63.1308 79.416 63.1828 79.244 63.2868 79.14C63.3988 79.028 63.5468 78.972 63.7308 78.972H63.9108C64.0948 78.972 64.2428 79.028 64.3548 79.14C64.4668 79.244 64.5228 79.416 64.5228 79.656C64.5228 79.888 64.4668 80.06 64.3548 80.172C64.2428 80.284 64.0948 80.34 63.9108 80.34H63.7308ZM70.4748 86.484C70.2908 86.484 70.1428 86.428 70.0308 86.316C69.9268 86.204 69.8748 86.032 69.8748 85.8C69.8748 85.56 69.9268 85.384 70.0308 85.272C70.1428 85.168 70.2908 85.116 70.4748 85.116H70.6548C70.8388 85.116 70.9868 85.168 71.0988 85.272C71.2108 85.384 71.2668 85.56 71.2668 85.8C71.2668 86.032 71.2108 86.204 71.0988 86.316C70.9868 86.428 70.8388 86.484 70.6548 86.484H70.4748ZM68.7828 86.484C68.5988 86.484 68.4508 86.428 68.3388 86.316C68.2348 86.204 68.1828 86.032 68.1828 85.8C68.1828 85.56 68.2348 85.384 68.3388 85.272C68.4508 85.168 68.5988 85.116 68.7828 85.116H68.9628C69.1468 85.116 69.2948 85.168 69.4068 85.272C69.5188 85.384 69.5748 85.56 69.5748 85.8C69.5748 86.032 69.5188 86.204 69.4068 86.316C69.2948 86.428 69.1468 86.484 68.9628 86.484H68.7828ZM71.2331 82.932L71.5211 82.644H73.0691L73.0931 82.584C72.3731 81.968 72.0131 81.244 72.0131 80.412C72.0131 80.076 72.0651 79.76 72.1691 79.464C72.2811 79.168 72.4371 78.908 72.6371 78.684C72.8371 78.46 73.0731 78.284 73.3451 78.156C73.6251 78.028 73.9331 77.964 74.2691 77.964C74.6051 77.964 74.9091 78.028 75.1811 78.156C75.4611 78.284 75.6971 78.46 75.8891 78.684C76.0891 78.9 76.2451 79.16 76.3571 79.464C76.4691 79.76 76.5251 80.076 76.5251 80.412C76.5251 81.236 76.1651 81.96 75.4451 82.584L75.4691 82.644H77.0291V83.712L76.7411 84H76.5971C76.1731 84 75.7651 83.952 75.3731 83.856C74.9891 83.752 74.6211 83.584 74.2691 83.352C73.9251 83.584 73.5571 83.752 73.1651 83.856C72.7731 83.952 72.3691 84 71.9531 84H71.2331V82.932ZM74.2691 82.368C74.6771 82.144 74.9931 81.888 75.2171 81.6C75.4411 81.312 75.5531 80.976 75.5531 80.592C75.5531 80.208 75.4371 79.9 75.2051 79.668C74.9811 79.436 74.6891 79.32 74.3291 79.32H74.1971C73.8371 79.32 73.5411 79.436 73.3091 79.668C73.0851 79.9 72.9731 80.208 72.9731 80.592C72.9731 80.976 73.0851 81.312 73.3091 81.6C73.5411 81.888 73.8611 82.144 74.2691 82.368ZM74.1731 76.74C73.9891 76.74 73.8411 76.684 73.7291 76.572C73.6251 76.46 73.5731 76.288 73.5731 76.056C73.5731 75.816 73.6251 75.644 73.7291 75.54C73.8411 75.428 73.9891 75.372 74.1731 75.372H74.3531C74.5371 75.372 74.6851 75.428 74.7971 75.54C74.9091 75.644 74.9651 75.816 74.9651 76.056C74.9651 76.288 74.9091 76.46 74.7971 76.572C74.6851 76.684 74.5371 76.74 74.3531 76.74H74.1731ZM78.8649 80.352L78.9249 80.388C79.3969 79.804 79.8849 79.396 80.3889 79.164C80.9009 78.924 81.4569 78.804 82.0569 78.804C82.9049 78.804 83.5529 79.04 84.0009 79.512C84.4489 79.976 84.6729 80.62 84.6729 81.444C84.6729 82.348 84.4329 83 83.9529 83.4C83.4729 83.8 82.7409 84 81.7569 84H76.6209V82.932L76.9089 82.644H77.4849L77.8809 81.984V75.12H79.0089V78.948L78.8649 80.352ZM81.7569 82.644C82.4289 82.644 82.9169 82.56 83.2209 82.392C83.5249 82.224 83.6769 81.916 83.6769 81.468C83.6769 80.604 83.1969 80.172 82.2369 80.172H81.8769C81.5409 80.172 81.2409 80.196 80.9769 80.244C80.7129 80.292 80.4649 80.376 80.2329 80.496C80.0089 80.616 79.7969 80.78 79.5969 80.988C79.3969 81.196 79.1889 81.46 78.9729 81.78L78.4569 82.572L78.4929 82.644H81.7569ZM81.6009 77.58C81.4169 77.58 81.2689 77.524 81.1569 77.412C81.0529 77.3 81.0009 77.128 81.0009 76.896C81.0009 76.656 81.0529 76.484 81.1569 76.38C81.2689 76.268 81.4169 76.212 81.6009 76.212H81.7809C81.9649 76.212 82.1129 76.268 82.2249 76.38C82.3369 76.484 82.3929 76.656 82.3929 76.896C82.3929 77.128 82.3369 77.3 82.2249 77.412C82.1129 77.524 81.9649 77.58 81.7809 77.58H81.6009ZM85.4112 85.524H86.1072C86.9472 85.524 87.6032 85.388 88.0752 85.116C88.5472 84.852 88.8592 84.48 89.0112 84H87.5712C86.9232 84 86.4192 83.824 86.0592 83.472C85.7072 83.12 85.5312 82.62 85.5312 81.972C85.5312 81.588 85.5872 81.228 85.6992 80.892C85.8192 80.556 85.9792 80.268 86.1792 80.028C86.3872 79.78 86.6312 79.584 86.9112 79.44C87.1912 79.296 87.4992 79.224 87.8352 79.224C88.5392 79.224 89.0872 79.524 89.4792 80.124C89.8792 80.724 90.0872 81.564 90.1032 82.644H90.6672V83.712L90.3792 84H89.9712C89.7712 84.92 89.3512 85.628 88.7112 86.124C88.0792 86.628 87.2272 86.88 86.1552 86.88H85.4112V85.524ZM86.5272 81.804C86.5272 82.1 86.6192 82.316 86.8032 82.452C86.9872 82.58 87.2592 82.644 87.6192 82.644H89.1072V82.416C89.1072 81.864 88.9792 81.424 88.7232 81.096C88.4672 80.76 88.1352 80.592 87.7272 80.592C87.3592 80.592 87.0672 80.704 86.8512 80.928C86.6352 81.152 86.5272 81.444 86.5272 81.804ZM91.8999 83.316C91.7159 83.564 91.4959 83.74 91.2399 83.844C90.9839 83.948 90.6559 84 90.2559 84V82.932L90.5439 82.644C90.8479 82.644 91.0679 82.58 91.2039 82.452C91.3479 82.316 91.4799 82.088 91.5999 81.768L91.9359 80.904C92.1279 80.408 92.3799 80.012 92.6919 79.716C93.0119 79.412 93.4399 79.26 93.9759 79.26C94.6319 79.26 95.1359 79.54 95.4879 80.1C95.8399 80.652 96.0159 81.428 96.0159 82.428V82.896L95.1159 84.216L91.8999 83.316ZM92.4639 82.056L94.9839 82.764V82.428C94.9839 81.86 94.8759 81.416 94.6599 81.096C94.4439 80.776 94.1439 80.616 93.7599 80.616C93.4799 80.616 93.2519 80.7 93.0759 80.868C92.9079 81.028 92.7679 81.252 92.6559 81.54L92.4639 82.056ZM102.237 79.068C102.757 79.068 103.141 78.96 103.389 78.744C103.637 78.52 103.761 78.236 103.761 77.892V77.808C103.761 77.424 103.641 77.132 103.401 76.932C103.161 76.724 102.837 76.62 102.429 76.62C102.029 76.62 101.689 76.712 101.409 76.896C101.129 77.072 100.893 77.32 100.701 77.64L99.801 76.86C99.929 76.676 100.073 76.5 100.233 76.332C100.393 76.164 100.581 76.02 100.797 75.9C101.013 75.772 101.257 75.672 101.529 75.6C101.801 75.52 102.113 75.48 102.465 75.48C102.857 75.48 103.221 75.528 103.557 75.624C103.893 75.72 104.181 75.864 104.421 76.056C104.661 76.24 104.849 76.468 104.985 76.74C105.121 77.004 105.189 77.304 105.189 77.64C105.189 77.904 105.145 78.144 105.057 78.36C104.977 78.576 104.861 78.768 104.709 78.936C104.565 79.096 104.393 79.228 104.193 79.332C104.001 79.436 103.797 79.512 103.581 79.56V79.62C103.821 79.668 104.045 79.748 104.253 79.86C104.469 79.964 104.657 80.104 104.817 80.28C104.977 80.448 105.101 80.652 105.189 80.892C105.285 81.124 105.333 81.392 105.333 81.696C105.333 82.064 105.261 82.4 105.117 82.704C104.973 83 104.769 83.256 104.505 83.472C104.249 83.688 103.937 83.856 103.569 83.976C103.201 84.088 102.793 84.144 102.345 84.144C101.953 84.144 101.609 84.1 101.313 84.012C101.017 83.932 100.753 83.824 100.521 83.688C100.297 83.544 100.097 83.384 99.921 83.208C99.753 83.024 99.605 82.836 99.477 82.644L100.473 81.864C100.577 82.032 100.685 82.188 100.797 82.332C100.917 82.468 101.049 82.588 101.193 82.692C101.345 82.788 101.513 82.864 101.697 82.92C101.889 82.976 102.105 83.004 102.345 83.004C102.857 83.004 103.249 82.884 103.521 82.644C103.793 82.396 103.929 82.056 103.929 81.624V81.54C103.929 81.108 103.785 80.78 103.497 80.556C103.209 80.332 102.801 80.22 102.273 80.22H101.385V79.068H102.237ZM116.66 78.132L115.916 78.876L115.016 77.964L114.536 77.4L114.488 77.412L114.56 78.492V84H113.468V78.492L113.528 77.412L113.48 77.4L113 77.964L112.1 78.876L111.356 78.132L114.008 75.48L116.66 78.132Z" fill="#338C4D"/>
<path d="M135.679 75.168C134.681 75.168 133.841 75.112 133.159 75C132.478 74.8973 131.927 74.7293 131.507 74.496C131.087 74.2533 130.784 73.9407 130.597 73.558C130.42 73.166 130.331 72.69 130.331 72.13C130.331 71.3833 130.523 70.548 130.905 69.624L131.983 69.946C131.806 70.3193 131.671 70.6647 131.577 70.982C131.484 71.29 131.437 71.5793 131.437 71.85C131.437 72.4007 131.694 72.802 132.207 73.054C132.73 73.2967 133.579 73.418 134.755 73.418H139.095L139.123 73.348C138.293 72.6293 137.877 71.7847 137.877 70.814C137.877 70.422 137.938 70.0533 138.059 69.708C138.19 69.3627 138.372 69.0593 138.605 68.798C138.839 68.5367 139.114 68.3313 139.431 68.182C139.749 68.0327 140.103 67.958 140.495 67.958C140.887 67.958 141.242 68.0327 141.559 68.182C141.886 68.3313 142.166 68.5367 142.399 68.798C142.633 69.05 142.81 69.3533 142.931 69.708C143.062 70.0533 143.127 70.422 143.127 70.814C143.127 71.7847 142.707 72.6293 141.867 73.348L141.895 73.418H143.729V74.664L143.379 75H143.211C142.726 75 142.255 74.944 141.797 74.832C141.34 74.7107 140.911 74.5147 140.509 74.244C140.304 74.384 140.061 74.5147 139.781 74.636C139.501 74.748 139.165 74.846 138.773 74.93C138.381 75.0047 137.929 75.0607 137.415 75.098C136.911 75.1447 136.333 75.168 135.679 75.168ZM140.495 73.096C140.971 72.8347 141.34 72.536 141.601 72.2C141.872 71.864 142.007 71.472 142.007 71.024C142.007 70.576 141.872 70.2167 141.601 69.946C141.34 69.6753 140.999 69.54 140.579 69.54H140.425C140.005 69.54 139.66 69.6753 139.389 69.946C139.128 70.2167 138.997 70.576 138.997 71.024C138.997 71.472 139.128 71.864 139.389 72.2C139.651 72.536 140.019 72.8347 140.495 73.096ZM140.397 66.516C140.183 66.516 140.01 66.4507 139.879 66.32C139.758 66.1893 139.697 65.9887 139.697 65.718C139.697 65.438 139.758 65.2373 139.879 65.116C140.01 64.9853 140.183 64.92 140.397 64.92H140.607C140.822 64.92 140.995 64.9853 141.125 65.116C141.256 65.2373 141.321 65.438 141.321 65.718C141.321 65.9887 141.256 66.1893 141.125 66.32C140.995 66.4507 140.822 66.516 140.607 66.516H140.397ZM145.852 70.744L145.922 70.786C146.472 70.1047 147.042 69.6287 147.63 69.358C148.227 69.078 148.876 68.938 149.576 68.938C150.565 68.938 151.321 69.2133 151.844 69.764C152.366 70.3053 152.628 71.0567 152.628 72.018C152.628 73.0727 152.348 73.8333 151.788 74.3C151.228 74.7667 150.374 75 149.226 75H143.234V73.754L143.57 73.418H144.242L144.704 72.648V64.64H146.02V69.106L145.852 70.744ZM149.226 73.418C150.01 73.418 150.579 73.32 150.934 73.124C151.288 72.928 151.466 72.5687 151.466 72.046C151.466 71.038 150.906 70.534 149.786 70.534H149.366C148.974 70.534 148.624 70.562 148.316 70.618C148.008 70.674 147.718 70.772 147.448 70.912C147.186 71.052 146.939 71.2433 146.706 71.486C146.472 71.7287 146.23 72.0367 145.978 72.41L145.376 73.334L145.418 73.418H149.226ZM149.044 67.51C148.829 67.51 148.656 67.4447 148.526 67.314C148.404 67.1833 148.344 66.9827 148.344 66.712C148.344 66.432 148.404 66.2313 148.526 66.11C148.656 65.9793 148.829 65.914 149.044 65.914H149.254C149.468 65.914 149.641 65.9793 149.772 66.11C149.902 66.2313 149.968 66.432 149.968 66.712C149.968 66.9827 149.902 67.1833 149.772 67.314C149.641 67.4447 149.468 67.51 149.254 67.51H149.044ZM153.469 76.778H154.281C155.261 76.778 156.026 76.6193 156.577 76.302C157.128 75.994 157.492 75.56 157.669 75H155.989C155.233 75 154.645 74.7947 154.225 74.384C153.814 73.9733 153.609 73.39 153.609 72.634C153.609 72.186 153.674 71.766 153.805 71.374C153.945 70.982 154.132 70.646 154.365 70.366C154.608 70.0767 154.892 69.848 155.219 69.68C155.546 69.512 155.905 69.428 156.297 69.428C157.118 69.428 157.758 69.778 158.215 70.478C158.682 71.178 158.924 72.158 158.943 73.418H159.601V74.664L159.265 75H158.789C158.556 76.0733 158.066 76.8993 157.319 77.478C156.582 78.066 155.588 78.36 154.337 78.36H153.469V76.778ZM154.771 72.438C154.771 72.7833 154.878 73.0353 155.093 73.194C155.308 73.3433 155.625 73.418 156.045 73.418H157.781V73.152C157.781 72.508 157.632 71.9947 157.333 71.612C157.034 71.22 156.647 71.024 156.171 71.024C155.742 71.024 155.401 71.1547 155.149 71.416C154.897 71.6773 154.771 72.018 154.771 72.438ZM161.019 74.202C160.804 74.4913 160.548 74.6967 160.249 74.818C159.95 74.9393 159.568 75 159.101 75V73.754L159.437 73.418C159.792 73.418 160.048 73.3433 160.207 73.194C160.375 73.0353 160.529 72.7693 160.669 72.396L161.061 71.388C161.285 70.8093 161.579 70.3473 161.943 70.002C162.316 69.6473 162.816 69.47 163.441 69.47C164.206 69.47 164.794 69.7967 165.205 70.45C165.616 71.094 165.821 71.9993 165.821 73.166V73.712L164.771 75.252L161.019 74.202ZM161.677 72.732L164.617 73.558V73.166C164.617 72.5033 164.491 71.9853 164.239 71.612C163.987 71.2387 163.637 71.052 163.189 71.052C162.862 71.052 162.596 71.15 162.391 71.346C162.195 71.5327 162.032 71.794 161.901 72.13L161.677 72.732ZM174.397 75V73.096H169.861V71.738L173.823 65.228H175.895V71.85H177.225V73.096H175.895V75H174.397ZM171.205 71.85H174.397V66.67H174.299L171.205 71.85ZM185.179 75H178.543V73.488L181.665 70.702C182.16 70.254 182.538 69.8293 182.799 69.428C183.07 69.0173 183.205 68.588 183.205 68.14V67.958C183.205 67.482 183.061 67.1087 182.771 66.838C182.491 66.5673 182.109 66.432 181.623 66.432C181.353 66.432 181.115 66.474 180.909 66.558C180.713 66.6327 180.541 66.74 180.391 66.88C180.242 67.02 180.116 67.1833 180.013 67.37C179.92 67.5567 179.845 67.7573 179.789 67.972L178.403 67.44C178.506 67.132 178.646 66.838 178.823 66.558C179.001 66.2687 179.225 66.012 179.495 65.788C179.766 65.564 180.083 65.3867 180.447 65.256C180.821 65.1253 181.255 65.06 181.749 65.06C182.244 65.06 182.687 65.1347 183.079 65.284C183.471 65.424 183.798 65.6247 184.059 65.886C184.33 66.138 184.535 66.4413 184.675 66.796C184.815 67.1507 184.885 67.538 184.885 67.958C184.885 68.35 184.825 68.714 184.703 69.05C184.582 69.386 184.414 69.7033 184.199 70.002C183.985 70.3007 183.733 70.5853 183.443 70.856C183.163 71.1267 182.865 71.402 182.547 71.682L180.251 73.656H185.179V75Z" fill="#0D1530"/>
<path d="M140.162 97.524H140.618C141.026 97.524 141.366 97.472 141.638 97.368C141.91 97.264 142.13 97.116 142.298 96.924C142.466 96.74 142.586 96.516 142.658 96.252C142.73 95.988 142.766 95.692 142.766 95.364C142.766 95.148 142.754 94.924 142.73 94.692C142.706 94.46 142.674 94.228 142.634 93.996L142.382 92.544L143.414 92.352L143.582 93.36C143.622 93.592 143.654 93.816 143.678 94.032C143.71 94.248 143.734 94.452 143.75 94.644H144.866V95.712L144.578 96H143.75C143.702 96.416 143.606 96.8 143.462 97.152C143.318 97.504 143.118 97.808 142.862 98.064C142.614 98.32 142.306 98.52 141.938 98.664C141.57 98.808 141.134 98.88 140.63 98.88H140.162V97.524ZM146.798 99.24C146.582 98.912 146.402 98.632 146.258 98.4C146.122 98.176 146.01 97.98 145.922 97.812C145.842 97.644 145.786 97.492 145.754 97.356C145.722 97.228 145.706 97.092 145.706 96.948C145.706 96.692 145.75 96.448 145.838 96.216C145.934 95.984 146.046 95.776 146.174 95.592L146.114 95.556C145.954 95.708 145.754 95.82 145.514 95.892C145.282 95.964 144.93 96 144.458 96V94.932L144.746 94.644H145.094C145.422 94.644 145.678 94.584 145.862 94.464C146.054 94.344 146.226 94.132 146.378 93.828L146.87 92.832L147.758 93.288L147.302 94.212C147.198 94.42 147.11 94.608 147.038 94.776C146.966 94.944 146.906 95.1 146.858 95.244C146.81 95.38 146.774 95.512 146.75 95.64C146.734 95.768 146.726 95.896 146.726 96.024C146.726 96.16 146.742 96.292 146.774 96.42C146.806 96.548 146.854 96.688 146.918 96.84C146.982 97 147.066 97.172 147.17 97.356C147.282 97.54 147.414 97.752 147.566 97.992L148.55 95.568C148.686 95.216 148.83 94.976 148.982 94.848C149.134 94.712 149.35 94.644 149.63 94.644H150.59V95.712L150.302 96H149.39L148.118 99.24H146.798ZM150.186 94.932L150.474 94.644H150.714C150.882 94.644 151.03 94.632 151.158 94.608C151.286 94.584 151.398 94.54 151.494 94.476C151.59 94.412 151.678 94.328 151.758 94.224C151.838 94.12 151.918 93.988 151.998 93.828L152.49 92.832L153.39 93.288L152.85 94.356L152.934 94.404C153.174 94.54 153.402 94.64 153.618 94.704C153.842 94.768 154.07 94.8 154.302 94.8C154.662 94.8 154.926 94.72 155.094 94.56C155.262 94.392 155.346 94.104 155.346 93.696V92.832H156.39V93.696C156.39 94.088 156.442 94.368 156.546 94.536C156.658 94.696 156.85 94.776 157.122 94.776H157.338C157.594 94.776 157.778 94.696 157.89 94.536C158.01 94.368 158.07 94.088 158.07 93.696V92.352H159.114V93.696C159.114 94.328 159.426 94.644 160.05 94.644H160.506V95.712L160.206 96C159.646 96 159.21 95.9 158.898 95.7C158.594 95.492 158.386 95.172 158.274 94.74H158.214C158.166 95.244 158.034 95.604 157.818 95.82C157.61 96.036 157.314 96.144 156.93 96.144C156.114 96.144 155.63 95.676 155.478 94.74H155.406C155.27 95.676 154.826 96.144 154.074 96.144C153.842 96.144 153.602 96.1 153.354 96.012C153.114 95.924 152.826 95.78 152.49 95.58L152.166 95.388C151.926 95.636 151.654 95.8 151.35 95.88C151.046 95.96 150.658 96 150.186 96V94.932ZM156.642 91.608C156.458 91.608 156.31 91.552 156.198 91.44C156.086 91.328 156.03 91.156 156.03 90.924C156.03 90.684 156.086 90.512 156.198 90.408C156.31 90.296 156.458 90.24 156.642 90.24H156.81C156.994 90.24 157.142 90.296 157.254 90.408C157.366 90.512 157.422 90.684 157.422 90.924C157.422 91.156 157.366 91.328 157.254 91.44C157.142 91.552 156.994 91.608 156.81 91.608H156.642ZM154.938 91.608C154.754 91.608 154.606 91.552 154.494 91.44C154.39 91.328 154.338 91.156 154.338 90.924C154.338 90.684 154.39 90.512 154.494 90.408C154.606 90.296 154.754 90.24 154.938 90.24H155.118C155.302 90.24 155.45 90.296 155.562 90.408C155.674 90.512 155.73 90.684 155.73 90.924C155.73 91.156 155.674 91.328 155.562 91.44C155.45 91.552 155.302 91.608 155.118 91.608H154.938ZM155.79 90.024C155.614 90.024 155.47 89.972 155.358 89.868C155.246 89.756 155.19 89.584 155.19 89.352C155.19 89.12 155.246 88.952 155.358 88.848C155.47 88.744 155.614 88.692 155.79 88.692H155.97C156.146 88.692 156.286 88.744 156.39 88.848C156.502 88.952 156.558 89.12 156.558 89.352C156.558 89.584 156.502 89.756 156.39 89.868C156.286 89.972 156.146 90.024 155.97 90.024H155.79ZM160.097 94.932L160.385 94.644H160.805C161.157 94.644 161.401 94.568 161.537 94.416C161.681 94.264 161.753 94.024 161.753 93.696V87.12H162.881V93.696C162.881 94.488 162.721 95.072 162.401 95.448C162.081 95.816 161.549 96 160.805 96H160.097V94.932ZM164.421 87.12H165.537V96H164.421V87.12ZM169.795 87.12H170.911V96H169.795V87.12ZM173.292 96C172.884 96 172.564 95.892 172.332 95.676C172.1 95.46 171.984 95.124 171.984 94.668V93.792H173.052V94.644H174.684C175.108 94.644 175.4 94.608 175.56 94.536C175.72 94.464 175.8 94.328 175.8 94.128C175.8 94.04 175.78 93.932 175.74 93.804C175.7 93.668 175.644 93.496 175.572 93.288L174.456 90.18L175.596 89.772L176.82 93.168C176.924 93.464 177.02 93.708 177.108 93.9C177.204 94.084 177.3 94.232 177.396 94.344C177.492 94.456 177.592 94.536 177.696 94.584C177.808 94.624 177.936 94.644 178.08 94.644H178.404V95.712L178.104 96C177.84 96 177.608 95.98 177.408 95.94C177.208 95.892 177.028 95.82 176.868 95.724C176.716 95.62 176.576 95.484 176.448 95.316C176.328 95.148 176.208 94.936 176.088 94.68L176.028 94.692C175.956 95.164 175.796 95.5 175.548 95.7C175.3 95.9 174.92 96 174.408 96H173.292ZM174.792 88.74C174.608 88.74 174.46 88.684 174.348 88.572C174.244 88.46 174.192 88.288 174.192 88.056C174.192 87.816 174.244 87.644 174.348 87.54C174.46 87.428 174.608 87.372 174.792 87.372H174.972C175.156 87.372 175.304 87.428 175.416 87.54C175.528 87.644 175.584 87.816 175.584 88.056C175.584 88.288 175.528 88.46 175.416 88.572C175.304 88.684 175.156 88.74 174.972 88.74H174.792ZM178.001 94.932L178.289 94.644H179.837L179.861 94.584C179.197 94.016 178.865 93.36 178.865 92.616C178.865 92.304 178.913 92.008 179.009 91.728C179.113 91.448 179.253 91.2 179.429 90.984C179.613 90.768 179.825 90.592 180.065 90.456C180.305 90.312 180.565 90.228 180.845 90.204L181.229 89.472L183.089 90.492C183.529 90.732 183.905 90.988 184.217 91.26C184.529 91.524 184.785 91.816 184.985 92.136C185.185 92.456 185.333 92.808 185.429 93.192C185.525 93.568 185.573 93.992 185.573 94.464V94.704L184.697 96H183.365C182.941 96 182.533 95.956 182.141 95.868C181.757 95.772 181.389 95.62 181.037 95.412C180.693 95.62 180.325 95.772 179.933 95.868C179.541 95.956 179.137 96 178.721 96H178.001V94.932ZM181.037 94.368C181.421 94.144 181.717 93.884 181.925 93.588C182.141 93.292 182.249 92.976 182.249 92.64C182.249 92.232 182.145 91.912 181.937 91.68C181.737 91.44 181.461 91.32 181.109 91.32H180.977C180.625 91.32 180.345 91.44 180.137 91.68C179.929 91.912 179.825 92.232 179.825 92.64C179.825 92.976 179.929 93.292 180.137 93.588C180.353 93.884 180.653 94.144 181.037 94.368ZM183.113 91.932C183.177 92.164 183.209 92.392 183.209 92.616C183.209 93.36 182.877 94.016 182.213 94.584L182.237 94.644H184.577V94.536C184.577 93.912 184.461 93.396 184.229 92.988C184.005 92.58 183.641 92.22 183.137 91.908L183.113 91.932Z" fill="#6B7280"/>
</g>
<defs>
<filter id="filter0_d_2491_36003" x="0" y="0" width="218" height="144" filterUnits="userSpaceOnUse" color-interpolation-filters="sRGB">
<feFlood flood-opacity="0" result="BackgroundImageFix"/>
<feColorMatrix in="SourceAlpha" type="matrix" values="0 0 0 0 0 0 0 0 0 0 0 0 0 0 0 0 0 0 127 0" result="hardAlpha"/>
<feOffset dy="8"/>
<feGaussianBlur stdDeviation="12"/>
<feColorMatrix type="matrix" values="0 0 0 0 0.05 0 0 0 0 0.12 0 0 0 0 0.3 0 0 0 0.1 0"/>
<feBlend mode="normal" in2="BackgroundImageFix" result="effect1_dropShadow_2491_36003"/>
<feBlend mode="normal" in="SourceGraphic" in2="effect1_dropShadow_2491_36003" result="shape"/>
</filter>
</defs>
</svg>
