<svg width="227" height="181" viewBox="0 0 227 181" fill="none" xmlns="http://www.w3.org/2000/svg">
<g filter="url(#filter0_d_2491_35989)">
<mask id="path-1-inside-1_2491_35989" fill="white">
<path d="M24 28C24 21.3726 29.3726 16 36 16L191 16C197.627 16 203 21.3726 203 28V137C203 143.627 197.627 149 191 149H36C29.3726 149 24 143.627 24 137V28Z"/>
</mask>
<path d="M24 28C24 21.3726 29.3726 16 36 16L191 16C197.627 16 203 21.3726 203 28V137C203 143.627 197.627 149 191 149H36C29.3726 149 24 143.627 24 137V28Z" fill="white"/>
<path d="M24 28C24 19.1634 31.1634 12 40 12L187 12C195.837 12 203 19.1634 203 28C203 23.5817 197.627 20 191 20L36 20C29.3726 20 24 23.5817 24 28ZM24 28M203 149H24H203M203 149M24 149L24 16L24 149M24 149M203 16V149V16" fill="#338C4D" mask="url(#path-1-inside-1_2491_35989)"/>
<path d="M82.4613 43.126C82.0693 43.126 81.7146 43.0653 81.3973 42.944C81.0893 42.8227 80.828 42.6593 80.6133 42.454C80.3986 42.2393 80.2353 41.992 80.1233 41.712C80.0113 41.4227 79.9553 41.11 79.9553 40.774C79.9553 40.2793 80.0766 39.794 80.3193 39.318C80.562 38.842 80.9306 38.3333 81.4253 37.792L81.9013 37.246H83.1613L83.5393 37.652C84.0713 38.2213 84.44 38.744 84.6453 39.22C84.86 39.696 84.9673 40.1673 84.9673 40.634C84.9673 40.9887 84.9113 41.32 84.7993 41.628C84.6873 41.9267 84.524 42.188 84.3093 42.412C84.0946 42.636 83.8286 42.8133 83.5113 42.944C83.2033 43.0653 82.8533 43.126 82.4613 43.126ZM82.6013 41.922C83.0026 41.922 83.334 41.8007 83.5953 41.558C83.8566 41.3153 83.9873 41.0073 83.9873 40.634C83.9873 40.3633 83.9126 40.0927 83.7633 39.822C83.614 39.542 83.3853 39.2387 83.0773 38.912L82.4473 38.24H82.3633L81.7893 38.912C81.5093 39.2387 81.2946 39.528 81.1453 39.78C81.0053 40.032 80.9353 40.2933 80.9353 40.564C80.9353 40.7507 80.968 40.928 81.0333 41.096C81.108 41.2547 81.206 41.3947 81.3273 41.516C81.4486 41.6373 81.5933 41.7353 81.7613 41.81C81.9386 41.8847 82.1253 41.922 82.3213 41.922H82.6013ZM83.3153 35.566C83.1286 35.566 82.9793 35.5147 82.8673 35.412C82.7553 35.3 82.6993 35.1227 82.6993 34.88C82.6993 34.6373 82.7553 34.4647 82.8673 34.362C82.9793 34.25 83.1286 34.194 83.3153 34.194H83.4693C83.656 34.194 83.8053 34.25 83.9173 34.362C84.0293 34.4647 84.0853 34.6373 84.0853 34.88C84.0853 35.1227 84.0293 35.3 83.9173 35.412C83.8053 35.5147 83.656 35.566 83.4693 35.566H83.3153ZM81.5093 35.566C81.3226 35.566 81.1733 35.5147 81.0613 35.412C80.9493 35.3 80.8933 35.1227 80.8933 34.88C80.8933 34.6373 80.9493 34.4647 81.0613 34.362C81.1733 34.25 81.3226 34.194 81.5093 34.194H81.6633C81.85 34.194 81.9993 34.25 82.1113 34.362C82.2233 34.4647 82.2793 34.6373 82.2793 34.88C82.2793 35.1227 82.2233 35.3 82.1113 35.412C81.9993 35.5147 81.85 35.566 81.6633 35.566H81.5093ZM84.6007 45.156H85.1187C85.632 45.156 86.052 45.0813 86.3787 44.932C86.7054 44.7827 86.962 44.582 87.1487 44.33C87.3354 44.0873 87.466 43.798 87.5407 43.462C87.6154 43.1353 87.6527 42.79 87.6527 42.426C87.6527 42.1553 87.6387 41.8753 87.6107 41.586C87.5827 41.2873 87.5454 41.0027 87.4987 40.732L87.2047 39.15L88.1847 38.954L88.3667 40.018C88.516 40.8767 88.5907 41.6887 88.5907 42.454C88.5907 42.9673 88.5347 43.4573 88.4227 43.924C88.3107 44.4 88.1194 44.8153 87.8487 45.17C87.5874 45.534 87.2327 45.8233 86.7847 46.038C86.346 46.2527 85.7907 46.36 85.1187 46.36H84.6007V45.156ZM87.3867 37.274C87.2 37.274 87.0507 37.2227 86.9387 37.12C86.8267 37.008 86.7707 36.8307 86.7707 36.588C86.7707 36.3453 86.8267 36.1727 86.9387 36.07C87.0507 35.958 87.2 35.902 87.3867 35.902H87.5407C87.7274 35.902 87.8767 35.958 87.9887 36.07C88.1007 36.1727 88.1567 36.3453 88.1567 36.588C88.1567 36.8307 88.1007 37.008 87.9887 37.12C87.8767 37.2227 87.7274 37.274 87.5407 37.274H87.3867ZM92.4718 43C92.0238 43 91.6411 42.9627 91.3238 42.888C91.0158 42.8133 90.7638 42.692 90.5678 42.524C90.3811 42.3467 90.2458 42.118 90.1618 41.838C90.0778 41.558 90.0358 41.2173 90.0358 40.816V32.64H91.0718V40.816C91.0718 41.1707 91.1698 41.4227 91.3658 41.572C91.5618 41.7213 91.8651 41.796 92.2758 41.796H92.7658V42.72L92.4858 43H92.4718ZM92.3192 42.076L92.5992 41.796H93.0752C93.4859 41.796 93.8639 41.782 94.2092 41.754C94.5639 41.726 94.9232 41.6747 95.2872 41.6C95.6512 41.516 96.0339 41.3993 96.4352 41.25C96.8459 41.1007 97.3079 40.9047 97.8212 40.662L99.1092 40.046V39.99L97.0372 39.528L94.1392 38.814V40.018H93.1592V38.94C93.1592 38.548 93.2666 38.254 93.4812 38.058C93.7052 37.8527 93.9852 37.75 94.3212 37.75C94.4239 37.75 94.5452 37.764 94.6852 37.792C94.8346 37.8107 95.0632 37.8573 95.3712 37.932L98.7872 38.814C99.3006 38.9447 99.7299 39.038 100.075 39.094C100.421 39.1407 100.719 39.164 100.971 39.164H101.195V40.368H100.103L98.1992 41.516C97.6206 41.8613 97.1072 42.1367 96.6592 42.342C96.2112 42.538 95.7912 42.6873 95.3992 42.79C95.0072 42.8833 94.6246 42.944 94.2512 42.972C93.8872 42.9907 93.4952 43 93.0752 43H92.3192V42.076ZM96.7852 45.8C96.5986 45.8 96.4492 45.744 96.3372 45.632C96.2252 45.5293 96.1692 45.3567 96.1692 45.114C96.1692 44.8713 96.2252 44.694 96.3372 44.582C96.4492 44.4793 96.5986 44.428 96.7852 44.428H96.9392C97.1259 44.428 97.2752 44.4793 97.3872 44.582C97.4992 44.694 97.5552 44.8713 97.5552 45.114C97.5552 45.3567 97.4992 45.5293 97.3872 45.632C97.2752 45.744 97.1259 45.8 96.9392 45.8H96.7852ZM102.25 41.852L104.882 39.29L101.284 35.202L102.04 34.544L105.61 38.59L105.68 38.52C105.867 38.3427 106.021 38.1747 106.142 38.016C106.264 37.8573 106.357 37.694 106.422 37.526C106.497 37.3487 106.548 37.162 106.576 36.966C106.604 36.7607 106.618 36.5227 106.618 36.252V32.64H107.654V36.252C107.654 36.588 107.636 36.882 107.598 37.134C107.561 37.386 107.496 37.6193 107.402 37.834C107.309 38.0487 107.178 38.2633 107.01 38.478C106.852 38.6833 106.646 38.912 106.394 39.164L106.254 39.304L107.108 40.27C107.416 40.6247 107.631 40.914 107.752 41.138C107.874 41.362 107.934 41.5813 107.934 41.796C107.934 42.104 107.822 42.384 107.598 42.636C107.384 42.8787 107.052 43 106.604 43H102.25V41.852ZM105.512 40.004L103.692 41.74L103.706 41.796H107.108L105.512 40.004ZM102.404 45.786H102.908L102.922 45.73C102.848 45.6367 102.787 45.5247 102.74 45.394C102.694 45.2727 102.67 45.1467 102.67 45.016C102.67 44.652 102.792 44.3487 103.034 44.106C103.277 43.8633 103.585 43.742 103.958 43.742C104.173 43.742 104.392 43.7933 104.616 43.896C104.84 44.008 105.008 44.1527 105.12 44.33L104.602 44.96C104.416 44.7453 104.201 44.638 103.958 44.638C103.79 44.638 103.65 44.68 103.538 44.764C103.426 44.8573 103.37 44.9693 103.37 45.1C103.37 45.296 103.459 45.45 103.636 45.562C103.814 45.674 104.061 45.73 104.378 45.73H105.274V46.626H102.404V45.786ZM109.448 32.64H110.484V43H109.448V32.64ZM120.37 43.168C119.39 43.168 118.564 43.1167 117.892 43.014C117.229 42.9113 116.692 42.748 116.282 42.524C115.871 42.3 115.572 42.006 115.386 41.642C115.208 41.2687 115.12 40.816 115.12 40.284C115.12 39.9107 115.166 39.528 115.26 39.136C115.362 38.744 115.516 38.31 115.722 37.834L116.59 38.1C116.207 38.8933 116.016 39.5747 116.016 40.144C116.016 40.7133 116.286 41.1333 116.828 41.404C117.369 41.6653 118.223 41.796 119.39 41.796H121.35C122.012 41.796 122.558 41.7773 122.988 41.74C123.417 41.7027 123.758 41.6373 124.01 41.544C124.262 41.4507 124.434 41.3247 124.528 41.166C124.63 40.998 124.682 40.788 124.682 40.536C124.682 40.3773 124.672 40.1813 124.654 39.948C124.635 39.7053 124.588 39.388 124.514 38.996L124.304 37.834L125.284 37.68L125.466 38.842C125.531 39.262 125.573 39.6073 125.592 39.878C125.62 40.1393 125.634 40.3587 125.634 40.536C125.634 41.0213 125.54 41.432 125.354 41.768C125.176 42.104 124.878 42.3747 124.458 42.58C124.047 42.7853 123.506 42.9347 122.834 43.028C122.171 43.1213 121.35 43.168 120.37 43.168ZM121.154 37.834C120.967 37.834 120.818 37.7827 120.706 37.68C120.594 37.568 120.538 37.3907 120.538 37.148C120.538 36.9053 120.594 36.7327 120.706 36.63C120.818 36.518 120.967 36.462 121.154 36.462H121.308C121.494 36.462 121.644 36.518 121.756 36.63C121.868 36.7327 121.924 36.9053 121.924 37.148C121.924 37.3907 121.868 37.568 121.756 37.68C121.644 37.7827 121.494 37.834 121.308 37.834H121.154ZM119.348 37.834C119.161 37.834 119.012 37.7827 118.9 37.68C118.788 37.568 118.732 37.3907 118.732 37.148C118.732 36.9053 118.788 36.7327 118.9 36.63C119.012 36.518 119.161 36.462 119.348 36.462H119.502C119.688 36.462 119.838 36.518 119.95 36.63C120.062 36.7327 120.118 36.9053 120.118 37.148C120.118 37.3907 120.062 37.568 119.95 37.68C119.838 37.7827 119.688 37.834 119.502 37.834H119.348ZM129.588 43C129.14 43 128.757 42.9627 128.44 42.888C128.132 42.8133 127.88 42.692 127.684 42.524C127.497 42.3467 127.362 42.118 127.278 41.838C127.194 41.558 127.152 41.2173 127.152 40.816V32.64H128.188V40.816C128.188 41.1707 128.286 41.4227 128.482 41.572C128.678 41.7213 128.981 41.796 129.392 41.796H129.882V42.72L129.602 43H129.588ZM129.435 42.076L129.715 41.796H130.205C130.999 41.796 131.395 41.3993 131.395 40.606V38.394H132.375V40.606C132.375 41.3993 132.772 41.796 133.565 41.796H134.055V42.72L133.775 43C132.487 43 131.731 42.5427 131.507 41.628H131.437C131.335 42.1413 131.134 42.5007 130.835 42.706C130.537 42.902 130.07 43 129.435 43V42.076ZM131.801 45.8C131.615 45.8 131.465 45.744 131.353 45.632C131.241 45.5293 131.185 45.3567 131.185 45.114C131.185 44.8713 131.241 44.694 131.353 44.582C131.465 44.4793 131.615 44.428 131.801 44.428H131.955C132.142 44.428 132.291 44.4793 132.403 44.582C132.515 44.694 132.571 44.8713 132.571 45.114C132.571 45.3567 132.515 45.5293 132.403 45.632C132.291 45.744 132.142 45.8 131.955 45.8H131.801ZM133.609 42.076L133.889 41.796H134.379C135.173 41.796 135.569 41.3993 135.569 40.606V32.64H136.605V40.606C136.605 41.3993 137.002 41.796 137.795 41.796H138.285V42.72L138.005 43C136.68 43 135.905 42.5427 135.681 41.628H135.611C135.509 42.1413 135.308 42.5007 135.009 42.706C134.711 42.902 134.244 43 133.609 43V42.076ZM140.246 39.402L140.316 39.43C140.624 39.0193 140.932 38.6787 141.24 38.408C141.548 38.128 141.86 37.904 142.178 37.736C142.504 37.568 142.831 37.4467 143.158 37.372C143.494 37.2973 143.839 37.26 144.194 37.26C145.099 37.26 145.804 37.512 146.308 38.016C146.812 38.5107 147.064 39.1967 147.064 40.074C147.064 41.1287 146.798 41.88 146.266 42.328C145.734 42.776 144.95 43 143.914 43H137.852V42.076L138.132 41.796H138.86L139.378 40.914V32.64H140.414V37.764L140.246 39.402ZM143.914 41.796C144.614 41.796 145.15 41.6793 145.524 41.446C145.897 41.2127 146.084 40.802 146.084 40.214C146.084 39.6353 145.934 39.2013 145.636 38.912C145.346 38.6133 144.936 38.464 144.404 38.464H143.984C143.61 38.464 143.27 38.5013 142.962 38.576C142.663 38.6413 142.374 38.7627 142.094 38.94C141.823 39.108 141.552 39.346 141.282 39.654C141.02 39.9527 140.74 40.3307 140.442 40.788L139.84 41.726L139.882 41.796H143.914Z" fill="#0D1530"/>
<rect x="32" y="78" width="102" height="22" rx="9" fill="#338C4D" fill-opacity="0.12"/>
<path d="M42.7 93C41.972 93 41.448 92.852 41.128 92.556C40.816 92.252 40.66 91.784 40.66 91.152V91.008H40.6C40.48 91.456 40.292 91.78 40.036 91.98C39.78 92.172 39.444 92.268 39.028 92.268C38.476 92.268 38.052 92.12 37.756 91.824C37.46 91.528 37.312 91.112 37.312 90.576C37.312 90.304 37.352 90.056 37.432 89.832C37.512 89.6 37.636 89.384 37.804 89.184C37.972 88.984 38.18 88.796 38.428 88.62C38.684 88.436 38.984 88.252 39.328 88.068L40.6 87.396V86.76H41.692V90.888C41.692 91.176 41.764 91.376 41.908 91.488C42.052 91.592 42.28 91.644 42.592 91.644H42.988V92.712L42.7 93ZM39.292 90.912C39.772 90.912 40.108 90.852 40.3 90.732C40.5 90.612 40.6 90.4 40.6 90.096V88.476L39.52 89.028C39.088 89.252 38.776 89.452 38.584 89.628C38.392 89.796 38.296 90.004 38.296 90.252C38.296 90.484 38.368 90.652 38.512 90.756C38.664 90.86 38.924 90.912 39.292 90.912ZM41.08 85.788C40.896 85.788 40.748 85.732 40.636 85.62C40.532 85.508 40.48 85.336 40.48 85.104C40.48 84.864 40.532 84.692 40.636 84.588C40.748 84.476 40.896 84.42 41.08 84.42H41.26C41.444 84.42 41.592 84.476 41.704 84.588C41.816 84.692 41.872 84.864 41.872 85.104C41.872 85.336 41.816 85.508 41.704 85.62C41.592 85.732 41.444 85.788 41.26 85.788H41.08ZM39.388 85.788C39.204 85.788 39.056 85.732 38.944 85.62C38.84 85.508 38.788 85.336 38.788 85.104C38.788 84.864 38.84 84.692 38.944 84.588C39.056 84.476 39.204 84.42 39.388 84.42H39.568C39.752 84.42 39.9 84.476 40.012 84.588C40.124 84.692 40.18 84.864 40.18 85.104C40.18 85.336 40.124 85.508 40.012 85.62C39.9 85.732 39.752 85.788 39.568 85.788H39.388ZM42.5803 91.932L42.8683 91.644H44.8123L44.8243 91.596L43.3603 89.784V88.392C43.7283 88.208 44.1243 88.068 44.5483 87.972C44.9723 87.868 45.3883 87.816 45.7963 87.816C46.6203 87.816 47.2363 87.972 47.6443 88.284C48.0603 88.596 48.2683 89.052 48.2683 89.652C48.2683 89.868 48.2443 90.056 48.1963 90.216C48.1483 90.376 48.0723 90.528 47.9683 90.672C47.8643 90.816 47.7283 90.964 47.5603 91.116C47.4003 91.26 47.2003 91.428 46.9603 91.62L46.9723 91.644H48.7603V92.712L48.4723 93H47.9683C47.6003 93 47.2323 92.956 46.8643 92.868C46.4963 92.772 46.1603 92.62 45.8563 92.412C45.5523 92.62 45.2243 92.772 44.8723 92.868C44.5283 92.956 44.1763 93 43.8163 93H42.5803V91.932ZM44.3083 89.436L45.9523 91.392L46.3363 91.068C46.6483 90.804 46.8843 90.596 47.0443 90.444C47.2043 90.292 47.2843 90.112 47.2843 89.904C47.2843 89.424 46.7843 89.184 45.7843 89.184C45.2963 89.184 44.8043 89.252 44.3083 89.388V89.436ZM48.3548 91.932L48.6428 91.644H49.2308C49.6228 91.644 49.9828 91.636 50.3108 91.62C50.6388 91.604 50.9588 91.568 51.2708 91.512C51.5828 91.448 51.9028 91.36 52.2308 91.248C52.5588 91.128 52.9228 90.972 53.3228 90.78L54.1508 90.384V90.324L52.3028 89.928L50.1068 89.388V90.36H49.0388V89.436C49.0388 89.004 49.1428 88.684 49.3508 88.476C49.5668 88.26 49.8668 88.152 50.2508 88.152C50.3548 88.152 50.4748 88.164 50.6108 88.188C50.7548 88.212 50.9828 88.264 51.2948 88.344L53.9588 89.028C54.7268 89.228 55.3868 89.328 55.9388 89.328H56.1548V90.684H55.2188L53.8028 91.572C53.2908 91.892 52.8348 92.148 52.4348 92.34C52.0348 92.524 51.6588 92.668 51.3068 92.772C50.9548 92.868 50.6108 92.932 50.2748 92.964C49.9468 92.988 49.5988 93 49.2308 93H48.3548V91.932ZM52.3148 95.484C52.1308 95.484 51.9828 95.428 51.8708 95.316C51.7668 95.204 51.7148 95.032 51.7148 94.8C51.7148 94.56 51.7668 94.384 51.8708 94.272C51.9828 94.168 52.1308 94.116 52.3148 94.116H52.4948C52.6788 94.116 52.8268 94.168 52.9388 94.272C53.0508 94.384 53.1068 94.56 53.1068 94.8C53.1068 95.032 53.0508 95.204 52.9388 95.316C52.8268 95.428 52.6788 95.484 52.4948 95.484H52.3148ZM57.1086 84.12H58.2246V93H57.1086V84.12ZM58.218 94.524H58.674C59.082 94.524 59.422 94.472 59.694 94.368C59.966 94.264 60.186 94.116 60.354 93.924C60.522 93.74 60.642 93.516 60.714 93.252C60.786 92.988 60.822 92.692 60.822 92.364C60.822 92.148 60.81 91.924 60.786 91.692C60.762 91.46 60.73 91.228 60.69 90.996L60.438 89.544L61.47 89.352L61.638 90.36C61.678 90.592 61.71 90.816 61.734 91.032C61.766 91.248 61.79 91.452 61.806 91.644H62.922V92.712L62.634 93H61.806C61.758 93.416 61.662 93.8 61.518 94.152C61.374 94.504 61.174 94.808 60.918 95.064C60.67 95.32 60.362 95.52 59.994 95.664C59.626 95.808 59.19 95.88 58.686 95.88H58.218V94.524ZM62.5143 91.932L62.8023 91.644C63.0503 91.644 63.2463 91.636 63.3903 91.62C63.5423 91.604 63.6743 91.568 63.7863 91.512C63.7623 91.384 63.7503 91.244 63.7503 91.092C63.7503 90.644 63.8903 90.232 64.1703 89.856C64.4583 89.48 64.8863 89.112 65.4543 88.752L66.1143 88.344H67.3263L68.2263 90.756C68.2903 90.932 68.3543 91.08 68.4183 91.2C68.4823 91.312 68.5503 91.4 68.6223 91.464C68.7023 91.528 68.7903 91.576 68.8863 91.608C68.9823 91.632 69.0983 91.644 69.2343 91.644H69.5223V92.712L69.2343 93C68.7943 93 68.4463 92.936 68.1903 92.808C67.9343 92.672 67.7103 92.44 67.5183 92.112L67.4463 92.124V93H65.9703C65.4343 93 64.9943 92.912 64.6503 92.736C64.3143 92.552 64.0703 92.292 63.9183 91.956H63.8463C63.7343 92.316 63.5743 92.58 63.3663 92.748C63.1583 92.916 62.8743 93 62.5143 93V91.932ZM64.6743 90.96C64.6743 91.2 64.7703 91.376 64.9623 91.488C65.1543 91.592 65.4303 91.644 65.7903 91.644H67.2903C67.2583 91.58 67.2303 91.512 67.2063 91.44C67.1823 91.368 67.1543 91.292 67.1223 91.212L66.4863 89.508L65.7663 89.868C65.4463 90.028 65.1823 90.2 64.9743 90.384C64.7743 90.56 64.6743 90.752 64.6743 90.96ZM69.1092 91.932L69.3972 91.644H69.7692C70.4332 91.644 70.7652 91.328 70.7652 90.696V84.12H71.8812V90.696C71.8812 91.328 72.1972 91.644 72.8292 91.644H73.2492V92.712L72.9612 93C72.3612 93 71.8892 92.892 71.5452 92.676C71.2092 92.452 70.9892 92.104 70.8852 91.632H70.8132C70.7172 92.128 70.5412 92.48 70.2852 92.688C70.0292 92.896 69.6372 93 69.1092 93V91.932ZM72.8447 91.932L73.1327 91.644H73.5527C73.9047 91.644 74.1487 91.568 74.2847 91.416C74.4287 91.264 74.5007 91.024 74.5007 90.696V84.12H75.6287V90.696C75.6287 91.488 75.4687 92.072 75.1487 92.448C74.8287 92.816 74.2967 93 73.5527 93H72.8447V91.932ZM84.7567 93C84.0287 93 83.5047 92.852 83.1847 92.556C82.8727 92.252 82.7167 91.784 82.7167 91.152V91.008H82.6567C82.5367 91.456 82.3487 91.78 82.0927 91.98C81.8367 92.172 81.5007 92.268 81.0847 92.268C80.5327 92.268 80.1087 92.12 79.8127 91.824C79.5167 91.528 79.3687 91.112 79.3687 90.576C79.3687 90.304 79.4087 90.056 79.4887 89.832C79.5687 89.6 79.6927 89.384 79.8607 89.184C80.0287 88.984 80.2367 88.796 80.4847 88.62C80.7407 88.436 81.0407 88.252 81.3847 88.068L82.6567 87.396V86.76H83.7487V90.888C83.7487 91.176 83.8207 91.376 83.9647 91.488C84.1087 91.592 84.3367 91.644 84.6487 91.644H85.0447V92.712L84.7567 93ZM81.3487 90.912C81.8287 90.912 82.1647 90.852 82.3567 90.732C82.5567 90.612 82.6567 90.4 82.6567 90.096V88.476L81.5767 89.028C81.1447 89.252 80.8327 89.452 80.6407 89.628C80.4487 89.796 80.3527 90.004 80.3527 90.252C80.3527 90.484 80.4247 90.652 80.5687 90.756C80.7207 90.86 80.9807 90.912 81.3487 90.912ZM83.1367 85.788C82.9527 85.788 82.8047 85.732 82.6927 85.62C82.5887 85.508 82.5367 85.336 82.5367 85.104C82.5367 84.864 82.5887 84.692 82.6927 84.588C82.8047 84.476 82.9527 84.42 83.1367 84.42H83.3167C83.5007 84.42 83.6487 84.476 83.7607 84.588C83.8727 84.692 83.9287 84.864 83.9287 85.104C83.9287 85.336 83.8727 85.508 83.7607 85.62C83.6487 85.732 83.5007 85.788 83.3167 85.788H83.1367ZM81.4447 85.788C81.2607 85.788 81.1127 85.732 81.0007 85.62C80.8967 85.508 80.8447 85.336 80.8447 85.104C80.8447 84.864 80.8967 84.692 81.0007 84.588C81.1127 84.476 81.2607 84.42 81.4447 84.42H81.6247C81.8087 84.42 81.9567 84.476 82.0687 84.588C82.1807 84.692 82.2367 84.864 82.2367 85.104C82.2367 85.336 82.1807 85.508 82.0687 85.62C81.9567 85.732 81.8087 85.788 81.6247 85.788H81.4447ZM84.637 91.932L84.925 91.644H86.473L86.497 91.584C85.777 90.968 85.417 90.244 85.417 89.412C85.417 89.076 85.469 88.76 85.573 88.464C85.685 88.168 85.841 87.908 86.041 87.684C86.241 87.46 86.477 87.284 86.749 87.156C87.029 87.028 87.337 86.964 87.673 86.964C88.009 86.964 88.313 87.028 88.585 87.156C88.865 87.284 89.101 87.46 89.293 87.684C89.493 87.9 89.649 88.16 89.761 88.464C89.873 88.76 89.929 89.076 89.929 89.412C89.929 90.236 89.569 90.96 88.849 91.584L88.873 91.644H90.433V92.712L90.145 93H90.001C89.577 93 89.169 92.952 88.777 92.856C88.393 92.752 88.025 92.584 87.673 92.352C87.329 92.584 86.961 92.752 86.569 92.856C86.177 92.952 85.773 93 85.357 93H84.637V91.932ZM87.673 91.368C88.081 91.144 88.397 90.888 88.621 90.6C88.845 90.312 88.957 89.976 88.957 89.592C88.957 89.208 88.841 88.9 88.609 88.668C88.385 88.436 88.093 88.32 87.733 88.32H87.601C87.241 88.32 86.945 88.436 86.713 88.668C86.489 88.9 86.377 89.208 86.377 89.592C86.377 89.976 86.489 90.312 86.713 90.6C86.945 90.888 87.265 91.144 87.673 91.368ZM88.405 85.74C88.221 85.74 88.073 85.684 87.961 85.572C87.857 85.46 87.805 85.288 87.805 85.056C87.805 84.816 87.857 84.644 87.961 84.54C88.073 84.428 88.221 84.372 88.405 84.372H88.585C88.769 84.372 88.917 84.428 89.029 84.54C89.141 84.644 89.197 84.816 89.197 85.056C89.197 85.288 89.141 85.46 89.029 85.572C88.917 85.684 88.769 85.74 88.585 85.74H88.405ZM86.713 85.74C86.529 85.74 86.381 85.684 86.269 85.572C86.165 85.46 86.113 85.288 86.113 85.056C86.113 84.816 86.165 84.644 86.269 84.54C86.381 84.428 86.529 84.372 86.713 84.372H86.893C87.077 84.372 87.225 84.428 87.337 84.54C87.449 84.644 87.505 84.816 87.505 85.056C87.505 85.288 87.449 85.46 87.337 85.572C87.225 85.684 87.077 85.74 86.893 85.74H86.713ZM90.0248 91.932L90.3128 91.644H90.6848C91.3488 91.644 91.6808 91.328 91.6808 90.696V84.12H92.7968V90.696C92.7968 91.328 93.1128 91.644 93.7448 91.644H94.1648V92.712L93.8768 93C93.2768 93 92.8048 92.892 92.4608 92.676C92.1248 92.452 91.9048 92.104 91.8008 91.632H91.7288C91.6328 92.128 91.4568 92.48 91.2008 92.688C90.9448 92.896 90.5528 93 90.0248 93V91.932ZM93.7603 91.932L94.0483 91.644H95.9923L96.0043 91.596L94.5403 89.784V88.392C94.9083 88.208 95.3043 88.068 95.7283 87.972C96.1523 87.868 96.5683 87.816 96.9763 87.816C97.8003 87.816 98.4163 87.972 98.8243 88.284C99.2403 88.596 99.4483 89.052 99.4483 89.652C99.4483 89.868 99.4243 90.056 99.3763 90.216C99.3283 90.376 99.2523 90.528 99.1483 90.672C99.0443 90.816 98.9083 90.964 98.7403 91.116C98.5803 91.26 98.3803 91.428 98.1403 91.62L98.1523 91.644H99.9403V92.712L99.6523 93H99.1483C98.7803 93 98.4123 92.956 98.0443 92.868C97.6763 92.772 97.3403 92.62 97.0363 92.412C96.7323 92.62 96.4043 92.772 96.0523 92.868C95.7083 92.956 95.3563 93 94.9963 93H93.7603V91.932ZM95.4883 89.436L97.1323 91.392L97.5163 91.068C97.8283 90.804 98.0643 90.596 98.2243 90.444C98.3843 90.292 98.4643 90.112 98.4643 89.904C98.4643 89.424 97.9643 89.184 96.9643 89.184C96.4763 89.184 95.9843 89.252 95.4883 89.388V89.436ZM101.179 92.316C100.995 92.564 100.775 92.74 100.519 92.844C100.263 92.948 99.9348 93 99.5348 93V91.932L99.8228 91.644C100.127 91.644 100.347 91.58 100.483 91.452C100.627 91.316 100.759 91.088 100.879 90.768L101.215 89.904C101.407 89.408 101.659 89.012 101.971 88.716C102.291 88.412 102.719 88.26 103.255 88.26C103.911 88.26 104.415 88.54 104.767 89.1C105.119 89.652 105.295 90.428 105.295 91.428V91.896L104.395 93.216L101.179 92.316ZM101.743 91.056L104.263 91.764V91.428C104.263 90.86 104.155 90.416 103.939 90.096C103.723 89.776 103.423 89.616 103.039 89.616C102.759 89.616 102.531 89.7 102.355 89.868C102.187 90.028 102.047 90.252 101.935 90.54L101.743 91.056ZM111.516 88.068C112.036 88.068 112.42 87.96 112.668 87.744C112.916 87.52 113.04 87.236 113.04 86.892V86.808C113.04 86.424 112.92 86.132 112.68 85.932C112.44 85.724 112.116 85.62 111.708 85.62C111.308 85.62 110.968 85.712 110.688 85.896C110.408 86.072 110.172 86.32 109.98 86.64L109.08 85.86C109.208 85.676 109.352 85.5 109.512 85.332C109.672 85.164 109.86 85.02 110.076 84.9C110.292 84.772 110.536 84.672 110.808 84.6C111.08 84.52 111.392 84.48 111.744 84.48C112.136 84.48 112.5 84.528 112.836 84.624C113.172 84.72 113.46 84.864 113.7 85.056C113.94 85.24 114.128 85.468 114.264 85.74C114.4 86.004 114.468 86.304 114.468 86.64C114.468 86.904 114.424 87.144 114.336 87.36C114.256 87.576 114.14 87.768 113.988 87.936C113.844 88.096 113.672 88.228 113.472 88.332C113.28 88.436 113.076 88.512 112.86 88.56V88.62C113.1 88.668 113.324 88.748 113.532 88.86C113.748 88.964 113.936 89.104 114.096 89.28C114.256 89.448 114.38 89.652 114.468 89.892C114.564 90.124 114.612 90.392 114.612 90.696C114.612 91.064 114.54 91.4 114.396 91.704C114.252 92 114.048 92.256 113.784 92.472C113.528 92.688 113.216 92.856 112.848 92.976C112.48 93.088 112.072 93.144 111.624 93.144C111.232 93.144 110.888 93.1 110.592 93.012C110.296 92.932 110.032 92.824 109.8 92.688C109.576 92.544 109.376 92.384 109.2 92.208C109.032 92.024 108.884 91.836 108.756 91.644L109.752 90.864C109.856 91.032 109.964 91.188 110.076 91.332C110.196 91.468 110.328 91.588 110.472 91.692C110.624 91.788 110.792 91.864 110.976 91.92C111.168 91.976 111.384 92.004 111.624 92.004C112.136 92.004 112.528 91.884 112.8 91.644C113.072 91.396 113.208 91.056 113.208 90.624V90.54C113.208 90.108 113.064 89.78 112.776 89.556C112.488 89.332 112.08 89.22 111.552 89.22H110.664V88.068H111.516ZM120.635 90.492L121.379 89.748L122.279 90.66L122.759 91.224L122.807 91.212L122.747 90.132V84.624H123.839V90.132L123.767 91.212L123.815 91.224L124.295 90.66L125.195 89.748L125.939 90.492L123.287 93.144L120.635 90.492Z" fill="#338C4D"/>
<path d="M155.685 75.168C154.686 75.168 153.846 75.112 153.165 75C152.484 74.8973 151.933 74.7293 151.513 74.496C151.093 74.2533 150.79 73.9407 150.603 73.558C150.426 73.166 150.337 72.69 150.337 72.13C150.337 71.3833 150.528 70.548 150.911 69.624L151.989 69.946C151.812 70.3193 151.676 70.6647 151.583 70.982C151.49 71.29 151.443 71.5793 151.443 71.85C151.443 72.4007 151.7 72.802 152.213 73.054C152.736 73.2967 153.585 73.418 154.761 73.418H156.721C157.365 73.418 157.897 73.404 158.317 73.376C158.746 73.3387 159.087 73.278 159.339 73.194C159.591 73.11 159.768 72.998 159.871 72.858C159.983 72.718 160.039 72.5407 160.039 72.326C160.039 72.1767 160.03 71.99 160.011 71.766C159.992 71.5327 159.946 71.2247 159.871 70.842L159.647 69.624L160.865 69.428L161.061 70.646C161.108 71.0007 161.145 71.3227 161.173 71.612C161.201 71.892 161.215 72.13 161.215 72.326C161.215 72.8767 161.126 73.334 160.949 73.698C160.772 74.062 160.468 74.3513 160.039 74.566C159.619 74.7807 159.054 74.9347 158.345 75.028C157.636 75.1213 156.749 75.168 155.685 75.168ZM156.581 69.876C156.366 69.876 156.194 69.8107 156.063 69.68C155.942 69.5493 155.881 69.3487 155.881 69.078C155.881 68.798 155.942 68.5973 156.063 68.476C156.194 68.3453 156.366 68.28 156.581 68.28H156.791C157.006 68.28 157.178 68.3453 157.309 68.476C157.44 68.5973 157.505 68.798 157.505 69.078C157.505 69.3487 157.44 69.5493 157.309 69.68C157.178 69.8107 157.006 69.876 156.791 69.876H156.581ZM154.607 69.876C154.392 69.876 154.22 69.8107 154.089 69.68C153.968 69.5493 153.907 69.3487 153.907 69.078C153.907 68.798 153.968 68.5973 154.089 68.476C154.22 68.3453 154.392 68.28 154.607 68.28H154.817C155.032 68.28 155.204 68.3453 155.335 68.476C155.466 68.5973 155.531 68.798 155.531 69.078C155.531 69.3487 155.466 69.5493 155.335 69.68C155.204 69.8107 155.032 69.876 154.817 69.876H154.607ZM165.149 75C164.234 75 163.576 74.8133 163.175 74.44C162.773 74.0573 162.573 73.4227 162.573 72.536V64.64H163.875V72.41C163.875 72.802 163.963 73.068 164.141 73.208C164.327 73.348 164.631 73.418 165.051 73.418H165.513V74.664L165.163 75H165.149ZM165.021 73.754L165.357 73.418H165.819C166.593 73.418 166.981 73.0493 166.981 72.312V70.184H168.199V72.312C168.199 73.0493 168.563 73.418 169.291 73.418H169.823V74.664L169.473 75C168.782 75 168.245 74.874 167.863 74.622C167.489 74.3607 167.242 73.9547 167.121 73.404H167.037C166.925 73.9827 166.715 74.3933 166.407 74.636C166.108 74.8787 165.646 75 165.021 75V73.754ZM167.471 77.898C167.256 77.898 167.083 77.8327 166.953 77.702C166.831 77.5713 166.771 77.3707 166.771 77.1C166.771 76.82 166.831 76.6147 166.953 76.484C167.083 76.3627 167.256 76.302 167.471 76.302H167.681C167.895 76.302 168.068 76.3627 168.199 76.484C168.329 76.6147 168.395 76.82 168.395 77.1C168.395 77.3707 168.329 77.5713 168.199 77.702C168.068 77.8327 167.895 77.898 167.681 77.898H167.471ZM169.331 73.754L169.667 73.418H170.101C170.876 73.418 171.263 73.0493 171.263 72.312V64.64H172.565V72.312C172.565 73.0493 172.934 73.418 173.671 73.418H174.161V74.664L173.825 75C173.125 75 172.575 74.874 172.173 74.622C171.781 74.3607 171.525 73.9547 171.403 73.404H171.319C171.207 73.9827 171.002 74.3933 170.703 74.636C170.405 74.8787 169.947 75 169.331 75V73.754ZM176.288 70.744L176.358 70.786C176.908 70.1047 177.478 69.6287 178.066 69.358C178.663 69.078 179.312 68.938 180.012 68.938C181.001 68.938 181.757 69.2133 182.28 69.764C182.802 70.3053 183.064 71.0567 183.064 72.018C183.064 73.0727 182.784 73.8333 182.224 74.3C181.664 74.7667 180.81 75 179.662 75H173.67V73.754L174.006 73.418H174.678L175.14 72.648V64.64H176.456V69.106L176.288 70.744ZM179.662 73.418C180.446 73.418 181.015 73.32 181.37 73.124C181.724 72.928 181.902 72.5687 181.902 72.046C181.902 71.038 181.342 70.534 180.222 70.534H179.802C179.41 70.534 179.06 70.562 178.752 70.618C178.444 70.674 178.154 70.772 177.884 70.912C177.622 71.052 177.375 71.2433 177.142 71.486C176.908 71.7287 176.666 72.0367 176.414 72.41L175.812 73.334L175.854 73.418H179.662ZM190.805 75.168C190.236 75.168 189.732 75.098 189.293 74.958C188.864 74.8087 188.5 74.608 188.201 74.356C187.912 74.104 187.688 73.8053 187.529 73.46C187.38 73.1147 187.305 72.7413 187.305 72.34C187.305 71.6867 187.483 71.164 187.837 70.772C188.201 70.3707 188.677 70.0907 189.265 69.932V69.82C188.761 69.6427 188.355 69.3627 188.047 68.98C187.749 68.5973 187.599 68.126 187.599 67.566C187.599 67.1927 187.669 66.852 187.809 66.544C187.959 66.236 188.169 65.9747 188.439 65.76C188.71 65.536 189.046 65.3633 189.447 65.242C189.849 65.1207 190.301 65.06 190.805 65.06C191.309 65.06 191.762 65.1207 192.163 65.242C192.565 65.3633 192.901 65.536 193.171 65.76C193.442 65.9747 193.647 66.236 193.787 66.544C193.937 66.852 194.011 67.1927 194.011 67.566C194.011 68.126 193.857 68.5973 193.549 68.98C193.251 69.3627 192.849 69.6427 192.345 69.82V69.932C192.933 70.0907 193.405 70.3707 193.759 70.772C194.123 71.164 194.305 71.6867 194.305 72.34C194.305 72.7413 194.226 73.1147 194.067 73.46C193.918 73.8053 193.694 74.104 193.395 74.356C193.106 74.608 192.742 74.8087 192.303 74.958C191.874 75.098 191.375 75.168 190.805 75.168ZM190.805 73.894C191.393 73.894 191.846 73.7587 192.163 73.488C192.49 73.2173 192.653 72.8393 192.653 72.354V72.074C192.653 71.5887 192.49 71.2107 192.163 70.94C191.846 70.6693 191.393 70.534 190.805 70.534C190.217 70.534 189.76 70.6693 189.433 70.94C189.116 71.2107 188.957 71.5887 188.957 72.074V72.354C188.957 72.8393 189.116 73.2173 189.433 73.488C189.76 73.7587 190.217 73.894 190.805 73.894ZM190.805 69.316C191.347 69.316 191.757 69.1993 192.037 68.966C192.327 68.7327 192.471 68.392 192.471 67.944V67.706C192.471 67.258 192.327 66.9173 192.037 66.684C191.757 66.4507 191.347 66.334 190.805 66.334C190.264 66.334 189.849 66.4507 189.559 66.684C189.279 66.9173 189.139 67.258 189.139 67.706V67.944C189.139 68.392 189.279 68.7327 189.559 68.966C189.849 69.1993 190.264 69.316 190.805 69.316Z" fill="#0D1530"/>
<path d="M149.162 97.524H149.618C150.026 97.524 150.366 97.472 150.638 97.368C150.91 97.264 151.13 97.116 151.298 96.924C151.466 96.74 151.586 96.516 151.658 96.252C151.73 95.988 151.766 95.692 151.766 95.364C151.766 95.148 151.754 94.924 151.73 94.692C151.706 94.46 151.674 94.228 151.634 93.996L151.382 92.544L152.414 92.352L152.582 93.36C152.622 93.592 152.654 93.816 152.678 94.032C152.71 94.248 152.734 94.452 152.75 94.644H153.866V95.712L153.578 96H152.75C152.702 96.416 152.606 96.8 152.462 97.152C152.318 97.504 152.118 97.808 151.862 98.064C151.614 98.32 151.306 98.52 150.938 98.664C150.57 98.808 150.134 98.88 149.63 98.88H149.162V97.524ZM155.798 99.24C155.582 98.912 155.402 98.632 155.258 98.4C155.122 98.176 155.01 97.98 154.922 97.812C154.842 97.644 154.786 97.492 154.754 97.356C154.722 97.228 154.706 97.092 154.706 96.948C154.706 96.692 154.75 96.448 154.838 96.216C154.934 95.984 155.046 95.776 155.174 95.592L155.114 95.556C154.954 95.708 154.754 95.82 154.514 95.892C154.282 95.964 153.93 96 153.458 96V94.932L153.746 94.644H154.094C154.422 94.644 154.678 94.584 154.862 94.464C155.054 94.344 155.226 94.132 155.378 93.828L155.87 92.832L156.758 93.288L156.302 94.212C156.198 94.42 156.11 94.608 156.038 94.776C155.966 94.944 155.906 95.1 155.858 95.244C155.81 95.38 155.774 95.512 155.75 95.64C155.734 95.768 155.726 95.896 155.726 96.024C155.726 96.16 155.742 96.292 155.774 96.42C155.806 96.548 155.854 96.688 155.918 96.84C155.982 97 156.066 97.172 156.17 97.356C156.282 97.54 156.414 97.752 156.566 97.992L157.55 95.568C157.686 95.216 157.83 94.976 157.982 94.848C158.134 94.712 158.35 94.644 158.63 94.644H159.59V95.712L159.302 96H158.39L157.118 99.24H155.798ZM159.186 94.932L159.474 94.644H159.714C159.882 94.644 160.03 94.632 160.158 94.608C160.286 94.584 160.398 94.54 160.494 94.476C160.59 94.412 160.678 94.328 160.758 94.224C160.838 94.12 160.918 93.988 160.998 93.828L161.49 92.832L162.39 93.288L161.85 94.356L161.934 94.404C162.174 94.54 162.402 94.64 162.618 94.704C162.842 94.768 163.07 94.8 163.302 94.8C163.662 94.8 163.926 94.72 164.094 94.56C164.262 94.392 164.346 94.104 164.346 93.696V92.832H165.39V93.696C165.39 94.088 165.442 94.368 165.546 94.536C165.658 94.696 165.85 94.776 166.122 94.776H166.338C166.594 94.776 166.778 94.696 166.89 94.536C167.01 94.368 167.07 94.088 167.07 93.696V92.352H168.114V93.696C168.114 94.328 168.426 94.644 169.05 94.644H169.506V95.712L169.206 96C168.646 96 168.21 95.9 167.898 95.7C167.594 95.492 167.386 95.172 167.274 94.74H167.214C167.166 95.244 167.034 95.604 166.818 95.82C166.61 96.036 166.314 96.144 165.93 96.144C165.114 96.144 164.63 95.676 164.478 94.74H164.406C164.27 95.676 163.826 96.144 163.074 96.144C162.842 96.144 162.602 96.1 162.354 96.012C162.114 95.924 161.826 95.78 161.49 95.58L161.166 95.388C160.926 95.636 160.654 95.8 160.35 95.88C160.046 95.96 159.658 96 159.186 96V94.932ZM165.642 91.608C165.458 91.608 165.31 91.552 165.198 91.44C165.086 91.328 165.03 91.156 165.03 90.924C165.03 90.684 165.086 90.512 165.198 90.408C165.31 90.296 165.458 90.24 165.642 90.24H165.81C165.994 90.24 166.142 90.296 166.254 90.408C166.366 90.512 166.422 90.684 166.422 90.924C166.422 91.156 166.366 91.328 166.254 91.44C166.142 91.552 165.994 91.608 165.81 91.608H165.642ZM163.938 91.608C163.754 91.608 163.606 91.552 163.494 91.44C163.39 91.328 163.338 91.156 163.338 90.924C163.338 90.684 163.39 90.512 163.494 90.408C163.606 90.296 163.754 90.24 163.938 90.24H164.118C164.302 90.24 164.45 90.296 164.562 90.408C164.674 90.512 164.73 90.684 164.73 90.924C164.73 91.156 164.674 91.328 164.562 91.44C164.45 91.552 164.302 91.608 164.118 91.608H163.938ZM164.79 90.024C164.614 90.024 164.47 89.972 164.358 89.868C164.246 89.756 164.19 89.584 164.19 89.352C164.19 89.12 164.246 88.952 164.358 88.848C164.47 88.744 164.614 88.692 164.79 88.692H164.97C165.146 88.692 165.286 88.744 165.39 88.848C165.502 88.952 165.558 89.12 165.558 89.352C165.558 89.584 165.502 89.756 165.39 89.868C165.286 89.972 165.146 90.024 164.97 90.024H164.79ZM169.097 94.932L169.385 94.644H169.805C170.157 94.644 170.401 94.568 170.537 94.416C170.681 94.264 170.753 94.024 170.753 93.696V87.12H171.881V93.696C171.881 94.488 171.721 95.072 171.401 95.448C171.081 95.816 170.549 96 169.805 96H169.097V94.932ZM173.421 87.12H174.537V96H173.421V87.12ZM178.795 87.12H179.911V96H178.795V87.12ZM182.292 96C181.884 96 181.564 95.892 181.332 95.676C181.1 95.46 180.984 95.124 180.984 94.668V93.792H182.052V94.644H183.684C184.108 94.644 184.4 94.608 184.56 94.536C184.72 94.464 184.8 94.328 184.8 94.128C184.8 94.04 184.78 93.932 184.74 93.804C184.7 93.668 184.644 93.496 184.572 93.288L183.456 90.18L184.596 89.772L185.82 93.168C185.924 93.464 186.02 93.708 186.108 93.9C186.204 94.084 186.3 94.232 186.396 94.344C186.492 94.456 186.592 94.536 186.696 94.584C186.808 94.624 186.936 94.644 187.08 94.644H187.404V95.712L187.104 96C186.84 96 186.608 95.98 186.408 95.94C186.208 95.892 186.028 95.82 185.868 95.724C185.716 95.62 185.576 95.484 185.448 95.316C185.328 95.148 185.208 94.936 185.088 94.68L185.028 94.692C184.956 95.164 184.796 95.5 184.548 95.7C184.3 95.9 183.92 96 183.408 96H182.292ZM183.792 88.74C183.608 88.74 183.46 88.684 183.348 88.572C183.244 88.46 183.192 88.288 183.192 88.056C183.192 87.816 183.244 87.644 183.348 87.54C183.46 87.428 183.608 87.372 183.792 87.372H183.972C184.156 87.372 184.304 87.428 184.416 87.54C184.528 87.644 184.584 87.816 184.584 88.056C184.584 88.288 184.528 88.46 184.416 88.572C184.304 88.684 184.156 88.74 183.972 88.74H183.792ZM187.001 94.932L187.289 94.644H188.837L188.861 94.584C188.197 94.016 187.865 93.36 187.865 92.616C187.865 92.304 187.913 92.008 188.009 91.728C188.113 91.448 188.253 91.2 188.429 90.984C188.613 90.768 188.825 90.592 189.065 90.456C189.305 90.312 189.565 90.228 189.845 90.204L190.229 89.472L192.089 90.492C192.529 90.732 192.905 90.988 193.217 91.26C193.529 91.524 193.785 91.816 193.985 92.136C194.185 92.456 194.333 92.808 194.429 93.192C194.525 93.568 194.573 93.992 194.573 94.464V94.704L193.697 96H192.365C191.941 96 191.533 95.956 191.141 95.868C190.757 95.772 190.389 95.62 190.037 95.412C189.693 95.62 189.325 95.772 188.933 95.868C188.541 95.956 188.137 96 187.721 96H187.001V94.932ZM190.037 94.368C190.421 94.144 190.717 93.884 190.925 93.588C191.141 93.292 191.249 92.976 191.249 92.64C191.249 92.232 191.145 91.912 190.937 91.68C190.737 91.44 190.461 91.32 190.109 91.32H189.977C189.625 91.32 189.345 91.44 189.137 91.68C188.929 91.912 188.825 92.232 188.825 92.64C188.825 92.976 188.929 93.292 189.137 93.588C189.353 93.884 189.653 94.144 190.037 94.368ZM192.113 91.932C192.177 92.164 192.209 92.392 192.209 92.616C192.209 93.36 191.877 94.016 191.213 94.584L191.237 94.644H193.577V94.536C193.577 93.912 193.461 93.396 193.229 92.988C193.005 92.58 192.641 92.22 192.137 91.908L192.113 91.932Z" fill="#6B7280"/>
<rect width="86" height="5" rx="2.5" transform="matrix(-1 0 0 1 195 112)" fill="#338C4D"/>
<rect width="144" height="5" rx="2.5" transform="matrix(-1 0 0 1 195 112)" fill="#338C4D" fill-opacity="0.15"/>
<path d="M155.698 133.252L156.01 131.572C156.786 131.572 157.462 131.552 158.038 131.512C158.614 131.464 159.09 131.396 159.466 131.308C159.85 131.212 160.134 131.088 160.318 130.936C160.51 130.784 160.606 130.6 160.606 130.384C160.606 130.096 160.558 129.752 160.462 129.352C160.366 128.944 160.242 128.532 160.09 128.116L161.662 127.66C161.766 127.932 161.866 128.232 161.962 128.56C162.058 128.88 162.134 129.204 162.19 129.532C162.254 129.852 162.286 130.152 162.286 130.432C162.286 130.928 162.178 131.356 161.962 131.716C161.746 132.068 161.386 132.36 160.882 132.592C160.386 132.816 159.714 132.98 158.866 133.084C158.018 133.196 156.962 133.252 155.698 133.252ZM155.686 133.252C154.822 133.252 154.09 133.184 153.49 133.048C152.898 132.92 152.414 132.736 152.038 132.496C151.67 132.248 151.402 131.96 151.234 131.632C151.066 131.304 150.982 130.944 150.982 130.552C150.982 130.296 151.002 130.04 151.042 129.784C151.09 129.52 151.146 129.264 151.21 129.016C151.282 128.768 151.346 128.544 151.402 128.344L152.902 128.692C152.87 128.836 152.834 128.992 152.794 129.16C152.754 129.328 152.722 129.492 152.698 129.652C152.674 129.804 152.662 129.944 152.662 130.072C152.662 130.368 152.766 130.632 152.974 130.864C153.19 131.088 153.542 131.264 154.03 131.392C154.518 131.512 155.174 131.572 155.998 131.572L156.238 132.868L155.686 133.252ZM157.666 127.768C157.434 127.768 157.234 127.688 157.066 127.528C156.906 127.36 156.826 127.164 156.826 126.94C156.826 126.708 156.906 126.508 157.066 126.34C157.234 126.172 157.434 126.088 157.666 126.088C157.89 126.088 158.082 126.172 158.242 126.34C158.402 126.508 158.482 126.708 158.482 126.94C158.482 127.164 158.402 127.36 158.242 127.528C158.082 127.688 157.89 127.768 157.666 127.768ZM155.59 127.756C155.358 127.756 155.158 127.676 154.99 127.516C154.83 127.348 154.75 127.152 154.75 126.928C154.75 126.696 154.83 126.496 154.99 126.328C155.158 126.16 155.358 126.076 155.59 126.076C155.814 126.076 156.006 126.16 156.166 126.328C156.326 126.496 156.406 126.696 156.406 126.928C156.406 127.152 156.326 127.348 156.166 127.516C156.006 127.676 155.814 127.756 155.59 127.756ZM166.695 133.06C165.951 133.06 165.375 132.984 164.967 132.832C164.567 132.68 164.287 132.444 164.127 132.124C163.967 131.796 163.875 131.384 163.851 130.888L163.599 124.216H165.279L165.531 130.084C165.547 130.452 165.587 130.728 165.651 130.912C165.715 131.096 165.835 131.22 166.011 131.284C166.195 131.348 166.463 131.38 166.815 131.38C167.119 131.38 167.335 131.46 167.463 131.62C167.599 131.772 167.667 131.964 167.667 132.196C167.667 132.444 167.583 132.652 167.415 132.82C167.247 132.98 167.007 133.06 166.695 133.06ZM166.711 133.06L166.831 131.38C167.135 131.38 167.375 131.352 167.551 131.296C167.735 131.24 167.879 131.128 167.983 130.96C168.095 130.784 168.187 130.528 168.259 130.192C168.339 129.856 168.419 129.408 168.499 128.848L170.071 129.112C170.055 129.232 170.031 129.372 169.999 129.532C169.975 129.692 169.951 129.856 169.927 130.024C169.911 130.184 169.903 130.336 169.903 130.48C169.903 130.672 169.943 130.836 170.023 130.972C170.111 131.1 170.263 131.2 170.479 131.272C170.703 131.344 171.023 131.38 171.439 131.38C171.743 131.38 171.959 131.46 172.087 131.62C172.215 131.772 172.279 131.964 172.279 132.196C172.279 132.444 172.195 132.652 172.027 132.82C171.867 132.98 171.631 133.06 171.319 133.06C170.767 133.06 170.319 133.008 169.975 132.904C169.631 132.8 169.375 132.624 169.207 132.376C169.039 132.128 168.931 131.788 168.883 131.356H169.459C169.315 131.74 169.147 132.048 168.955 132.28C168.763 132.504 168.547 132.672 168.307 132.784C168.067 132.896 167.811 132.968 167.539 133C167.275 133.04 166.999 133.06 166.711 133.06ZM168.847 135.82C168.615 135.82 168.415 135.74 168.247 135.58C168.087 135.42 168.007 135.224 168.007 134.992C168.007 134.76 168.087 134.556 168.247 134.38C168.415 134.212 168.615 134.128 168.847 134.128C169.079 134.128 169.275 134.212 169.435 134.38C169.603 134.556 169.687 134.76 169.687 134.992C169.687 135.224 169.603 135.42 169.435 135.58C169.275 135.74 169.079 135.82 168.847 135.82ZM171.316 133.06L171.436 131.38C171.812 131.38 172.076 131.344 172.228 131.272C172.388 131.192 172.484 131.048 172.516 130.84C172.548 130.624 172.556 130.312 172.54 129.904L172.348 124.216H174.052L174.256 129.892C174.272 130.292 174.32 130.6 174.4 130.816C174.48 131.032 174.612 131.18 174.796 131.26C174.988 131.34 175.244 131.38 175.564 131.38C175.868 131.38 176.084 131.46 176.212 131.62C176.34 131.772 176.404 131.964 176.404 132.196C176.404 132.444 176.32 132.652 176.152 132.82C175.984 132.98 175.748 133.06 175.444 133.06C175.092 133.06 174.764 133.02 174.46 132.94C174.156 132.86 173.904 132.708 173.704 132.484C173.504 132.26 173.372 131.936 173.308 131.512L173.836 131.524C173.7 131.94 173.524 132.26 173.308 132.484C173.092 132.7 172.82 132.852 172.492 132.94C172.172 133.02 171.78 133.06 171.316 133.06ZM175.441 133.06L175.561 131.38H178.249C179.001 131.38 179.625 131.352 180.121 131.296C180.625 131.24 181.025 131.16 181.321 131.056C181.617 130.944 181.825 130.816 181.945 130.672C182.073 130.528 182.137 130.372 182.137 130.204C182.137 130.052 182.101 129.908 182.029 129.772C181.957 129.628 181.849 129.512 181.705 129.424C181.561 129.336 181.373 129.292 181.141 129.292C180.845 129.292 180.549 129.364 180.253 129.508C179.957 129.644 179.669 129.832 179.389 130.072C179.109 130.304 178.841 130.564 178.585 130.852C178.337 131.14 178.109 131.432 177.901 131.728L176.089 131.476C176.425 130.956 176.789 130.464 177.181 130C177.581 129.528 178.001 129.116 178.441 128.764C178.889 128.404 179.349 128.124 179.821 127.924C180.301 127.716 180.789 127.612 181.285 127.612C181.813 127.612 182.265 127.72 182.641 127.936C183.017 128.152 183.305 128.448 183.505 128.824C183.713 129.2 183.817 129.636 183.817 130.132C183.817 130.652 183.669 131.12 183.373 131.536C183.085 131.952 182.593 132.296 181.897 132.568C181.601 132.68 181.281 132.772 180.937 132.844C180.593 132.916 180.189 132.968 179.725 133C179.261 133.04 178.705 133.06 178.057 133.06H175.441ZM176.689 131.836L176.437 124.216H178.117L178.333 129.976L176.689 131.836ZM191.029 133.119C190.373 133.119 189.789 133.013 189.278 132.8C188.77 132.584 188.37 132.29 188.081 131.918C187.791 131.545 187.646 131.124 187.646 130.652C187.646 130.288 187.728 129.955 187.893 129.651C188.061 129.344 188.288 129.089 188.575 128.888C188.862 128.683 189.183 128.553 189.538 128.496V128.436C189.072 128.342 188.694 128.116 188.404 127.759C188.115 127.398 187.97 126.979 187.97 126.501C187.97 126.05 188.102 125.648 188.366 125.295C188.63 124.94 188.993 124.662 189.453 124.46C189.916 124.256 190.441 124.153 191.029 124.153C191.618 124.153 192.142 124.256 192.602 124.46C193.065 124.665 193.429 124.945 193.693 125.3C193.957 125.652 194.091 126.053 194.093 126.501C194.091 126.982 193.943 127.401 193.65 127.759C193.358 128.116 192.983 128.342 192.525 128.436V128.496C192.875 128.553 193.191 128.683 193.476 128.888C193.762 129.089 193.99 129.344 194.157 129.651C194.328 129.955 194.414 130.288 194.417 130.652C194.414 131.124 194.268 131.545 193.978 131.918C193.689 132.29 193.288 132.584 192.777 132.8C192.268 133.013 191.686 133.119 191.029 133.119ZM191.029 131.764C191.322 131.764 191.578 131.712 191.797 131.607C192.015 131.499 192.186 131.351 192.308 131.163C192.433 130.973 192.495 130.754 192.495 130.507C192.495 130.254 192.431 130.031 192.304 129.838C192.176 129.642 192.002 129.489 191.784 129.378C191.565 129.264 191.314 129.207 191.029 129.207C190.748 129.207 190.497 129.264 190.275 129.378C190.054 129.489 189.879 129.642 189.751 129.838C189.626 130.031 189.564 130.254 189.564 130.507C189.564 130.754 189.625 130.973 189.747 131.163C189.869 131.351 190.041 131.499 190.262 131.607C190.484 131.712 190.74 131.764 191.029 131.764ZM191.029 127.865C191.274 127.865 191.491 127.815 191.681 127.716C191.872 127.616 192.021 127.479 192.129 127.303C192.237 127.126 192.291 126.923 192.291 126.693C192.291 126.466 192.237 126.267 192.129 126.097C192.021 125.923 191.873 125.788 191.686 125.692C191.498 125.592 191.279 125.543 191.029 125.543C190.782 125.543 190.564 125.592 190.373 125.692C190.183 125.788 190.034 125.923 189.926 126.097C189.821 126.267 189.768 126.466 189.768 126.693C189.768 126.923 189.822 127.126 189.93 127.303C190.038 127.479 190.187 127.616 190.377 127.716C190.568 127.815 190.785 127.865 191.029 127.865Z" fill="#338C4D"/>
</g>
<defs>
<filter id="filter0_d_2491_35989" x="0" y="0" width="227" height="181" filterUnits="userSpaceOnUse" color-interpolation-filters="sRGB">
<feFlood flood-opacity="0" result="BackgroundImageFix"/>
<feColorMatrix in="SourceAlpha" type="matrix" values="0 0 0 0 0 0 0 0 0 0 0 0 0 0 0 0 0 0 127 0" result="hardAlpha"/>
<feOffset dy="8"/>
<feGaussianBlur stdDeviation="12"/>
<feColorMatrix type="matrix" values="0 0 0 0 0.05 0 0 0 0 0.12 0 0 0 0 0.3 0 0 0 0.1 0"/>
<feBlend mode="normal" in2="BackgroundImageFix" result="effect1_dropShadow_2491_35989"/>
<feBlend mode="normal" in="SourceGraphic" in2="effect1_dropShadow_2491_35989" result="shape"/>
</filter>
</defs>
</svg>
