<svg width="221" height="215" viewBox="0 0 221 215" fill="none" xmlns="http://www.w3.org/2000/svg">
<g filter="url(#filter0_d_2571_18375)">
<mask id="path-1-inside-1_2571_18375" fill="white">
<path d="M24 28C24 21.3726 29.3726 16 36 16L191.515 16C198.142 16 203.515 21.3726 203.515 28V171C203.515 177.627 198.142 183 191.515 183H36C29.3726 183 24 177.627 24 171L24 28Z"/>
</mask>
<path d="M24 28C24 21.3726 29.3726 16 36 16L191.515 16C198.142 16 203.515 21.3726 203.515 28V171C203.515 177.627 198.142 183 191.515 183H36C29.3726 183 24 177.627 24 171L24 28Z" fill="white"/>
<path d="M24 28C24 19.1634 31.1634 12 40 12L187.515 12C196.351 12 203.515 19.1634 203.515 28C203.515 23.5817 198.142 20 191.515 20L36 20C29.3726 20 24 23.5817 24 28ZM24 28M203.515 183H24H203.515M203.515 183M24 183L24 16L24 183M24 183M203.515 16V183V16" fill="#9440F5" mask="url(#path-1-inside-1_2571_18375)"/>
<path d="M83.6417 43.168C82.6617 43.168 81.8357 43.1167 81.1637 43.014C80.5011 42.9113 79.9644 42.748 79.5537 42.524C79.1431 42.3 78.8444 42.006 78.6577 41.642C78.4804 41.2687 78.3917 40.816 78.3917 40.284C78.3917 39.9107 78.4384 39.528 78.5317 39.136C78.6344 38.744 78.7884 38.31 78.9937 37.834L79.8617 38.1C79.4791 38.8933 79.2877 39.5747 79.2877 40.144C79.2877 40.7507 79.5584 41.1987 80.0997 41.488C80.6411 41.768 81.4951 41.908 82.6617 41.908H84.6217C85.2937 41.908 85.8491 41.8893 86.2877 41.852C86.7264 41.8147 87.0717 41.7493 87.3237 41.656C87.5757 41.5533 87.7484 41.418 87.8417 41.25C87.9444 41.082 87.9957 40.8673 87.9957 40.606V38.394H88.9757V40.606C88.9757 41.3993 89.3724 41.796 90.1657 41.796H90.6557V42.72L90.3757 43C89.0877 43 88.3317 42.524 88.1077 41.572H88.0377C87.9817 41.8893 87.8744 42.1507 87.7157 42.356C87.5571 42.5613 87.3097 42.7247 86.9737 42.846C86.6471 42.9673 86.2131 43.0513 85.6717 43.098C85.1397 43.1447 84.4631 43.168 83.6417 43.168ZM83.5577 45.8C83.3711 45.8 83.2217 45.744 83.1097 45.632C82.9977 45.5293 82.9417 45.3567 82.9417 45.114C82.9417 44.8713 82.9977 44.694 83.1097 44.582C83.2217 44.4793 83.3711 44.428 83.5577 44.428H83.7117C83.8984 44.428 84.0477 44.4793 84.1597 44.582C84.2717 44.694 84.3277 44.8713 84.3277 45.114C84.3277 45.3567 84.2717 45.5293 84.1597 45.632C84.0477 45.744 83.8984 45.8 83.7117 45.8H83.5577ZM90.215 42.076L90.495 41.796H90.705C91.321 41.796 91.7643 41.7213 92.035 41.572C92.315 41.4133 92.455 41.1147 92.455 40.676C92.455 40.508 92.441 40.2933 92.413 40.032C92.3943 39.7707 92.3476 39.4253 92.273 38.996L92.077 37.834L93.057 37.68L93.225 38.842C93.2903 39.2993 93.337 39.6727 93.365 39.962C93.393 40.2513 93.407 40.4893 93.407 40.676C93.407 41.46 93.1736 42.0433 92.707 42.426C92.2496 42.8087 91.5823 43 90.705 43H90.215V42.076ZM93.197 36C93.0103 36 92.861 35.9487 92.749 35.846C92.637 35.734 92.581 35.5567 92.581 35.314C92.581 35.0713 92.637 34.8987 92.749 34.796C92.861 34.684 93.0103 34.628 93.197 34.628H93.351C93.5376 34.628 93.687 34.684 93.799 34.796C93.911 34.8987 93.967 35.0713 93.967 35.314C93.967 35.5567 93.911 35.734 93.799 35.846C93.687 35.9487 93.5376 36 93.351 36H93.197ZM91.391 36C91.2043 36 91.055 35.9487 90.943 35.846C90.831 35.734 90.775 35.5567 90.775 35.314C90.775 35.0713 90.831 34.8987 90.943 34.796C91.055 34.684 91.2043 34.628 91.391 34.628H91.545C91.7316 34.628 91.881 34.684 91.993 34.796C92.105 34.8987 92.161 35.0713 92.161 35.314C92.161 35.5567 92.105 35.734 91.993 35.846C91.881 35.9487 91.7316 36 91.545 36H91.391ZM94.926 32.64H95.962V43H94.926V32.64ZM97.3228 45.156H98.2888C99.4182 45.156 100.253 44.9087 100.795 44.414C101.336 43.9193 101.607 43.2287 101.607 42.342V42.034H101.537C101.406 42.342 101.187 42.5847 100.879 42.762C100.58 42.9393 100.225 43.028 99.8148 43.028C99.0682 43.028 98.4895 42.832 98.0788 42.44C97.6682 42.0387 97.4628 41.4787 97.4628 40.76C97.4628 40.34 97.5235 39.9433 97.6448 39.57C97.7755 39.1967 97.9528 38.8747 98.1768 38.604C98.4008 38.324 98.6668 38.1047 98.9748 37.946C99.2922 37.778 99.6375 37.694 100.011 37.694C100.813 37.694 101.443 38.0393 101.901 38.73C102.358 39.4207 102.587 40.3913 102.587 41.642C102.587 43.126 102.227 44.2833 101.509 45.114C100.799 45.9447 99.7262 46.36 98.2888 46.36H97.3228V45.156ZM100.095 41.796C100.496 41.796 100.813 41.7633 101.047 41.698C101.289 41.6233 101.476 41.5113 101.607 41.362C101.607 40.606 101.457 40.0087 101.159 39.57C100.86 39.122 100.449 38.898 99.9268 38.898C99.4508 38.898 99.0822 39.0567 98.8208 39.374C98.5688 39.6913 98.4428 40.1067 98.4428 40.62C98.4428 41.0307 98.5502 41.3293 98.7648 41.516C98.9888 41.7027 99.3388 41.796 99.8148 41.796H100.095ZM102.218 45.156H102.736C103.249 45.156 103.669 45.0813 103.996 44.932C104.323 44.7827 104.579 44.582 104.766 44.33C104.953 44.0873 105.083 43.798 105.158 43.462C105.233 43.1353 105.27 42.79 105.27 42.426C105.27 42.1553 105.256 41.8753 105.228 41.586C105.2 41.2873 105.163 41.0027 105.116 40.732L104.822 39.15L105.802 38.954L105.984 40.018C106.04 40.3447 106.082 40.6527 106.11 40.942C106.147 41.2313 106.175 41.516 106.194 41.796H107.524V42.72L107.244 43H106.18C106.143 43.4573 106.054 43.8867 105.914 44.288C105.783 44.6987 105.583 45.058 105.312 45.366C105.051 45.674 104.705 45.9167 104.276 46.094C103.856 46.2713 103.343 46.36 102.736 46.36H102.218V45.156ZM107.089 42.076L107.369 41.796H107.775C108.223 41.796 108.545 41.6933 108.741 41.488C108.946 41.2827 109.049 40.956 109.049 40.508V32.64H110.085V40.508C110.085 41.3667 109.898 41.9967 109.525 42.398C109.161 42.7993 108.577 43 107.775 43H107.089V42.076ZM112.018 32.64H113.054V43H112.018V32.64ZM121.946 46.36C120.593 46.36 119.538 46.052 118.782 45.436C118.026 44.82 117.648 43.9613 117.648 42.86C117.648 42.4307 117.704 41.978 117.816 41.502C117.937 41.0167 118.101 40.536 118.306 40.06L119.174 40.326C118.997 40.69 118.852 41.0727 118.74 41.474C118.628 41.866 118.572 42.2393 118.572 42.594C118.572 43.3873 118.829 44.0033 119.342 44.442C119.865 44.8807 120.593 45.1 121.526 45.1H122.366C122.926 45.1 123.425 45.0393 123.864 44.918C124.303 44.806 124.671 44.652 124.97 44.456C125.278 44.2693 125.511 44.0593 125.67 43.826C125.829 43.5927 125.908 43.3547 125.908 43.112V43.084L122.884 42.412V41.264H123.458C123.999 41.264 124.401 41.1847 124.662 41.026C124.933 40.858 125.068 40.5453 125.068 40.088V32.64H126.048V40.088C126.048 40.48 125.973 40.8113 125.824 41.082C125.684 41.3433 125.474 41.5673 125.194 41.754V41.81L125.978 42.02C126.547 42.1693 126.832 42.5333 126.832 43.112C126.832 43.5507 126.72 43.966 126.496 44.358C126.281 44.75 125.964 45.0953 125.544 45.394C125.124 45.6927 124.611 45.926 124.004 46.094C123.397 46.2713 122.711 46.36 121.946 46.36ZM122.772 49.16C122.585 49.16 122.436 49.104 122.324 48.992C122.212 48.8893 122.156 48.7167 122.156 48.474C122.156 48.2313 122.212 48.054 122.324 47.942C122.436 47.8393 122.585 47.788 122.772 47.788H122.926C123.113 47.788 123.262 47.8393 123.374 47.942C123.486 48.054 123.542 48.2313 123.542 48.474C123.542 48.7167 123.486 48.8893 123.374 48.992C123.262 49.104 123.113 49.16 122.926 49.16H122.772ZM120.966 49.16C120.779 49.16 120.63 49.104 120.518 48.992C120.406 48.8893 120.35 48.7167 120.35 48.474C120.35 48.2313 120.406 48.054 120.518 47.942C120.63 47.8393 120.779 47.788 120.966 47.788H121.12C121.307 47.788 121.456 47.8393 121.568 47.942C121.68 48.054 121.736 48.2313 121.736 48.474C121.736 48.7167 121.68 48.8893 121.568 48.992C121.456 49.104 121.307 49.16 121.12 49.16H120.966ZM130.572 43C130.124 43 129.741 42.9627 129.424 42.888C129.116 42.8133 128.864 42.692 128.668 42.524C128.481 42.3467 128.346 42.118 128.262 41.838C128.178 41.558 128.136 41.2173 128.136 40.816V32.64H129.172V40.816C129.172 41.1707 129.27 41.4227 129.466 41.572C129.662 41.7213 129.965 41.796 130.376 41.796H130.866V42.72L130.586 43H130.572ZM130.419 42.076L130.699 41.796C131.007 41.796 131.241 41.782 131.399 41.754C131.567 41.726 131.703 41.67 131.805 41.586C131.777 41.4833 131.759 41.3807 131.749 41.278C131.74 41.1753 131.735 41.0633 131.735 40.942C131.735 40.438 131.899 39.9807 132.225 39.57C132.561 39.15 133.065 38.7207 133.737 38.282L134.423 37.834H135.515L136.509 40.536C136.603 40.788 136.687 40.998 136.761 41.166C136.845 41.3247 136.934 41.4507 137.027 41.544C137.13 41.6373 137.237 41.7027 137.349 41.74C137.471 41.7773 137.611 41.796 137.769 41.796H138.035V42.72L137.755 43C137.317 43 136.967 42.9393 136.705 42.818C136.444 42.6873 136.211 42.4353 136.005 42.062L135.921 42.09V43H134.255C133.051 43 132.277 42.65 131.931 41.95H131.875C131.754 42.3047 131.586 42.5707 131.371 42.748C131.157 42.916 130.839 43 130.419 43V42.076ZM132.659 40.816C132.659 41.152 132.795 41.3993 133.065 41.558C133.336 41.7167 133.761 41.796 134.339 41.796H135.865C135.763 41.5813 135.651 41.306 135.529 40.97L134.745 38.856L134.213 39.178C133.793 39.43 133.429 39.6913 133.121 39.962C132.813 40.2327 132.659 40.5173 132.659 40.816ZM137.601 42.076L137.881 41.796H138.357C138.768 41.796 139.146 41.782 139.491 41.754C139.846 41.726 140.205 41.6747 140.569 41.6C140.933 41.516 141.316 41.3993 141.717 41.25C142.128 41.1007 142.59 40.9047 143.103 40.662L144.391 40.046V39.99L142.319 39.528L139.421 38.814V40.018H138.441V38.94C138.441 38.548 138.549 38.254 138.763 38.058C138.987 37.8527 139.267 37.75 139.603 37.75C139.706 37.75 139.827 37.764 139.967 37.792C140.117 37.8107 140.345 37.8573 140.653 37.932L144.069 38.814C144.583 38.9447 145.012 39.038 145.357 39.094C145.703 39.1407 146.001 39.164 146.253 39.164H146.477V40.368H145.385L143.481 41.516C142.903 41.8613 142.389 42.1367 141.941 42.342C141.493 42.538 141.073 42.6873 140.681 42.79C140.289 42.8833 139.907 42.944 139.533 42.972C139.169 42.9907 138.777 43 138.357 43H137.601V42.076ZM142.067 45.8C141.881 45.8 141.731 45.744 141.619 45.632C141.507 45.5293 141.451 45.3567 141.451 45.114C141.451 44.8713 141.507 44.694 141.619 44.582C141.731 44.4793 141.881 44.428 142.067 44.428H142.221C142.408 44.428 142.557 44.4793 142.669 44.582C142.781 44.694 142.837 44.8713 142.837 45.114C142.837 45.3567 142.781 45.5293 142.669 45.632C142.557 45.744 142.408 45.8 142.221 45.8H142.067ZM147.644 32.64H148.68V43H147.644V32.64ZM146.748 45.786H147.252L147.266 45.73C147.192 45.6367 147.131 45.5247 147.084 45.394C147.038 45.2727 147.014 45.1467 147.014 45.016C147.014 44.652 147.136 44.3487 147.378 44.106C147.621 43.8633 147.929 43.742 148.302 43.742C148.517 43.742 148.736 43.7933 148.96 43.896C149.184 44.008 149.352 44.1527 149.464 44.33L148.946 44.96C148.76 44.7453 148.545 44.638 148.302 44.638C148.134 44.638 147.994 44.68 147.882 44.764C147.77 44.8573 147.714 44.9693 147.714 45.1C147.714 45.296 147.803 45.45 147.98 45.562C148.158 45.674 148.405 45.73 148.722 45.73H149.618V46.626H146.748V45.786Z" fill="#0D1530"/>
<path d="M121.566 78.36C120.344 78.36 119.401 78.0427 118.738 77.408C118.085 76.7733 117.758 75.8773 117.758 74.72C117.758 74.3 117.814 73.838 117.926 73.334C118.048 72.83 118.211 72.3353 118.416 71.85L119.48 72.172C119.303 72.564 119.158 72.97 119.046 73.39C118.934 73.81 118.878 74.188 118.878 74.524C118.878 75.2053 119.074 75.7327 119.466 76.106C119.858 76.4793 120.4 76.666 121.09 76.666H122.056C122.458 76.666 122.798 76.6193 123.078 76.526C123.358 76.4327 123.587 76.2787 123.764 76.064C123.942 75.8493 124.068 75.5647 124.142 75.21C124.217 74.8647 124.254 74.44 124.254 73.936V64.64H125.57V73.936C125.57 75.4573 125.244 76.5727 124.59 77.282C123.946 78.0007 122.938 78.36 121.566 78.36ZM129.905 75C128.991 75 128.333 74.8133 127.931 74.44C127.53 74.0573 127.329 73.4227 127.329 72.536V64.64H128.631V72.41C128.631 72.802 128.72 73.068 128.897 73.208C129.084 73.348 129.387 73.418 129.807 73.418H130.269V74.664L129.919 75H129.905ZM129.777 73.754L130.113 73.418H130.407C131.042 73.418 131.49 73.348 131.751 73.208C132.013 73.0587 132.143 72.7927 132.143 72.41C132.143 72.2513 132.129 72.0507 132.101 71.808C132.083 71.5653 132.041 71.2433 131.975 70.842L131.751 69.624L132.969 69.428L133.151 70.646C133.263 71.3927 133.319 71.9807 133.319 72.41C133.319 73.2873 133.081 73.9407 132.605 74.37C132.129 74.79 131.397 75 130.407 75H129.777V73.754ZM133.025 77.898C132.811 77.898 132.638 77.8327 132.507 77.702C132.386 77.5713 132.325 77.3707 132.325 77.1C132.325 76.82 132.386 76.6147 132.507 76.484C132.638 76.3627 132.811 76.302 133.025 76.302H133.235C133.45 76.302 133.623 76.3627 133.753 76.484C133.884 76.6147 133.949 76.82 133.949 77.1C133.949 77.3707 133.884 77.5713 133.753 77.702C133.623 77.8327 133.45 77.898 133.235 77.898H133.025ZM131.051 77.898C130.837 77.898 130.664 77.8327 130.533 77.702C130.412 77.5713 130.351 77.3707 130.351 77.1C130.351 76.82 130.412 76.6147 130.533 76.484C130.664 76.3627 130.837 76.302 131.051 76.302H131.261C131.476 76.302 131.649 76.3627 131.779 76.484C131.91 76.6147 131.975 76.82 131.975 77.1C131.975 77.3707 131.91 77.5713 131.779 77.702C131.649 77.8327 131.476 77.898 131.261 77.898H131.051ZM134.295 76.778H134.827C135.303 76.778 135.7 76.7173 136.017 76.596C136.334 76.4747 136.591 76.302 136.787 76.078C136.983 75.8633 137.123 75.602 137.207 75.294C137.291 74.986 137.333 74.6407 137.333 74.258C137.333 74.006 137.319 73.7447 137.291 73.474C137.263 73.2033 137.226 72.9327 137.179 72.662L136.885 70.968L138.089 70.744L138.285 71.92C138.444 72.8253 138.523 73.6 138.523 74.244C138.523 74.8227 138.453 75.3593 138.313 75.854C138.182 76.358 137.968 76.7967 137.669 77.17C137.37 77.5433 136.988 77.8327 136.521 78.038C136.054 78.2527 135.494 78.36 134.841 78.36H134.295V76.778ZM149.621 75H142.985V73.488L146.107 70.702C146.602 70.254 146.98 69.8293 147.241 69.428C147.512 69.0173 147.647 68.588 147.647 68.14V67.958C147.647 67.482 147.503 67.1087 147.213 66.838C146.933 66.5673 146.551 66.432 146.065 66.432C145.795 66.432 145.557 66.474 145.351 66.558C145.155 66.6327 144.983 66.74 144.833 66.88C144.684 67.02 144.558 67.1833 144.455 67.37C144.362 67.5567 144.287 67.7573 144.231 67.972L142.845 67.44C142.948 67.132 143.088 66.838 143.265 66.558C143.443 66.2687 143.667 66.012 143.937 65.788C144.208 65.564 144.525 65.3867 144.889 65.256C145.263 65.1253 145.697 65.06 146.191 65.06C146.686 65.06 147.129 65.1347 147.521 65.284C147.913 65.424 148.24 65.6247 148.501 65.886C148.772 66.138 148.977 66.4413 149.117 66.796C149.257 67.1507 149.327 67.538 149.327 67.958C149.327 68.35 149.267 68.714 149.145 69.05C149.024 69.386 148.856 69.7033 148.641 70.002C148.427 70.3007 148.175 70.5853 147.885 70.856C147.605 71.1267 147.307 71.402 146.989 71.682L144.693 73.656H149.621V75ZM155.308 75V73.096H150.772V71.738L154.734 65.228H156.806V71.85H158.136V73.096H156.806V75H155.308ZM152.116 71.85H155.308V66.67H155.21L152.116 71.85ZM162.716 75.168C162.147 75.168 161.643 75.098 161.204 74.958C160.775 74.8087 160.411 74.608 160.112 74.356C159.823 74.104 159.599 73.8053 159.44 73.46C159.291 73.1147 159.216 72.7413 159.216 72.34C159.216 71.6867 159.394 71.164 159.748 70.772C160.112 70.3707 160.588 70.0907 161.176 69.932V69.82C160.672 69.6427 160.266 69.3627 159.958 68.98C159.66 68.5973 159.51 68.126 159.51 67.566C159.51 67.1927 159.58 66.852 159.72 66.544C159.87 66.236 160.08 65.9747 160.35 65.76C160.621 65.536 160.957 65.3633 161.358 65.242C161.76 65.1207 162.212 65.06 162.716 65.06C163.22 65.06 163.673 65.1207 164.074 65.242C164.476 65.3633 164.812 65.536 165.082 65.76C165.353 65.9747 165.558 66.236 165.698 66.544C165.848 66.852 165.922 67.1927 165.922 67.566C165.922 68.126 165.768 68.5973 165.46 68.98C165.162 69.3627 164.76 69.6427 164.256 69.82V69.932C164.844 70.0907 165.316 70.3707 165.67 70.772C166.034 71.164 166.216 71.6867 166.216 72.34C166.216 72.7413 166.137 73.1147 165.978 73.46C165.829 73.8053 165.605 74.104 165.306 74.356C165.017 74.608 164.653 74.8087 164.214 74.958C163.785 75.098 163.286 75.168 162.716 75.168ZM162.716 73.894C163.304 73.894 163.757 73.7587 164.074 73.488C164.401 73.2173 164.564 72.8393 164.564 72.354V72.074C164.564 71.5887 164.401 71.2107 164.074 70.94C163.757 70.6693 163.304 70.534 162.716 70.534C162.128 70.534 161.671 70.6693 161.344 70.94C161.027 71.2107 160.868 71.5887 160.868 72.074V72.354C160.868 72.8393 161.027 73.2173 161.344 73.488C161.671 73.7587 162.128 73.894 162.716 73.894ZM162.716 69.316C163.258 69.316 163.668 69.1993 163.948 68.966C164.238 68.7327 164.382 68.392 164.382 67.944V67.706C164.382 67.258 164.238 66.9173 163.948 66.684C163.668 66.4507 163.258 66.334 162.716 66.334C162.175 66.334 161.76 66.4507 161.47 66.684C161.19 66.9173 161.05 67.258 161.05 67.706V67.944C161.05 68.392 161.19 68.7327 161.47 68.966C161.76 69.1993 162.175 69.316 162.716 69.316ZM168.781 73.054C169.126 73.054 169.383 73.1427 169.551 73.32C169.719 73.4973 169.803 73.726 169.803 74.006V74.23C169.803 74.6873 169.677 75.1633 169.425 75.658C169.182 76.162 168.851 76.5867 168.431 76.932H167.297C167.596 76.6333 167.843 76.344 168.039 76.064C168.235 75.784 168.384 75.4713 168.487 75.126C168.244 75.0793 168.062 74.9767 167.941 74.818C167.82 74.65 167.759 74.454 167.759 74.23V74.006C167.759 73.726 167.843 73.4973 168.011 73.32C168.179 73.1427 168.436 73.054 168.781 73.054ZM177.764 66.6H173.424L173.172 70.058H173.27C173.382 69.862 173.498 69.6893 173.62 69.54C173.741 69.3813 173.881 69.246 174.04 69.134C174.198 69.022 174.38 68.938 174.586 68.882C174.791 68.8167 175.034 68.784 175.314 68.784C175.734 68.784 176.121 68.854 176.476 68.994C176.84 69.134 177.152 69.3347 177.414 69.596C177.684 69.8573 177.894 70.1793 178.044 70.562C178.193 70.9353 178.268 71.36 178.268 71.836C178.268 72.3213 178.188 72.7693 178.03 73.18C177.88 73.5907 177.656 73.9453 177.358 74.244C177.059 74.5333 176.69 74.762 176.252 74.93C175.822 75.0887 175.332 75.168 174.782 75.168C174.343 75.168 173.956 75.1167 173.62 75.014C173.284 74.9207 172.985 74.7947 172.724 74.636C172.472 74.468 172.248 74.2813 172.052 74.076C171.865 73.8613 171.697 73.642 171.548 73.418L172.696 72.508C172.817 72.704 172.943 72.8813 173.074 73.04C173.204 73.1987 173.354 73.3387 173.522 73.46C173.69 73.5813 173.876 73.6747 174.082 73.74C174.296 73.8053 174.539 73.838 174.81 73.838C175.388 73.838 175.832 73.6793 176.14 73.362C176.457 73.0447 176.616 72.606 176.616 72.046V71.878C176.616 71.318 176.457 70.8793 176.14 70.562C175.832 70.2447 175.388 70.086 174.81 70.086C174.39 70.086 174.054 70.1653 173.802 70.324C173.55 70.4827 173.335 70.66 173.158 70.856L171.856 70.674L172.22 65.228H177.764V66.6ZM183.086 75.168C182.479 75.168 181.952 75.056 181.504 74.832C181.056 74.5987 180.687 74.2673 180.398 73.838C180.109 73.4087 179.894 72.8813 179.754 72.256C179.614 71.6307 179.544 70.9167 179.544 70.114C179.544 69.3207 179.614 68.6113 179.754 67.986C179.894 67.3513 180.109 66.8193 180.398 66.39C180.687 65.9607 181.056 65.634 181.504 65.41C181.952 65.1767 182.479 65.06 183.086 65.06C184.299 65.06 185.191 65.5033 185.76 66.39C186.339 67.2767 186.628 68.518 186.628 70.114C186.628 71.71 186.339 72.9513 185.76 73.838C185.191 74.7247 184.299 75.168 183.086 75.168ZM183.086 73.824C183.422 73.824 183.707 73.7587 183.94 73.628C184.183 73.488 184.379 73.292 184.528 73.04C184.677 72.788 184.785 72.4893 184.85 72.144C184.915 71.7893 184.948 71.3973 184.948 70.968V69.26C184.948 68.8307 184.915 68.4433 184.85 68.098C184.785 67.7433 184.677 67.44 184.528 67.188C184.379 66.936 184.183 66.7447 183.94 66.614C183.707 66.474 183.422 66.404 183.086 66.404C182.75 66.404 182.461 66.474 182.218 66.614C181.985 66.7447 181.793 66.936 181.644 67.188C181.495 67.44 181.387 67.7433 181.322 68.098C181.257 68.4433 181.224 68.8307 181.224 69.26V70.968C181.224 71.3973 181.257 71.7893 181.322 72.144C181.387 72.4893 181.495 72.788 181.644 73.04C181.793 73.292 181.985 73.488 182.218 73.628C182.461 73.7587 182.75 73.824 183.086 73.824ZM191.321 75.168C190.714 75.168 190.187 75.056 189.739 74.832C189.291 74.5987 188.922 74.2673 188.633 73.838C188.343 73.4087 188.129 72.8813 187.989 72.256C187.849 71.6307 187.779 70.9167 187.779 70.114C187.779 69.3207 187.849 68.6113 187.989 67.986C188.129 67.3513 188.343 66.8193 188.633 66.39C188.922 65.9607 189.291 65.634 189.739 65.41C190.187 65.1767 190.714 65.06 191.321 65.06C192.534 65.06 193.425 65.5033 193.995 66.39C194.573 67.2767 194.863 68.518 194.863 70.114C194.863 71.71 194.573 72.9513 193.995 73.838C193.425 74.7247 192.534 75.168 191.321 75.168ZM191.321 73.824C191.657 73.824 191.941 73.7587 192.175 73.628C192.417 73.488 192.613 73.292 192.763 73.04C192.912 72.788 193.019 72.4893 193.085 72.144C193.15 71.7893 193.183 71.3973 193.183 70.968V69.26C193.183 68.8307 193.15 68.4433 193.085 68.098C193.019 67.7433 192.912 67.44 192.763 67.188C192.613 66.936 192.417 66.7447 192.175 66.614C191.941 66.474 191.657 66.404 191.321 66.404C190.985 66.404 190.695 66.474 190.453 66.614C190.219 66.7447 190.028 66.936 189.879 67.188C189.729 67.44 189.622 67.7433 189.557 68.098C189.491 68.4433 189.459 68.8307 189.459 69.26V70.968C189.459 71.3973 189.491 71.7893 189.557 72.144C189.622 72.4893 189.729 72.788 189.879 73.04C190.028 73.292 190.219 73.488 190.453 73.628C190.695 73.7587 190.985 73.824 191.321 73.824Z" fill="#0D1530"/>
<path d="M145.62 99.648C145.076 99.648 144.584 99.58 144.144 99.444C143.704 99.308 143.328 99.108 143.016 98.844C142.712 98.58 142.476 98.252 142.308 97.86C142.14 97.476 142.056 97.036 142.056 96.54C142.056 95.9 142.248 95.32 142.632 94.8C143.024 94.28 143.596 93.848 144.348 93.504V93.444C143.876 93.156 143.516 92.816 143.268 92.424C143.028 92.032 142.908 91.608 142.908 91.152C142.908 90.792 142.968 90.452 143.088 90.132C143.216 89.812 143.392 89.536 143.616 89.304C143.84 89.064 144.104 88.876 144.408 88.74C144.72 88.604 145.06 88.536 145.428 88.536C145.932 88.536 146.372 88.648 146.748 88.872C147.124 89.096 147.428 89.4 147.66 89.784L146.772 90.672C146.58 90.408 146.364 90.216 146.124 90.096C145.892 89.968 145.616 89.904 145.296 89.904C144.848 89.904 144.504 90.016 144.264 90.24C144.024 90.464 143.904 90.768 143.904 91.152C143.904 91.616 144.072 91.956 144.408 92.172C144.752 92.388 145.22 92.496 145.812 92.496C145.996 92.496 146.192 92.484 146.4 92.46C146.616 92.436 146.844 92.404 147.084 92.364L148.044 92.196L148.272 93.432L146.688 93.744C145.464 93.976 144.564 94.292 143.988 94.692C143.42 95.084 143.136 95.592 143.136 96.216V96.42C143.136 97.02 143.356 97.476 143.796 97.788C144.236 98.1 144.844 98.256 145.62 98.256C146.164 98.256 146.68 98.16 147.168 97.968C147.664 97.776 148.116 97.476 148.524 97.068L149.28 98.136C148.28 99.144 147.06 99.648 145.62 99.648ZM149.246 97.524H149.942C150.782 97.524 151.438 97.388 151.91 97.116C152.382 96.852 152.694 96.48 152.846 96H151.406C150.758 96 150.254 95.824 149.894 95.472C149.542 95.12 149.366 94.62 149.366 93.972C149.366 93.588 149.422 93.228 149.534 92.892C149.654 92.556 149.814 92.268 150.014 92.028C150.222 91.78 150.466 91.584 150.746 91.44C151.026 91.296 151.334 91.224 151.67 91.224C152.374 91.224 152.922 91.524 153.314 92.124C153.714 92.724 153.922 93.564 153.938 94.644H154.502V95.712L154.214 96H153.806C153.606 96.92 153.186 97.628 152.546 98.124C151.914 98.628 151.062 98.88 149.99 98.88H149.246V97.524ZM150.362 93.804C150.362 94.1 150.454 94.316 150.638 94.452C150.822 94.58 151.094 94.644 151.454 94.644H152.942V94.416C152.942 93.864 152.814 93.424 152.558 93.096C152.302 92.76 151.97 92.592 151.562 92.592C151.194 92.592 150.902 92.704 150.686 92.928C150.47 93.152 150.362 93.444 150.362 93.804ZM154.091 94.932L154.379 94.644H154.775C155.439 94.644 155.771 94.328 155.771 93.696V91.872H156.815V93.696C156.815 94.328 157.127 94.644 157.751 94.644H158.207V95.712L157.907 96C157.315 96 156.855 95.892 156.527 95.676C156.207 95.452 155.995 95.104 155.891 94.632H155.819C155.723 95.128 155.543 95.48 155.279 95.688C155.023 95.896 154.627 96 154.091 96V94.932ZM156.191 98.484C156.007 98.484 155.859 98.428 155.747 98.316C155.643 98.204 155.591 98.032 155.591 97.8C155.591 97.56 155.643 97.384 155.747 97.272C155.859 97.168 156.007 97.116 156.191 97.116H156.371C156.555 97.116 156.703 97.168 156.815 97.272C156.927 97.384 156.983 97.56 156.983 97.8C156.983 98.032 156.927 98.204 156.815 98.316C156.703 98.428 156.555 98.484 156.371 98.484H156.191ZM157.803 94.932L158.091 94.644H158.331C158.499 94.644 158.647 94.632 158.775 94.608C158.903 94.584 159.015 94.54 159.111 94.476C159.207 94.412 159.295 94.328 159.375 94.224C159.455 94.12 159.535 93.988 159.615 93.828L160.107 92.832L161.007 93.288L160.455 94.356L160.539 94.404C160.779 94.54 161.011 94.64 161.235 94.704C161.459 94.768 161.687 94.8 161.919 94.8C162.279 94.8 162.543 94.72 162.711 94.56C162.879 94.392 162.963 94.104 162.963 93.696V92.832H164.007V93.696C164.007 94.088 164.067 94.368 164.187 94.536C164.307 94.696 164.495 94.776 164.751 94.776H164.931C165.387 94.776 165.615 94.516 165.615 93.996C165.615 93.74 165.579 93.372 165.507 92.892L165.399 92.256L166.431 92.1L166.527 92.724C166.559 92.964 166.583 93.192 166.599 93.408C166.615 93.624 166.623 93.82 166.623 93.996C166.623 94.7 166.471 95.236 166.167 95.604C165.871 95.964 165.427 96.144 164.835 96.144C164.323 96.144 163.927 96.028 163.647 95.796C163.367 95.564 163.183 95.212 163.095 94.74H163.023C162.887 95.676 162.443 96.144 161.691 96.144C161.459 96.144 161.219 96.1 160.971 96.012C160.731 95.924 160.443 95.78 160.107 95.58L159.783 95.388C159.551 95.636 159.279 95.8 158.967 95.88C158.663 95.96 158.275 96 157.803 96V94.932ZM167.631 94.668L169.815 92.616L166.851 89.496L167.667 88.68L170.655 91.824C170.783 91.704 170.887 91.588 170.967 91.476C171.055 91.356 171.123 91.236 171.171 91.116C171.227 90.988 171.263 90.848 171.279 90.696C171.303 90.544 171.315 90.368 171.315 90.168V87.12H172.443V90.168C172.443 90.432 172.423 90.664 172.383 90.864C172.351 91.064 172.291 91.256 172.203 91.44C172.115 91.616 171.999 91.792 171.855 91.968C171.719 92.136 171.543 92.32 171.327 92.52L171.927 93.156C172.231 93.468 172.439 93.74 172.551 93.972C172.671 94.196 172.731 94.436 172.731 94.692C172.731 94.868 172.699 95.036 172.635 95.196C172.571 95.356 172.479 95.496 172.359 95.616C172.247 95.736 172.107 95.832 171.939 95.904C171.771 95.968 171.579 96 171.363 96H167.631V94.668ZM170.463 93.3L169.023 94.596L169.035 94.644H171.759L170.463 93.3ZM167.439 87.3H167.907L167.919 87.24C167.767 87.072 167.691 86.864 167.691 86.616C167.691 86.296 167.803 86.032 168.027 85.824C168.251 85.608 168.535 85.5 168.879 85.5C169.087 85.5 169.291 85.548 169.491 85.644C169.691 85.732 169.855 85.856 169.983 86.016L169.479 86.664C169.295 86.48 169.095 86.388 168.879 86.388C168.735 86.388 168.619 86.424 168.531 86.496C168.443 86.56 168.399 86.644 168.399 86.748C168.399 87.068 168.679 87.228 169.239 87.228H170.067V88.128H167.439V87.3ZM173.936 87.12H175.052V96H173.936V87.12ZM179.31 87.12H180.426V96H179.31V87.12ZM182.807 96C182.399 96 182.079 95.892 181.847 95.676C181.615 95.46 181.499 95.124 181.499 94.668V93.792H182.567V94.644H184.199C184.623 94.644 184.915 94.608 185.075 94.536C185.235 94.464 185.315 94.328 185.315 94.128C185.315 94.04 185.295 93.932 185.255 93.804C185.215 93.668 185.159 93.496 185.087 93.288L183.971 90.18L185.111 89.772L186.335 93.168C186.439 93.464 186.535 93.708 186.623 93.9C186.719 94.084 186.815 94.232 186.911 94.344C187.007 94.456 187.107 94.536 187.211 94.584C187.323 94.624 187.451 94.644 187.595 94.644H187.919V95.712L187.619 96C187.355 96 187.123 95.98 186.923 95.94C186.723 95.892 186.543 95.82 186.383 95.724C186.231 95.62 186.091 95.484 185.963 95.316C185.843 95.148 185.723 94.936 185.603 94.68L185.543 94.692C185.471 95.164 185.311 95.5 185.063 95.7C184.815 95.9 184.435 96 183.923 96H182.807ZM184.307 88.74C184.123 88.74 183.975 88.684 183.863 88.572C183.759 88.46 183.707 88.288 183.707 88.056C183.707 87.816 183.759 87.644 183.863 87.54C183.975 87.428 184.123 87.372 184.307 87.372H184.487C184.671 87.372 184.819 87.428 184.931 87.54C185.043 87.644 185.099 87.816 185.099 88.056C185.099 88.288 185.043 88.46 184.931 88.572C184.819 88.684 184.671 88.74 184.487 88.74H184.307ZM187.516 94.932L187.804 94.644H189.352L189.376 94.584C188.712 94.016 188.38 93.36 188.38 92.616C188.38 92.304 188.428 92.008 188.524 91.728C188.628 91.448 188.768 91.2 188.944 90.984C189.128 90.768 189.34 90.592 189.58 90.456C189.82 90.312 190.08 90.228 190.36 90.204L190.744 89.472L192.604 90.492C193.044 90.732 193.42 90.988 193.732 91.26C194.044 91.524 194.3 91.816 194.5 92.136C194.7 92.456 194.848 92.808 194.944 93.192C195.04 93.568 195.088 93.992 195.088 94.464V94.704L194.212 96H192.88C192.456 96 192.048 95.956 191.656 95.868C191.272 95.772 190.904 95.62 190.552 95.412C190.208 95.62 189.84 95.772 189.448 95.868C189.056 95.956 188.652 96 188.236 96H187.516V94.932ZM190.552 94.368C190.936 94.144 191.232 93.884 191.44 93.588C191.656 93.292 191.764 92.976 191.764 92.64C191.764 92.232 191.66 91.912 191.452 91.68C191.252 91.44 190.976 91.32 190.624 91.32H190.492C190.14 91.32 189.86 91.44 189.652 91.68C189.444 91.912 189.34 92.232 189.34 92.64C189.34 92.976 189.444 93.292 189.652 93.588C189.868 93.884 190.168 94.144 190.552 94.368ZM192.628 91.932C192.692 92.164 192.724 92.392 192.724 92.616C192.724 93.36 192.392 94.016 191.728 94.584L191.752 94.644H194.092V94.536C194.092 93.912 193.976 93.396 193.744 92.988C193.52 92.58 193.156 92.22 192.652 91.908L192.628 91.932Z" fill="#6B7280"/>
<rect x="47.2573" y="112" width="133" height="22" rx="9" fill="#9440F5" fill-opacity="0.12"/>
<path d="M56.5653 130.672C55.3493 130.672 54.4013 130.396 53.7213 129.844C53.0493 129.3 52.7133 128.536 52.7133 127.552C52.7133 127.192 52.7613 126.796 52.8573 126.364C52.9613 125.932 53.1013 125.508 53.2773 125.092L54.1893 125.368C54.0373 125.696 53.9133 126.032 53.8173 126.376C53.7213 126.72 53.6733 127.032 53.6733 127.312C53.6733 127.92 53.8933 128.388 54.3333 128.716C54.7733 129.052 55.3813 129.22 56.1573 129.22H56.9853C57.9053 129.22 58.6213 129.08 59.1333 128.8C59.6533 128.528 59.9133 128.144 59.9133 127.648V127.624L58.0893 127.264C57.4333 127.136 56.9653 126.936 56.6853 126.664C56.4053 126.392 56.2653 125.996 56.2653 125.476C56.2653 125.068 56.3453 124.676 56.5053 124.3C56.6653 123.916 56.8813 123.58 57.1533 123.292C57.4333 122.996 57.7533 122.76 58.1133 122.584C58.4813 122.408 58.8653 122.32 59.2653 122.32C59.8333 122.312 60.3013 122.456 60.6693 122.752C61.0373 123.048 61.3493 123.5 61.6053 124.108L61.9413 124.912C62.0213 125.128 62.0973 125.292 62.1693 125.404L62.6853 124.528C62.9813 124.016 63.2773 123.588 63.5733 123.244C63.8773 122.892 64.1893 122.612 64.5093 122.404C64.8293 122.188 65.1613 122.036 65.5053 121.948C65.8493 121.852 66.2093 121.804 66.5853 121.804C67.4333 121.804 68.0813 122.04 68.5293 122.512C68.9853 122.976 69.2133 123.62 69.2133 124.444C69.2133 125.348 68.9733 126 68.4933 126.4C68.0133 126.8 67.2813 127 66.2973 127H62.6613C62.4453 127 62.2493 126.976 62.0733 126.928C61.9053 126.872 61.7493 126.784 61.6053 126.664C61.4693 126.544 61.3413 126.388 61.2213 126.196C61.1013 126.004 60.9813 125.768 60.8613 125.488L60.5253 124.708C60.2453 124.028 59.7693 123.688 59.0973 123.688C58.8653 123.688 58.6373 123.728 58.4133 123.808C58.1893 123.888 57.9893 123.996 57.8133 124.132C57.6373 124.268 57.4973 124.424 57.3933 124.6C57.2893 124.776 57.2373 124.956 57.2373 125.14C57.2373 125.348 57.3093 125.508 57.4533 125.62C57.5973 125.732 57.8573 125.832 58.2333 125.92L59.7453 126.244C60.1453 126.332 60.4333 126.488 60.6093 126.712C60.7933 126.936 60.8853 127.248 60.8853 127.648C60.8853 128.128 60.7853 128.556 60.5853 128.932C60.3933 129.308 60.1093 129.624 59.7333 129.88C59.3653 130.136 58.9133 130.332 58.3773 130.468C57.8493 130.604 57.2453 130.672 56.5653 130.672ZM62.9973 125.572L63.0333 125.644H66.2973C66.9693 125.644 67.4573 125.56 67.7613 125.392C68.0653 125.224 68.2173 124.916 68.2173 124.468C68.2173 123.604 67.7333 123.172 66.7653 123.172H66.4053C66.0693 123.172 65.7693 123.196 65.5053 123.244C65.2413 123.292 64.9973 123.376 64.7733 123.496C64.5493 123.616 64.3333 123.78 64.1253 123.988C63.9253 124.196 63.7213 124.46 63.5133 124.78L62.9973 125.572ZM57.3213 133.156C57.1373 133.156 56.9893 133.1 56.8773 132.988C56.7733 132.876 56.7213 132.704 56.7213 132.472C56.7213 132.232 56.7733 132.056 56.8773 131.944C56.9893 131.84 57.1373 131.788 57.3213 131.788H57.5013C57.6853 131.788 57.8333 131.84 57.9453 131.944C58.0573 132.056 58.1133 132.232 58.1133 132.472C58.1133 132.704 58.0573 132.876 57.9453 132.988C57.8333 133.1 57.6853 133.156 57.5013 133.156H57.3213ZM55.6293 133.156C55.4453 133.156 55.2973 133.1 55.1853 132.988C55.0813 132.876 55.0293 132.704 55.0293 132.472C55.0293 132.232 55.0813 132.056 55.1853 131.944C55.2973 131.84 55.4453 131.788 55.6293 131.788H55.8093C55.9933 131.788 56.1413 131.84 56.2533 131.944C56.3653 132.056 56.4213 132.232 56.4213 132.472C56.4213 132.704 56.3653 132.876 56.2533 132.988C56.1413 133.1 55.9933 133.156 55.8093 133.156H55.6293ZM66.1293 120.58C65.9453 120.58 65.7973 120.524 65.6853 120.412C65.5813 120.3 65.5293 120.128 65.5293 119.896C65.5293 119.656 65.5813 119.484 65.6853 119.38C65.7973 119.268 65.9453 119.212 66.1293 119.212H66.3093C66.4933 119.212 66.6413 119.268 66.7533 119.38C66.8653 119.484 66.9213 119.656 66.9213 119.896C66.9213 120.128 66.8653 120.3 66.7533 120.412C66.6413 120.524 66.4933 120.58 66.3093 120.58H66.1293ZM72.6108 127C71.8268 127 71.2628 126.84 70.9188 126.52C70.5748 126.192 70.4028 125.648 70.4028 124.888V118.12H71.5188V124.78C71.5188 125.116 71.5948 125.344 71.7468 125.464C71.9068 125.584 72.1668 125.644 72.5268 125.644H72.9228V126.712L72.6228 127H72.6108ZM72.5184 125.932L72.8064 125.644C73.0544 125.644 73.2504 125.636 73.3944 125.62C73.5464 125.604 73.6784 125.568 73.7904 125.512C73.7664 125.384 73.7544 125.244 73.7544 125.092C73.7544 124.644 73.8944 124.232 74.1744 123.856C74.4624 123.48 74.8904 123.112 75.4584 122.752L76.1184 122.344H77.3304L78.2304 124.756C78.2944 124.932 78.3584 125.08 78.4224 125.2C78.4864 125.312 78.5544 125.4 78.6264 125.464C78.7064 125.528 78.7944 125.576 78.8904 125.608C78.9864 125.632 79.1024 125.644 79.2384 125.644H79.5264V126.712L79.2384 127C78.7984 127 78.4504 126.936 78.1944 126.808C77.9384 126.672 77.7144 126.44 77.5224 126.112L77.4504 126.124V127H75.9744C75.4384 127 74.9984 126.912 74.6544 126.736C74.3184 126.552 74.0744 126.292 73.9224 125.956H73.8504C73.7384 126.316 73.5784 126.58 73.3704 126.748C73.1624 126.916 72.8784 127 72.5184 127V125.932ZM74.6784 124.96C74.6784 125.2 74.7744 125.376 74.9664 125.488C75.1584 125.592 75.4344 125.644 75.7944 125.644H77.2944C77.2624 125.58 77.2344 125.512 77.2104 125.44C77.1864 125.368 77.1584 125.292 77.1264 125.212L76.4904 123.508L75.7704 123.868C75.4504 124.028 75.1864 124.2 74.9784 124.384C74.7784 124.56 74.6784 124.752 74.6784 124.96ZM79.1132 125.932L79.4012 125.644H79.8212C80.1732 125.644 80.4172 125.568 80.5532 125.416C80.6972 125.264 80.7692 125.024 80.7692 124.696V118.12H81.8972V124.696C81.8972 125.488 81.7372 126.072 81.4172 126.448C81.0972 126.816 80.5652 127 79.8212 127H79.1132V125.932ZM83.4374 118.12H84.5534V127H83.4374V118.12ZM87.2626 128.524H87.7186C88.1266 128.524 88.4666 128.472 88.7386 128.368C89.0106 128.264 89.2306 128.116 89.3986 127.924C89.5666 127.74 89.6866 127.516 89.7586 127.252C89.8306 126.988 89.8666 126.692 89.8666 126.364C89.8666 126.148 89.8546 125.924 89.8306 125.692C89.8066 125.46 89.7746 125.228 89.7346 124.996L89.4826 123.544L90.5146 123.352L90.6826 124.36C90.7226 124.592 90.7546 124.816 90.7786 125.032C90.8106 125.248 90.8346 125.452 90.8506 125.644H91.9666V126.712L91.6786 127H90.8506C90.8026 127.416 90.7066 127.8 90.5626 128.152C90.4186 128.504 90.2186 128.808 89.9626 129.064C89.7146 129.32 89.4066 129.52 89.0386 129.664C88.6706 129.808 88.2346 129.88 87.7306 129.88H87.2626V128.524ZM93.899 130.24C93.683 129.912 93.503 129.632 93.359 129.4C93.223 129.176 93.111 128.98 93.023 128.812C92.943 128.644 92.887 128.492 92.855 128.356C92.823 128.228 92.807 128.092 92.807 127.948C92.807 127.692 92.851 127.448 92.939 127.216C93.035 126.984 93.147 126.776 93.275 126.592L93.215 126.556C93.055 126.708 92.855 126.82 92.615 126.892C92.383 126.964 92.031 127 91.559 127V125.932L91.847 125.644H92.195C92.523 125.644 92.779 125.584 92.963 125.464C93.155 125.344 93.327 125.132 93.479 124.828L93.971 123.832L94.859 124.288L94.403 125.212C94.299 125.42 94.211 125.608 94.139 125.776C94.067 125.944 94.007 126.1 93.959 126.244C93.911 126.38 93.875 126.512 93.851 126.64C93.835 126.768 93.827 126.896 93.827 127.024C93.827 127.16 93.843 127.292 93.875 127.42C93.907 127.548 93.955 127.688 94.019 127.84C94.083 128 94.167 128.172 94.271 128.356C94.383 128.54 94.515 128.752 94.667 128.992L95.651 126.568C95.787 126.216 95.931 125.976 96.083 125.848C96.235 125.712 96.451 125.644 96.731 125.644H97.691V126.712L97.403 127H96.491L95.219 130.24H93.899ZM97.2867 125.932L97.5747 125.644H97.8147C97.9827 125.644 98.1307 125.632 98.2587 125.608C98.3867 125.584 98.4987 125.54 98.5947 125.476C98.6907 125.412 98.7787 125.328 98.8587 125.224C98.9387 125.12 99.0187 124.988 99.0987 124.828L99.5907 123.832L100.491 124.288L99.9507 125.356L100.035 125.404C100.275 125.54 100.503 125.64 100.719 125.704C100.943 125.768 101.171 125.8 101.403 125.8C101.763 125.8 102.027 125.72 102.195 125.56C102.363 125.392 102.447 125.104 102.447 124.696V123.832H103.491V124.696C103.491 125.088 103.543 125.368 103.647 125.536C103.759 125.696 103.951 125.776 104.223 125.776H104.439C104.695 125.776 104.879 125.696 104.991 125.536C105.111 125.368 105.171 125.088 105.171 124.696V123.352H106.215V124.696C106.215 125.328 106.527 125.644 107.151 125.644H107.607V126.712L107.307 127C106.747 127 106.311 126.9 105.999 126.7C105.695 126.492 105.487 126.172 105.375 125.74H105.315C105.267 126.244 105.135 126.604 104.919 126.82C104.711 127.036 104.415 127.144 104.031 127.144C103.215 127.144 102.731 126.676 102.579 125.74H102.507C102.371 126.676 101.927 127.144 101.175 127.144C100.943 127.144 100.703 127.1 100.455 127.012C100.215 126.924 99.9267 126.78 99.5907 126.58L99.2667 126.388C99.0267 126.636 98.7547 126.8 98.4507 126.88C98.1467 126.96 97.7587 127 97.2867 127V125.932ZM103.743 122.608C103.559 122.608 103.411 122.552 103.299 122.44C103.187 122.328 103.131 122.156 103.131 121.924C103.131 121.684 103.187 121.512 103.299 121.408C103.411 121.296 103.559 121.24 103.743 121.24H103.911C104.095 121.24 104.243 121.296 104.355 121.408C104.467 121.512 104.523 121.684 104.523 121.924C104.523 122.156 104.467 122.328 104.355 122.44C104.243 122.552 104.095 122.608 103.911 122.608H103.743ZM102.039 122.608C101.855 122.608 101.707 122.552 101.595 122.44C101.491 122.328 101.439 122.156 101.439 121.924C101.439 121.684 101.491 121.512 101.595 121.408C101.707 121.296 101.855 121.24 102.039 121.24H102.219C102.403 121.24 102.551 121.296 102.663 121.408C102.775 121.512 102.831 121.684 102.831 121.924C102.831 122.156 102.775 122.328 102.663 122.44C102.551 122.552 102.403 122.608 102.219 122.608H102.039ZM102.891 121.024C102.715 121.024 102.571 120.972 102.459 120.868C102.347 120.756 102.291 120.584 102.291 120.352C102.291 120.12 102.347 119.952 102.459 119.848C102.571 119.744 102.715 119.692 102.891 119.692H103.071C103.247 119.692 103.387 119.744 103.491 119.848C103.603 119.952 103.659 120.12 103.659 120.352C103.659 120.584 103.603 120.756 103.491 120.868C103.387 120.972 103.247 121.024 103.071 121.024H102.891ZM107.198 125.932L107.486 125.644H107.906C108.258 125.644 108.502 125.568 108.638 125.416C108.782 125.264 108.854 125.024 108.854 124.696V118.12H109.982V124.696C109.982 125.488 109.822 126.072 109.502 126.448C109.182 126.816 108.65 127 107.906 127H107.198V125.932ZM111.522 118.12H112.638V127H111.522V118.12ZM120.015 129.88C118.895 129.88 118.031 129.608 117.423 129.064C116.823 128.52 116.523 127.752 116.523 126.76C116.523 126.4 116.571 126.004 116.667 125.572C116.771 125.14 116.911 124.716 117.087 124.3L117.999 124.576C117.847 124.904 117.723 125.24 117.627 125.584C117.531 125.928 117.483 126.24 117.483 126.52C117.483 127.128 117.671 127.596 118.047 127.924C118.423 128.26 118.943 128.428 119.607 128.428H120.435C121.211 128.428 121.779 128.264 122.139 127.936C122.507 127.616 122.691 127.104 122.691 126.4C122.691 126.176 122.671 125.92 122.631 125.632C122.591 125.336 122.531 124.996 122.451 124.612L122.223 123.568L123.267 123.364L123.459 124.396C123.499 124.636 123.535 124.86 123.567 125.068C123.607 125.268 123.635 125.46 123.651 125.644H124.779V126.712L124.491 127H123.663C123.575 127.984 123.235 128.708 122.643 129.172C122.051 129.644 121.175 129.88 120.015 129.88ZM120.063 123.34C119.879 123.34 119.731 123.284 119.619 123.172C119.515 123.06 119.463 122.888 119.463 122.656C119.463 122.416 119.515 122.244 119.619 122.14C119.731 122.028 119.879 121.972 120.063 121.972H120.243C120.427 121.972 120.575 122.028 120.687 122.14C120.799 122.244 120.855 122.416 120.855 122.656C120.855 122.888 120.799 123.06 120.687 123.172C120.575 123.284 120.427 123.34 120.243 123.34H120.063ZM124.366 125.932L124.654 125.644H125.926V125.584C125.694 125.376 125.502 125.112 125.35 124.792C125.206 124.472 125.134 124.124 125.134 123.748C125.134 123.38 125.198 123.036 125.326 122.716C125.454 122.396 125.626 122.124 125.842 121.9C126.066 121.668 126.326 121.488 126.622 121.36C126.926 121.224 127.254 121.156 127.606 121.156C128.134 121.156 128.582 121.268 128.95 121.492C129.326 121.708 129.634 122.012 129.874 122.404L128.986 123.292C128.794 123.02 128.578 122.824 128.338 122.704C128.106 122.576 127.834 122.512 127.522 122.512C127.074 122.512 126.726 122.624 126.478 122.848C126.238 123.064 126.118 123.364 126.118 123.748C126.118 124.18 126.294 124.532 126.646 124.804C127.006 125.068 127.474 125.2 128.05 125.2C128.442 125.2 128.838 125.144 129.238 125.032L130.294 124.756L130.618 125.992L128.962 126.46C128.594 126.572 128.246 126.664 127.918 126.736C127.598 126.8 127.262 126.852 126.91 126.892C126.566 126.932 126.19 126.96 125.782 126.976C125.374 126.992 124.902 127 124.366 127V125.932ZM139.953 127H134.265V125.704L136.941 123.316C137.365 122.932 137.689 122.568 137.913 122.224C138.145 121.872 138.261 121.504 138.261 121.12V120.964C138.261 120.556 138.137 120.236 137.889 120.004C137.649 119.772 137.321 119.656 136.905 119.656C136.673 119.656 136.469 119.692 136.293 119.764C136.125 119.828 135.977 119.92 135.849 120.04C135.721 120.16 135.613 120.3 135.525 120.46C135.445 120.62 135.381 120.792 135.333 120.976L134.145 120.52C134.233 120.256 134.353 120.004 134.505 119.764C134.657 119.516 134.849 119.296 135.081 119.104C135.313 118.912 135.585 118.76 135.897 118.648C136.217 118.536 136.589 118.48 137.013 118.48C137.437 118.48 137.817 118.544 138.153 118.672C138.489 118.792 138.769 118.964 138.993 119.188C139.225 119.404 139.401 119.664 139.521 119.968C139.641 120.272 139.701 120.604 139.701 120.964C139.701 121.3 139.649 121.612 139.545 121.9C139.441 122.188 139.297 122.46 139.113 122.716C138.929 122.972 138.713 123.216 138.465 123.448C138.225 123.68 137.969 123.916 137.697 124.156L135.729 125.848H139.953V127ZM142.277 127.144C141.981 127.144 141.761 127.068 141.617 126.916C141.473 126.756 141.401 126.56 141.401 126.328V126.148C141.401 125.916 141.473 125.724 141.617 125.572C141.761 125.412 141.981 125.332 142.277 125.332C142.573 125.332 142.793 125.412 142.937 125.572C143.081 125.724 143.153 125.916 143.153 126.148V126.328C143.153 126.56 143.081 126.756 142.937 126.916C142.793 127.068 142.573 127.144 142.277 127.144ZM147.041 122.068C147.561 122.068 147.945 121.96 148.193 121.744C148.441 121.52 148.565 121.236 148.565 120.892V120.808C148.565 120.424 148.445 120.132 148.205 119.932C147.965 119.724 147.641 119.62 147.233 119.62C146.833 119.62 146.493 119.712 146.213 119.896C145.933 120.072 145.697 120.32 145.505 120.64L144.605 119.86C144.733 119.676 144.877 119.5 145.037 119.332C145.197 119.164 145.385 119.02 145.601 118.9C145.817 118.772 146.061 118.672 146.333 118.6C146.605 118.52 146.917 118.48 147.269 118.48C147.661 118.48 148.025 118.528 148.361 118.624C148.697 118.72 148.985 118.864 149.225 119.056C149.465 119.24 149.653 119.468 149.789 119.74C149.925 120.004 149.993 120.304 149.993 120.64C149.993 120.904 149.949 121.144 149.861 121.36C149.781 121.576 149.665 121.768 149.513 121.936C149.369 122.096 149.197 122.228 148.997 122.332C148.805 122.436 148.601 122.512 148.385 122.56V122.62C148.625 122.668 148.849 122.748 149.057 122.86C149.273 122.964 149.461 123.104 149.621 123.28C149.781 123.448 149.905 123.652 149.993 123.892C150.089 124.124 150.137 124.392 150.137 124.696C150.137 125.064 150.065 125.4 149.921 125.704C149.777 126 149.573 126.256 149.309 126.472C149.053 126.688 148.741 126.856 148.373 126.976C148.005 127.088 147.597 127.144 147.149 127.144C146.757 127.144 146.413 127.1 146.117 127.012C145.821 126.932 145.557 126.824 145.325 126.688C145.101 126.544 144.901 126.384 144.725 126.208C144.557 126.024 144.409 125.836 144.281 125.644L145.277 124.864C145.381 125.032 145.489 125.188 145.601 125.332C145.721 125.468 145.853 125.588 145.997 125.692C146.149 125.788 146.317 125.864 146.501 125.92C146.693 125.976 146.909 126.004 147.149 126.004C147.661 126.004 148.053 125.884 148.325 125.644C148.597 125.396 148.733 125.056 148.733 124.624V124.54C148.733 124.108 148.589 123.78 148.301 123.556C148.013 123.332 147.605 123.22 147.077 123.22H146.189V122.068H147.041ZM153.144 127L158.952 118.624H160.164L154.356 127H153.144ZM153.684 123.232C153.036 123.232 152.54 123.032 152.196 122.632C151.852 122.224 151.68 121.632 151.68 120.856C151.68 120.08 151.852 119.492 152.196 119.092C152.54 118.684 153.036 118.48 153.684 118.48C154.332 118.48 154.828 118.684 155.172 119.092C155.516 119.492 155.688 120.08 155.688 120.856C155.688 121.632 155.516 122.224 155.172 122.632C154.828 123.032 154.332 123.232 153.684 123.232ZM153.684 122.428C154.252 122.428 154.536 122.016 154.536 121.192V120.52C154.536 119.696 154.252 119.284 153.684 119.284C153.116 119.284 152.832 119.696 152.832 120.52V121.192C152.832 122.016 153.116 122.428 153.684 122.428ZM159.624 127.144C158.976 127.144 158.48 126.944 158.136 126.544C157.792 126.136 157.62 125.544 157.62 124.768C157.62 123.992 157.792 123.404 158.136 123.004C158.48 122.596 158.976 122.392 159.624 122.392C160.272 122.392 160.768 122.596 161.112 123.004C161.456 123.404 161.628 123.992 161.628 124.768C161.628 125.544 161.456 126.136 161.112 126.544C160.768 126.944 160.272 127.144 159.624 127.144ZM159.624 126.34C160.192 126.34 160.476 125.928 160.476 125.104V124.432C160.476 123.608 160.192 123.196 159.624 123.196C159.056 123.196 158.772 123.608 158.772 124.432V125.104C158.772 125.928 159.056 126.34 159.624 126.34ZM172.711 121.132L171.967 121.876L171.067 120.964L170.587 120.4L170.539 120.412L170.611 121.492V127H169.519V121.492L169.579 120.412L169.531 120.4L169.051 120.964L168.151 121.876L167.407 121.132L170.059 118.48L172.711 121.132Z" fill="#9440F5"/>
<rect width="34.0656" height="5" rx="2.5" transform="matrix(-1 0 0 1 195.515 146)" fill="#9440F5"/>
<rect width="163.515" height="5" rx="2.5" transform="matrix(-1 0 0 1 195.515 146)" fill="#9440F5" fill-opacity="0.15"/>
<path d="M171.053 167V165.872H173.405V159.608H173.309L171.365 161.684L170.537 160.94L172.673 158.624H174.737V165.872H176.777V167H171.053ZM180.216 162.068C180.736 162.068 181.12 161.96 181.368 161.744C181.616 161.52 181.74 161.236 181.74 160.892V160.808C181.74 160.424 181.62 160.132 181.38 159.932C181.14 159.724 180.816 159.62 180.408 159.62C180.008 159.62 179.668 159.712 179.388 159.896C179.108 160.072 178.872 160.32 178.68 160.64L177.78 159.86C177.908 159.676 178.052 159.5 178.212 159.332C178.372 159.164 178.56 159.02 178.776 158.9C178.992 158.772 179.236 158.672 179.508 158.6C179.78 158.52 180.092 158.48 180.444 158.48C180.836 158.48 181.2 158.528 181.536 158.624C181.872 158.72 182.16 158.864 182.4 159.056C182.64 159.24 182.828 159.468 182.964 159.74C183.1 160.004 183.168 160.304 183.168 160.64C183.168 160.904 183.124 161.144 183.036 161.36C182.956 161.576 182.84 161.768 182.688 161.936C182.544 162.096 182.372 162.228 182.172 162.332C181.98 162.436 181.776 162.512 181.56 162.56V162.62C181.8 162.668 182.024 162.748 182.232 162.86C182.448 162.964 182.636 163.104 182.796 163.28C182.956 163.448 183.08 163.652 183.168 163.892C183.264 164.124 183.312 164.392 183.312 164.696C183.312 165.064 183.24 165.4 183.096 165.704C182.952 166 182.748 166.256 182.484 166.472C182.228 166.688 181.916 166.856 181.548 166.976C181.18 167.088 180.772 167.144 180.324 167.144C179.932 167.144 179.588 167.1 179.292 167.012C178.996 166.932 178.732 166.824 178.5 166.688C178.276 166.544 178.076 166.384 177.9 166.208C177.732 166.024 177.584 165.836 177.456 165.644L178.452 164.864C178.556 165.032 178.664 165.188 178.776 165.332C178.896 165.468 179.028 165.588 179.172 165.692C179.324 165.788 179.492 165.864 179.676 165.92C179.868 165.976 180.084 166.004 180.324 166.004C180.836 166.004 181.228 165.884 181.5 165.644C181.772 165.396 181.908 165.056 181.908 164.624V164.54C181.908 164.108 181.764 163.78 181.476 163.556C181.188 163.332 180.78 163.22 180.252 163.22H179.364V162.068H180.216ZM186.32 167L192.128 158.624H193.34L187.532 167H186.32ZM186.86 163.232C186.212 163.232 185.716 163.032 185.372 162.632C185.028 162.224 184.856 161.632 184.856 160.856C184.856 160.08 185.028 159.492 185.372 159.092C185.716 158.684 186.212 158.48 186.86 158.48C187.508 158.48 188.004 158.684 188.348 159.092C188.692 159.492 188.864 160.08 188.864 160.856C188.864 161.632 188.692 162.224 188.348 162.632C188.004 163.032 187.508 163.232 186.86 163.232ZM186.86 162.428C187.428 162.428 187.712 162.016 187.712 161.192V160.52C187.712 159.696 187.428 159.284 186.86 159.284C186.292 159.284 186.008 159.696 186.008 160.52V161.192C186.008 162.016 186.292 162.428 186.86 162.428ZM192.8 167.144C192.152 167.144 191.656 166.944 191.312 166.544C190.968 166.136 190.796 165.544 190.796 164.768C190.796 163.992 190.968 163.404 191.312 163.004C191.656 162.596 192.152 162.392 192.8 162.392C193.448 162.392 193.944 162.596 194.288 163.004C194.632 163.404 194.804 163.992 194.804 164.768C194.804 165.544 194.632 166.136 194.288 166.544C193.944 166.944 193.448 167.144 192.8 167.144ZM192.8 166.34C193.368 166.34 193.652 165.928 193.652 165.104V164.432C193.652 163.608 193.368 163.196 192.8 163.196C192.232 163.196 191.948 163.608 191.948 164.432V165.104C191.948 165.928 192.232 166.34 192.8 166.34Z" fill="#0D1530"/>
</g>
<defs>
<filter id="filter0_d_2571_18375" x="0" y="0" width="227.515" height="215" filterUnits="userSpaceOnUse" color-interpolation-filters="sRGB">
<feFlood flood-opacity="0" result="BackgroundImageFix"/>
<feColorMatrix in="SourceAlpha" type="matrix" values="0 0 0 0 0 0 0 0 0 0 0 0 0 0 0 0 0 0 127 0" result="hardAlpha"/>
<feOffset dy="8"/>
<feGaussianBlur stdDeviation="12"/>
<feColorMatrix type="matrix" values="0 0 0 0 0.05 0 0 0 0 0.12 0 0 0 0 0.3 0 0 0 0.1 0"/>
<feBlend mode="normal" in2="BackgroundImageFix" result="effect1_dropShadow_2571_18375"/>
<feBlend mode="normal" in="SourceGraphic" in2="effect1_dropShadow_2571_18375" result="shape"/>
</filter>
</defs>
</svg>
