<svg width="221" height="212" viewBox="0 0 221 212" fill="none" xmlns="http://www.w3.org/2000/svg">
<g filter="url(#filter0_d_2571_18389)">
<mask id="path-1-inside-1_2571_18389" fill="white">
<path d="M17.0967 28C17.0967 21.3726 22.4693 16 29.0967 16L184.612 16C191.239 16 196.612 21.3726 196.612 28V171C196.612 177.627 191.239 183 184.612 183H29.0967C22.4692 183 17.0967 177.627 17.0967 171L17.0967 28Z"/>
</mask>
<path d="M17.0967 28C17.0967 21.3726 22.4693 16 29.0967 16L184.612 16C191.239 16 196.612 21.3726 196.612 28V171C196.612 177.627 191.239 183 184.612 183H29.0967C22.4692 183 17.0967 177.627 17.0967 171L17.0967 28Z" fill="white"/>
<path d="M17.0967 28C17.0967 19.1634 24.2601 12 33.0967 12L180.612 12C189.448 12 196.612 19.1634 196.612 28C196.612 23.5817 191.239 20 184.612 20L29.0967 20C22.4693 20 17.0967 23.5817 17.0967 28ZM17.0967 28M196.612 183H17.0967H196.612M196.612 183M17.0967 183L17.0967 16L17.0967 183M17.0967 183M196.612 16V183V16" fill="#9440F5" mask="url(#path-1-inside-1_2571_18389)"/>
<path d="M67.0362 43.168C66.0562 43.168 65.2302 43.1167 64.5582 43.014C63.8955 42.9113 63.3588 42.748 62.9482 42.524C62.5375 42.3 62.2388 42.006 62.0522 41.642C61.8748 41.2687 61.7862 40.816 61.7862 40.284C61.7862 39.9107 61.8328 39.528 61.9262 39.136C62.0288 38.744 62.1828 38.31 62.3882 37.834L63.2562 38.1C62.8735 38.8933 62.6822 39.5747 62.6822 40.144C62.6822 40.7133 62.9528 41.1333 63.4942 41.404C64.0355 41.6653 64.8895 41.796 66.0562 41.796H68.0162C68.6788 41.796 69.2248 41.7773 69.6542 41.74C70.0835 41.7027 70.4242 41.6373 70.6762 41.544C70.9282 41.4507 71.1008 41.3247 71.1942 41.166C71.2968 40.998 71.3482 40.788 71.3482 40.536C71.3482 40.3773 71.3388 40.1813 71.3202 39.948C71.3015 39.7053 71.2548 39.388 71.1802 38.996L70.9702 37.834L71.9502 37.68L72.1322 38.842C72.1975 39.262 72.2395 39.6073 72.2582 39.878C72.2862 40.1393 72.3002 40.3587 72.3002 40.536C72.3002 41.0213 72.2068 41.432 72.0202 41.768C71.8428 42.104 71.5442 42.3747 71.1242 42.58C70.7135 42.7853 70.1722 42.9347 69.5002 43.028C68.8375 43.1213 68.0162 43.168 67.0362 43.168ZM67.8202 37.834C67.6335 37.834 67.4842 37.7827 67.3722 37.68C67.2602 37.568 67.2042 37.3907 67.2042 37.148C67.2042 36.9053 67.2602 36.7327 67.3722 36.63C67.4842 36.518 67.6335 36.462 67.8202 36.462H67.9742C68.1608 36.462 68.3102 36.518 68.4222 36.63C68.5342 36.7327 68.5902 36.9053 68.5902 37.148C68.5902 37.3907 68.5342 37.568 68.4222 37.68C68.3102 37.7827 68.1608 37.834 67.9742 37.834H67.8202ZM66.0142 37.834C65.8275 37.834 65.6782 37.7827 65.5662 37.68C65.4542 37.568 65.3982 37.3907 65.3982 37.148C65.3982 36.9053 65.4542 36.7327 65.5662 36.63C65.6782 36.518 65.8275 36.462 66.0142 36.462H66.1682C66.3548 36.462 66.5042 36.518 66.6162 36.63C66.7282 36.7327 66.7842 36.9053 66.7842 37.148C66.7842 37.3907 66.7282 37.568 66.6162 37.68C66.5042 37.7827 66.3548 37.834 66.1682 37.834H66.0142ZM76.2543 43C75.8063 43 75.4237 42.9627 75.1063 42.888C74.7983 42.8133 74.5463 42.692 74.3503 42.524C74.1637 42.3467 74.0283 42.118 73.9443 41.838C73.8603 41.558 73.8183 41.2173 73.8183 40.816V32.64H74.8543V40.816C74.8543 41.1707 74.9523 41.4227 75.1483 41.572C75.3443 41.7213 75.6477 41.796 76.0583 41.796H76.5483V42.72L76.2683 43H76.2543ZM77.9358 42.188C77.7211 42.4773 77.4691 42.6873 77.1798 42.818C76.8998 42.9393 76.5404 43 76.1018 43V42.076L76.3818 41.796C76.5591 41.796 76.7084 41.7727 76.8298 41.726C76.9604 41.6793 77.0724 41.6093 77.1658 41.516C77.2684 41.4133 77.3571 41.2827 77.4318 41.124C77.5158 40.956 77.5998 40.76 77.6838 40.536L78.0758 39.5C78.2904 38.94 78.5751 38.5107 78.9298 38.212C79.2844 37.904 79.7558 37.75 80.3438 37.75C81.0344 37.75 81.5664 38.0627 81.9398 38.688C82.3224 39.3133 82.5138 40.1813 82.5138 41.292V41.95L81.6878 43.168L77.9358 42.188ZM78.4958 41.082L81.5338 41.894V41.292C81.5338 40.564 81.4124 39.9947 81.1698 39.584C80.9364 39.164 80.6051 38.954 80.1758 38.954C79.8211 38.954 79.5458 39.0613 79.3498 39.276C79.1631 39.4907 79.0044 39.7613 78.8738 40.088L78.4958 41.082ZM83.4653 45.156H84.2073C85.2247 45.156 86.0087 44.9647 86.5593 44.582C87.1193 44.2087 87.4647 43.6813 87.5953 43H85.9573C85.2107 43 84.632 42.804 84.2213 42.412C83.8107 42.02 83.6053 41.4693 83.6053 40.76C83.6053 40.34 83.666 39.9433 83.7873 39.57C83.918 39.1967 84.0953 38.8747 84.3193 38.604C84.5433 38.324 84.8093 38.1047 85.1173 37.946C85.4347 37.778 85.78 37.694 86.1533 37.694C86.928 37.694 87.5347 38.0393 87.9733 38.73C88.4213 39.4207 88.6453 40.3913 88.6453 41.642V41.796H89.2893V42.72L89.0093 43H88.5193C88.314 44.0733 87.852 44.8993 87.1333 45.478C86.424 46.066 85.4487 46.36 84.2073 46.36H83.4653V45.156ZM84.5853 40.62C84.5853 41.0307 84.6927 41.3293 84.9073 41.516C85.1313 41.7027 85.4813 41.796 85.9573 41.796H87.6653V41.362C87.6653 40.606 87.5207 40.0087 87.2313 39.57C86.9513 39.122 86.564 38.898 86.0693 38.898C85.5933 38.898 85.2247 39.0567 84.9633 39.374C84.7113 39.6913 84.5853 40.1067 84.5853 40.62ZM100.92 43C100.565 43 100.267 42.972 100.024 42.916C99.7907 42.8507 99.5761 42.7293 99.3801 42.552C98.8947 42.8507 98.2134 43 97.3361 43H93.1921C91.9041 43 91.1481 42.5427 90.9241 41.628H90.8541C90.7514 42.1413 90.5507 42.5007 90.2521 42.706C89.9534 42.902 89.4867 43 88.8521 43V42.076L89.1321 41.796H89.6221C90.4154 41.796 90.8121 41.3993 90.8121 40.606V39.514H91.7921V40.606C91.7921 41.166 91.9741 41.5253 92.3381 41.684L93.0801 40.438C93.4347 39.822 93.7941 39.3133 94.1581 38.912C94.5221 38.5013 94.8907 38.1747 95.2641 37.932C95.6374 37.6893 96.0154 37.5167 96.3981 37.414C96.7901 37.3113 97.1961 37.26 97.6161 37.26C98.5214 37.26 99.2261 37.512 99.7301 38.016C100.234 38.5107 100.486 39.1967 100.486 40.074C100.486 40.7273 100.379 41.2687 100.164 41.698C100.36 41.7633 100.612 41.796 100.92 41.796H101.2V42.72L100.92 43ZM97.3361 41.796C98.0361 41.796 98.5727 41.6793 98.9461 41.446C99.3194 41.2127 99.5061 40.802 99.5061 40.214C99.5061 39.6353 99.3567 39.2013 99.0581 38.912C98.7687 38.6133 98.3581 38.464 97.8261 38.464H97.4061C97.0327 38.464 96.6921 38.5013 96.3841 38.576C96.0854 38.6413 95.7961 38.7627 95.5161 38.94C95.2454 39.108 94.9747 39.346 94.7041 39.654C94.4427 39.9527 94.1627 40.3307 93.8641 40.788L93.2621 41.726L93.3041 41.796H97.3361ZM100.764 42.076L101.044 41.796H101.52C101.931 41.796 102.309 41.782 102.654 41.754C103.009 41.726 103.368 41.6747 103.732 41.6C104.096 41.516 104.479 41.3993 104.88 41.25C105.291 41.1007 105.753 40.9047 106.266 40.662L107.554 40.046V39.99L105.482 39.528L102.584 38.814V40.018H101.604V38.94C101.604 38.548 101.712 38.254 101.926 38.058C102.15 37.8527 102.43 37.75 102.766 37.75C102.869 37.75 102.99 37.764 103.13 37.792C103.28 37.8107 103.508 37.8573 103.816 37.932L107.232 38.814C107.746 38.9447 108.175 39.038 108.52 39.094C108.866 39.1407 109.164 39.164 109.416 39.164H109.64V40.368H108.576V40.536C108.576 41.0027 108.679 41.3293 108.884 41.516C109.09 41.7027 109.407 41.796 109.836 41.796H110.326V42.72L110.046 43C109.636 43 109.286 42.9627 108.996 42.888C108.707 42.8133 108.469 42.692 108.282 42.524C108.105 42.3467 107.97 42.1227 107.876 41.852C107.792 41.5813 107.746 41.25 107.736 40.858L106.644 41.516C106.066 41.8613 105.552 42.1367 105.104 42.342C104.656 42.538 104.236 42.6873 103.844 42.79C103.452 42.8833 103.07 42.944 102.696 42.972C102.332 42.9907 101.94 43 101.52 43H100.764V42.076ZM104.516 36.154C104.33 36.154 104.18 36.1027 104.068 36C103.956 35.888 103.9 35.7107 103.9 35.468C103.9 35.2253 103.956 35.0527 104.068 34.95C104.18 34.838 104.33 34.782 104.516 34.782H104.67C104.857 34.782 105.006 34.838 105.118 34.95C105.23 35.0527 105.286 35.2253 105.286 35.468C105.286 35.7107 105.23 35.888 105.118 36C105.006 36.1027 104.857 36.154 104.67 36.154H104.516ZM109.888 42.076L110.168 41.796H110.574C111.022 41.796 111.344 41.6933 111.54 41.488C111.745 41.2827 111.848 40.956 111.848 40.508V32.64H112.884V40.508C112.884 41.3667 112.697 41.9967 112.324 42.398C111.96 42.7993 111.376 43 110.574 43H109.888V42.076ZM114.817 32.64H115.853V43H114.817V32.64ZM124.745 46.36C123.391 46.36 122.337 46.052 121.581 45.436C120.825 44.82 120.447 43.9613 120.447 42.86C120.447 42.4307 120.503 41.978 120.615 41.502C120.736 41.0167 120.899 40.536 121.105 40.06L121.973 40.326C121.795 40.69 121.651 41.0727 121.539 41.474C121.427 41.866 121.371 42.2393 121.371 42.594C121.371 43.3873 121.627 44.0033 122.141 44.442C122.663 44.8807 123.391 45.1 124.325 45.1H125.165C125.725 45.1 126.224 45.0393 126.663 44.918C127.101 44.806 127.47 44.652 127.769 44.456C128.077 44.2693 128.31 44.0593 128.469 43.826C128.627 43.5927 128.707 43.3547 128.707 43.112V43.084L125.683 42.412V41.264H126.257C126.798 41.264 127.199 41.1847 127.461 41.026C127.731 40.858 127.867 40.5453 127.867 40.088V32.64H128.847V40.088C128.847 40.48 128.772 40.8113 128.623 41.082C128.483 41.3433 128.273 41.5673 127.993 41.754V41.81L128.777 42.02C129.346 42.1693 129.631 42.5333 129.631 43.112C129.631 43.5507 129.519 43.966 129.295 44.358C129.08 44.75 128.763 45.0953 128.343 45.394C127.923 45.6927 127.409 45.926 126.803 46.094C126.196 46.2713 125.51 46.36 124.745 46.36ZM125.571 49.16C125.384 49.16 125.235 49.104 125.123 48.992C125.011 48.8893 124.955 48.7167 124.955 48.474C124.955 48.2313 125.011 48.054 125.123 47.942C125.235 47.8393 125.384 47.788 125.571 47.788H125.725C125.911 47.788 126.061 47.8393 126.173 47.942C126.285 48.054 126.341 48.2313 126.341 48.474C126.341 48.7167 126.285 48.8893 126.173 48.992C126.061 49.104 125.911 49.16 125.725 49.16H125.571ZM123.765 49.16C123.578 49.16 123.429 49.104 123.317 48.992C123.205 48.8893 123.149 48.7167 123.149 48.474C123.149 48.2313 123.205 48.054 123.317 47.942C123.429 47.8393 123.578 47.788 123.765 47.788H123.919C124.105 47.788 124.255 47.8393 124.367 47.942C124.479 48.054 124.535 48.2313 124.535 48.474C124.535 48.7167 124.479 48.8893 124.367 48.992C124.255 49.104 124.105 49.16 123.919 49.16H123.765ZM133.371 43C132.923 43 132.54 42.9627 132.223 42.888C131.915 42.8133 131.663 42.692 131.467 42.524C131.28 42.3467 131.145 42.118 131.061 41.838C130.977 41.558 130.935 41.2173 130.935 40.816V32.64H131.971V40.816C131.971 41.1707 132.069 41.4227 132.265 41.572C132.461 41.7213 132.764 41.796 133.175 41.796H133.665V42.72L133.385 43H133.371ZM133.218 42.076L133.498 41.796C133.806 41.796 134.04 41.782 134.198 41.754C134.366 41.726 134.502 41.67 134.604 41.586C134.576 41.4833 134.558 41.3807 134.548 41.278C134.539 41.1753 134.534 41.0633 134.534 40.942C134.534 40.438 134.698 39.9807 135.024 39.57C135.36 39.15 135.864 38.7207 136.536 38.282L137.222 37.834H138.314L139.308 40.536C139.402 40.788 139.486 40.998 139.56 41.166C139.644 41.3247 139.733 41.4507 139.826 41.544C139.929 41.6373 140.036 41.7027 140.148 41.74C140.27 41.7773 140.41 41.796 140.568 41.796H140.834V42.72L140.554 43C140.116 43 139.766 42.9393 139.504 42.818C139.243 42.6873 139.01 42.4353 138.804 42.062L138.72 42.09V43H137.054C135.85 43 135.076 42.65 134.73 41.95H134.674C134.553 42.3047 134.385 42.5707 134.17 42.748C133.956 42.916 133.638 43 133.218 43V42.076ZM135.458 40.816C135.458 41.152 135.594 41.3993 135.864 41.558C136.135 41.7167 136.56 41.796 137.138 41.796H138.664C138.562 41.5813 138.45 41.306 138.328 40.97L137.544 38.856L137.012 39.178C136.592 39.43 136.228 39.6913 135.92 39.962C135.612 40.2327 135.458 40.5173 135.458 40.816ZM140.4 42.076L140.68 41.796H141.156C141.567 41.796 141.945 41.782 142.29 41.754C142.645 41.726 143.004 41.6747 143.368 41.6C143.732 41.516 144.115 41.3993 144.516 41.25C144.927 41.1007 145.389 40.9047 145.902 40.662L147.19 40.046V39.99L145.118 39.528L142.22 38.814V40.018H141.24V38.94C141.24 38.548 141.348 38.254 141.562 38.058C141.786 37.8527 142.066 37.75 142.402 37.75C142.505 37.75 142.626 37.764 142.766 37.792C142.916 37.8107 143.144 37.8573 143.452 37.932L146.868 38.814C147.382 38.9447 147.811 39.038 148.156 39.094C148.502 39.1407 148.8 39.164 149.052 39.164H149.276V40.368H148.184L146.28 41.516C145.702 41.8613 145.188 42.1367 144.74 42.342C144.292 42.538 143.872 42.6873 143.48 42.79C143.088 42.8833 142.706 42.944 142.332 42.972C141.968 42.9907 141.576 43 141.156 43H140.4V42.076ZM144.866 45.8C144.68 45.8 144.53 45.744 144.418 45.632C144.306 45.5293 144.25 45.3567 144.25 45.114C144.25 44.8713 144.306 44.694 144.418 44.582C144.53 44.4793 144.68 44.428 144.866 44.428H145.02C145.207 44.428 145.356 44.4793 145.468 44.582C145.58 44.694 145.636 44.8713 145.636 45.114C145.636 45.3567 145.58 45.5293 145.468 45.632C145.356 45.744 145.207 45.8 145.02 45.8H144.866ZM150.443 32.64H151.479V43H150.443V32.64ZM149.547 45.786H150.051L150.065 45.73C149.991 45.6367 149.93 45.5247 149.883 45.394C149.837 45.2727 149.813 45.1467 149.813 45.016C149.813 44.652 149.935 44.3487 150.177 44.106C150.42 43.8633 150.728 43.742 151.101 43.742C151.316 43.742 151.535 43.7933 151.759 43.896C151.983 44.008 152.151 44.1527 152.263 44.33L151.745 44.96C151.559 44.7453 151.344 44.638 151.101 44.638C150.933 44.638 150.793 44.68 150.681 44.764C150.569 44.8573 150.513 44.9693 150.513 45.1C150.513 45.296 150.602 45.45 150.779 45.562C150.957 45.674 151.204 45.73 151.521 45.73H152.417V46.626H149.547V45.786Z" fill="#0D1530"/>
<path d="M122.898 78.36C121.675 78.36 120.732 78.0427 120.07 77.408C119.416 76.7733 119.09 75.8773 119.09 74.72C119.09 74.3 119.146 73.838 119.258 73.334C119.379 72.83 119.542 72.3353 119.748 71.85L120.812 72.172C120.634 72.564 120.49 72.97 120.378 73.39C120.266 73.81 120.21 74.188 120.21 74.524C120.21 75.2053 120.406 75.7327 120.798 76.106C121.19 76.4793 121.731 76.666 122.422 76.666H123.388C123.789 76.666 124.13 76.6193 124.41 76.526C124.69 76.4327 124.918 76.2787 125.096 76.064C125.273 75.8493 125.399 75.5647 125.474 75.21C125.548 74.8647 125.586 74.44 125.586 73.936V64.64H126.902V73.936C126.902 75.4573 126.575 76.5727 125.922 77.282C125.278 78.0007 124.27 78.36 122.898 78.36ZM131.236 75C130.322 75 129.664 74.8133 129.262 74.44C128.861 74.0573 128.66 73.4227 128.66 72.536V64.64H129.962V72.41C129.962 72.802 130.051 73.068 130.228 73.208C130.415 73.348 130.718 73.418 131.138 73.418H131.6V74.664L131.25 75H131.236ZM131.109 73.754L131.445 73.418H131.739C132.373 73.418 132.821 73.348 133.083 73.208C133.344 73.0587 133.475 72.7927 133.475 72.41C133.475 72.2513 133.461 72.0507 133.433 71.808C133.414 71.5653 133.372 71.2433 133.307 70.842L133.083 69.624L134.301 69.428L134.483 70.646C134.595 71.3927 134.651 71.9807 134.651 72.41C134.651 73.2873 134.413 73.9407 133.937 74.37C133.461 74.79 132.728 75 131.739 75H131.109V73.754ZM134.357 77.898C134.142 77.898 133.969 77.8327 133.839 77.702C133.717 77.5713 133.657 77.3707 133.657 77.1C133.657 76.82 133.717 76.6147 133.839 76.484C133.969 76.3627 134.142 76.302 134.357 76.302H134.567C134.781 76.302 134.954 76.3627 135.085 76.484C135.215 76.6147 135.281 76.82 135.281 77.1C135.281 77.3707 135.215 77.5713 135.085 77.702C134.954 77.8327 134.781 77.898 134.567 77.898H134.357ZM132.383 77.898C132.168 77.898 131.995 77.8327 131.865 77.702C131.743 77.5713 131.683 77.3707 131.683 77.1C131.683 76.82 131.743 76.6147 131.865 76.484C131.995 76.3627 132.168 76.302 132.383 76.302H132.593C132.807 76.302 132.98 76.3627 133.111 76.484C133.241 76.6147 133.307 76.82 133.307 77.1C133.307 77.3707 133.241 77.5713 133.111 77.702C132.98 77.8327 132.807 77.898 132.593 77.898H132.383ZM135.626 76.778H136.158C136.634 76.778 137.031 76.7173 137.348 76.596C137.666 76.4747 137.922 76.302 138.118 76.078C138.314 75.8633 138.454 75.602 138.538 75.294C138.622 74.986 138.664 74.6407 138.664 74.258C138.664 74.006 138.65 73.7447 138.622 73.474C138.594 73.2033 138.557 72.9327 138.51 72.662L138.216 70.968L139.42 70.744L139.616 71.92C139.775 72.8253 139.854 73.6 139.854 74.244C139.854 74.8227 139.784 75.3593 139.644 75.854C139.514 76.358 139.299 76.7967 139 77.17C138.702 77.5433 138.319 77.8327 137.852 78.038C137.386 78.2527 136.826 78.36 136.172 78.36H135.626V76.778ZM144.611 75V73.684H147.355V66.376H147.243L144.975 68.798L144.009 67.93L146.501 65.228H148.909V73.684H151.289V75H144.611ZM159.187 75H152.551V73.488L155.673 70.702C156.168 70.254 156.546 69.8293 156.807 69.428C157.078 69.0173 157.213 68.588 157.213 68.14V67.958C157.213 67.482 157.068 67.1087 156.779 66.838C156.499 66.5673 156.116 66.432 155.631 66.432C155.36 66.432 155.122 66.474 154.917 66.558C154.721 66.6327 154.548 66.74 154.399 66.88C154.25 67.02 154.124 67.1833 154.021 67.37C153.928 67.5567 153.853 67.7573 153.797 67.972L152.411 67.44C152.514 67.132 152.654 66.838 152.831 66.558C153.008 66.2687 153.232 66.012 153.503 65.788C153.774 65.564 154.091 65.3867 154.455 65.256C154.828 65.1253 155.262 65.06 155.757 65.06C156.252 65.06 156.695 65.1347 157.087 65.284C157.479 65.424 157.806 65.6247 158.067 65.886C158.338 66.138 158.543 66.4413 158.683 66.796C158.823 67.1507 158.893 67.538 158.893 67.958C158.893 68.35 158.832 68.714 158.711 69.05C158.59 69.386 158.422 69.7033 158.207 70.002C157.992 70.3007 157.74 70.5853 157.451 70.856C157.171 71.1267 156.872 71.402 156.555 71.682L154.259 73.656H159.187V75ZM161.878 73.054C162.223 73.054 162.48 73.1427 162.648 73.32C162.816 73.4973 162.9 73.726 162.9 74.006V74.23C162.9 74.6873 162.774 75.1633 162.522 75.658C162.279 76.162 161.948 76.5867 161.528 76.932H160.394C160.692 76.6333 160.94 76.344 161.136 76.064C161.332 75.784 161.481 75.4713 161.584 75.126C161.341 75.0793 161.159 74.9767 161.038 74.818C160.916 74.65 160.856 74.454 160.856 74.23V74.006C160.856 73.726 160.94 73.4973 161.108 73.32C161.276 73.1427 161.532 73.054 161.878 73.054ZM171.322 75H164.686V73.488L167.808 70.702C168.303 70.254 168.681 69.8293 168.942 69.428C169.213 69.0173 169.348 68.588 169.348 68.14V67.958C169.348 67.482 169.204 67.1087 168.914 66.838C168.634 66.5673 168.252 66.432 167.766 66.432C167.496 66.432 167.258 66.474 167.052 66.558C166.856 66.6327 166.684 66.74 166.534 66.88C166.385 67.02 166.259 67.1833 166.156 67.37C166.063 67.5567 165.988 67.7573 165.932 67.972L164.546 67.44C164.649 67.132 164.789 66.838 164.966 66.558C165.144 66.2687 165.368 66.012 165.638 65.788C165.909 65.564 166.226 65.3867 166.59 65.256C166.964 65.1253 167.398 65.06 167.892 65.06C168.387 65.06 168.83 65.1347 169.222 65.284C169.614 65.424 169.941 65.6247 170.202 65.886C170.473 66.138 170.678 66.4413 170.818 66.796C170.958 67.1507 171.028 67.538 171.028 67.958C171.028 68.35 170.968 68.714 170.846 69.05C170.725 69.386 170.557 69.7033 170.342 70.002C170.128 70.3007 169.876 70.5853 169.586 70.856C169.306 71.1267 169.008 71.402 168.69 71.682L166.394 73.656H171.322V75ZM176.183 75.168C175.576 75.168 175.049 75.056 174.601 74.832C174.153 74.5987 173.784 74.2673 173.495 73.838C173.205 73.4087 172.991 72.8813 172.851 72.256C172.711 71.6307 172.641 70.9167 172.641 70.114C172.641 69.3207 172.711 68.6113 172.851 67.986C172.991 67.3513 173.205 66.8193 173.495 66.39C173.784 65.9607 174.153 65.634 174.601 65.41C175.049 65.1767 175.576 65.06 176.183 65.06C177.396 65.06 178.287 65.5033 178.857 66.39C179.435 67.2767 179.725 68.518 179.725 70.114C179.725 71.71 179.435 72.9513 178.857 73.838C178.287 74.7247 177.396 75.168 176.183 75.168ZM176.183 73.824C176.519 73.824 176.803 73.7587 177.037 73.628C177.279 73.488 177.475 73.292 177.625 73.04C177.774 72.788 177.881 72.4893 177.947 72.144C178.012 71.7893 178.045 71.3973 178.045 70.968V69.26C178.045 68.8307 178.012 68.4433 177.947 68.098C177.881 67.7433 177.774 67.44 177.625 67.188C177.475 66.936 177.279 66.7447 177.037 66.614C176.803 66.474 176.519 66.404 176.183 66.404C175.847 66.404 175.557 66.474 175.315 66.614C175.081 66.7447 174.89 66.936 174.741 67.188C174.591 67.44 174.484 67.7433 174.419 68.098C174.353 68.4433 174.321 68.8307 174.321 69.26V70.968C174.321 71.3973 174.353 71.7893 174.419 72.144C174.484 72.4893 174.591 72.788 174.741 73.04C174.89 73.292 175.081 73.488 175.315 73.628C175.557 73.7587 175.847 73.824 176.183 73.824ZM184.417 75.168C183.811 75.168 183.283 75.056 182.835 74.832C182.387 74.5987 182.019 74.2673 181.729 73.838C181.44 73.4087 181.225 72.8813 181.085 72.256C180.945 71.6307 180.875 70.9167 180.875 70.114C180.875 69.3207 180.945 68.6113 181.085 67.986C181.225 67.3513 181.44 66.8193 181.729 66.39C182.019 65.9607 182.387 65.634 182.835 65.41C183.283 65.1767 183.811 65.06 184.417 65.06C185.631 65.06 186.522 65.5033 187.091 66.39C187.67 67.2767 187.959 68.518 187.959 70.114C187.959 71.71 187.67 72.9513 187.091 73.838C186.522 74.7247 185.631 75.168 184.417 75.168ZM184.417 73.824C184.753 73.824 185.038 73.7587 185.271 73.628C185.514 73.488 185.71 73.292 185.859 73.04C186.009 72.788 186.116 72.4893 186.181 72.144C186.247 71.7893 186.279 71.3973 186.279 70.968V69.26C186.279 68.8307 186.247 68.4433 186.181 68.098C186.116 67.7433 186.009 67.44 185.859 67.188C185.71 66.936 185.514 66.7447 185.271 66.614C185.038 66.474 184.753 66.404 184.417 66.404C184.081 66.404 183.792 66.474 183.549 66.614C183.316 66.7447 183.125 66.936 182.975 67.188C182.826 67.44 182.719 67.7433 182.653 68.098C182.588 68.4433 182.555 68.8307 182.555 69.26V70.968C182.555 71.3973 182.588 71.7893 182.653 72.144C182.719 72.4893 182.826 72.788 182.975 73.04C183.125 73.292 183.316 73.488 183.549 73.628C183.792 73.7587 184.081 73.824 184.417 73.824Z" fill="#0D1530"/>
<path d="M142.774 97.524H143.23C143.638 97.524 143.978 97.472 144.25 97.368C144.522 97.264 144.742 97.116 144.91 96.924C145.078 96.74 145.198 96.516 145.27 96.252C145.342 95.988 145.378 95.692 145.378 95.364C145.378 95.148 145.366 94.924 145.342 94.692C145.318 94.46 145.286 94.228 145.246 93.996L144.994 92.544L146.026 92.352L146.194 93.36C146.234 93.592 146.266 93.816 146.29 94.032C146.322 94.248 146.346 94.452 146.362 94.644H147.478V95.712L147.19 96H146.362C146.314 96.416 146.218 96.8 146.074 97.152C145.93 97.504 145.73 97.808 145.474 98.064C145.226 98.32 144.918 98.52 144.55 98.664C144.182 98.808 143.746 98.88 143.242 98.88H142.774V97.524ZM149.41 99.24C149.194 98.912 149.014 98.632 148.87 98.4C148.734 98.176 148.622 97.98 148.534 97.812C148.454 97.644 148.398 97.492 148.366 97.356C148.334 97.228 148.318 97.092 148.318 96.948C148.318 96.692 148.362 96.448 148.45 96.216C148.546 95.984 148.658 95.776 148.786 95.592L148.726 95.556C148.566 95.708 148.366 95.82 148.126 95.892C147.894 95.964 147.542 96 147.07 96V94.932L147.358 94.644H147.706C148.034 94.644 148.29 94.584 148.474 94.464C148.666 94.344 148.838 94.132 148.99 93.828L149.482 92.832L150.37 93.288L149.914 94.212C149.81 94.42 149.722 94.608 149.65 94.776C149.578 94.944 149.518 95.1 149.47 95.244C149.422 95.38 149.386 95.512 149.362 95.64C149.346 95.768 149.338 95.896 149.338 96.024C149.338 96.16 149.354 96.292 149.386 96.42C149.418 96.548 149.466 96.688 149.53 96.84C149.594 97 149.678 97.172 149.782 97.356C149.894 97.54 150.026 97.752 150.178 97.992L151.162 95.568C151.298 95.216 151.442 94.976 151.594 94.848C151.746 94.712 151.962 94.644 152.242 94.644H153.202V95.712L152.914 96H152.002L150.73 99.24H149.41ZM152.798 94.932L153.086 94.644H153.326C153.494 94.644 153.642 94.632 153.77 94.608C153.898 94.584 154.01 94.54 154.106 94.476C154.202 94.412 154.29 94.328 154.37 94.224C154.45 94.12 154.53 93.988 154.61 93.828L155.102 92.832L156.002 93.288L155.462 94.356L155.546 94.404C155.786 94.54 156.014 94.64 156.23 94.704C156.454 94.768 156.682 94.8 156.914 94.8C157.274 94.8 157.538 94.72 157.706 94.56C157.874 94.392 157.958 94.104 157.958 93.696V92.832H159.002V93.696C159.002 94.088 159.054 94.368 159.158 94.536C159.27 94.696 159.462 94.776 159.734 94.776H159.95C160.206 94.776 160.39 94.696 160.502 94.536C160.622 94.368 160.682 94.088 160.682 93.696V92.352H161.726V93.696C161.726 94.328 162.038 94.644 162.662 94.644H163.118V95.712L162.818 96C162.258 96 161.822 95.9 161.51 95.7C161.206 95.492 160.998 95.172 160.886 94.74H160.826C160.778 95.244 160.646 95.604 160.43 95.82C160.222 96.036 159.926 96.144 159.542 96.144C158.726 96.144 158.242 95.676 158.09 94.74H158.018C157.882 95.676 157.438 96.144 156.686 96.144C156.454 96.144 156.214 96.1 155.966 96.012C155.726 95.924 155.438 95.78 155.102 95.58L154.778 95.388C154.538 95.636 154.266 95.8 153.962 95.88C153.658 95.96 153.27 96 152.798 96V94.932ZM159.254 91.608C159.07 91.608 158.922 91.552 158.81 91.44C158.698 91.328 158.642 91.156 158.642 90.924C158.642 90.684 158.698 90.512 158.81 90.408C158.922 90.296 159.07 90.24 159.254 90.24H159.422C159.606 90.24 159.754 90.296 159.866 90.408C159.978 90.512 160.034 90.684 160.034 90.924C160.034 91.156 159.978 91.328 159.866 91.44C159.754 91.552 159.606 91.608 159.422 91.608H159.254ZM157.55 91.608C157.366 91.608 157.218 91.552 157.106 91.44C157.002 91.328 156.95 91.156 156.95 90.924C156.95 90.684 157.002 90.512 157.106 90.408C157.218 90.296 157.366 90.24 157.55 90.24H157.73C157.914 90.24 158.062 90.296 158.174 90.408C158.286 90.512 158.342 90.684 158.342 90.924C158.342 91.156 158.286 91.328 158.174 91.44C158.062 91.552 157.914 91.608 157.73 91.608H157.55ZM158.402 90.024C158.226 90.024 158.082 89.972 157.97 89.868C157.858 89.756 157.802 89.584 157.802 89.352C157.802 89.12 157.858 88.952 157.97 88.848C158.082 88.744 158.226 88.692 158.402 88.692H158.582C158.758 88.692 158.898 88.744 159.002 88.848C159.114 88.952 159.17 89.12 159.17 89.352C159.17 89.584 159.114 89.756 159.002 89.868C158.898 89.972 158.758 90.024 158.582 90.024H158.402ZM162.709 94.932L162.997 94.644H163.417C163.769 94.644 164.013 94.568 164.149 94.416C164.293 94.264 164.365 94.024 164.365 93.696V87.12H165.493V93.696C165.493 94.488 165.333 95.072 165.013 95.448C164.693 95.816 164.161 96 163.417 96H162.709V94.932ZM167.033 87.12H168.149V96H167.033V87.12ZM172.406 87.12H173.522V96H172.406V87.12ZM175.904 96C175.496 96 175.176 95.892 174.944 95.676C174.712 95.46 174.596 95.124 174.596 94.668V93.792H175.664V94.644H177.296C177.72 94.644 178.012 94.608 178.172 94.536C178.332 94.464 178.412 94.328 178.412 94.128C178.412 94.04 178.392 93.932 178.352 93.804C178.312 93.668 178.256 93.496 178.184 93.288L177.068 90.18L178.208 89.772L179.432 93.168C179.536 93.464 179.632 93.708 179.72 93.9C179.816 94.084 179.912 94.232 180.008 94.344C180.104 94.456 180.204 94.536 180.308 94.584C180.42 94.624 180.548 94.644 180.692 94.644H181.016V95.712L180.716 96C180.452 96 180.22 95.98 180.02 95.94C179.82 95.892 179.64 95.82 179.48 95.724C179.328 95.62 179.188 95.484 179.06 95.316C178.94 95.148 178.82 94.936 178.7 94.68L178.64 94.692C178.568 95.164 178.408 95.5 178.16 95.7C177.912 95.9 177.532 96 177.02 96H175.904ZM177.404 88.74C177.22 88.74 177.072 88.684 176.96 88.572C176.856 88.46 176.804 88.288 176.804 88.056C176.804 87.816 176.856 87.644 176.96 87.54C177.072 87.428 177.22 87.372 177.404 87.372H177.584C177.768 87.372 177.916 87.428 178.028 87.54C178.14 87.644 178.196 87.816 178.196 88.056C178.196 88.288 178.14 88.46 178.028 88.572C177.916 88.684 177.768 88.74 177.584 88.74H177.404ZM180.613 94.932L180.901 94.644H182.449L182.473 94.584C181.809 94.016 181.477 93.36 181.477 92.616C181.477 92.304 181.525 92.008 181.621 91.728C181.725 91.448 181.865 91.2 182.041 90.984C182.225 90.768 182.437 90.592 182.677 90.456C182.917 90.312 183.177 90.228 183.457 90.204L183.841 89.472L185.701 90.492C186.141 90.732 186.517 90.988 186.829 91.26C187.141 91.524 187.397 91.816 187.597 92.136C187.797 92.456 187.945 92.808 188.041 93.192C188.137 93.568 188.185 93.992 188.185 94.464V94.704L187.309 96H185.977C185.553 96 185.145 95.956 184.753 95.868C184.369 95.772 184.001 95.62 183.649 95.412C183.305 95.62 182.937 95.772 182.545 95.868C182.153 95.956 181.749 96 181.333 96H180.613V94.932ZM183.649 94.368C184.033 94.144 184.329 93.884 184.537 93.588C184.753 93.292 184.861 92.976 184.861 92.64C184.861 92.232 184.757 91.912 184.549 91.68C184.349 91.44 184.073 91.32 183.721 91.32H183.589C183.237 91.32 182.957 91.44 182.749 91.68C182.541 91.912 182.437 92.232 182.437 92.64C182.437 92.976 182.541 93.292 182.749 93.588C182.965 93.884 183.265 94.144 183.649 94.368ZM185.725 91.932C185.789 92.164 185.821 92.392 185.821 92.616C185.821 93.36 185.489 94.016 184.825 94.584L184.849 94.644H187.189V94.536C187.189 93.912 187.073 93.396 186.841 92.988C186.617 92.58 186.253 92.22 185.749 91.908L185.725 91.932Z" fill="#6B7280"/>
<rect x="64.854" y="112" width="84" height="22" rx="9" fill="#9440F5" fill-opacity="0.12"/>
<path d="M73.802 129.88C72.682 129.88 71.818 129.608 71.21 129.064C70.61 128.52 70.31 127.752 70.31 126.76C70.31 126.4 70.358 126.004 70.454 125.572C70.558 125.14 70.698 124.716 70.874 124.3L71.786 124.576C71.634 124.904 71.51 125.24 71.414 125.584C71.318 125.928 71.27 126.24 71.27 126.52C71.27 127.128 71.458 127.596 71.834 127.924C72.21 128.26 72.73 128.428 73.394 128.428H74.222C74.998 128.428 75.566 128.264 75.926 127.936C76.294 127.616 76.478 127.104 76.478 126.4C76.478 126.176 76.458 125.92 76.418 125.632C76.378 125.336 76.318 124.996 76.238 124.612L76.01 123.568L77.054 123.364L77.246 124.396C77.286 124.636 77.322 124.86 77.354 125.068C77.394 125.268 77.422 125.46 77.438 125.644H78.566V126.712L78.278 127H77.45C77.362 127.984 77.022 128.708 76.43 129.172C75.838 129.644 74.962 129.88 73.802 129.88ZM73.85 123.34C73.666 123.34 73.518 123.284 73.406 123.172C73.302 123.06 73.25 122.888 73.25 122.656C73.25 122.416 73.302 122.244 73.406 122.14C73.518 122.028 73.666 121.972 73.85 121.972H74.03C74.214 121.972 74.362 122.028 74.474 122.14C74.586 122.244 74.642 122.416 74.642 122.656C74.642 122.888 74.586 123.06 74.474 123.172C74.362 123.284 74.214 123.34 74.03 123.34H73.85ZM78.153 125.932L78.441 125.644H78.681C78.849 125.644 78.997 125.632 79.125 125.608C79.253 125.584 79.365 125.54 79.461 125.476C79.557 125.412 79.645 125.328 79.725 125.224C79.805 125.12 79.885 124.988 79.965 124.828L80.457 123.832L81.357 124.288L80.817 125.356L80.901 125.404C81.141 125.54 81.369 125.64 81.585 125.704C81.809 125.768 82.037 125.8 82.269 125.8C82.629 125.8 82.893 125.72 83.061 125.56C83.229 125.392 83.313 125.104 83.313 124.696V123.832H84.357V124.696C84.357 125.088 84.409 125.368 84.513 125.536C84.625 125.696 84.817 125.776 85.089 125.776H85.305C85.561 125.776 85.745 125.696 85.857 125.536C85.977 125.368 86.037 125.088 86.037 124.696V123.352H87.081V124.696C87.081 125.328 87.393 125.644 88.017 125.644H88.473V126.712L88.173 127C87.613 127 87.177 126.9 86.865 126.7C86.561 126.492 86.353 126.172 86.241 125.74H86.181C86.133 126.244 86.001 126.604 85.785 126.82C85.577 127.036 85.281 127.144 84.897 127.144C84.081 127.144 83.597 126.676 83.445 125.74H83.373C83.237 126.676 82.793 127.144 82.041 127.144C81.809 127.144 81.569 127.1 81.321 127.012C81.081 126.924 80.793 126.78 80.457 126.58L80.133 126.388C79.893 126.636 79.621 126.8 79.317 126.88C79.013 126.96 78.625 127 78.153 127V125.932ZM88.0643 125.932L88.3523 125.644H88.9403C89.3323 125.644 89.6923 125.636 90.0203 125.62C90.3483 125.604 90.6683 125.568 90.9803 125.512C91.2923 125.448 91.6123 125.36 91.9403 125.248C92.2683 125.128 92.6323 124.972 93.0323 124.78L93.8603 124.384V124.324L92.0123 123.928L89.8163 123.388V124.36H88.7483V123.436C88.7483 123.004 88.8523 122.684 89.0603 122.476C89.2763 122.26 89.5763 122.152 89.9603 122.152C90.0643 122.152 90.1843 122.164 90.3203 122.188C90.4643 122.212 90.6923 122.264 91.0043 122.344L93.6683 123.028C94.4363 123.228 95.0963 123.328 95.6483 123.328H95.8643V124.684H94.9883V124.744C94.9883 125.08 95.0643 125.316 95.2163 125.452C95.3683 125.58 95.6163 125.644 95.9603 125.644H96.3563V126.712L96.0683 127C95.4043 127 94.9123 126.864 94.5923 126.592C94.2803 126.312 94.1043 125.86 94.0643 125.236L93.4523 125.62C92.9403 125.94 92.4843 126.192 92.0843 126.376C91.6923 126.56 91.3243 126.7 90.9803 126.796C90.6363 126.884 90.3003 126.94 89.9723 126.964C89.6523 126.988 89.3083 127 88.9403 127H88.0643V125.932ZM95.9482 125.932L96.2362 125.644H96.4882C97.0322 125.644 97.4162 125.584 97.6402 125.464C97.8642 125.336 97.9762 125.108 97.9762 124.78C97.9762 124.644 97.9642 124.472 97.9402 124.264C97.9242 124.056 97.8882 123.78 97.8322 123.436L97.6402 122.392L98.6842 122.224L98.8402 123.268C98.9362 123.908 98.9842 124.412 98.9842 124.78C98.9842 125.532 98.7802 126.092 98.3722 126.46C97.9642 126.82 97.3362 127 96.4882 127H95.9482V125.932ZM98.7442 121C98.5602 121 98.4122 120.944 98.3002 120.832C98.1962 120.72 98.1442 120.548 98.1442 120.316C98.1442 120.076 98.1962 119.904 98.3002 119.8C98.4122 119.688 98.5602 119.632 98.7442 119.632H98.9242C99.1082 119.632 99.2562 119.688 99.3682 119.8C99.4802 119.904 99.5362 120.076 99.5362 120.316C99.5362 120.548 99.4802 120.72 99.3682 120.832C99.2562 120.944 99.1082 121 98.9242 121H98.7442ZM97.0522 121C96.8682 121 96.7202 120.944 96.6082 120.832C96.5042 120.72 96.4522 120.548 96.4522 120.316C96.4522 120.076 96.5042 119.904 96.6082 119.8C96.7202 119.688 96.8682 119.632 97.0522 119.632H97.2322C97.4162 119.632 97.5642 119.688 97.6762 119.8C97.7882 119.904 97.8442 120.076 97.8442 120.316C97.8442 120.548 97.7882 120.72 97.6762 120.832C97.5642 120.944 97.4162 121 97.2322 121H97.0522ZM103.099 127V125.872H105.451V119.608H105.355L103.411 121.684L102.583 120.94L104.719 118.624H106.783V125.872H108.823V127H103.099ZM110.858 127.144C110.562 127.144 110.342 127.068 110.198 126.916C110.054 126.756 109.982 126.56 109.982 126.328V126.148C109.982 125.916 110.054 125.724 110.198 125.572C110.342 125.412 110.562 125.332 110.858 125.332C111.154 125.332 111.374 125.412 111.518 125.572C111.662 125.724 111.734 125.916 111.734 126.148V126.328C111.734 126.56 111.662 126.756 111.518 126.916C111.374 127.068 111.154 127.144 110.858 127.144ZM118.575 119.8H114.855L114.639 122.764H114.723C114.819 122.596 114.919 122.448 115.023 122.32C115.127 122.184 115.247 122.068 115.383 121.972C115.519 121.876 115.675 121.804 115.851 121.756C116.027 121.7 116.235 121.672 116.475 121.672C116.835 121.672 117.167 121.732 117.471 121.852C117.783 121.972 118.051 122.144 118.275 122.368C118.507 122.592 118.687 122.868 118.815 123.196C118.943 123.516 119.007 123.88 119.007 124.288C119.007 124.704 118.939 125.088 118.803 125.44C118.675 125.792 118.483 126.096 118.227 126.352C117.971 126.6 117.655 126.796 117.279 126.94C116.911 127.076 116.491 127.144 116.019 127.144C115.643 127.144 115.311 127.1 115.023 127.012C114.735 126.932 114.479 126.824 114.255 126.688C114.039 126.544 113.847 126.384 113.679 126.208C113.519 126.024 113.375 125.836 113.247 125.644L114.231 124.864C114.335 125.032 114.443 125.184 114.555 125.32C114.667 125.456 114.795 125.576 114.939 125.68C115.083 125.784 115.243 125.864 115.419 125.92C115.603 125.976 115.811 126.004 116.043 126.004C116.539 126.004 116.919 125.868 117.183 125.596C117.455 125.324 117.591 124.948 117.591 124.468V124.324C117.591 123.844 117.455 123.468 117.183 123.196C116.919 122.924 116.539 122.788 116.043 122.788C115.683 122.788 115.395 122.856 115.179 122.992C114.963 123.128 114.779 123.28 114.627 123.448L113.511 123.292L113.823 118.624H118.575V119.8ZM121.726 127L127.534 118.624H128.746L122.938 127H121.726ZM122.266 123.232C121.618 123.232 121.122 123.032 120.778 122.632C120.434 122.224 120.262 121.632 120.262 120.856C120.262 120.08 120.434 119.492 120.778 119.092C121.122 118.684 121.618 118.48 122.266 118.48C122.914 118.48 123.41 118.684 123.754 119.092C124.098 119.492 124.27 120.08 124.27 120.856C124.27 121.632 124.098 122.224 123.754 122.632C123.41 123.032 122.914 123.232 122.266 123.232ZM122.266 122.428C122.834 122.428 123.118 122.016 123.118 121.192V120.52C123.118 119.696 122.834 119.284 122.266 119.284C121.698 119.284 121.414 119.696 121.414 120.52V121.192C121.414 122.016 121.698 122.428 122.266 122.428ZM128.206 127.144C127.558 127.144 127.062 126.944 126.718 126.544C126.374 126.136 126.202 125.544 126.202 124.768C126.202 123.992 126.374 123.404 126.718 123.004C127.062 122.596 127.558 122.392 128.206 122.392C128.854 122.392 129.35 122.596 129.694 123.004C130.038 123.404 130.21 123.992 130.21 124.768C130.21 125.544 130.038 126.136 129.694 126.544C129.35 126.944 128.854 127.144 128.206 127.144ZM128.206 126.34C128.774 126.34 129.058 125.928 129.058 125.104V124.432C129.058 123.608 128.774 123.196 128.206 123.196C127.638 123.196 127.354 123.608 127.354 124.432V125.104C127.354 125.928 127.638 126.34 128.206 126.34ZM135.989 124.492L136.733 123.748L137.633 124.66L138.113 125.224L138.161 125.212L138.101 124.132V118.624H139.193V124.132L139.121 125.212L139.169 125.224L139.649 124.66L140.549 123.748L141.293 124.492L138.641 127.144L135.989 124.492Z" fill="#9440F5"/>
<rect width="47.1678" height="5" rx="2.5" transform="matrix(-1 0 0 1 188.611 146)" fill="#9440F5"/>
<rect width="163.515" height="5" rx="2.5" transform="matrix(-1 0 0 1 188.611 146)" fill="#9440F5" fill-opacity="0.15"/>
<path d="M132.114 169.88C131.066 169.88 130.258 169.608 129.69 169.064C129.13 168.52 128.85 167.752 128.85 166.76C128.85 166.4 128.898 166.004 128.994 165.572C129.098 165.14 129.238 164.716 129.414 164.3L130.326 164.576C130.174 164.912 130.05 165.26 129.954 165.62C129.858 165.98 129.81 166.304 129.81 166.592C129.81 167.176 129.978 167.628 130.314 167.948C130.65 168.268 131.114 168.428 131.706 168.428H132.534C132.878 168.428 133.17 168.388 133.41 168.308C133.65 168.228 133.846 168.096 133.998 167.912C134.15 167.728 134.258 167.484 134.322 167.18C134.386 166.884 134.418 166.52 134.418 166.088V158.12H135.546V166.088C135.546 167.392 135.266 168.348 134.706 168.956C134.154 169.572 133.29 169.88 132.114 169.88ZM139.278 167C138.494 167 137.93 166.84 137.586 166.52C137.242 166.192 137.07 165.648 137.07 164.888V158.12H138.186V164.78C138.186 165.116 138.262 165.344 138.414 165.464C138.574 165.584 138.834 165.644 139.194 165.644H139.59V166.712L139.29 167H139.278ZM139.186 165.932L139.474 165.644H139.726C140.27 165.644 140.654 165.584 140.878 165.464C141.102 165.336 141.214 165.108 141.214 164.78C141.214 164.644 141.202 164.472 141.178 164.264C141.162 164.056 141.126 163.78 141.07 163.436L140.878 162.392L141.922 162.224L142.078 163.268C142.174 163.908 142.222 164.412 142.222 164.78C142.222 165.532 142.018 166.092 141.61 166.46C141.202 166.82 140.574 167 139.726 167H139.186V165.932ZM141.97 169.484C141.786 169.484 141.638 169.428 141.526 169.316C141.422 169.204 141.37 169.032 141.37 168.8C141.37 168.56 141.422 168.384 141.526 168.272C141.638 168.168 141.786 168.116 141.97 168.116H142.15C142.334 168.116 142.482 168.168 142.594 168.272C142.706 168.384 142.762 168.56 142.762 168.8C142.762 169.032 142.706 169.204 142.594 169.316C142.482 169.428 142.334 169.484 142.15 169.484H141.97ZM140.278 169.484C140.094 169.484 139.946 169.428 139.834 169.316C139.73 169.204 139.678 169.032 139.678 168.8C139.678 168.56 139.73 168.384 139.834 168.272C139.946 168.168 140.094 168.116 140.278 168.116H140.458C140.642 168.116 140.79 168.168 140.902 168.272C141.014 168.384 141.07 168.56 141.07 168.8C141.07 169.032 141.014 169.204 140.902 169.316C140.79 169.428 140.642 169.484 140.458 169.484H140.278ZM143.075 168.524H143.531C143.939 168.524 144.279 168.472 144.551 168.368C144.823 168.264 145.043 168.116 145.211 167.924C145.379 167.74 145.499 167.516 145.571 167.252C145.643 166.988 145.679 166.692 145.679 166.364C145.679 166.148 145.667 165.924 145.643 165.692C145.619 165.46 145.587 165.228 145.547 164.996L145.295 163.544L146.327 163.352L146.495 164.36C146.631 165.136 146.699 165.8 146.699 166.352C146.699 166.848 146.639 167.308 146.519 167.732C146.407 168.164 146.223 168.54 145.967 168.86C145.711 169.18 145.383 169.428 144.983 169.604C144.583 169.788 144.103 169.88 143.543 169.88H143.075V168.524ZM150.811 167V165.872H153.163V159.608H153.067L151.123 161.684L150.295 160.94L152.431 158.624H154.495V165.872H156.535V167H150.811ZM163.322 167H157.634V165.704L160.31 163.316C160.734 162.932 161.058 162.568 161.282 162.224C161.514 161.872 161.63 161.504 161.63 161.12V160.964C161.63 160.556 161.506 160.236 161.258 160.004C161.018 159.772 160.69 159.656 160.274 159.656C160.042 159.656 159.838 159.692 159.662 159.764C159.494 159.828 159.346 159.92 159.218 160.04C159.09 160.16 158.982 160.3 158.894 160.46C158.814 160.62 158.75 160.792 158.702 160.976L157.514 160.52C157.602 160.256 157.722 160.004 157.874 159.764C158.026 159.516 158.218 159.296 158.45 159.104C158.682 158.912 158.954 158.76 159.266 158.648C159.586 158.536 159.958 158.48 160.382 158.48C160.806 158.48 161.186 158.544 161.522 158.672C161.858 158.792 162.138 158.964 162.362 159.188C162.594 159.404 162.77 159.664 162.89 159.968C163.01 160.272 163.07 160.604 163.07 160.964C163.07 161.3 163.018 161.612 162.914 161.9C162.81 162.188 162.666 162.46 162.482 162.716C162.298 162.972 162.082 163.216 161.834 163.448C161.594 163.68 161.338 163.916 161.066 164.156L159.098 165.848H163.322V167ZM165.645 165.332C165.941 165.332 166.161 165.408 166.305 165.56C166.449 165.712 166.521 165.908 166.521 166.148V166.34C166.521 166.732 166.413 167.14 166.197 167.564C165.989 167.996 165.705 168.36 165.345 168.656H164.373C164.629 168.4 164.841 168.152 165.009 167.912C165.177 167.672 165.305 167.404 165.393 167.108C165.185 167.068 165.029 166.98 164.925 166.844C164.821 166.7 164.769 166.532 164.769 166.34V166.148C164.769 165.908 164.841 165.712 164.985 165.56C165.129 165.408 165.349 165.332 165.645 165.332ZM173.758 167H168.07V165.704L170.746 163.316C171.17 162.932 171.494 162.568 171.718 162.224C171.95 161.872 172.066 161.504 172.066 161.12V160.964C172.066 160.556 171.942 160.236 171.694 160.004C171.454 159.772 171.126 159.656 170.71 159.656C170.478 159.656 170.274 159.692 170.098 159.764C169.93 159.828 169.782 159.92 169.654 160.04C169.526 160.16 169.418 160.3 169.33 160.46C169.25 160.62 169.186 160.792 169.138 160.976L167.95 160.52C168.038 160.256 168.158 160.004 168.31 159.764C168.462 159.516 168.654 159.296 168.886 159.104C169.118 158.912 169.39 158.76 169.702 158.648C170.022 158.536 170.394 158.48 170.818 158.48C171.242 158.48 171.622 158.544 171.958 158.672C172.294 158.792 172.574 158.964 172.798 159.188C173.03 159.404 173.206 159.664 173.326 159.968C173.446 160.272 173.506 160.604 173.506 160.964C173.506 161.3 173.454 161.612 173.35 161.9C173.246 162.188 173.102 162.46 172.918 162.716C172.734 162.972 172.518 163.216 172.27 163.448C172.03 163.68 171.774 163.916 171.502 164.156L169.534 165.848H173.758V167ZM177.941 167.144C177.421 167.144 176.969 167.048 176.585 166.856C176.201 166.656 175.885 166.372 175.637 166.004C175.389 165.636 175.205 165.184 175.085 164.648C174.965 164.112 174.905 163.5 174.905 162.812C174.905 162.132 174.965 161.524 175.085 160.988C175.205 160.444 175.389 159.988 175.637 159.62C175.885 159.252 176.201 158.972 176.585 158.78C176.969 158.58 177.421 158.48 177.941 158.48C178.981 158.48 179.745 158.86 180.233 159.62C180.729 160.38 180.977 161.444 180.977 162.812C180.977 164.18 180.729 165.244 180.233 166.004C179.745 166.764 178.981 167.144 177.941 167.144ZM177.941 165.992C178.229 165.992 178.473 165.936 178.673 165.824C178.881 165.704 179.049 165.536 179.177 165.32C179.305 165.104 179.397 164.848 179.453 164.552C179.509 164.248 179.537 163.912 179.537 163.544V162.08C179.537 161.712 179.509 161.38 179.453 161.084C179.397 160.78 179.305 160.52 179.177 160.304C179.049 160.088 178.881 159.924 178.673 159.812C178.473 159.692 178.229 159.632 177.941 159.632C177.653 159.632 177.405 159.692 177.197 159.812C176.997 159.924 176.833 160.088 176.705 160.304C176.577 160.52 176.485 160.78 176.429 161.084C176.373 161.38 176.345 161.712 176.345 162.08V163.544C176.345 163.912 176.373 164.248 176.429 164.552C176.485 164.848 176.577 165.104 176.705 165.32C176.833 165.536 176.997 165.704 177.197 165.824C177.405 165.936 177.653 165.992 177.941 165.992ZM185.016 167.144C184.496 167.144 184.044 167.048 183.66 166.856C183.276 166.656 182.96 166.372 182.712 166.004C182.464 165.636 182.28 165.184 182.16 164.648C182.04 164.112 181.98 163.5 181.98 162.812C181.98 162.132 182.04 161.524 182.16 160.988C182.28 160.444 182.464 159.988 182.712 159.62C182.96 159.252 183.276 158.972 183.66 158.78C184.044 158.58 184.496 158.48 185.016 158.48C186.056 158.48 186.82 158.86 187.308 159.62C187.804 160.38 188.052 161.444 188.052 162.812C188.052 164.18 187.804 165.244 187.308 166.004C186.82 166.764 186.056 167.144 185.016 167.144ZM185.016 165.992C185.304 165.992 185.548 165.936 185.748 165.824C185.956 165.704 186.124 165.536 186.252 165.32C186.38 165.104 186.472 164.848 186.528 164.552C186.584 164.248 186.612 163.912 186.612 163.544V162.08C186.612 161.712 186.584 161.38 186.528 161.084C186.472 160.78 186.38 160.52 186.252 160.304C186.124 160.088 185.956 159.924 185.748 159.812C185.548 159.692 185.304 159.632 185.016 159.632C184.728 159.632 184.48 159.692 184.272 159.812C184.072 159.924 183.908 160.088 183.78 160.304C183.652 160.52 183.56 160.78 183.504 161.084C183.448 161.38 183.42 161.712 183.42 162.08V163.544C183.42 163.912 183.448 164.248 183.504 164.552C183.56 164.848 183.652 165.104 183.78 165.32C183.908 165.536 184.072 165.704 184.272 165.824C184.48 165.936 184.728 165.992 185.016 165.992Z" fill="#0D1530"/>
</g>
<defs>
<filter id="filter0_d_2571_18389" x="-6.90332" y="0" width="227.515" height="215" filterUnits="userSpaceOnUse" color-interpolation-filters="sRGB">
<feFlood flood-opacity="0" result="BackgroundImageFix"/>
<feColorMatrix in="SourceAlpha" type="matrix" values="0 0 0 0 0 0 0 0 0 0 0 0 0 0 0 0 0 0 127 0" result="hardAlpha"/>
<feOffset dy="8"/>
<feGaussianBlur stdDeviation="12"/>
<feColorMatrix type="matrix" values="0 0 0 0 0.05 0 0 0 0 0.12 0 0 0 0 0.3 0 0 0 0.1 0"/>
<feBlend mode="normal" in2="BackgroundImageFix" result="effect1_dropShadow_2571_18389"/>
<feBlend mode="normal" in="SourceGraphic" in2="effect1_dropShadow_2571_18389" result="shape"/>
</filter>
</defs>
</svg>
