<svg width="226" height="181" viewBox="0 0 226 181" fill="none" xmlns="http://www.w3.org/2000/svg">
<g filter="url(#filter0_d_2052_25747)">
<mask id="path-1-inside-1_2052_25747" fill="white">
<path d="M17 28C17 21.3726 22.3726 16 29 16L190 16C196.627 16 202 21.3726 202 28V137C202 143.627 196.627 149 190 149H29C22.3726 149 17 143.627 17 137V28Z"/>
</mask>
<path d="M17 28C17 21.3726 22.3726 16 29 16L190 16C196.627 16 202 21.3726 202 28V137C202 143.627 196.627 149 190 149H29C22.3726 149 17 143.627 17 137V28Z" fill="white"/>
<path d="M17 28C17 19.1634 24.1634 12 33 12L186 12C194.837 12 202 19.1634 202 28C202 23.5817 196.627 20 190 20L29 20C22.3726 20 17 23.5817 17 28ZM17 28M202 149H17H202M202 149M17 149L17 16L17 149M17 149M202 16V149V16" fill="#EB4099" mask="url(#path-1-inside-1_2052_25747)"/>
<path d="M75.6221 45.156H76.1401C76.6534 45.156 77.0734 45.0813 77.4001 44.932C77.7268 44.7827 77.9834 44.582 78.1701 44.33C78.3568 44.0873 78.4874 43.798 78.5621 43.462C78.6368 43.1353 78.6741 42.79 78.6741 42.426C78.6741 42.1553 78.6601 41.8753 78.6321 41.586C78.6041 41.2873 78.5668 41.0027 78.5201 40.732L78.2261 39.15L79.2061 38.954L79.3881 40.018C79.5374 40.8767 79.6121 41.6887 79.6121 42.454C79.6121 42.9673 79.5561 43.4573 79.4441 43.924C79.3321 44.4 79.1408 44.8153 78.8701 45.17C78.6088 45.534 78.2541 45.8233 77.8061 46.038C77.3674 46.2527 76.8121 46.36 76.1401 46.36H75.6221V45.156ZM80.4832 45.156H81.2252C82.2425 45.156 83.0265 44.9647 83.5772 44.582C84.1372 44.2087 84.4825 43.6813 84.6132 43H82.9752C82.2285 43 81.6499 42.804 81.2392 42.412C80.8285 42.02 80.6232 41.4693 80.6232 40.76C80.6232 40.34 80.6839 39.9433 80.8052 39.57C80.9359 39.1967 81.1132 38.8747 81.3372 38.604C81.5612 38.324 81.8272 38.1047 82.1352 37.946C82.4525 37.778 82.7979 37.694 83.1712 37.694C83.9459 37.694 84.5525 38.0393 84.9912 38.73C85.4392 39.4207 85.6632 40.3913 85.6632 41.642V41.796H86.3072V42.72L86.0272 43H85.5372C85.3319 44.0733 84.8699 44.8993 84.1512 45.478C83.4419 46.066 82.4665 46.36 81.2252 46.36H80.4832V45.156ZM81.6032 40.62C81.6032 41.0307 81.7105 41.3293 81.9252 41.516C82.1492 41.7027 82.4992 41.796 82.9752 41.796H84.6832V41.362C84.6832 40.606 84.5385 40.0087 84.2492 39.57C83.9692 39.122 83.5819 38.898 83.0872 38.898C82.6112 38.898 82.2425 39.0567 81.9812 39.374C81.7292 39.6913 81.6032 40.1067 81.6032 40.62ZM97.9379 43C97.5833 43 97.2846 42.972 97.0419 42.916C96.8086 42.8507 96.5939 42.7293 96.3979 42.552C95.9126 42.8507 95.2313 43 94.3539 43H90.2099C88.9219 43 88.1659 42.5427 87.9419 41.628H87.8719C87.7693 42.1413 87.5686 42.5007 87.2699 42.706C86.9713 42.902 86.5046 43 85.8699 43V42.076L86.1499 41.796H86.6399C87.4333 41.796 87.8299 41.3993 87.8299 40.606V39.514H88.8099V40.606C88.8099 41.166 88.9919 41.5253 89.3559 41.684L90.0979 40.438C90.4526 39.822 90.8119 39.3133 91.1759 38.912C91.5399 38.5013 91.9086 38.1747 92.2819 37.932C92.6553 37.6893 93.0333 37.5167 93.4159 37.414C93.8079 37.3113 94.2139 37.26 94.6339 37.26C95.5393 37.26 96.2439 37.512 96.7479 38.016C97.2519 38.5107 97.5039 39.1967 97.5039 40.074C97.5039 40.7273 97.3966 41.2687 97.1819 41.698C97.3779 41.7633 97.6299 41.796 97.9379 41.796H98.2179V42.72L97.9379 43ZM94.3539 41.796C95.0539 41.796 95.5906 41.6793 95.9639 41.446C96.3373 41.2127 96.5239 40.802 96.5239 40.214C96.5239 39.6353 96.3746 39.2013 96.0759 38.912C95.7866 38.6133 95.3759 38.464 94.8439 38.464H94.4239C94.0506 38.464 93.7099 38.5013 93.4019 38.576C93.1033 38.6413 92.8139 38.7627 92.5339 38.94C92.2633 39.108 91.9926 39.346 91.7219 39.654C91.4606 39.9527 91.1806 40.3307 90.8819 40.788L90.2799 41.726L90.3219 41.796H94.3539ZM94.1299 35.58C93.9433 35.58 93.7939 35.5287 93.6819 35.426C93.5699 35.314 93.5139 35.1367 93.5139 34.894C93.5139 34.6513 93.5699 34.4787 93.6819 34.376C93.7939 34.264 93.9433 34.208 94.1299 34.208H94.2839C94.4706 34.208 94.6199 34.264 94.7319 34.376C94.8439 34.4787 94.8999 34.6513 94.8999 34.894C94.8999 35.1367 94.8439 35.314 94.7319 35.426C94.6199 35.5287 94.4706 35.58 94.2839 35.58H94.1299ZM97.7822 42.076L98.0622 41.796H98.5382C98.9489 41.796 99.3269 41.782 99.6722 41.754C100.027 41.726 100.386 41.6747 100.75 41.6C101.114 41.516 101.497 41.3993 101.898 41.25C102.309 41.1007 102.771 40.9047 103.284 40.662L104.572 40.046V39.99L102.5 39.528L99.6022 38.814V40.018H98.6222V38.94C98.6222 38.548 98.7295 38.254 98.9442 38.058C99.1682 37.8527 99.4482 37.75 99.7842 37.75C99.8869 37.75 100.008 37.764 100.148 37.792C100.298 37.8107 100.526 37.8573 100.834 37.932L104.25 38.814C104.764 38.9447 105.193 39.038 105.538 39.094C105.884 39.1407 106.182 39.164 106.434 39.164H106.658V40.368H105.594V40.536C105.594 41.0027 105.697 41.3293 105.902 41.516C106.108 41.7027 106.425 41.796 106.854 41.796H107.344V42.72L107.064 43C106.654 43 106.304 42.9627 106.014 42.888C105.725 42.8133 105.487 42.692 105.3 42.524C105.123 42.3467 104.988 42.1227 104.894 41.852C104.81 41.5813 104.764 41.25 104.754 40.858L103.662 41.516C103.084 41.8613 102.57 42.1367 102.122 42.342C101.674 42.538 101.254 42.6873 100.862 42.79C100.47 42.8833 100.088 42.944 99.7142 42.972C99.3502 42.9907 98.9582 43 98.5382 43H97.7822V42.076ZM106.905 42.076L107.185 41.796H107.591C108.039 41.796 108.361 41.6933 108.557 41.488C108.763 41.2827 108.865 40.956 108.865 40.508V32.64H109.901V40.508C109.901 41.3667 109.715 41.9967 109.341 42.398C108.977 42.7993 108.394 43 107.591 43H106.905V42.076ZM111.835 32.64H112.871V43H111.835V32.64ZM123.289 43C122.859 43 122.495 42.9673 122.197 42.902C121.907 42.8273 121.669 42.7107 121.483 42.552C121.305 42.384 121.175 42.174 121.091 41.922C121.007 41.6607 120.965 41.3387 120.965 40.956V40.718H120.895C120.764 41.138 120.54 41.4553 120.223 41.67C119.915 41.8753 119.541 41.978 119.103 41.978C118.477 41.978 117.987 41.81 117.633 41.474C117.287 41.138 117.115 40.662 117.115 40.046C117.115 39.7847 117.157 39.542 117.241 39.318C117.325 39.0847 117.46 38.8607 117.647 38.646C117.843 38.422 118.09 38.2027 118.389 37.988C118.687 37.764 119.051 37.5307 119.481 37.288L120.895 36.476V35.776H121.875V40.816C121.875 41.1987 121.973 41.46 122.169 41.6C122.365 41.7307 122.668 41.796 123.079 41.796H123.569V42.72L123.289 43ZM119.313 40.774C119.882 40.774 120.288 40.6947 120.531 40.536C120.773 40.368 120.895 40.074 120.895 39.654V37.61L119.481 38.366C118.986 38.6367 118.631 38.8887 118.417 39.122C118.202 39.346 118.095 39.6073 118.095 39.906C118.095 40.2047 118.183 40.424 118.361 40.564C118.547 40.704 118.865 40.774 119.313 40.774ZM121.343 34.614C121.156 34.614 121.007 34.5627 120.895 34.46C120.783 34.348 120.727 34.1707 120.727 33.928C120.727 33.6853 120.783 33.5127 120.895 33.41C121.007 33.298 121.156 33.242 121.343 33.242H121.497C121.683 33.242 121.833 33.298 121.945 33.41C122.057 33.5127 122.113 33.6853 122.113 33.928C122.113 34.1707 122.057 34.348 121.945 34.46C121.833 34.5627 121.683 34.614 121.497 34.614H121.343ZM119.537 34.614C119.35 34.614 119.201 34.5627 119.089 34.46C118.977 34.348 118.921 34.1707 118.921 33.928C118.921 33.6853 118.977 33.5127 119.089 33.41C119.201 33.298 119.35 33.242 119.537 33.242H119.691C119.877 33.242 120.027 33.298 120.139 33.41C120.251 33.5127 120.307 33.6853 120.307 33.928C120.307 34.1707 120.251 34.348 120.139 34.46C120.027 34.5627 119.877 34.614 119.691 34.614H119.537ZM123.123 42.076L123.403 41.796H123.893C124.686 41.796 125.083 41.3993 125.083 40.606V38.394H126.063V40.606C126.063 41.3993 126.459 41.796 127.253 41.796H127.743V42.72L127.463 43C126.175 43 125.419 42.5427 125.195 41.628H125.125C125.022 42.1413 124.821 42.5007 124.523 42.706C124.224 42.902 123.757 43 123.123 43V42.076ZM125.489 45.8C125.302 45.8 125.153 45.744 125.041 45.632C124.929 45.5293 124.873 45.3567 124.873 45.114C124.873 44.8713 124.929 44.694 125.041 44.582C125.153 44.4793 125.302 44.428 125.489 44.428H125.643C125.829 44.428 125.979 44.4793 126.091 44.582C126.203 44.694 126.259 44.8713 126.259 45.114C126.259 45.3567 126.203 45.5293 126.091 45.632C125.979 45.744 125.829 45.8 125.643 45.8H125.489ZM127.297 42.076L127.577 41.796H128.067C128.244 41.796 128.398 41.782 128.529 41.754C128.669 41.7167 128.795 41.656 128.907 41.572C129.019 41.488 129.121 41.376 129.215 41.236C129.317 41.096 129.425 40.914 129.537 40.69L130.139 39.514L130.937 39.92L130.195 41.32L130.391 41.446C130.689 41.642 130.979 41.7773 131.259 41.852C131.548 41.9267 131.828 41.964 132.099 41.964C132.537 41.964 132.859 41.8613 133.065 41.656C133.279 41.4507 133.387 41.1007 133.387 40.606V39.514H134.367V40.606C134.367 41.11 134.437 41.4647 134.577 41.67C134.717 41.866 134.95 41.964 135.277 41.964H135.599C135.925 41.964 136.154 41.866 136.285 41.67C136.425 41.4647 136.495 41.11 136.495 40.606V38.954H137.475V40.606C137.475 41.3993 137.871 41.796 138.665 41.796H139.155V42.72L138.875 43C138.259 43 137.773 42.902 137.419 42.706C137.064 42.5007 136.817 42.188 136.677 41.768H136.607C136.551 42.2907 136.411 42.6547 136.187 42.86C135.963 43.0653 135.636 43.168 135.207 43.168C134.245 43.168 133.681 42.7013 133.513 41.768H133.443C133.349 42.216 133.167 42.5613 132.897 42.804C132.635 43.0467 132.285 43.168 131.847 43.168C131.296 43.168 130.68 42.9487 129.999 42.51L129.565 42.23C129.294 42.5287 128.986 42.734 128.641 42.846C128.295 42.9487 127.847 43 127.297 43V42.076ZM138.717 42.076L138.997 41.796H139.207C139.823 41.796 140.266 41.7213 140.537 41.572C140.817 41.4133 140.957 41.1147 140.957 40.676C140.957 40.508 140.943 40.2933 140.915 40.032C140.896 39.7707 140.85 39.4253 140.775 38.996L140.579 37.834L141.559 37.68L141.727 38.842C141.792 39.2993 141.839 39.6727 141.867 39.962C141.895 40.2513 141.909 40.4893 141.909 40.676C141.909 41.46 141.676 42.0433 141.209 42.426C140.752 42.8087 140.084 43 139.207 43H138.717V42.076ZM140.831 36C140.644 36 140.495 35.9487 140.383 35.846C140.271 35.734 140.215 35.5567 140.215 35.314C140.215 35.0713 140.271 34.8987 140.383 34.796C140.495 34.684 140.644 34.628 140.831 34.628H140.985C141.172 34.628 141.321 34.684 141.433 34.796C141.545 34.8987 141.601 35.0713 141.601 35.314C141.601 35.5567 141.545 35.734 141.433 35.846C141.321 35.9487 141.172 36 140.985 36H140.831Z" fill="#0D1530"/>
<rect x="23" y="69" width="96" height="22" rx="9" fill="#EB4099" fill-opacity="0.12"/>
<path d="M32.068 87.648C31.524 87.648 31.032 87.58 30.592 87.444C30.152 87.308 29.776 87.108 29.464 86.844C29.16 86.58 28.924 86.252 28.756 85.86C28.588 85.476 28.504 85.036 28.504 84.54C28.504 83.9 28.696 83.32 29.08 82.8C29.472 82.28 30.044 81.848 30.796 81.504V81.444C30.324 81.156 29.964 80.816 29.716 80.424C29.476 80.032 29.356 79.608 29.356 79.152C29.356 78.792 29.416 78.452 29.536 78.132C29.664 77.812 29.84 77.536 30.064 77.304C30.288 77.064 30.552 76.876 30.856 76.74C31.168 76.604 31.508 76.536 31.876 76.536C32.38 76.536 32.82 76.648 33.196 76.872C33.572 77.096 33.876 77.4 34.108 77.784L33.22 78.672C33.028 78.408 32.812 78.216 32.572 78.096C32.34 77.968 32.064 77.904 31.744 77.904C31.296 77.904 30.952 78.016 30.712 78.24C30.472 78.464 30.352 78.768 30.352 79.152C30.352 79.616 30.52 79.956 30.856 80.172C31.2 80.388 31.668 80.496 32.26 80.496C32.444 80.496 32.64 80.484 32.848 80.46C33.064 80.436 33.292 80.404 33.532 80.364L34.492 80.196L34.72 81.432L33.136 81.744C31.912 81.976 31.012 82.292 30.436 82.692C29.868 83.084 29.584 83.592 29.584 84.216V84.42C29.584 85.02 29.804 85.476 30.244 85.788C30.684 86.1 31.292 86.256 32.068 86.256C32.612 86.256 33.128 86.16 33.616 85.968C34.112 85.776 34.564 85.476 34.972 85.068L35.728 86.136C34.728 87.144 33.508 87.648 32.068 87.648ZM35.6937 85.524H36.3897C37.2297 85.524 37.8857 85.388 38.3577 85.116C38.8297 84.852 39.1417 84.48 39.2937 84H37.8537C37.2057 84 36.7017 83.824 36.3417 83.472C35.9897 83.12 35.8137 82.62 35.8137 81.972C35.8137 81.588 35.8697 81.228 35.9817 80.892C36.1017 80.556 36.2617 80.268 36.4617 80.028C36.6697 79.78 36.9137 79.584 37.1937 79.44C37.4737 79.296 37.7817 79.224 38.1177 79.224C38.8217 79.224 39.3697 79.524 39.7617 80.124C40.1617 80.724 40.3697 81.564 40.3857 82.644H40.9497V83.712L40.6617 84H40.2537C40.0537 84.92 39.6337 85.628 38.9937 86.124C38.3617 86.628 37.5097 86.88 36.4377 86.88H35.6937V85.524ZM36.8097 81.804C36.8097 82.1 36.9017 82.316 37.0857 82.452C37.2697 82.58 37.5417 82.644 37.9017 82.644H39.3897V82.416C39.3897 81.864 39.2617 81.424 39.0057 81.096C38.7497 80.76 38.4177 80.592 38.0097 80.592C37.6417 80.592 37.3497 80.704 37.1337 80.928C36.9177 81.152 36.8097 81.444 36.8097 81.804ZM40.5384 82.932L40.8264 82.644H41.2224C41.8864 82.644 42.2184 82.328 42.2184 81.696V79.872H43.2624V81.696C43.2624 82.328 43.5744 82.644 44.1984 82.644H44.6544V83.712L44.3544 84C43.7624 84 43.3024 83.892 42.9744 83.676C42.6544 83.452 42.4424 83.104 42.3384 82.632H42.2664C42.1704 83.128 41.9904 83.48 41.7264 83.688C41.4704 83.896 41.0744 84 40.5384 84V82.932ZM42.6384 86.484C42.4544 86.484 42.3064 86.428 42.1944 86.316C42.0904 86.204 42.0384 86.032 42.0384 85.8C42.0384 85.56 42.0904 85.384 42.1944 85.272C42.3064 85.168 42.4544 85.116 42.6384 85.116H42.8184C43.0024 85.116 43.1504 85.168 43.2624 85.272C43.3744 85.384 43.4304 85.56 43.4304 85.8C43.4304 86.032 43.3744 86.204 43.2624 86.316C43.1504 86.428 43.0024 86.484 42.8184 86.484H42.6384ZM44.2504 82.932L44.5384 82.644H44.7784C44.9464 82.644 45.0944 82.632 45.2224 82.608C45.3504 82.584 45.4624 82.54 45.5584 82.476C45.6544 82.412 45.7424 82.328 45.8224 82.224C45.9024 82.12 45.9824 81.988 46.0624 81.828L46.5544 80.832L47.4544 81.288L46.9024 82.356L46.9864 82.404C47.2264 82.54 47.4584 82.64 47.6824 82.704C47.9064 82.768 48.1344 82.8 48.3664 82.8C48.7264 82.8 48.9904 82.72 49.1584 82.56C49.3264 82.392 49.4104 82.104 49.4104 81.696V80.832H50.4544V81.696C50.4544 82.088 50.5144 82.368 50.6344 82.536C50.7544 82.696 50.9424 82.776 51.1984 82.776H51.3784C51.8344 82.776 52.0624 82.516 52.0624 81.996C52.0624 81.74 52.0264 81.372 51.9544 80.892L51.8464 80.256L52.8784 80.1L52.9744 80.724C53.0064 80.964 53.0304 81.192 53.0464 81.408C53.0624 81.624 53.0704 81.82 53.0704 81.996C53.0704 82.7 52.9184 83.236 52.6144 83.604C52.3184 83.964 51.8744 84.144 51.2824 84.144C50.7704 84.144 50.3744 84.028 50.0944 83.796C49.8144 83.564 49.6304 83.212 49.5424 82.74H49.4704C49.3344 83.676 48.8904 84.144 48.1384 84.144C47.9064 84.144 47.6664 84.1 47.4184 84.012C47.1784 83.924 46.8904 83.78 46.5544 83.58L46.2304 83.388C45.9984 83.636 45.7264 83.8 45.4144 83.88C45.1104 83.96 44.7224 84 44.2504 84V82.932ZM54.0784 82.668L56.2624 80.616L53.2984 77.496L54.1144 76.68L57.1024 79.824C57.2304 79.704 57.3344 79.588 57.4144 79.476C57.5024 79.356 57.5704 79.236 57.6184 79.116C57.6744 78.988 57.7104 78.848 57.7264 78.696C57.7504 78.544 57.7624 78.368 57.7624 78.168V75.12H58.8904V78.168C58.8904 78.432 58.8704 78.664 58.8304 78.864C58.7984 79.064 58.7384 79.256 58.6504 79.44C58.5624 79.616 58.4464 79.792 58.3024 79.968C58.1664 80.136 57.9904 80.32 57.7744 80.52L58.3744 81.156C58.6784 81.468 58.8864 81.74 58.9984 81.972C59.1184 82.196 59.1784 82.436 59.1784 82.692C59.1784 82.868 59.1464 83.036 59.0824 83.196C59.0184 83.356 58.9264 83.496 58.8064 83.616C58.6944 83.736 58.5544 83.832 58.3864 83.904C58.2184 83.968 58.0264 84 57.8104 84H54.0784V82.668ZM56.9104 81.3L55.4704 82.596L55.4824 82.644H58.2064L56.9104 81.3ZM53.8864 75.3H54.3544L54.3664 75.24C54.2144 75.072 54.1384 74.864 54.1384 74.616C54.1384 74.296 54.2504 74.032 54.4744 73.824C54.6984 73.608 54.9824 73.5 55.3264 73.5C55.5344 73.5 55.7384 73.548 55.9384 73.644C56.1384 73.732 56.3024 73.856 56.4304 74.016L55.9264 74.664C55.7424 74.48 55.5424 74.388 55.3264 74.388C55.1824 74.388 55.0664 74.424 54.9784 74.496C54.8904 74.56 54.8464 74.644 54.8464 74.748C54.8464 75.068 55.1264 75.228 55.6864 75.228H56.5144V76.128H53.8864V75.3ZM60.3842 75.12H61.5002V84H60.3842V75.12ZM68.8775 86.88C67.7575 86.88 66.8935 86.608 66.2855 86.064C65.6855 85.52 65.3855 84.752 65.3855 83.76C65.3855 83.4 65.4335 83.004 65.5295 82.572C65.6335 82.14 65.7735 81.716 65.9495 81.3L66.8615 81.576C66.7095 81.904 66.5855 82.24 66.4895 82.584C66.3935 82.928 66.3455 83.24 66.3455 83.52C66.3455 84.128 66.5335 84.596 66.9095 84.924C67.2855 85.26 67.8055 85.428 68.4695 85.428H69.2975C70.0735 85.428 70.6415 85.264 71.0015 84.936C71.3695 84.616 71.5535 84.104 71.5535 83.4C71.5535 83.176 71.5335 82.92 71.4935 82.632C71.4535 82.336 71.3935 81.996 71.3135 81.612L71.0855 80.568L72.1295 80.364L72.3215 81.396C72.3615 81.636 72.3975 81.86 72.4295 82.068C72.4695 82.268 72.4975 82.46 72.5135 82.644H73.6415V83.712L73.3535 84H72.5255C72.4375 84.984 72.0975 85.708 71.5055 86.172C70.9135 86.644 70.0375 86.88 68.8775 86.88ZM68.9255 80.34C68.7415 80.34 68.5935 80.284 68.4815 80.172C68.3775 80.06 68.3255 79.888 68.3255 79.656C68.3255 79.416 68.3775 79.244 68.4815 79.14C68.5935 79.028 68.7415 78.972 68.9255 78.972H69.1055C69.2895 78.972 69.4375 79.028 69.5495 79.14C69.6615 79.244 69.7175 79.416 69.7175 79.656C69.7175 79.888 69.6615 80.06 69.5495 80.172C69.4375 80.284 69.2895 80.34 69.1055 80.34H68.9255ZM73.2286 82.932L73.5166 82.644H74.7886V82.584C74.5566 82.376 74.3646 82.112 74.2126 81.792C74.0686 81.472 73.9966 81.124 73.9966 80.748C73.9966 80.38 74.0606 80.036 74.1886 79.716C74.3166 79.396 74.4886 79.124 74.7046 78.9C74.9286 78.668 75.1886 78.488 75.4846 78.36C75.7886 78.224 76.1166 78.156 76.4686 78.156C76.9966 78.156 77.4446 78.268 77.8126 78.492C78.1886 78.708 78.4966 79.012 78.7366 79.404L77.8486 80.292C77.6566 80.02 77.4406 79.824 77.2006 79.704C76.9686 79.576 76.6966 79.512 76.3846 79.512C75.9366 79.512 75.5886 79.624 75.3406 79.848C75.1006 80.064 74.9806 80.364 74.9806 80.748C74.9806 81.18 75.1566 81.532 75.5086 81.804C75.8686 82.068 76.3366 82.2 76.9126 82.2C77.3046 82.2 77.7006 82.144 78.1006 82.032L79.1566 81.756L79.4806 82.992L77.8246 83.46C77.4566 83.572 77.1086 83.664 76.7806 83.736C76.4606 83.8 76.1246 83.852 75.7726 83.892C75.4286 83.932 75.0526 83.96 74.6446 83.976C74.2366 83.992 73.7646 84 73.2286 84V82.932ZM86.6314 84V82.368H82.7434V81.204L86.1394 75.624H87.9154V81.3H89.0554V82.368H87.9154V84H86.6314ZM83.8954 81.3H86.6314V76.86H86.5474L83.8954 81.3ZM91.5708 84L97.3788 75.624H98.5908L92.7828 84H91.5708ZM92.1108 80.232C91.4628 80.232 90.9668 80.032 90.6228 79.632C90.2788 79.224 90.1068 78.632 90.1068 77.856C90.1068 77.08 90.2788 76.492 90.6228 76.092C90.9668 75.684 91.4628 75.48 92.1108 75.48C92.7588 75.48 93.2548 75.684 93.5988 76.092C93.9428 76.492 94.1148 77.08 94.1148 77.856C94.1148 78.632 93.9428 79.224 93.5988 79.632C93.2548 80.032 92.7588 80.232 92.1108 80.232ZM92.1108 79.428C92.6788 79.428 92.9628 79.016 92.9628 78.192V77.52C92.9628 76.696 92.6788 76.284 92.1108 76.284C91.5428 76.284 91.2588 76.696 91.2588 77.52V78.192C91.2588 79.016 91.5428 79.428 92.1108 79.428ZM98.0508 84.144C97.4028 84.144 96.9068 83.944 96.5628 83.544C96.2188 83.136 96.0468 82.544 96.0468 81.768C96.0468 80.992 96.2188 80.404 96.5628 80.004C96.9068 79.596 97.4028 79.392 98.0508 79.392C98.6988 79.392 99.1948 79.596 99.5388 80.004C99.8828 80.404 100.055 80.992 100.055 81.768C100.055 82.544 99.8828 83.136 99.5388 83.544C99.1948 83.944 98.6988 84.144 98.0508 84.144ZM98.0508 83.34C98.6188 83.34 98.9028 82.928 98.9028 82.104V81.432C98.9028 80.608 98.6188 80.196 98.0508 80.196C97.4828 80.196 97.1988 80.608 97.1988 81.432V82.104C97.1988 82.928 97.4828 83.34 98.0508 83.34ZM111.138 78.132L110.394 78.876L109.494 77.964L109.014 77.4L108.966 77.412L109.038 78.492V84H107.946V78.492L108.006 77.412L107.958 77.4L107.478 77.964L106.578 78.876L105.834 78.132L108.486 75.48L111.138 78.132Z" fill="#EB4099"/>
<path d="M170.469 75.168C169.9 75.168 169.396 75.098 168.957 74.958C168.528 74.8087 168.164 74.608 167.865 74.356C167.576 74.104 167.352 73.8053 167.193 73.46C167.044 73.1147 166.969 72.7413 166.969 72.34C166.969 71.6867 167.147 71.164 167.501 70.772C167.865 70.3707 168.341 70.0907 168.929 69.932V69.82C168.425 69.6427 168.019 69.3627 167.711 68.98C167.413 68.5973 167.263 68.126 167.263 67.566C167.263 67.1927 167.333 66.852 167.473 66.544C167.623 66.236 167.833 65.9747 168.103 65.76C168.374 65.536 168.71 65.3633 169.111 65.242C169.513 65.1207 169.965 65.06 170.469 65.06C170.973 65.06 171.426 65.1207 171.827 65.242C172.229 65.3633 172.565 65.536 172.835 65.76C173.106 65.9747 173.311 66.236 173.451 66.544C173.601 66.852 173.675 67.1927 173.675 67.566C173.675 68.126 173.521 68.5973 173.213 68.98C172.915 69.3627 172.513 69.6427 172.009 69.82V69.932C172.597 70.0907 173.069 70.3707 173.423 70.772C173.787 71.164 173.969 71.6867 173.969 72.34C173.969 72.7413 173.89 73.1147 173.731 73.46C173.582 73.8053 173.358 74.104 173.059 74.356C172.77 74.608 172.406 74.8087 171.967 74.958C171.538 75.098 171.039 75.168 170.469 75.168ZM170.469 73.894C171.057 73.894 171.51 73.7587 171.827 73.488C172.154 73.2173 172.317 72.8393 172.317 72.354V72.074C172.317 71.5887 172.154 71.2107 171.827 70.94C171.51 70.6693 171.057 70.534 170.469 70.534C169.881 70.534 169.424 70.6693 169.097 70.94C168.78 71.2107 168.621 71.5887 168.621 72.074V72.354C168.621 72.8393 168.78 73.2173 169.097 73.488C169.424 73.7587 169.881 73.894 170.469 73.894ZM170.469 69.316C171.011 69.316 171.421 69.1993 171.701 68.966C171.991 68.7327 172.135 68.392 172.135 67.944V67.706C172.135 67.258 171.991 66.9173 171.701 66.684C171.421 66.4507 171.011 66.334 170.469 66.334C169.928 66.334 169.513 66.4507 169.223 66.684C168.943 66.9173 168.803 67.258 168.803 67.706V67.944C168.803 68.392 168.943 68.7327 169.223 68.966C169.513 69.1993 169.928 69.316 170.469 69.316ZM176.898 75L180.44 66.53H176.744V68.336H175.386V65.228H182.008V66.6L178.564 75H176.898ZM185.272 75L192.048 65.228H193.462L186.686 75H185.272ZM185.902 70.604C185.146 70.604 184.568 70.3707 184.166 69.904C183.765 69.428 183.564 68.7373 183.564 67.832C183.564 66.9267 183.765 66.2407 184.166 65.774C184.568 65.298 185.146 65.06 185.902 65.06C186.658 65.06 187.237 65.298 187.638 65.774C188.04 66.2407 188.24 66.9267 188.24 67.832C188.24 68.7373 188.04 69.428 187.638 69.904C187.237 70.3707 186.658 70.604 185.902 70.604ZM185.902 69.666C186.565 69.666 186.896 69.1853 186.896 68.224V67.44C186.896 66.4787 186.565 65.998 185.902 65.998C185.24 65.998 184.908 66.4787 184.908 67.44V68.224C184.908 69.1853 185.24 69.666 185.902 69.666ZM192.832 75.168C192.076 75.168 191.498 74.9347 191.096 74.468C190.695 73.992 190.494 73.3013 190.494 72.396C190.494 71.4907 190.695 70.8047 191.096 70.338C191.498 69.862 192.076 69.624 192.832 69.624C193.588 69.624 194.167 69.862 194.568 70.338C194.97 70.8047 195.17 71.4907 195.17 72.396C195.17 73.3013 194.97 73.992 194.568 74.468C194.167 74.9347 193.588 75.168 192.832 75.168ZM192.832 74.23C193.495 74.23 193.826 73.7493 193.826 72.788V72.004C193.826 71.0427 193.495 70.562 192.832 70.562C192.17 70.562 191.838 71.0427 191.838 72.004V72.788C191.838 73.7493 192.17 74.23 192.832 74.23Z" fill="#0D122E"/>
<path d="M146.105 99.648C145.561 99.648 145.069 99.58 144.629 99.444C144.189 99.308 143.813 99.108 143.501 98.844C143.197 98.58 142.961 98.252 142.793 97.86C142.625 97.476 142.541 97.036 142.541 96.54C142.541 95.9 142.733 95.32 143.117 94.8C143.509 94.28 144.081 93.848 144.833 93.504V93.444C144.361 93.156 144.001 92.816 143.753 92.424C143.513 92.032 143.393 91.608 143.393 91.152C143.393 90.792 143.453 90.452 143.573 90.132C143.701 89.812 143.877 89.536 144.101 89.304C144.325 89.064 144.589 88.876 144.893 88.74C145.205 88.604 145.545 88.536 145.913 88.536C146.417 88.536 146.857 88.648 147.233 88.872C147.609 89.096 147.913 89.4 148.145 89.784L147.257 90.672C147.065 90.408 146.849 90.216 146.609 90.096C146.377 89.968 146.101 89.904 145.781 89.904C145.333 89.904 144.989 90.016 144.749 90.24C144.509 90.464 144.389 90.768 144.389 91.152C144.389 91.616 144.557 91.956 144.893 92.172C145.237 92.388 145.705 92.496 146.297 92.496C146.481 92.496 146.677 92.484 146.885 92.46C147.101 92.436 147.329 92.404 147.569 92.364L148.529 92.196L148.757 93.432L147.173 93.744C145.949 93.976 145.049 94.292 144.473 94.692C143.905 95.084 143.621 95.592 143.621 96.216V96.42C143.621 97.02 143.841 97.476 144.281 97.788C144.721 98.1 145.329 98.256 146.105 98.256C146.649 98.256 147.165 98.16 147.653 97.968C148.149 97.776 148.601 97.476 149.009 97.068L149.765 98.136C148.765 99.144 147.545 99.648 146.105 99.648ZM149.731 97.524H150.427C151.267 97.524 151.923 97.388 152.395 97.116C152.867 96.852 153.179 96.48 153.331 96H151.891C151.243 96 150.739 95.824 150.379 95.472C150.027 95.12 149.851 94.62 149.851 93.972C149.851 93.588 149.907 93.228 150.019 92.892C150.139 92.556 150.299 92.268 150.499 92.028C150.707 91.78 150.951 91.584 151.231 91.44C151.511 91.296 151.819 91.224 152.155 91.224C152.859 91.224 153.407 91.524 153.799 92.124C154.199 92.724 154.407 93.564 154.423 94.644H154.987V95.712L154.699 96H154.291C154.091 96.92 153.671 97.628 153.031 98.124C152.399 98.628 151.547 98.88 150.475 98.88H149.731V97.524ZM150.847 93.804C150.847 94.1 150.939 94.316 151.123 94.452C151.307 94.58 151.579 94.644 151.939 94.644H153.427V94.416C153.427 93.864 153.299 93.424 153.043 93.096C152.787 92.76 152.455 92.592 152.047 92.592C151.679 92.592 151.387 92.704 151.171 92.928C150.955 93.152 150.847 93.444 150.847 93.804ZM154.575 94.932L154.863 94.644H155.259C155.923 94.644 156.255 94.328 156.255 93.696V91.872H157.299V93.696C157.299 94.328 157.611 94.644 158.235 94.644H158.691V95.712L158.391 96C157.799 96 157.339 95.892 157.011 95.676C156.691 95.452 156.479 95.104 156.375 94.632H156.303C156.207 95.128 156.027 95.48 155.763 95.688C155.507 95.896 155.111 96 154.575 96V94.932ZM156.675 98.484C156.491 98.484 156.343 98.428 156.231 98.316C156.127 98.204 156.075 98.032 156.075 97.8C156.075 97.56 156.127 97.384 156.231 97.272C156.343 97.168 156.491 97.116 156.675 97.116H156.855C157.039 97.116 157.187 97.168 157.299 97.272C157.411 97.384 157.467 97.56 157.467 97.8C157.467 98.032 157.411 98.204 157.299 98.316C157.187 98.428 157.039 98.484 156.855 98.484H156.675ZM158.287 94.932L158.575 94.644H158.815C158.983 94.644 159.131 94.632 159.259 94.608C159.387 94.584 159.499 94.54 159.595 94.476C159.691 94.412 159.779 94.328 159.859 94.224C159.939 94.12 160.019 93.988 160.099 93.828L160.591 92.832L161.491 93.288L160.939 94.356L161.023 94.404C161.263 94.54 161.495 94.64 161.719 94.704C161.943 94.768 162.171 94.8 162.403 94.8C162.763 94.8 163.027 94.72 163.195 94.56C163.363 94.392 163.447 94.104 163.447 93.696V92.832H164.491V93.696C164.491 94.088 164.551 94.368 164.671 94.536C164.791 94.696 164.979 94.776 165.235 94.776H165.415C165.871 94.776 166.099 94.516 166.099 93.996C166.099 93.74 166.063 93.372 165.991 92.892L165.883 92.256L166.915 92.1L167.011 92.724C167.043 92.964 167.067 93.192 167.083 93.408C167.099 93.624 167.107 93.82 167.107 93.996C167.107 94.7 166.955 95.236 166.651 95.604C166.355 95.964 165.911 96.144 165.319 96.144C164.807 96.144 164.411 96.028 164.131 95.796C163.851 95.564 163.667 95.212 163.579 94.74H163.507C163.371 95.676 162.927 96.144 162.175 96.144C161.943 96.144 161.703 96.1 161.455 96.012C161.215 95.924 160.927 95.78 160.591 95.58L160.267 95.388C160.035 95.636 159.763 95.8 159.451 95.88C159.147 95.96 158.759 96 158.287 96V94.932ZM168.115 94.668L170.299 92.616L167.335 89.496L168.151 88.68L171.139 91.824C171.267 91.704 171.371 91.588 171.451 91.476C171.539 91.356 171.607 91.236 171.655 91.116C171.711 90.988 171.747 90.848 171.763 90.696C171.787 90.544 171.799 90.368 171.799 90.168V87.12H172.927V90.168C172.927 90.432 172.907 90.664 172.867 90.864C172.835 91.064 172.775 91.256 172.687 91.44C172.599 91.616 172.483 91.792 172.339 91.968C172.203 92.136 172.027 92.32 171.811 92.52L172.411 93.156C172.715 93.468 172.923 93.74 173.035 93.972C173.155 94.196 173.215 94.436 173.215 94.692C173.215 94.868 173.183 95.036 173.119 95.196C173.055 95.356 172.963 95.496 172.843 95.616C172.731 95.736 172.591 95.832 172.423 95.904C172.255 95.968 172.063 96 171.847 96H168.115V94.668ZM170.947 93.3L169.507 94.596L169.519 94.644H172.243L170.947 93.3ZM167.923 87.3H168.391L168.403 87.24C168.251 87.072 168.175 86.864 168.175 86.616C168.175 86.296 168.287 86.032 168.511 85.824C168.735 85.608 169.019 85.5 169.363 85.5C169.571 85.5 169.775 85.548 169.975 85.644C170.175 85.732 170.339 85.856 170.467 86.016L169.963 86.664C169.779 86.48 169.579 86.388 169.363 86.388C169.219 86.388 169.103 86.424 169.015 86.496C168.927 86.56 168.883 86.644 168.883 86.748C168.883 87.068 169.163 87.228 169.723 87.228H170.551V88.128H167.923V87.3ZM174.421 87.12H175.537V96H174.421V87.12ZM179.795 87.12H180.911V96H179.795V87.12ZM183.292 96C182.884 96 182.564 95.892 182.332 95.676C182.1 95.46 181.984 95.124 181.984 94.668V93.792H183.052V94.644H184.684C185.108 94.644 185.4 94.608 185.56 94.536C185.72 94.464 185.8 94.328 185.8 94.128C185.8 94.04 185.78 93.932 185.74 93.804C185.7 93.668 185.644 93.496 185.572 93.288L184.456 90.18L185.596 89.772L186.82 93.168C186.924 93.464 187.02 93.708 187.108 93.9C187.204 94.084 187.3 94.232 187.396 94.344C187.492 94.456 187.592 94.536 187.696 94.584C187.808 94.624 187.936 94.644 188.08 94.644H188.404V95.712L188.104 96C187.84 96 187.608 95.98 187.408 95.94C187.208 95.892 187.028 95.82 186.868 95.724C186.716 95.62 186.576 95.484 186.448 95.316C186.328 95.148 186.208 94.936 186.088 94.68L186.028 94.692C185.956 95.164 185.796 95.5 185.548 95.7C185.3 95.9 184.92 96 184.408 96H183.292ZM184.792 88.74C184.608 88.74 184.46 88.684 184.348 88.572C184.244 88.46 184.192 88.288 184.192 88.056C184.192 87.816 184.244 87.644 184.348 87.54C184.46 87.428 184.608 87.372 184.792 87.372H184.972C185.156 87.372 185.304 87.428 185.416 87.54C185.528 87.644 185.584 87.816 185.584 88.056C185.584 88.288 185.528 88.46 185.416 88.572C185.304 88.684 185.156 88.74 184.972 88.74H184.792ZM188.001 94.932L188.289 94.644H189.837L189.861 94.584C189.197 94.016 188.865 93.36 188.865 92.616C188.865 92.304 188.913 92.008 189.009 91.728C189.113 91.448 189.253 91.2 189.429 90.984C189.613 90.768 189.825 90.592 190.065 90.456C190.305 90.312 190.565 90.228 190.845 90.204L191.229 89.472L193.089 90.492C193.529 90.732 193.905 90.988 194.217 91.26C194.529 91.524 194.785 91.816 194.985 92.136C195.185 92.456 195.333 92.808 195.429 93.192C195.525 93.568 195.573 93.992 195.573 94.464V94.704L194.697 96H193.365C192.941 96 192.533 95.956 192.141 95.868C191.757 95.772 191.389 95.62 191.037 95.412C190.693 95.62 190.325 95.772 189.933 95.868C189.541 95.956 189.137 96 188.721 96H188.001V94.932ZM191.037 94.368C191.421 94.144 191.717 93.884 191.925 93.588C192.141 93.292 192.249 92.976 192.249 92.64C192.249 92.232 192.145 91.912 191.937 91.68C191.737 91.44 191.461 91.32 191.109 91.32H190.977C190.625 91.32 190.345 91.44 190.137 91.68C189.929 91.912 189.825 92.232 189.825 92.64C189.825 92.976 189.929 93.292 190.137 93.588C190.353 93.884 190.653 94.144 191.037 94.368ZM193.113 91.932C193.177 92.164 193.209 92.392 193.209 92.616C193.209 93.36 192.877 94.016 192.213 94.584L192.237 94.644H194.577V94.536C194.577 93.912 194.461 93.396 194.229 92.988C194.005 92.58 193.641 92.22 193.137 91.908L193.113 91.932Z" fill="#6B7280"/>
<rect width="151.375" height="5" rx="2.5" transform="matrix(-1 2.35877e-09 2.35877e-09 1 196 112)" fill="#EB4099"/>
<rect width="173" height="5" rx="2.5" transform="matrix(-1 2.35877e-09 2.35877e-09 1 196 112)" fill="#EB4099" fill-opacity="0.15"/>
<path d="M174.082 133.144C173.594 133.144 173.162 133.084 172.786 132.964C172.418 132.836 172.106 132.664 171.85 132.448C171.602 132.232 171.41 131.976 171.274 131.68C171.146 131.384 171.082 131.064 171.082 130.72C171.082 130.16 171.234 129.712 171.538 129.376C171.85 129.032 172.258 128.792 172.762 128.656L172.762 128.56C172.33 128.408 171.982 128.168 171.718 127.84C171.462 127.512 171.334 127.108 171.334 126.628C171.334 126.308 171.394 126.016 171.514 125.752C171.642 125.488 171.822 125.264 172.054 125.08C172.286 124.888 172.574 124.74 172.918 124.636C173.262 124.532 173.65 124.48 174.082 124.48C174.514 124.48 174.902 124.532 175.246 124.636C175.59 124.74 175.878 124.888 176.11 125.08C176.342 125.264 176.518 125.488 176.638 125.752C176.766 126.016 176.83 126.308 176.83 126.628C176.83 127.108 176.698 127.512 176.434 127.84C176.178 128.168 175.834 128.408 175.402 128.56L175.402 128.656C175.906 128.792 176.31 129.032 176.614 129.376C176.926 129.712 177.082 130.16 177.082 130.72C177.082 131.064 177.014 131.384 176.878 131.68C176.75 131.976 176.558 132.232 176.302 132.448C176.054 132.664 175.742 132.836 175.366 132.964C174.998 133.084 174.57 133.144 174.082 133.144ZM174.082 132.052C174.586 132.052 174.974 131.936 175.246 131.704C175.526 131.472 175.666 131.148 175.666 130.732L175.666 130.492C175.666 130.076 175.526 129.752 175.246 129.52C174.974 129.288 174.586 129.172 174.082 129.172C173.578 129.172 173.186 129.288 172.906 129.52C172.634 129.752 172.498 130.076 172.498 130.492L172.498 130.732C172.498 131.148 172.634 131.472 172.906 131.704C173.186 131.936 173.578 132.052 174.082 132.052ZM174.082 128.128C174.546 128.128 174.898 128.028 175.138 127.828C175.386 127.628 175.51 127.336 175.51 126.952L175.51 126.748C175.51 126.364 175.386 126.072 175.138 125.872C174.898 125.672 174.546 125.572 174.082 125.572C173.618 125.572 173.262 125.672 173.014 125.872C172.774 126.072 172.654 126.364 172.654 126.748L172.654 126.952C172.654 127.336 172.774 127.628 173.014 127.828C173.262 128.028 173.618 128.128 174.082 128.128ZM179.61 133L182.646 125.74L179.478 125.74L179.478 127.288L178.314 127.288L178.314 124.624L183.99 124.624L183.99 125.8L181.038 133L179.61 133ZM186.805 133L192.613 124.624L193.825 124.624L188.017 133L186.805 133ZM187.345 129.232C186.697 129.232 186.201 129.032 185.857 128.632C185.513 128.224 185.341 127.632 185.341 126.856C185.341 126.08 185.513 125.492 185.857 125.092C186.201 124.684 186.697 124.48 187.345 124.48C187.993 124.48 188.489 124.684 188.833 125.092C189.177 125.492 189.349 126.08 189.349 126.856C189.349 127.632 189.177 128.224 188.833 128.632C188.489 129.032 187.993 129.232 187.345 129.232ZM187.345 128.428C187.913 128.428 188.197 128.016 188.197 127.192L188.197 126.52C188.197 125.696 187.913 125.284 187.345 125.284C186.777 125.284 186.493 125.696 186.493 126.52L186.493 127.192C186.493 128.016 186.777 128.428 187.345 128.428ZM193.285 133.144C192.637 133.144 192.141 132.944 191.797 132.544C191.453 132.136 191.281 131.544 191.281 130.768C191.281 129.992 191.453 129.404 191.797 129.004C192.141 128.596 192.637 128.392 193.285 128.392C193.933 128.392 194.429 128.596 194.773 129.004C195.117 129.404 195.289 129.992 195.289 130.768C195.289 131.544 195.117 132.136 194.773 132.544C194.429 132.944 193.933 133.144 193.285 133.144ZM193.285 132.34C193.853 132.34 194.137 131.928 194.137 131.104L194.137 130.432C194.137 129.608 193.853 129.196 193.285 129.196C192.717 129.196 192.433 129.608 192.433 130.432L192.433 131.104C192.433 131.928 192.717 132.34 193.285 132.34Z" fill="#0D1530"/>
</g>
<defs>
<filter id="filter0_d_2052_25747" x="-7" y="0" width="233" height="181" filterUnits="userSpaceOnUse" color-interpolation-filters="sRGB">
<feFlood flood-opacity="0" result="BackgroundImageFix"/>
<feColorMatrix in="SourceAlpha" type="matrix" values="0 0 0 0 0 0 0 0 0 0 0 0 0 0 0 0 0 0 127 0" result="hardAlpha"/>
<feOffset dy="8"/>
<feGaussianBlur stdDeviation="12"/>
<feColorMatrix type="matrix" values="0 0 0 0 0.05 0 0 0 0 0.12 0 0 0 0 0.3 0 0 0 0.1 0"/>
<feBlend mode="normal" in2="BackgroundImageFix" result="effect1_dropShadow_2052_25747"/>
<feBlend mode="normal" in="SourceGraphic" in2="effect1_dropShadow_2052_25747" result="shape"/>
</filter>
</defs>
</svg>
