<svg width="212" height="142" viewBox="0 0 212 142" fill="none" xmlns="http://www.w3.org/2000/svg">
<g filter="url(#filter0_d_2052_25764)">
<mask id="path-1-inside-1_2052_25764" fill="white">
<path d="M16 28C16 21.3726 21.3726 16 28 16L176 16C182.627 16 188 21.3726 188 28V98C188 104.627 182.627 110 176 110H28C21.3726 110 16 104.627 16 98V28Z"/>
</mask>
<path d="M16 28C16 21.3726 21.3726 16 28 16L176 16C182.627 16 188 21.3726 188 28V98C188 104.627 182.627 110 176 110H28C21.3726 110 16 104.627 16 98V28Z" fill="white"/>
<path d="M16 28C16 19.1634 23.1634 12 32 12L172 12C180.837 12 188 19.1634 188 28C188 23.5817 182.627 20 176 20L28 20C21.3726 20 16 23.5817 16 28ZM16 28M188 110H16H188M188 110M16 110V16V110M16 110M188 16V110V16" fill="#156AE1" mask="url(#path-1-inside-1_2052_25764)"/>
<path d="M77.7602 43.168C76.7802 43.168 75.9542 43.1167 75.2822 43.014C74.6195 42.9113 74.0829 42.748 73.6722 42.524C73.2615 42.3 72.9629 42.006 72.7762 41.642C72.5989 41.2687 72.5102 40.816 72.5102 40.284C72.5102 39.9107 72.5569 39.528 72.6502 39.136C72.7529 38.744 72.9069 38.31 73.1122 37.834L73.9802 38.1C73.5975 38.8933 73.4062 39.5747 73.4062 40.144C73.4062 40.7133 73.6769 41.1333 74.2182 41.404C74.7595 41.6653 75.6135 41.796 76.7802 41.796H78.7402C79.4029 41.796 79.9489 41.7773 80.3782 41.74C80.8075 41.7027 81.1482 41.6373 81.4002 41.544C81.6522 41.4507 81.8249 41.3247 81.9182 41.166C82.0209 40.998 82.0722 40.788 82.0722 40.536C82.0722 40.3773 82.0629 40.1813 82.0442 39.948C82.0255 39.7053 81.9789 39.388 81.9042 38.996L81.6942 37.834L82.6742 37.68L82.8562 38.842C82.9215 39.262 82.9635 39.6073 82.9822 39.878C83.0102 40.1393 83.0242 40.3587 83.0242 40.536C83.0242 41.0213 82.9309 41.432 82.7442 41.768C82.5669 42.104 82.2682 42.3747 81.8482 42.58C81.4375 42.7853 80.8962 42.9347 80.2242 43.028C79.5615 43.1213 78.7402 43.168 77.7602 43.168ZM77.6762 45.8C77.4895 45.8 77.3402 45.744 77.2282 45.632C77.1162 45.5293 77.0602 45.3567 77.0602 45.114C77.0602 44.8713 77.1162 44.694 77.2282 44.582C77.3402 44.4793 77.4895 44.428 77.6762 44.428H77.8302C78.0169 44.428 78.1662 44.4793 78.2782 44.582C78.3902 44.694 78.4462 44.8713 78.4462 45.114C78.4462 45.3567 78.3902 45.5293 78.2782 45.632C78.1662 45.744 78.0169 45.8 77.8302 45.8H77.6762ZM83.7923 42.258L86.1583 41.642L84.9543 34.866L85.9483 34.684L87.1383 41.362C87.4743 41.25 87.7497 41.1193 87.9643 40.97C88.179 40.8113 88.3517 40.62 88.4823 40.396C88.613 40.1627 88.7017 39.8873 88.7483 39.57C88.8043 39.2433 88.8323 38.8513 88.8323 38.394V32.64H89.8683V40.606C89.8683 41.3993 90.2697 41.796 91.0723 41.796H91.5483V42.72L91.2683 43C90.4843 43 89.9103 42.8273 89.5463 42.482C89.1823 42.1273 89.0003 41.572 89.0003 40.816V40.284H88.9303C88.865 40.6387 88.781 40.9467 88.6783 41.208C88.5757 41.4693 88.445 41.6933 88.2863 41.88C88.137 42.0667 87.955 42.2207 87.7403 42.342C87.5257 42.4633 87.269 42.566 86.9703 42.65L84.1143 43.42L83.7923 42.258ZM100.921 43C100.566 43 100.267 42.972 100.025 42.916C99.7914 42.8507 99.5767 42.7293 99.3807 42.552C98.8953 42.8507 98.214 43 97.3367 43H91.2747V42.076L91.5547 41.796H92.2827L92.8007 40.914V32.64H93.8367V37.764L93.6687 39.402L93.7387 39.43C94.0467 39.0193 94.3547 38.6787 94.6627 38.408C94.9707 38.128 95.2834 37.904 95.6007 37.736C95.9273 37.568 96.254 37.4467 96.5807 37.372C96.9167 37.2973 97.262 37.26 97.6167 37.26C98.522 37.26 99.2267 37.512 99.7307 38.016C100.235 38.5107 100.487 39.1967 100.487 40.074C100.487 40.7273 100.379 41.2687 100.165 41.698C100.361 41.7633 100.613 41.796 100.921 41.796H101.201V42.72L100.921 43ZM97.3367 41.796C98.0367 41.796 98.5733 41.6793 98.9467 41.446C99.32 41.2127 99.5067 40.802 99.5067 40.214C99.5067 39.6353 99.3573 39.2013 99.0587 38.912C98.7693 38.6133 98.3587 38.464 97.8267 38.464H97.4067C97.0333 38.464 96.6927 38.5013 96.3847 38.576C96.086 38.6413 95.7967 38.7627 95.5167 38.94C95.246 39.108 94.9753 39.346 94.7047 39.654C94.4434 39.9527 94.1634 40.3307 93.8647 40.788L93.2627 41.726L93.3047 41.796H97.3367ZM100.927 42.076L101.207 41.796H101.613C102.061 41.796 102.383 41.6933 102.579 41.488C102.784 41.2827 102.887 40.956 102.887 40.508V32.64H103.923V40.508C103.923 41.3667 103.736 41.9967 103.363 42.398C102.999 42.7993 102.416 43 101.613 43H100.927V42.076ZM106.017 32.64H107.053V43H106.017V32.64ZM112.988 43C112.652 43 112.372 42.902 112.148 42.706C111.934 42.5007 111.826 42.202 111.826 41.81V40.732H112.806V41.796H115.116C115.378 41.796 115.592 41.768 115.76 41.712C115.928 41.6467 116.059 41.5627 116.152 41.46C116.255 41.3573 116.325 41.2407 116.362 41.11C116.4 40.9793 116.418 40.844 116.418 40.704C116.418 40.3867 116.316 40.0647 116.11 39.738C115.914 39.402 115.569 38.9867 115.074 38.492L113.604 36.882L114.514 36.014L115.914 37.624C116.194 37.9507 116.428 38.2493 116.614 38.52C116.801 38.7813 116.955 39.038 117.076 39.29C117.198 39.542 117.282 39.7893 117.328 40.032C117.384 40.2747 117.412 40.5313 117.412 40.802C117.412 41.4833 117.202 42.02 116.782 42.412C116.362 42.804 115.76 43 114.976 43H112.988ZM119.537 43C119.201 43 118.921 42.902 118.697 42.706C118.482 42.5007 118.375 42.202 118.375 41.81V40.732H119.355V41.796H121.245C121.562 41.796 121.824 41.7867 122.029 41.768C122.234 41.7493 122.398 41.7213 122.519 41.684C122.64 41.6373 122.724 41.5767 122.771 41.502C122.818 41.4273 122.841 41.3293 122.841 41.208C122.841 41.096 122.818 40.9607 122.771 40.802C122.724 40.6433 122.64 40.4007 122.519 40.074L121.175 36.378L122.169 36.014L123.597 39.934C123.737 40.3073 123.858 40.6153 123.961 40.858C124.073 41.0913 124.185 41.278 124.297 41.418C124.409 41.558 124.521 41.656 124.633 41.712C124.754 41.768 124.89 41.796 125.039 41.796H125.389V42.72L125.109 43C124.857 43 124.633 42.9767 124.437 42.93C124.25 42.8833 124.082 42.8133 123.933 42.72C123.784 42.6173 123.648 42.4867 123.527 42.328C123.406 42.1693 123.289 41.9733 123.177 41.74H123.107C123.051 42.1973 122.874 42.524 122.575 42.72C122.276 42.9067 121.833 43 121.245 43H119.537ZM125.113 42.076L125.393 41.796H127.157V41.726C126.811 41.502 126.522 41.18 126.289 40.76C126.065 40.34 125.953 39.8827 125.953 39.388C125.953 38.968 126.023 38.5853 126.163 38.24C126.303 37.8947 126.489 37.6007 126.723 37.358C126.965 37.106 127.25 36.9147 127.577 36.784C127.903 36.644 128.249 36.574 128.613 36.574C129.145 36.574 129.607 36.686 129.999 36.91C130.391 37.1247 130.717 37.4327 130.979 37.834L130.279 38.646C130.036 38.3473 129.775 38.128 129.495 37.988C129.224 37.848 128.911 37.778 128.557 37.778C128.025 37.778 127.619 37.9273 127.339 38.226C127.068 38.5153 126.933 38.9027 126.933 39.388C126.933 39.6493 126.989 39.892 127.101 40.116C127.213 40.34 127.367 40.536 127.563 40.704C127.759 40.8627 127.992 40.9887 128.263 41.082C128.533 41.1753 128.827 41.222 129.145 41.222C129.565 41.222 129.999 41.166 130.447 41.054L131.567 40.774L131.833 41.866L130.013 42.37C129.565 42.5007 129.149 42.608 128.767 42.692C128.384 42.7667 128.001 42.8273 127.619 42.874C127.245 42.9207 126.853 42.9533 126.443 42.972C126.041 42.9907 125.598 43 125.113 43V42.076Z" fill="#0D1530"/>
<rect x="22" y="76" width="86" height="22" rx="9" fill="#156AE1" fill-opacity="0.12"/>
<path d="M30.72 93.88C29.672 93.88 28.864 93.608 28.296 93.064C27.736 92.52 27.456 91.752 27.456 90.76C27.456 90.4 27.504 90.004 27.6 89.572C27.704 89.14 27.844 88.716 28.02 88.3L28.932 88.576C28.78 88.912 28.656 89.26 28.56 89.62C28.464 89.98 28.416 90.304 28.416 90.592C28.416 91.176 28.584 91.628 28.92 91.948C29.256 92.268 29.72 92.428 30.312 92.428H31.14C31.484 92.428 31.776 92.388 32.016 92.308C32.256 92.228 32.452 92.096 32.604 91.912C32.756 91.728 32.864 91.484 32.928 91.18C32.992 90.884 33.024 90.52 33.024 90.088V82.12H34.152V89.644H35.556V90.712L35.268 91H34.104C33.984 91.992 33.648 92.72 33.096 93.184C32.544 93.648 31.752 93.88 30.72 93.88ZM45.9227 91C45.6267 91 45.3667 90.972 45.1427 90.916C44.9187 90.852 44.7107 90.74 44.5187 90.58C44.0627 90.86 43.4187 91 42.5867 91H39.0827C38.4907 91 38.0307 90.892 37.7027 90.676C37.3827 90.452 37.1707 90.104 37.0667 89.632H36.9947C36.8987 90.128 36.7187 90.48 36.4547 90.688C36.1987 90.896 35.8027 91 35.2667 91V89.932L35.5547 89.644H35.9507C36.6147 89.644 36.9467 89.328 36.9467 88.696V87.832H37.9907V88.696C37.9907 89.128 38.1227 89.408 38.3867 89.536L38.9747 88.528C39.2707 88.016 39.5667 87.588 39.8627 87.244C40.1667 86.892 40.4787 86.612 40.7987 86.404C41.1187 86.188 41.4507 86.036 41.7947 85.948C42.1387 85.852 42.4987 85.804 42.8747 85.804C43.7227 85.804 44.3707 86.04 44.8187 86.512C45.2747 86.976 45.5027 87.62 45.5027 88.444C45.5027 88.892 45.4427 89.272 45.3227 89.584C45.4187 89.608 45.5147 89.624 45.6107 89.632C45.7067 89.64 45.8107 89.644 45.9227 89.644H46.2107V90.712L45.9227 91ZM42.5867 89.644C43.2587 89.644 43.7467 89.56 44.0507 89.392C44.3547 89.224 44.5067 88.916 44.5067 88.468C44.5067 87.604 44.0227 87.172 43.0547 87.172H42.6947C42.3587 87.172 42.0587 87.196 41.7947 87.244C41.5307 87.292 41.2867 87.376 41.0627 87.496C40.8387 87.616 40.6227 87.78 40.4147 87.988C40.2147 88.196 40.0107 88.46 39.8027 88.78L39.2867 89.572L39.3227 89.644H42.5867ZM45.919 89.932L46.207 89.644H47.755L47.779 89.584C47.059 88.968 46.699 88.244 46.699 87.412C46.699 87.076 46.751 86.76 46.855 86.464C46.967 86.168 47.123 85.908 47.323 85.684C47.523 85.46 47.759 85.284 48.031 85.156C48.311 85.028 48.619 84.964 48.955 84.964C49.291 84.964 49.595 85.028 49.867 85.156C50.147 85.284 50.383 85.46 50.575 85.684C50.775 85.9 50.931 86.16 51.043 86.464C51.155 86.76 51.211 87.076 51.211 87.412C51.211 88.236 50.851 88.96 50.131 89.584L50.155 89.644H51.715V90.712L51.427 91H51.283C50.859 91 50.451 90.952 50.059 90.856C49.675 90.752 49.307 90.584 48.955 90.352C48.611 90.584 48.243 90.752 47.851 90.856C47.459 90.952 47.055 91 46.639 91H45.919V89.932ZM48.955 89.368C49.363 89.144 49.679 88.888 49.903 88.6C50.127 88.312 50.239 87.976 50.239 87.592C50.239 87.208 50.123 86.9 49.891 86.668C49.667 86.436 49.375 86.32 49.015 86.32H48.883C48.523 86.32 48.227 86.436 47.995 86.668C47.771 86.9 47.659 87.208 47.659 87.592C47.659 87.976 47.771 88.312 47.995 88.6C48.227 88.888 48.547 89.144 48.955 89.368ZM48.859 83.74C48.675 83.74 48.527 83.684 48.415 83.572C48.311 83.46 48.259 83.288 48.259 83.056C48.259 82.816 48.311 82.644 48.415 82.54C48.527 82.428 48.675 82.372 48.859 82.372H49.039C49.223 82.372 49.371 82.428 49.483 82.54C49.595 82.644 49.651 82.816 49.651 83.056C49.651 83.288 49.595 83.46 49.483 83.572C49.371 83.684 49.223 83.74 49.039 83.74H48.859ZM51.4268 89.932L51.7148 89.644H52.1348C52.4868 89.644 52.7308 89.568 52.8668 89.416C53.0108 89.264 53.0828 89.024 53.0828 88.696V82.12H54.2108V88.696C54.2108 89.488 54.0508 90.072 53.7308 90.448C53.4108 90.816 52.8788 91 52.1348 91H51.4268V89.932ZM55.871 82.12H56.987V91H55.871V82.12ZM61.4842 82.12H62.6002V91H61.4842V82.12ZM65.1016 91C64.6936 91 64.3736 90.892 64.1416 90.676C63.9096 90.46 63.7936 90.124 63.7936 89.668V88.792H64.8616V89.644H66.4936C66.9176 89.644 67.2096 89.608 67.3696 89.536C67.5296 89.464 67.6096 89.328 67.6096 89.128C67.6096 89.04 67.5896 88.932 67.5496 88.804C67.5096 88.668 67.4536 88.496 67.3816 88.288L66.2656 85.18L67.4056 84.772L68.6296 88.168C68.7336 88.464 68.8296 88.708 68.9176 88.9C69.0136 89.084 69.1096 89.232 69.2056 89.344C69.3016 89.456 69.4016 89.536 69.5056 89.584C69.6176 89.624 69.7456 89.644 69.8896 89.644H70.2136V90.712L69.9136 91C69.6496 91 69.4176 90.98 69.2176 90.94C69.0176 90.892 68.8376 90.82 68.6776 90.724C68.5256 90.62 68.3856 90.484 68.2576 90.316C68.1376 90.148 68.0176 89.936 67.8976 89.68L67.8376 89.692C67.7656 90.164 67.6056 90.5 67.3576 90.7C67.1096 90.9 66.7296 91 66.2176 91H65.1016ZM66.6016 83.74C66.4176 83.74 66.2696 83.684 66.1576 83.572C66.0536 83.46 66.0016 83.288 66.0016 83.056C66.0016 82.816 66.0536 82.644 66.1576 82.54C66.2696 82.428 66.4176 82.372 66.6016 82.372H66.7816C66.9656 82.372 67.1136 82.428 67.2256 82.54C67.3376 82.644 67.3936 82.816 67.3936 83.056C67.3936 83.288 67.3376 83.46 67.2256 83.572C67.1136 83.684 66.9656 83.74 66.7816 83.74H66.6016ZM69.9307 89.932L70.2187 89.644H71.7667L71.7907 89.584C71.1267 89.016 70.7947 88.36 70.7947 87.616C70.7947 87.304 70.8427 87.008 70.9387 86.728C71.0427 86.448 71.1827 86.2 71.3587 85.984C71.5427 85.768 71.7547 85.592 71.9947 85.456C72.2347 85.312 72.4947 85.228 72.7747 85.204L73.1587 84.472L75.0187 85.492C75.4587 85.732 75.8347 85.988 76.1467 86.26C76.4587 86.524 76.7147 86.816 76.9147 87.136C77.1147 87.456 77.2627 87.808 77.3587 88.192C77.4547 88.568 77.5027 88.992 77.5027 89.464V89.704L76.6267 91H75.2947C74.8707 91 74.4627 90.956 74.0707 90.868C73.6867 90.772 73.3187 90.62 72.9667 90.412C72.6227 90.62 72.2547 90.772 71.8627 90.868C71.4707 90.956 71.0667 91 70.6507 91H69.9307V89.932ZM72.9667 89.368C73.3507 89.144 73.6467 88.884 73.8547 88.588C74.0707 88.292 74.1787 87.976 74.1787 87.64C74.1787 87.232 74.0747 86.912 73.8667 86.68C73.6667 86.44 73.3907 86.32 73.0387 86.32H72.9067C72.5547 86.32 72.2747 86.44 72.0667 86.68C71.8587 86.912 71.7547 87.232 71.7547 87.64C71.7547 87.976 71.8587 88.292 72.0667 88.588C72.2827 88.884 72.5827 89.144 72.9667 89.368ZM75.0427 86.932C75.1067 87.164 75.1387 87.392 75.1387 87.616C75.1387 88.36 74.8067 89.016 74.1427 89.584L74.1667 89.644H76.5067V89.536C76.5067 88.912 76.3907 88.396 76.1587 87.988C75.9347 87.58 75.5707 87.22 75.0667 86.908L75.0427 86.932ZM81.8216 91V89.872H84.1736V83.608H84.0776L82.1336 85.684L81.3056 84.94L83.4416 82.624H85.5056V89.872H87.5456V91H81.8216ZM94.4529 91H88.7649V89.704L91.4409 87.316C91.8649 86.932 92.1889 86.568 92.4129 86.224C92.6449 85.872 92.7609 85.504 92.7609 85.12V84.964C92.7609 84.556 92.6369 84.236 92.3889 84.004C92.1489 83.772 91.8209 83.656 91.4049 83.656C91.1729 83.656 90.9689 83.692 90.7929 83.764C90.6249 83.828 90.4769 83.92 90.3489 84.04C90.2209 84.16 90.1129 84.3 90.0249 84.46C89.9449 84.62 89.8809 84.792 89.8329 84.976L88.6449 84.52C88.7329 84.256 88.8529 84.004 89.0049 83.764C89.1569 83.516 89.3489 83.296 89.5809 83.104C89.8129 82.912 90.0849 82.76 90.3969 82.648C90.7169 82.536 91.0889 82.48 91.5129 82.48C91.9369 82.48 92.3169 82.544 92.6529 82.672C92.9889 82.792 93.2689 82.964 93.4929 83.188C93.7249 83.404 93.9009 83.664 94.0209 83.968C94.1409 84.272 94.2009 84.604 94.2009 84.964C94.2009 85.3 94.1489 85.612 94.0449 85.9C93.9409 86.188 93.7969 86.46 93.6129 86.716C93.4289 86.972 93.2129 87.216 92.9649 87.448C92.7249 87.68 92.4689 87.916 92.1969 88.156L90.2289 89.848H94.4529V91ZM98.1682 90.244V87.868H95.9602V86.8H98.1682V84.424H99.3442V86.8H101.552V87.868H99.3442V90.244H98.1682Z" fill="#156AE1"/>
<path d="M146.233 73V71.684H148.977V64.376H148.865L146.597 66.798L145.631 65.93L148.123 63.228H150.531V71.684H152.911V73H146.233ZM155.266 71.054C155.611 71.054 155.868 71.1427 156.036 71.32C156.204 71.4973 156.288 71.726 156.288 72.006V72.23C156.288 72.6873 156.162 73.1633 155.91 73.658C155.667 74.162 155.336 74.5867 154.916 74.932H153.782C154.081 74.6333 154.328 74.344 154.524 74.064C154.72 73.784 154.869 73.4713 154.972 73.126C154.729 73.0793 154.547 72.9767 154.426 72.818C154.305 72.65 154.244 72.454 154.244 72.23V72.006C154.244 71.726 154.328 71.4973 154.496 71.32C154.664 71.1427 154.921 71.054 155.266 71.054ZM164.71 73H158.074V71.488L161.196 68.702C161.691 68.254 162.069 67.8293 162.33 67.428C162.601 67.0173 162.736 66.588 162.736 66.14V65.958C162.736 65.482 162.592 65.1087 162.302 64.838C162.022 64.5673 161.64 64.432 161.154 64.432C160.884 64.432 160.646 64.474 160.44 64.558C160.244 64.6327 160.072 64.74 159.922 64.88C159.773 65.02 159.647 65.1833 159.544 65.37C159.451 65.5567 159.376 65.7573 159.32 65.972L157.934 65.44C158.037 65.132 158.177 64.838 158.354 64.558C158.532 64.2687 158.756 64.012 159.026 63.788C159.297 63.564 159.614 63.3867 159.978 63.256C160.352 63.1253 160.786 63.06 161.28 63.06C161.775 63.06 162.218 63.1347 162.61 63.284C163.002 63.424 163.329 63.6247 163.59 63.886C163.861 64.138 164.066 64.4413 164.206 64.796C164.346 65.1507 164.416 65.538 164.416 65.958C164.416 66.35 164.356 66.714 164.234 67.05C164.113 67.386 163.945 67.7033 163.73 68.002C163.516 68.3007 163.264 68.5853 162.974 68.856C162.694 69.1267 162.396 69.402 162.078 69.682L159.782 71.656H164.71V73ZM170.397 73V71.096H165.861V69.738L169.823 63.228H171.895V69.85H173.225V71.096H171.895V73H170.397ZM167.205 69.85H170.397V64.67H170.299L167.205 69.85ZM177.805 73.168C177.199 73.168 176.671 73.056 176.223 72.832C175.775 72.5987 175.407 72.2673 175.117 71.838C174.828 71.4087 174.613 70.8813 174.473 70.256C174.333 69.6307 174.263 68.9167 174.263 68.114C174.263 67.3207 174.333 66.6113 174.473 65.986C174.613 65.3513 174.828 64.8193 175.117 64.39C175.407 63.9607 175.775 63.634 176.223 63.41C176.671 63.1767 177.199 63.06 177.805 63.06C179.019 63.06 179.91 63.5033 180.479 64.39C181.058 65.2767 181.347 66.518 181.347 68.114C181.347 69.71 181.058 70.9513 180.479 71.838C179.91 72.7247 179.019 73.168 177.805 73.168ZM177.805 71.824C178.141 71.824 178.426 71.7587 178.659 71.628C178.902 71.488 179.098 71.292 179.247 71.04C179.397 70.788 179.504 70.4893 179.569 70.144C179.635 69.7893 179.667 69.3973 179.667 68.968V67.26C179.667 66.8307 179.635 66.4433 179.569 66.098C179.504 65.7433 179.397 65.44 179.247 65.188C179.098 64.936 178.902 64.7447 178.659 64.614C178.426 64.474 178.141 64.404 177.805 64.404C177.469 64.404 177.18 64.474 176.937 64.614C176.704 64.7447 176.513 64.936 176.363 65.188C176.214 65.44 176.107 65.7433 176.041 66.098C175.976 66.4433 175.943 66.8307 175.943 67.26V68.968C175.943 69.3973 175.976 69.7893 176.041 70.144C176.107 70.4893 176.214 70.788 176.363 71.04C176.513 71.292 176.704 71.488 176.937 71.628C177.18 71.7587 177.469 71.824 177.805 71.824Z" fill="#0D122E"/>
<path d="M124.15 96.88C123.102 96.88 122.294 96.608 121.726 96.064C121.166 95.52 120.886 94.752 120.886 93.76C120.886 93.4 120.934 93.004 121.03 92.572C121.134 92.14 121.274 91.716 121.45 91.3L122.362 91.576C122.21 91.912 122.086 92.26 121.99 92.62C121.894 92.98 121.846 93.304 121.846 93.592C121.846 94.176 122.014 94.628 122.35 94.948C122.686 95.268 123.15 95.428 123.742 95.428H124.57C124.914 95.428 125.206 95.388 125.446 95.308C125.686 95.228 125.882 95.096 126.034 94.912C126.186 94.728 126.294 94.484 126.358 94.18C126.422 93.884 126.454 93.52 126.454 93.088V85.12H127.582V92.644H128.986V93.712L128.698 94H127.534C127.414 94.992 127.078 95.72 126.526 96.184C125.974 96.648 125.182 96.88 124.15 96.88ZM131.125 88.716C130.893 88.716 130.713 88.636 130.585 88.476C130.465 88.308 130.405 88.076 130.405 87.78V86.916H131.101V87.54C131.101 87.732 131.185 87.828 131.353 87.828C131.561 87.828 131.665 87.664 131.665 87.336V86.568H132.361V87.036C132.361 87.292 132.453 87.42 132.637 87.42C132.733 87.42 132.809 87.388 132.865 87.324C132.921 87.26 132.949 87.172 132.949 87.06C132.949 86.86 132.893 86.6 132.781 86.28L133.465 86.076C133.529 86.252 133.573 86.424 133.597 86.592C133.621 86.752 133.633 86.9 133.633 87.036C133.633 87.436 133.545 87.748 133.369 87.972C133.193 88.188 132.945 88.296 132.625 88.296C132.449 88.296 132.297 88.244 132.169 88.14C132.049 88.036 131.969 87.892 131.929 87.708H131.881C131.833 88.38 131.581 88.716 131.125 88.716ZM128.696 92.932L128.984 92.644H129.572C129.964 92.644 130.324 92.636 130.652 92.62C130.98 92.604 131.3 92.568 131.612 92.512C131.924 92.448 132.244 92.36 132.572 92.248C132.9 92.128 133.264 91.972 133.664 91.78L134.492 91.384V91.324L132.644 90.928L130.448 90.388V91.36H129.38V90.436C129.38 90.004 129.484 89.684 129.692 89.476C129.908 89.26 130.208 89.152 130.592 89.152C130.696 89.152 130.816 89.164 130.952 89.188C131.096 89.212 131.324 89.264 131.636 89.344L134.3 90.028C135.068 90.228 135.728 90.328 136.28 90.328H136.496V91.684H135.62V91.744C135.62 92.08 135.696 92.316 135.848 92.452C136 92.58 136.248 92.644 136.592 92.644H136.988V93.712L136.7 94C136.036 94 135.544 93.864 135.224 93.592C134.912 93.312 134.736 92.86 134.696 92.236L134.084 92.62C133.572 92.94 133.116 93.192 132.716 93.376C132.324 93.56 131.956 93.7 131.612 93.796C131.268 93.884 130.932 93.94 130.604 93.964C130.284 93.988 129.94 94 129.572 94H128.696V92.932ZM132.656 96.484C132.472 96.484 132.324 96.428 132.212 96.316C132.108 96.204 132.056 96.032 132.056 95.8C132.056 95.56 132.108 95.384 132.212 95.272C132.324 95.168 132.472 95.116 132.656 95.116H132.836C133.02 95.116 133.168 95.168 133.28 95.272C133.392 95.384 133.448 95.56 133.448 95.8C133.448 96.032 133.392 96.204 133.28 96.316C133.168 96.428 133.02 96.484 132.836 96.484H132.656ZM136.7 92.932L136.988 92.644H137.228C137.396 92.644 137.544 92.632 137.672 92.608C137.8 92.584 137.912 92.54 138.008 92.476C138.104 92.412 138.192 92.328 138.272 92.224C138.352 92.12 138.432 91.988 138.512 91.828L139.004 90.832L139.904 91.288L139.364 92.356L139.448 92.404C139.688 92.54 139.916 92.64 140.132 92.704C140.356 92.768 140.584 92.8 140.816 92.8C141.176 92.8 141.44 92.72 141.608 92.56C141.776 92.392 141.86 92.104 141.86 91.696V90.832H142.904V91.696C142.904 92.088 142.956 92.368 143.06 92.536C143.172 92.696 143.364 92.776 143.636 92.776H143.852C144.108 92.776 144.292 92.696 144.404 92.536C144.524 92.368 144.584 92.088 144.584 91.696V90.352H145.628V91.696C145.628 92.328 145.94 92.644 146.564 92.644H147.02V93.712L146.72 94C146.16 94 145.724 93.9 145.412 93.7C145.108 93.492 144.9 93.172 144.788 92.74H144.728C144.68 93.244 144.548 93.604 144.332 93.82C144.124 94.036 143.828 94.144 143.444 94.144C142.628 94.144 142.144 93.676 141.992 92.74H141.92C141.784 93.676 141.34 94.144 140.588 94.144C140.356 94.144 140.116 94.1 139.868 94.012C139.628 93.924 139.34 93.78 139.004 93.58L138.68 93.388C138.44 93.636 138.168 93.8 137.864 93.88C137.56 93.96 137.172 94 136.7 94V92.932ZM148.376 93.316C148.192 93.564 147.972 93.74 147.716 93.844C147.46 93.948 147.132 94 146.732 94V92.932L147.02 92.644C147.324 92.644 147.544 92.58 147.68 92.452C147.824 92.316 147.956 92.088 148.076 91.768L148.412 90.904C148.604 90.408 148.856 90.012 149.168 89.716C149.488 89.412 149.916 89.26 150.452 89.26C151.108 89.26 151.612 89.54 151.964 90.1C152.316 90.652 152.492 91.428 152.492 92.428V92.896L151.592 94.216L148.376 93.316ZM148.94 92.056L151.46 92.764V92.428C151.46 91.86 151.352 91.416 151.136 91.096C150.92 90.776 150.62 90.616 150.236 90.616C149.956 90.616 149.728 90.7 149.552 90.868C149.384 91.028 149.244 91.252 149.132 91.54L148.94 92.056ZM160.897 94.144C160.041 94.144 159.321 94.096 158.737 94C158.153 93.912 157.681 93.768 157.321 93.568C156.961 93.36 156.701 93.092 156.541 92.764C156.389 92.428 156.313 92.02 156.313 91.54C156.313 90.9 156.477 90.184 156.805 89.392L157.729 89.668C157.577 89.988 157.461 90.284 157.381 90.556C157.301 90.82 157.261 91.068 157.261 91.3C157.261 91.796 157.481 92.152 157.921 92.368C158.369 92.584 159.097 92.692 160.105 92.692H161.785C162.361 92.692 162.833 92.68 163.201 92.656C163.569 92.624 163.857 92.572 164.065 92.5C164.281 92.42 164.429 92.316 164.509 92.188C164.597 92.06 164.641 91.896 164.641 91.696V89.872H165.685V91.696C165.685 92.328 166.017 92.644 166.681 92.644H167.077V93.712L166.789 94C165.645 94 164.969 93.536 164.761 92.608H164.701C164.645 92.904 164.541 93.152 164.389 93.352C164.245 93.544 164.025 93.7 163.729 93.82C163.441 93.94 163.065 94.024 162.601 94.072C162.145 94.12 161.577 94.144 160.897 94.144ZM160.837 96.484C160.653 96.484 160.505 96.428 160.393 96.316C160.289 96.204 160.237 96.032 160.237 95.8C160.237 95.56 160.289 95.384 160.393 95.272C160.505 95.168 160.653 95.116 160.837 95.116H161.017C161.201 95.116 161.349 95.168 161.461 95.272C161.573 95.384 161.629 95.56 161.629 95.8C161.629 96.032 161.573 96.204 161.461 96.316C161.349 96.428 161.201 96.484 161.017 96.484H160.837ZM166.794 92.932L167.082 92.644H167.502C167.854 92.644 168.098 92.568 168.234 92.416C168.378 92.264 168.45 92.024 168.45 91.696V85.12H169.578V91.696C169.578 92.488 169.418 93.072 169.098 93.448C168.778 93.816 168.246 94 167.502 94H166.794V92.932ZM173.446 94C172.662 94 172.098 93.84 171.754 93.52C171.41 93.192 171.238 92.648 171.238 91.888V85.12H172.354V91.78C172.354 92.116 172.43 92.344 172.582 92.464C172.742 92.584 173.002 92.644 173.362 92.644H173.758V93.712L173.458 94H173.446ZM175.718 90.352L175.778 90.388C176.25 89.804 176.738 89.396 177.242 89.164C177.754 88.924 178.31 88.804 178.91 88.804C179.758 88.804 180.406 89.04 180.854 89.512C181.302 89.976 181.526 90.62 181.526 91.444C181.526 92.348 181.286 93 180.806 93.4C180.326 93.8 179.594 94 178.61 94H173.474V92.932L173.762 92.644H174.338L174.734 91.984V85.12H175.862V88.948L175.718 90.352ZM178.61 92.644C179.282 92.644 179.77 92.56 180.074 92.392C180.378 92.224 180.53 91.916 180.53 91.468C180.53 90.604 180.05 90.172 179.09 90.172H178.73C178.394 90.172 178.094 90.196 177.83 90.244C177.566 90.292 177.318 90.376 177.086 90.496C176.862 90.616 176.65 90.78 176.45 90.988C176.25 91.196 176.042 91.46 175.826 91.78L175.31 92.572L175.346 92.644H178.61Z" fill="#6B7280"/>
</g>
<defs>
<filter id="filter0_d_2052_25764" x="-8" y="0" width="220" height="142" filterUnits="userSpaceOnUse" color-interpolation-filters="sRGB">
<feFlood flood-opacity="0" result="BackgroundImageFix"/>
<feColorMatrix in="SourceAlpha" type="matrix" values="0 0 0 0 0 0 0 0 0 0 0 0 0 0 0 0 0 0 127 0" result="hardAlpha"/>
<feOffset dy="8"/>
<feGaussianBlur stdDeviation="12"/>
<feColorMatrix type="matrix" values="0 0 0 0 0.05 0 0 0 0 0.12 0 0 0 0 0.3 0 0 0 0.1 0"/>
<feBlend mode="normal" in2="BackgroundImageFix" result="effect1_dropShadow_2052_25764"/>
<feBlend mode="normal" in="SourceGraphic" in2="effect1_dropShadow_2052_25764" result="shape"/>
</filter>
</defs>
</svg>
