<svg width="208" height="172" viewBox="0 0 208 172" fill="none" xmlns="http://www.w3.org/2000/svg">
<g filter="url(#filter0_d_2052_25733)">
<mask id="path-1-inside-1_2052_25733" fill="white">
<path d="M24 28C24 21.3726 29.3726 16 36 16L180 16C186.627 16 192 21.3726 192 28V128C192 134.627 186.627 140 180 140H36C29.3726 140 24 134.627 24 128V28Z"/>
</mask>
<path d="M24 28C24 21.3726 29.3726 16 36 16L180 16C186.627 16 192 21.3726 192 28V128C192 134.627 186.627 140 180 140H36C29.3726 140 24 134.627 24 128V28Z" fill="white"/>
<path d="M24 28C24 19.1634 31.1634 12 40 12L176 12C184.837 12 192 19.1634 192 28C192 23.5817 186.627 20 180 20L36 20C29.3726 20 24 23.5817 24 28ZM24 28M192 140H24H192M192 140M24 140V16V140M24 140M192 16V140V16" fill="#FF8C00" mask="url(#path-1-inside-1_2052_25733)"/>
<path d="M82.4272 43.168C81.4472 43.168 80.6212 43.1167 79.9492 43.014C79.2865 42.9113 78.7499 42.748 78.3392 42.524C77.9285 42.3 77.6299 42.006 77.4432 41.642C77.2659 41.2687 77.1772 40.816 77.1772 40.284C77.1772 39.9107 77.2239 39.528 77.3172 39.136C77.4199 38.744 77.5739 38.31 77.7792 37.834L78.6472 38.1C78.2645 38.8933 78.0732 39.5747 78.0732 40.144C78.0732 40.7133 78.3439 41.1333 78.8852 41.404C79.4265 41.6653 80.2805 41.796 81.4472 41.796H83.4072C84.0699 41.796 84.6159 41.7773 85.0452 41.74C85.4745 41.7027 85.8152 41.6373 86.0672 41.544C86.3192 41.4507 86.4919 41.3247 86.5852 41.166C86.6879 40.998 86.7392 40.788 86.7392 40.536C86.7392 40.3773 86.7299 40.1813 86.7112 39.948C86.6925 39.7053 86.6459 39.388 86.5712 38.996L86.3612 37.834L87.3412 37.68L87.5232 38.842C87.5885 39.262 87.6305 39.6073 87.6492 39.878C87.6772 40.1393 87.6912 40.3587 87.6912 40.536C87.6912 41.0213 87.5979 41.432 87.4112 41.768C87.2339 42.104 86.9352 42.3747 86.5152 42.58C86.1045 42.7853 85.5632 42.9347 84.8912 43.028C84.2285 43.1213 83.4072 43.168 82.4272 43.168ZM82.3432 45.8C82.1565 45.8 82.0072 45.744 81.8952 45.632C81.7832 45.5293 81.7272 45.3567 81.7272 45.114C81.7272 44.8713 81.7832 44.694 81.8952 44.582C82.0072 44.4793 82.1565 44.428 82.3432 44.428H82.4972C82.6839 44.428 82.8332 44.4793 82.9452 44.582C83.0572 44.694 83.1132 44.8713 83.1132 45.114C83.1132 45.3567 83.0572 45.5293 82.9452 45.632C82.8332 45.744 82.6839 45.8 82.4972 45.8H82.3432ZM91.8053 43C91.3573 43 90.9747 42.9627 90.6573 42.888C90.3493 42.8133 90.0973 42.692 89.9013 42.524C89.7147 42.3467 89.5793 42.118 89.4953 41.838C89.4113 41.558 89.3693 41.2173 89.3693 40.816V32.64H90.4053V40.816C90.4053 41.1707 90.5033 41.4227 90.6993 41.572C90.8953 41.7213 91.1987 41.796 91.6093 41.796H92.0993V42.72L91.8193 43H91.8053ZM91.8128 42.076L92.0928 41.796H92.5828C93.3761 41.796 93.7728 41.3993 93.7728 40.606V38.394H94.7528V40.606C94.7528 41.3993 95.1494 41.796 95.9428 41.796H96.4328V42.72L96.1528 43C94.8648 43 94.1088 42.5427 93.8848 41.628H93.8148C93.7121 42.1413 93.5114 42.5007 93.2128 42.706C92.9141 42.902 92.4474 43 91.8128 43V42.076ZM95.0888 45.8C94.9021 45.8 94.7528 45.744 94.6408 45.632C94.5288 45.5293 94.4728 45.3567 94.4728 45.114C94.4728 44.8713 94.5288 44.694 94.6408 44.582C94.7528 44.4793 94.9021 44.428 95.0888 44.428H95.2428C95.4294 44.428 95.5788 44.4793 95.6908 44.582C95.8028 44.694 95.8588 44.8713 95.8588 45.114C95.8588 45.3567 95.8028 45.5293 95.6908 45.632C95.5788 45.744 95.4294 45.8 95.2428 45.8H95.0888ZM93.2828 45.8C93.0961 45.8 92.9468 45.744 92.8348 45.632C92.7228 45.5293 92.6668 45.3567 92.6668 45.114C92.6668 44.8713 92.7228 44.694 92.8348 44.582C92.9468 44.4793 93.0961 44.428 93.2828 44.428H93.4368C93.6234 44.428 93.7728 44.4793 93.8848 44.582C93.9968 44.694 94.0528 44.8713 94.0528 45.114C94.0528 45.3567 93.9968 45.5293 93.8848 45.632C93.7728 45.744 93.6234 45.8 93.4368 45.8H93.2828ZM96.1468 42.076L96.4268 41.796H99.0168L99.0308 41.74L97.0568 39.304V38.1C97.4674 37.8853 97.9108 37.722 98.3868 37.61C98.8721 37.4887 99.3434 37.428 99.8008 37.428C100.65 37.428 101.308 37.6007 101.775 37.946C102.251 38.2913 102.489 38.772 102.489 39.388C102.489 39.6307 102.456 39.8453 102.391 40.032C102.335 40.2093 102.237 40.3867 102.097 40.564C101.957 40.7413 101.775 40.9233 101.551 41.11C101.327 41.2967 101.056 41.5113 100.739 41.754L100.753 41.796H103.119V42.72L102.839 43H101.929C101.555 43 101.191 42.9487 100.837 42.846C100.491 42.734 100.169 42.5707 99.8708 42.356C99.5721 42.5707 99.2454 42.734 98.8908 42.846C98.5454 42.9487 98.1861 43 97.8128 43H96.1468V42.076ZM97.9948 38.968L99.9688 41.32L100.123 41.194C100.347 41.0073 100.543 40.844 100.711 40.704C100.888 40.564 101.037 40.4333 101.159 40.312C101.28 40.1813 101.373 40.06 101.439 39.948C101.504 39.8267 101.537 39.696 101.537 39.556C101.537 39.2573 101.383 39.0287 101.075 38.87C100.767 38.7113 100.333 38.632 99.7728 38.632C99.5021 38.632 99.2174 38.6553 98.9188 38.702C98.6294 38.7393 98.3214 38.8093 97.9948 38.912V38.968ZM99.7168 35.748C99.5301 35.748 99.3808 35.6967 99.2688 35.594C99.1568 35.482 99.1008 35.3047 99.1008 35.062C99.1008 34.8193 99.1568 34.6467 99.2688 34.544C99.3808 34.432 99.5301 34.376 99.7168 34.376H99.8708C100.057 34.376 100.207 34.432 100.319 34.544C100.431 34.6467 100.487 34.8193 100.487 35.062C100.487 35.3047 100.431 35.482 100.319 35.594C100.207 35.6967 100.057 35.748 99.8708 35.748H99.7168ZM102.832 42.076L103.112 41.796H103.518C103.966 41.796 104.288 41.6933 104.484 41.488C104.69 41.2827 104.792 40.956 104.792 40.508V32.64H105.828V40.508C105.828 41.3667 105.642 41.9967 105.268 42.398C104.904 42.7993 104.321 43 103.518 43H102.832V42.076ZM107.922 32.64H108.958V43H107.922V32.64ZM119.696 43C119.266 43 118.902 42.9673 118.604 42.902C118.314 42.8273 118.076 42.7107 117.89 42.552C117.712 42.384 117.582 42.174 117.498 41.922C117.414 41.6607 117.372 41.3387 117.372 40.956V40.718H117.302C117.171 41.138 116.947 41.4553 116.63 41.67C116.322 41.8753 115.948 41.978 115.51 41.978C114.884 41.978 114.394 41.81 114.04 41.474C113.694 41.138 113.522 40.662 113.522 40.046C113.522 39.7847 113.564 39.542 113.648 39.318C113.732 39.0847 113.867 38.8607 114.054 38.646C114.25 38.422 114.497 38.2027 114.796 37.988C115.094 37.764 115.458 37.5307 115.888 37.288L117.302 36.476V35.776H118.282V40.816C118.282 41.1987 118.38 41.46 118.576 41.6C118.772 41.7307 119.075 41.796 119.486 41.796H119.976V42.72L119.696 43ZM115.72 40.774C116.289 40.774 116.695 40.6947 116.938 40.536C117.18 40.368 117.302 40.074 117.302 39.654V37.61L115.888 38.366C115.393 38.6367 115.038 38.8887 114.824 39.122C114.609 39.346 114.502 39.6073 114.502 39.906C114.502 40.2047 114.59 40.424 114.768 40.564C114.954 40.704 115.272 40.774 115.72 40.774ZM117.75 34.614C117.563 34.614 117.414 34.5627 117.302 34.46C117.19 34.348 117.134 34.1707 117.134 33.928C117.134 33.6853 117.19 33.5127 117.302 33.41C117.414 33.298 117.563 33.242 117.75 33.242H117.904C118.09 33.242 118.24 33.298 118.352 33.41C118.464 33.5127 118.52 33.6853 118.52 33.928C118.52 34.1707 118.464 34.348 118.352 34.46C118.24 34.5627 118.09 34.614 117.904 34.614H117.75ZM115.944 34.614C115.757 34.614 115.608 34.5627 115.496 34.46C115.384 34.348 115.328 34.1707 115.328 33.928C115.328 33.6853 115.384 33.5127 115.496 33.41C115.608 33.298 115.757 33.242 115.944 33.242H116.098C116.284 33.242 116.434 33.298 116.546 33.41C116.658 33.5127 116.714 33.6853 116.714 33.928C116.714 34.1707 116.658 34.348 116.546 34.46C116.434 34.5627 116.284 34.614 116.098 34.614H115.944ZM119.69 42.076L119.97 41.796H120.46C121.253 41.796 121.65 41.3993 121.65 40.606V38.394H122.63V40.606C122.63 41.3993 123.026 41.796 123.82 41.796H124.31V42.72L124.03 43C122.742 43 121.986 42.5427 121.762 41.628H121.692C121.589 42.1413 121.388 42.5007 121.09 42.706C120.791 42.902 120.324 43 119.69 43V42.076ZM122.056 45.8C121.869 45.8 121.72 45.744 121.608 45.632C121.496 45.5293 121.44 45.3567 121.44 45.114C121.44 44.8713 121.496 44.694 121.608 44.582C121.72 44.4793 121.869 44.428 122.056 44.428H122.21C122.396 44.428 122.546 44.4793 122.658 44.582C122.77 44.694 122.826 44.8713 122.826 45.114C122.826 45.3567 122.77 45.5293 122.658 45.632C122.546 45.744 122.396 45.8 122.21 45.8H122.056ZM124.024 42.076L124.304 41.796H124.794C124.971 41.796 125.125 41.782 125.256 41.754C125.396 41.7167 125.522 41.656 125.634 41.572C125.746 41.488 125.848 41.376 125.942 41.236C126.044 41.096 126.152 40.914 126.264 40.69L126.866 39.514L127.664 39.92L126.922 41.32L127.118 41.446C127.416 41.642 127.706 41.7773 127.986 41.852C128.275 41.9267 128.555 41.964 128.826 41.964C129.264 41.964 129.586 41.8613 129.792 41.656C130.006 41.4507 130.114 41.1007 130.114 40.606V39.514H131.094V40.606C131.094 41.11 131.164 41.4647 131.304 41.67C131.444 41.866 131.677 41.964 132.004 41.964H132.326C132.652 41.964 132.881 41.866 133.012 41.67C133.152 41.4647 133.222 41.11 133.222 40.606V38.954H134.202V40.606C134.202 41.3993 134.598 41.796 135.392 41.796H135.882V42.72L135.602 43C134.986 43 134.5 42.902 134.146 42.706C133.791 42.5007 133.544 42.188 133.404 41.768H133.334C133.278 42.2907 133.138 42.6547 132.914 42.86C132.69 43.0653 132.363 43.168 131.934 43.168C130.972 43.168 130.408 42.7013 130.24 41.768H130.17C130.076 42.216 129.894 42.5613 129.624 42.804C129.362 43.0467 129.012 43.168 128.574 43.168C128.023 43.168 127.407 42.9487 126.726 42.51L126.292 42.23C126.021 42.5287 125.713 42.734 125.368 42.846C125.022 42.9487 124.574 43 124.024 43V42.076ZM135.604 42.076L135.884 41.796H136.094C136.71 41.796 137.153 41.7213 137.424 41.572C137.704 41.4133 137.844 41.1147 137.844 40.676C137.844 40.508 137.83 40.2933 137.802 40.032C137.783 39.7707 137.736 39.4253 137.662 38.996L137.466 37.834L138.446 37.68L138.614 38.842C138.679 39.2993 138.726 39.6727 138.754 39.962C138.782 40.2513 138.796 40.4893 138.796 40.676C138.796 41.46 138.562 42.0433 138.096 42.426C137.638 42.8087 136.971 43 136.094 43H135.604V42.076ZM137.718 36C137.531 36 137.382 35.9487 137.27 35.846C137.158 35.734 137.102 35.5567 137.102 35.314C137.102 35.0713 137.158 34.8987 137.27 34.796C137.382 34.684 137.531 34.628 137.718 34.628H137.872C138.058 34.628 138.208 34.684 138.32 34.796C138.432 34.8987 138.488 35.0713 138.488 35.314C138.488 35.5567 138.432 35.734 138.32 35.846C138.208 35.9487 138.058 36 137.872 36H137.718Z" fill="#0D1530"/>
<rect x="32" y="69" width="74" height="22" rx="9" fill="#FF8C00" fill-opacity="0.12"/>
<path d="M40.948 86.88C39.828 86.88 38.964 86.608 38.356 86.064C37.756 85.52 37.456 84.752 37.456 83.76C37.456 83.4 37.504 83.004 37.6 82.572C37.704 82.14 37.844 81.716 38.02 81.3L38.932 81.576C38.78 81.904 38.656 82.24 38.56 82.584C38.464 82.928 38.416 83.24 38.416 83.52C38.416 84.128 38.604 84.596 38.98 84.924C39.356 85.26 39.876 85.428 40.54 85.428H41.368C42.144 85.428 42.712 85.264 43.072 84.936C43.44 84.616 43.624 84.104 43.624 83.4C43.624 83.176 43.604 82.92 43.564 82.632C43.524 82.336 43.464 81.996 43.384 81.612L43.156 80.568L44.2 80.364L44.392 81.396C44.432 81.636 44.468 81.86 44.5 82.068C44.54 82.268 44.568 82.46 44.584 82.644H45.712V83.712L45.424 84H44.596C44.508 84.984 44.168 85.708 43.576 86.172C42.984 86.644 42.108 86.88 40.948 86.88ZM40.996 80.34C40.812 80.34 40.664 80.284 40.552 80.172C40.448 80.06 40.396 79.888 40.396 79.656C40.396 79.416 40.448 79.244 40.552 79.14C40.664 79.028 40.812 78.972 40.996 78.972H41.176C41.36 78.972 41.508 79.028 41.62 79.14C41.732 79.244 41.788 79.416 41.788 79.656C41.788 79.888 41.732 80.06 41.62 80.172C41.508 80.284 41.36 80.34 41.176 80.34H40.996ZM49.9661 79.716C49.7341 79.716 49.5541 79.636 49.4261 79.476C49.3061 79.308 49.2461 79.076 49.2461 78.78V77.916H49.9421V78.54C49.9421 78.732 50.0261 78.828 50.1941 78.828C50.4021 78.828 50.5061 78.664 50.5061 78.336V77.568H51.2021V78.036C51.2021 78.292 51.2941 78.42 51.4781 78.42C51.5741 78.42 51.6501 78.388 51.7061 78.324C51.7621 78.26 51.7901 78.172 51.7901 78.06C51.7901 77.86 51.7341 77.6 51.6221 77.28L52.3061 77.076C52.3701 77.252 52.4141 77.424 52.4381 77.592C52.4621 77.752 52.4741 77.9 52.4741 78.036C52.4741 78.436 52.3861 78.748 52.2101 78.972C52.0341 79.188 51.7861 79.296 51.4661 79.296C51.2901 79.296 51.1381 79.244 51.0101 79.14C50.8901 79.036 50.8101 78.892 50.7701 78.708H50.7221C50.6741 79.38 50.4221 79.716 49.9661 79.716ZM45.179 82.932L45.467 82.644H45.707C45.875 82.644 46.023 82.632 46.151 82.608C46.279 82.584 46.391 82.54 46.487 82.476C46.583 82.412 46.671 82.328 46.751 82.224C46.831 82.12 46.911 81.988 46.991 81.828L47.483 80.832L48.383 81.288L47.843 82.356L47.927 82.404C48.167 82.54 48.395 82.64 48.611 82.704C48.835 82.768 49.063 82.8 49.295 82.8C49.655 82.8 49.919 82.72 50.087 82.56C50.255 82.392 50.339 82.104 50.339 81.696V80.832H51.383V81.696C51.383 82.088 51.435 82.368 51.539 82.536C51.651 82.696 51.843 82.776 52.115 82.776H52.331C52.587 82.776 52.771 82.696 52.883 82.536C53.003 82.368 53.063 82.088 53.063 81.696V80.352H54.107V81.696C54.107 82.328 54.419 82.644 55.043 82.644H55.499V83.712L55.199 84C54.639 84 54.203 83.9 53.891 83.7C53.587 83.492 53.379 83.172 53.267 82.74H53.207C53.159 83.244 53.027 83.604 52.811 83.82C52.603 84.036 52.307 84.144 51.923 84.144C51.107 84.144 50.623 83.676 50.471 82.74H50.399C50.263 83.676 49.819 84.144 49.067 84.144C48.835 84.144 48.595 84.1 48.347 84.012C48.107 83.924 47.819 83.78 47.483 83.58L47.159 83.388C46.919 83.636 46.647 83.8 46.343 83.88C46.039 83.96 45.651 84 45.179 84V82.932ZM55.0903 82.932L55.3783 82.644H55.9663C56.3583 82.644 56.7183 82.636 57.0463 82.62C57.3743 82.604 57.6943 82.568 58.0063 82.512C58.3183 82.448 58.6383 82.36 58.9663 82.248C59.2943 82.128 59.6583 81.972 60.0583 81.78L60.8863 81.384V81.324L59.0383 80.928L56.8423 80.388V81.36H55.7743V80.436C55.7743 80.004 55.8783 79.684 56.0863 79.476C56.3023 79.26 56.6023 79.152 56.9863 79.152C57.0903 79.152 57.2103 79.164 57.3463 79.188C57.4903 79.212 57.7183 79.264 58.0303 79.344L60.6943 80.028C61.4623 80.228 62.1223 80.328 62.6743 80.328H62.8903V81.684H62.0143V81.744C62.0143 82.08 62.0903 82.316 62.2423 82.452C62.3943 82.58 62.6423 82.644 62.9863 82.644H63.3823V83.712L63.0943 84C62.4303 84 61.9383 83.864 61.6183 83.592C61.3063 83.312 61.1303 82.86 61.0903 82.236L60.4783 82.62C59.9663 82.94 59.5103 83.192 59.1103 83.376C58.7183 83.56 58.3503 83.7 58.0063 83.796C57.6623 83.884 57.3263 83.94 56.9983 83.964C56.6783 83.988 56.3343 84 55.9663 84H55.0903V82.932ZM62.9742 82.932L63.2622 82.644H63.5142C64.0582 82.644 64.4422 82.584 64.6662 82.464C64.8902 82.336 65.0022 82.108 65.0022 81.78C65.0022 81.644 64.9902 81.472 64.9662 81.264C64.9502 81.056 64.9142 80.78 64.8582 80.436L64.6662 79.392L65.7102 79.224L65.8662 80.268C65.9622 80.908 66.0102 81.412 66.0102 81.78C66.0102 82.532 65.8062 83.092 65.3982 83.46C64.9902 83.82 64.3622 84 63.5142 84H62.9742V82.932ZM65.7702 78C65.5862 78 65.4382 77.944 65.3262 77.832C65.2222 77.72 65.1702 77.548 65.1702 77.316C65.1702 77.076 65.2222 76.904 65.3262 76.8C65.4382 76.688 65.5862 76.632 65.7702 76.632H65.9502C66.1342 76.632 66.2822 76.688 66.3942 76.8C66.5062 76.904 66.5622 77.076 66.5622 77.316C66.5622 77.548 66.5062 77.72 66.3942 77.832C66.2822 77.944 66.1342 78 65.9502 78H65.7702ZM64.0782 78C63.8942 78 63.7462 77.944 63.6342 77.832C63.5302 77.72 63.4782 77.548 63.4782 77.316C63.4782 77.076 63.5302 76.904 63.6342 76.8C63.7462 76.688 63.8942 76.632 64.0782 76.632H64.2582C64.4422 76.632 64.5902 76.688 64.7022 76.8C64.8142 76.904 64.8702 77.076 64.8702 77.316C64.8702 77.548 64.8142 77.72 64.7022 77.832C64.5902 77.944 64.4422 78 64.2582 78H64.0782ZM75.5611 84H69.8731V82.704L72.5491 80.316C72.9731 79.932 73.2971 79.568 73.5211 79.224C73.7531 78.872 73.8691 78.504 73.8691 78.12V77.964C73.8691 77.556 73.7451 77.236 73.4971 77.004C73.2571 76.772 72.9291 76.656 72.5131 76.656C72.2811 76.656 72.0771 76.692 71.9011 76.764C71.7331 76.828 71.5851 76.92 71.4571 77.04C71.3291 77.16 71.2211 77.3 71.1331 77.46C71.0531 77.62 70.9891 77.792 70.9411 77.976L69.7531 77.52C69.8411 77.256 69.9611 77.004 70.1131 76.764C70.2651 76.516 70.4571 76.296 70.6891 76.104C70.9211 75.912 71.1931 75.76 71.5051 75.648C71.8251 75.536 72.1971 75.48 72.6211 75.48C73.0451 75.48 73.4251 75.544 73.7611 75.672C74.0971 75.792 74.3771 75.964 74.6011 76.188C74.8331 76.404 75.0091 76.664 75.1291 76.968C75.2491 77.272 75.3091 77.604 75.3091 77.964C75.3091 78.3 75.2571 78.612 75.1531 78.9C75.0491 79.188 74.9051 79.46 74.7211 79.716C74.5371 79.972 74.3211 80.216 74.0731 80.448C73.8331 80.68 73.5771 80.916 73.3051 81.156L71.3371 82.848H75.5611V84ZM78.3164 84L84.1244 75.624H85.3364L79.5284 84H78.3164ZM78.8564 80.232C78.2084 80.232 77.7124 80.032 77.3684 79.632C77.0244 79.224 76.8524 78.632 76.8524 77.856C76.8524 77.08 77.0244 76.492 77.3684 76.092C77.7124 75.684 78.2084 75.48 78.8564 75.48C79.5044 75.48 80.0004 75.684 80.3444 76.092C80.6884 76.492 80.8604 77.08 80.8604 77.856C80.8604 78.632 80.6884 79.224 80.3444 79.632C80.0004 80.032 79.5044 80.232 78.8564 80.232ZM78.8564 79.428C79.4244 79.428 79.7084 79.016 79.7084 78.192V77.52C79.7084 76.696 79.4244 76.284 78.8564 76.284C78.2884 76.284 78.0044 76.696 78.0044 77.52V78.192C78.0044 79.016 78.2884 79.428 78.8564 79.428ZM84.7964 84.144C84.1484 84.144 83.6524 83.944 83.3084 83.544C82.9644 83.136 82.7924 82.544 82.7924 81.768C82.7924 80.992 82.9644 80.404 83.3084 80.004C83.6524 79.596 84.1484 79.392 84.7964 79.392C85.4444 79.392 85.9404 79.596 86.2844 80.004C86.6284 80.404 86.8004 80.992 86.8004 81.768C86.8004 82.544 86.6284 83.136 86.2844 83.544C85.9404 83.944 85.4444 84.144 84.7964 84.144ZM84.7964 83.34C85.3644 83.34 85.6484 82.928 85.6484 82.104V81.432C85.6484 80.608 85.3644 80.196 84.7964 80.196C84.2284 80.196 83.9444 80.608 83.9444 81.432V82.104C83.9444 82.928 84.2284 83.34 84.7964 83.34ZM92.5795 81.492L93.3235 80.748L94.2235 81.66L94.7035 82.224L94.7515 82.212L94.6915 81.132V75.624H95.7835V81.132L95.7115 82.212L95.7595 82.224L96.2395 81.66L97.1395 80.748L97.8835 81.492L95.2315 84.144L92.5795 81.492Z" fill="#FF8C00"/>
<path d="M155.501 66V64.684H158.245V57.376H158.133L155.865 59.798L154.899 58.93L157.391 56.228H159.799V64.684H162.179V66H155.501ZM166.172 60.246C166.778 60.246 167.226 60.12 167.516 59.868C167.805 59.6067 167.95 59.2753 167.95 58.874V58.776C167.95 58.328 167.81 57.9873 167.53 57.754C167.25 57.5113 166.872 57.39 166.396 57.39C165.929 57.39 165.532 57.4973 165.206 57.712C164.879 57.9173 164.604 58.2067 164.38 58.58L163.33 57.67C163.479 57.4553 163.647 57.25 163.834 57.054C164.02 56.858 164.24 56.69 164.492 56.55C164.744 56.4007 165.028 56.284 165.346 56.2C165.663 56.1067 166.027 56.06 166.438 56.06C166.895 56.06 167.32 56.116 167.712 56.228C168.104 56.34 168.44 56.508 168.72 56.732C169 56.9467 169.219 57.2127 169.378 57.53C169.536 57.838 169.616 58.188 169.616 58.58C169.616 58.888 169.564 59.168 169.462 59.42C169.368 59.672 169.233 59.896 169.056 60.092C168.888 60.2787 168.687 60.4327 168.454 60.554C168.23 60.6753 167.992 60.764 167.74 60.82V60.89C168.02 60.946 168.281 61.0393 168.524 61.17C168.776 61.2913 168.995 61.4547 169.182 61.66C169.368 61.856 169.513 62.094 169.616 62.374C169.728 62.6447 169.784 62.9573 169.784 63.312C169.784 63.7413 169.7 64.1333 169.532 64.488C169.364 64.8333 169.126 65.132 168.818 65.384C168.519 65.636 168.155 65.832 167.726 65.972C167.296 66.1027 166.82 66.168 166.298 66.168C165.84 66.168 165.439 66.1167 165.094 66.014C164.748 65.9207 164.44 65.7947 164.17 65.636C163.908 65.468 163.675 65.2813 163.47 65.076C163.274 64.8613 163.101 64.642 162.952 64.418L164.114 63.508C164.235 63.704 164.361 63.886 164.492 64.054C164.632 64.2127 164.786 64.3527 164.954 64.474C165.131 64.586 165.327 64.6747 165.542 64.74C165.766 64.8053 166.018 64.838 166.298 64.838C166.895 64.838 167.352 64.698 167.67 64.418C167.987 64.1287 168.146 63.732 168.146 63.228V63.13C168.146 62.626 167.978 62.2433 167.642 61.982C167.306 61.7207 166.83 61.59 166.214 61.59H165.178V60.246H166.172ZM173.272 66L180.048 56.228H181.462L174.686 66H173.272ZM173.902 61.604C173.146 61.604 172.568 61.3707 172.166 60.904C171.765 60.428 171.564 59.7373 171.564 58.832C171.564 57.9267 171.765 57.2407 172.166 56.774C172.568 56.298 173.146 56.06 173.902 56.06C174.658 56.06 175.237 56.298 175.638 56.774C176.04 57.2407 176.24 57.9267 176.24 58.832C176.24 59.7373 176.04 60.428 175.638 60.904C175.237 61.3707 174.658 61.604 173.902 61.604ZM173.902 60.666C174.565 60.666 174.896 60.1853 174.896 59.224V58.44C174.896 57.4787 174.565 56.998 173.902 56.998C173.24 56.998 172.908 57.4787 172.908 58.44V59.224C172.908 60.1853 173.24 60.666 173.902 60.666ZM180.832 66.168C180.076 66.168 179.498 65.9347 179.096 65.468C178.695 64.992 178.494 64.3013 178.494 63.396C178.494 62.4907 178.695 61.8047 179.096 61.338C179.498 60.862 180.076 60.624 180.832 60.624C181.588 60.624 182.167 60.862 182.568 61.338C182.97 61.8047 183.17 62.4907 183.17 63.396C183.17 64.3013 182.97 64.992 182.568 65.468C182.167 65.9347 181.588 66.168 180.832 66.168ZM180.832 65.23C181.495 65.23 181.826 64.7493 181.826 63.788V63.004C181.826 62.0427 181.495 61.562 180.832 61.562C180.17 61.562 179.838 62.0427 179.838 63.004V63.788C179.838 64.7493 180.17 65.23 180.832 65.23Z" fill="#0D122E"/>
<path d="M134.105 90.648C133.561 90.648 133.069 90.58 132.629 90.444C132.189 90.308 131.813 90.108 131.501 89.844C131.197 89.58 130.961 89.252 130.793 88.86C130.625 88.476 130.541 88.036 130.541 87.54C130.541 86.9 130.733 86.32 131.117 85.8C131.509 85.28 132.081 84.848 132.833 84.504V84.444C132.361 84.156 132.001 83.816 131.753 83.424C131.513 83.032 131.393 82.608 131.393 82.152C131.393 81.792 131.453 81.452 131.573 81.132C131.701 80.812 131.877 80.536 132.101 80.304C132.325 80.064 132.589 79.876 132.893 79.74C133.205 79.604 133.545 79.536 133.913 79.536C134.417 79.536 134.857 79.648 135.233 79.872C135.609 80.096 135.913 80.4 136.145 80.784L135.257 81.672C135.065 81.408 134.849 81.216 134.609 81.096C134.377 80.968 134.101 80.904 133.781 80.904C133.333 80.904 132.989 81.016 132.749 81.24C132.509 81.464 132.389 81.768 132.389 82.152C132.389 82.616 132.557 82.956 132.893 83.172C133.237 83.388 133.705 83.496 134.297 83.496C134.481 83.496 134.677 83.484 134.885 83.46C135.101 83.436 135.329 83.404 135.569 83.364L136.529 83.196L136.757 84.432L135.173 84.744C133.949 84.976 133.049 85.292 132.473 85.692C131.905 86.084 131.621 86.592 131.621 87.216V87.42C131.621 88.02 131.841 88.476 132.281 88.788C132.721 89.1 133.329 89.256 134.105 89.256C134.649 89.256 135.165 89.16 135.653 88.968C136.149 88.776 136.601 88.476 137.009 88.068L137.765 89.136C136.765 90.144 135.545 90.648 134.105 90.648ZM137.731 88.524H138.427C139.267 88.524 139.923 88.388 140.395 88.116C140.867 87.852 141.179 87.48 141.331 87H139.891C139.243 87 138.739 86.824 138.379 86.472C138.027 86.12 137.851 85.62 137.851 84.972C137.851 84.588 137.907 84.228 138.019 83.892C138.139 83.556 138.299 83.268 138.499 83.028C138.707 82.78 138.951 82.584 139.231 82.44C139.511 82.296 139.819 82.224 140.155 82.224C140.859 82.224 141.407 82.524 141.799 83.124C142.199 83.724 142.407 84.564 142.423 85.644H142.987V86.712L142.699 87H142.291C142.091 87.92 141.671 88.628 141.031 89.124C140.399 89.628 139.547 89.88 138.475 89.88H137.731V88.524ZM138.847 84.804C138.847 85.1 138.939 85.316 139.123 85.452C139.307 85.58 139.579 85.644 139.939 85.644H141.427V85.416C141.427 84.864 141.299 84.424 141.043 84.096C140.787 83.76 140.455 83.592 140.047 83.592C139.679 83.592 139.387 83.704 139.171 83.928C138.955 84.152 138.847 84.444 138.847 84.804ZM142.575 85.932L142.863 85.644H143.259C143.923 85.644 144.255 85.328 144.255 84.696V82.872H145.299V84.696C145.299 85.328 145.611 85.644 146.235 85.644H146.691V86.712L146.391 87C145.799 87 145.339 86.892 145.011 86.676C144.691 86.452 144.479 86.104 144.375 85.632H144.303C144.207 86.128 144.027 86.48 143.763 86.688C143.507 86.896 143.111 87 142.575 87V85.932ZM144.675 89.484C144.491 89.484 144.343 89.428 144.231 89.316C144.127 89.204 144.075 89.032 144.075 88.8C144.075 88.56 144.127 88.384 144.231 88.272C144.343 88.168 144.491 88.116 144.675 88.116H144.855C145.039 88.116 145.187 88.168 145.299 88.272C145.411 88.384 145.467 88.56 145.467 88.8C145.467 89.032 145.411 89.204 145.299 89.316C145.187 89.428 145.039 89.484 144.855 89.484H144.675ZM146.287 85.932L146.575 85.644H146.815C146.983 85.644 147.131 85.632 147.259 85.608C147.387 85.584 147.499 85.54 147.595 85.476C147.691 85.412 147.779 85.328 147.859 85.224C147.939 85.12 148.019 84.988 148.099 84.828L148.591 83.832L149.491 84.288L148.939 85.356L149.023 85.404C149.263 85.54 149.495 85.64 149.719 85.704C149.943 85.768 150.171 85.8 150.403 85.8C150.763 85.8 151.027 85.72 151.195 85.56C151.363 85.392 151.447 85.104 151.447 84.696V83.832H152.491V84.696C152.491 85.088 152.551 85.368 152.671 85.536C152.791 85.696 152.979 85.776 153.235 85.776H153.415C153.871 85.776 154.099 85.516 154.099 84.996C154.099 84.74 154.063 84.372 153.991 83.892L153.883 83.256L154.915 83.1L155.011 83.724C155.043 83.964 155.067 84.192 155.083 84.408C155.099 84.624 155.107 84.82 155.107 84.996C155.107 85.7 154.955 86.236 154.651 86.604C154.355 86.964 153.911 87.144 153.319 87.144C152.807 87.144 152.411 87.028 152.131 86.796C151.851 86.564 151.667 86.212 151.579 85.74H151.507C151.371 86.676 150.927 87.144 150.175 87.144C149.943 87.144 149.703 87.1 149.455 87.012C149.215 86.924 148.927 86.78 148.591 86.58L148.267 86.388C148.035 86.636 147.763 86.8 147.451 86.88C147.147 86.96 146.759 87 146.287 87V85.932ZM156.115 85.668L158.299 83.616L155.335 80.496L156.151 79.68L159.139 82.824C159.267 82.704 159.371 82.588 159.451 82.476C159.539 82.356 159.607 82.236 159.655 82.116C159.711 81.988 159.747 81.848 159.763 81.696C159.787 81.544 159.799 81.368 159.799 81.168V78.12H160.927V81.168C160.927 81.432 160.907 81.664 160.867 81.864C160.835 82.064 160.775 82.256 160.687 82.44C160.599 82.616 160.483 82.792 160.339 82.968C160.203 83.136 160.027 83.32 159.811 83.52L160.411 84.156C160.715 84.468 160.923 84.74 161.035 84.972C161.155 85.196 161.215 85.436 161.215 85.692C161.215 85.868 161.183 86.036 161.119 86.196C161.055 86.356 160.963 86.496 160.843 86.616C160.731 86.736 160.591 86.832 160.423 86.904C160.255 86.968 160.063 87 159.847 87H156.115V85.668ZM158.947 84.3L157.507 85.596L157.519 85.644H160.243L158.947 84.3ZM155.923 78.3H156.391L156.403 78.24C156.251 78.072 156.175 77.864 156.175 77.616C156.175 77.296 156.287 77.032 156.511 76.824C156.735 76.608 157.019 76.5 157.363 76.5C157.571 76.5 157.775 76.548 157.975 76.644C158.175 76.732 158.339 76.856 158.467 77.016L157.963 77.664C157.779 77.48 157.579 77.388 157.363 77.388C157.219 77.388 157.103 77.424 157.015 77.496C156.927 77.56 156.883 77.644 156.883 77.748C156.883 78.068 157.163 78.228 157.723 78.228H158.551V79.128H155.923V78.3ZM162.421 78.12H163.537V87H162.421V78.12ZM167.795 78.12H168.911V87H167.795V78.12ZM171.292 87C170.884 87 170.564 86.892 170.332 86.676C170.1 86.46 169.984 86.124 169.984 85.668V84.792H171.052V85.644H172.684C173.108 85.644 173.4 85.608 173.56 85.536C173.72 85.464 173.8 85.328 173.8 85.128C173.8 85.04 173.78 84.932 173.74 84.804C173.7 84.668 173.644 84.496 173.572 84.288L172.456 81.18L173.596 80.772L174.82 84.168C174.924 84.464 175.02 84.708 175.108 84.9C175.204 85.084 175.3 85.232 175.396 85.344C175.492 85.456 175.592 85.536 175.696 85.584C175.808 85.624 175.936 85.644 176.08 85.644H176.404V86.712L176.104 87C175.84 87 175.608 86.98 175.408 86.94C175.208 86.892 175.028 86.82 174.868 86.724C174.716 86.62 174.576 86.484 174.448 86.316C174.328 86.148 174.208 85.936 174.088 85.68L174.028 85.692C173.956 86.164 173.796 86.5 173.548 86.7C173.3 86.9 172.92 87 172.408 87H171.292ZM172.792 79.74C172.608 79.74 172.46 79.684 172.348 79.572C172.244 79.46 172.192 79.288 172.192 79.056C172.192 78.816 172.244 78.644 172.348 78.54C172.46 78.428 172.608 78.372 172.792 78.372H172.972C173.156 78.372 173.304 78.428 173.416 78.54C173.528 78.644 173.584 78.816 173.584 79.056C173.584 79.288 173.528 79.46 173.416 79.572C173.304 79.684 173.156 79.74 172.972 79.74H172.792ZM176.001 85.932L176.289 85.644H177.837L177.861 85.584C177.197 85.016 176.865 84.36 176.865 83.616C176.865 83.304 176.913 83.008 177.009 82.728C177.113 82.448 177.253 82.2 177.429 81.984C177.613 81.768 177.825 81.592 178.065 81.456C178.305 81.312 178.565 81.228 178.845 81.204L179.229 80.472L181.089 81.492C181.529 81.732 181.905 81.988 182.217 82.26C182.529 82.524 182.785 82.816 182.985 83.136C183.185 83.456 183.333 83.808 183.429 84.192C183.525 84.568 183.573 84.992 183.573 85.464V85.704L182.697 87H181.365C180.941 87 180.533 86.956 180.141 86.868C179.757 86.772 179.389 86.62 179.037 86.412C178.693 86.62 178.325 86.772 177.933 86.868C177.541 86.956 177.137 87 176.721 87H176.001V85.932ZM179.037 85.368C179.421 85.144 179.717 84.884 179.925 84.588C180.141 84.292 180.249 83.976 180.249 83.64C180.249 83.232 180.145 82.912 179.937 82.68C179.737 82.44 179.461 82.32 179.109 82.32H178.977C178.625 82.32 178.345 82.44 178.137 82.68C177.929 82.912 177.825 83.232 177.825 83.64C177.825 83.976 177.929 84.292 178.137 84.588C178.353 84.884 178.653 85.144 179.037 85.368ZM181.113 82.932C181.177 83.164 181.209 83.392 181.209 83.616C181.209 84.36 180.877 85.016 180.213 85.584L180.237 85.644H182.577V85.536C182.577 84.912 182.461 84.396 182.229 83.988C182.005 83.58 181.641 83.22 181.137 82.908L181.113 82.932Z" fill="#6B7280"/>
<rect width="30" height="5" rx="2.5" transform="matrix(-1 0 0 1 184 103)" fill="#FF8C00"/>
<rect width="144" height="5" rx="2.5" transform="matrix(-1 0 0 1 184 103)" fill="#FF8C00" fill-opacity="0.15"/>
<path d="M159.538 124V122.872H161.89V116.608H161.794L159.85 118.684L159.022 117.94L161.158 115.624H163.222V122.872H165.262V124H159.538ZM168.701 119.068C169.221 119.068 169.605 118.96 169.853 118.744C170.101 118.52 170.225 118.236 170.225 117.892V117.808C170.225 117.424 170.105 117.132 169.865 116.932C169.625 116.724 169.301 116.62 168.893 116.62C168.493 116.62 168.153 116.712 167.873 116.896C167.593 117.072 167.357 117.32 167.165 117.64L166.265 116.86C166.393 116.676 166.537 116.5 166.697 116.332C166.857 116.164 167.045 116.02 167.261 115.9C167.477 115.772 167.721 115.672 167.993 115.6C168.265 115.52 168.577 115.48 168.929 115.48C169.321 115.48 169.685 115.528 170.021 115.624C170.357 115.72 170.645 115.864 170.885 116.056C171.125 116.24 171.313 116.468 171.449 116.74C171.585 117.004 171.653 117.304 171.653 117.64C171.653 117.904 171.609 118.144 171.521 118.36C171.441 118.576 171.325 118.768 171.173 118.936C171.029 119.096 170.857 119.228 170.657 119.332C170.465 119.436 170.261 119.512 170.045 119.56V119.62C170.285 119.668 170.509 119.748 170.717 119.86C170.933 119.964 171.121 120.104 171.281 120.28C171.441 120.448 171.565 120.652 171.653 120.892C171.749 121.124 171.797 121.392 171.797 121.696C171.797 122.064 171.725 122.4 171.581 122.704C171.437 123 171.233 123.256 170.969 123.472C170.713 123.688 170.401 123.856 170.033 123.976C169.665 124.088 169.257 124.144 168.809 124.144C168.417 124.144 168.073 124.1 167.777 124.012C167.481 123.932 167.217 123.824 166.985 123.688C166.761 123.544 166.561 123.384 166.385 123.208C166.217 123.024 166.069 122.836 165.941 122.644L166.937 121.864C167.041 122.032 167.149 122.188 167.261 122.332C167.381 122.468 167.513 122.588 167.657 122.692C167.809 122.788 167.977 122.864 168.161 122.92C168.353 122.976 168.569 123.004 168.809 123.004C169.321 123.004 169.713 122.884 169.985 122.644C170.257 122.396 170.393 122.056 170.393 121.624V121.54C170.393 121.108 170.249 120.78 169.961 120.556C169.673 120.332 169.265 120.22 168.737 120.22H167.849V119.068H168.701ZM174.805 124L180.613 115.624H181.825L176.017 124H174.805ZM175.345 120.232C174.697 120.232 174.201 120.032 173.857 119.632C173.513 119.224 173.341 118.632 173.341 117.856C173.341 117.08 173.513 116.492 173.857 116.092C174.201 115.684 174.697 115.48 175.345 115.48C175.993 115.48 176.489 115.684 176.833 116.092C177.177 116.492 177.349 117.08 177.349 117.856C177.349 118.632 177.177 119.224 176.833 119.632C176.489 120.032 175.993 120.232 175.345 120.232ZM175.345 119.428C175.913 119.428 176.197 119.016 176.197 118.192V117.52C176.197 116.696 175.913 116.284 175.345 116.284C174.777 116.284 174.493 116.696 174.493 117.52V118.192C174.493 119.016 174.777 119.428 175.345 119.428ZM181.285 124.144C180.637 124.144 180.141 123.944 179.797 123.544C179.453 123.136 179.281 122.544 179.281 121.768C179.281 120.992 179.453 120.404 179.797 120.004C180.141 119.596 180.637 119.392 181.285 119.392C181.933 119.392 182.429 119.596 182.773 120.004C183.117 120.404 183.289 120.992 183.289 121.768C183.289 122.544 183.117 123.136 182.773 123.544C182.429 123.944 181.933 124.144 181.285 124.144ZM181.285 123.34C181.853 123.34 182.137 122.928 182.137 122.104V121.432C182.137 120.608 181.853 120.196 181.285 120.196C180.717 120.196 180.433 120.608 180.433 121.432V122.104C180.433 122.928 180.717 123.34 181.285 123.34Z" fill="#0D1530"/>
</g>
<defs>
<filter id="filter0_d_2052_25733" x="0" y="0" width="216" height="172" filterUnits="userSpaceOnUse" color-interpolation-filters="sRGB">
<feFlood flood-opacity="0" result="BackgroundImageFix"/>
<feColorMatrix in="SourceAlpha" type="matrix" values="0 0 0 0 0 0 0 0 0 0 0 0 0 0 0 0 0 0 127 0" result="hardAlpha"/>
<feOffset dy="8"/>
<feGaussianBlur stdDeviation="12"/>
<feColorMatrix type="matrix" values="0 0 0 0 0.05 0 0 0 0 0.12 0 0 0 0 0.3 0 0 0 0.1 0"/>
<feBlend mode="normal" in2="BackgroundImageFix" result="effect1_dropShadow_2052_25733"/>
<feBlend mode="normal" in="SourceGraphic" in2="effect1_dropShadow_2052_25733" result="shape"/>
</filter>
</defs>
</svg>
