<svg width="201" height="144" viewBox="0 0 201 144" fill="none" xmlns="http://www.w3.org/2000/svg">
<g filter="url(#filter0_d_2052_25773)">
<mask id="path-1-inside-1_2052_25773" fill="white">
<path d="M24 28C24 21.3726 29.3726 16 36 16L173 16C179.627 16 185 21.3726 185 28V100C185 106.627 179.627 112 173 112H36C29.3726 112 24 106.627 24 100V28Z"/>
</mask>
<path d="M24 28C24 21.3726 29.3726 16 36 16L173 16C179.627 16 185 21.3726 185 28V100C185 106.627 179.627 112 173 112H36C29.3726 112 24 106.627 24 100V28Z" fill="white"/>
<path d="M24 28C24 19.1634 31.1634 12 40 12L169 12C177.837 12 185 19.1634 185 28C185 23.5817 179.627 20 173 20L36 20C29.3726 20 24 23.5817 24 28ZM24 28M185 112H24H185M185 112M24 112V16V112M24 112M185 16V112V16" fill="#156AE1" mask="url(#path-1-inside-1_2052_25773)"/>
<path d="M75.5247 43C75.0953 43 74.7313 42.9673 74.4327 42.902C74.1433 42.8273 73.9053 42.7107 73.7187 42.552C73.5413 42.384 73.4107 42.174 73.3267 41.922C73.2427 41.6607 73.2007 41.3387 73.2007 40.956V40.718H73.1307C73 41.138 72.776 41.4553 72.4587 41.67C72.1507 41.8753 71.7773 41.978 71.3387 41.978C70.7133 41.978 70.2233 41.81 69.8687 41.474C69.5233 41.138 69.3507 40.662 69.3507 40.046C69.3507 39.7847 69.3927 39.542 69.4767 39.318C69.5607 39.0847 69.696 38.8607 69.8827 38.646C70.0787 38.422 70.326 38.2027 70.6247 37.988C70.9233 37.764 71.2873 37.5307 71.7167 37.288L73.1307 36.476V35.776H74.1107V40.816C74.1107 41.1987 74.2087 41.46 74.4047 41.6C74.6007 41.7307 74.904 41.796 75.3147 41.796H75.8047V42.72L75.5247 43ZM71.5487 40.774C72.118 40.774 72.524 40.6947 72.7667 40.536C73.0093 40.368 73.1307 40.074 73.1307 39.654V37.61L71.7167 38.366C71.222 38.6367 70.8673 38.8887 70.6527 39.122C70.438 39.346 70.3307 39.6073 70.3307 39.906C70.3307 40.2047 70.4193 40.424 70.5967 40.564C70.7833 40.704 71.1007 40.774 71.5487 40.774ZM73.5787 34.614C73.392 34.614 73.2427 34.5627 73.1307 34.46C73.0187 34.348 72.9627 34.1707 72.9627 33.928C72.9627 33.6853 73.0187 33.5127 73.1307 33.41C73.2427 33.298 73.392 33.242 73.5787 33.242H73.7327C73.9193 33.242 74.0687 33.298 74.1807 33.41C74.2927 33.5127 74.3487 33.6853 74.3487 33.928C74.3487 34.1707 74.2927 34.348 74.1807 34.46C74.0687 34.5627 73.9193 34.614 73.7327 34.614H73.5787ZM71.7727 34.614C71.586 34.614 71.4367 34.5627 71.3247 34.46C71.2127 34.348 71.1567 34.1707 71.1567 33.928C71.1567 33.6853 71.2127 33.5127 71.3247 33.41C71.4367 33.298 71.586 33.242 71.7727 33.242H71.9267C72.1133 33.242 72.2627 33.298 72.3747 33.41C72.4867 33.5127 72.5427 33.6853 72.5427 33.928C72.5427 34.1707 72.4867 34.348 72.3747 34.46C72.2627 34.5627 72.1133 34.614 71.9267 34.614H71.7727ZM85.0049 43C84.6502 43 84.3515 42.972 84.1089 42.916C83.8755 42.8507 83.6609 42.7293 83.4649 42.552C82.9795 42.8507 82.2982 43 81.4209 43H75.3589V42.076L75.6389 41.796H76.3669L76.8849 40.914V32.64H77.9209V37.764L77.7529 39.402L77.8229 39.43C78.1309 39.0193 78.4389 38.6787 78.7469 38.408C79.0549 38.128 79.3675 37.904 79.6849 37.736C80.0115 37.568 80.3382 37.4467 80.6649 37.372C81.0009 37.2973 81.3462 37.26 81.7009 37.26C82.6062 37.26 83.3109 37.512 83.8149 38.016C84.3189 38.5107 84.5709 39.1967 84.5709 40.074C84.5709 40.7273 84.4635 41.2687 84.2489 41.698C84.4449 41.7633 84.6969 41.796 85.0049 41.796H85.2849V42.72L85.0049 43ZM81.4209 41.796C82.1209 41.796 82.6575 41.6793 83.0309 41.446C83.4042 41.2127 83.5909 40.802 83.5909 40.214C83.5909 39.6353 83.4415 39.2013 83.1429 38.912C82.8535 38.6133 82.4429 38.464 81.9109 38.464H81.4909C81.1175 38.464 80.7769 38.5013 80.4689 38.576C80.1702 38.6413 79.8809 38.7627 79.6009 38.94C79.3302 39.108 79.0595 39.346 78.7889 39.654C78.5275 39.9527 78.2475 40.3307 77.9489 40.788L77.3469 41.726L77.3889 41.796H81.4209ZM84.8512 42.076L85.1312 41.796H85.6212C85.7985 41.796 85.9525 41.782 86.0832 41.754C86.2232 41.7167 86.3492 41.656 86.4612 41.572C86.5732 41.488 86.6759 41.376 86.7692 41.236C86.8719 41.096 86.9792 40.914 87.0912 40.69L87.6932 39.514L88.4912 39.92L87.7492 41.32L87.9452 41.446C88.2439 41.642 88.5332 41.7773 88.8132 41.852C89.1025 41.9267 89.3825 41.964 89.6532 41.964C90.0919 41.964 90.4139 41.8613 90.6192 41.656C90.8339 41.4507 90.9412 41.1007 90.9412 40.606V39.514H91.9212V40.606C91.9212 41.11 91.9912 41.4647 92.1312 41.67C92.2712 41.866 92.5045 41.964 92.8312 41.964H93.1532C93.4799 41.964 93.7085 41.866 93.8392 41.67C93.9792 41.4647 94.0492 41.11 94.0492 40.606V38.954H95.0292V40.606C95.0292 41.3993 95.4259 41.796 96.2192 41.796H96.7092V42.72L96.4292 43C95.8132 43 95.3279 42.902 94.9732 42.706C94.6185 42.5007 94.3712 42.188 94.2312 41.768H94.1612C94.1052 42.2907 93.9652 42.6547 93.7412 42.86C93.5172 43.0653 93.1905 43.168 92.7612 43.168C91.7999 43.168 91.2352 42.7013 91.0672 41.768H90.9972C90.9039 42.216 90.7219 42.5613 90.4512 42.804C90.1899 43.0467 89.8399 43.168 89.4012 43.168C88.8505 43.168 88.2345 42.9487 87.5532 42.51L87.1192 42.23C86.8485 42.5287 86.5405 42.734 86.1952 42.846C85.8499 42.9487 85.4019 43 84.8512 43V42.076ZM92.2572 37.834C92.0705 37.834 91.9212 37.7827 91.8092 37.68C91.6972 37.568 91.6412 37.3907 91.6412 37.148C91.6412 36.9053 91.6972 36.7327 91.8092 36.63C91.9212 36.518 92.0705 36.462 92.2572 36.462H92.4112C92.5979 36.462 92.7472 36.518 92.8592 36.63C92.9712 36.7327 93.0272 36.9053 93.0272 37.148C93.0272 37.3907 92.9712 37.568 92.8592 37.68C92.7472 37.7827 92.5979 37.834 92.4112 37.834H92.2572ZM90.4512 37.834C90.2645 37.834 90.1152 37.7827 90.0032 37.68C89.8912 37.568 89.8352 37.3907 89.8352 37.148C89.8352 36.9053 89.8912 36.7327 90.0032 36.63C90.1152 36.518 90.2645 36.462 90.4512 36.462H90.6052C90.7919 36.462 90.9412 36.518 91.0532 36.63C91.1652 36.7327 91.2212 36.9053 91.2212 37.148C91.2212 37.3907 91.1652 37.568 91.0532 37.68C90.9412 37.7827 90.7919 37.834 90.6052 37.834H90.4512ZM91.3472 36.14C91.1699 36.14 91.0252 36.0887 90.9132 35.986C90.8105 35.874 90.7592 35.706 90.7592 35.482C90.7592 35.258 90.8105 35.0947 90.9132 34.992C91.0252 34.88 91.1699 34.824 91.3472 34.824H91.5152C91.6925 34.824 91.8325 34.88 91.9352 34.992C92.0472 35.0947 92.1032 35.258 92.1032 35.482C92.1032 35.706 92.0472 35.874 91.9352 35.986C91.8325 36.0887 91.6925 36.14 91.5152 36.14H91.3472ZM96.2713 42.076L96.5513 41.796H97.0413C97.8346 41.796 98.2313 41.3993 98.2313 40.606V38.394H99.2113V40.606C99.2113 41.3993 99.608 41.796 100.401 41.796H100.891V42.72L100.611 43C99.3233 43 98.5673 42.5427 98.3433 41.628H98.2733C98.1706 42.1413 97.97 42.5007 97.6713 42.706C97.3726 42.902 96.906 43 96.2713 43V42.076ZM98.6373 36.714C98.4506 36.714 98.3013 36.6627 98.1893 36.56C98.0773 36.448 98.0213 36.2707 98.0213 36.028C98.0213 35.7853 98.0773 35.6127 98.1893 35.51C98.3013 35.398 98.4506 35.342 98.6373 35.342H98.7913C98.978 35.342 99.1273 35.398 99.2393 35.51C99.3513 35.6127 99.4073 35.7853 99.4073 36.028C99.4073 36.2707 99.3513 36.448 99.2393 36.56C99.1273 36.6627 98.978 36.714 98.7913 36.714H98.6373ZM100.445 42.076L100.725 41.796H101.131C101.579 41.796 101.901 41.6933 102.097 41.488C102.303 41.2827 102.405 40.956 102.405 40.508V32.64H103.441V40.508C103.441 41.3667 103.255 41.9967 102.881 42.398C102.517 42.7993 101.934 43 101.131 43H100.445V42.076ZM105.375 32.64H106.411V43H105.375V32.64ZM112.026 43C111.69 43 111.41 42.902 111.186 42.706C110.972 42.5007 110.864 42.202 110.864 41.81V40.732H111.844V41.796H114.154C114.416 41.796 114.63 41.768 114.798 41.712C114.966 41.6467 115.097 41.5627 115.19 41.46C115.293 41.3573 115.363 41.2407 115.4 41.11C115.438 40.9793 115.456 40.844 115.456 40.704C115.456 40.3867 115.354 40.0647 115.148 39.738C114.952 39.402 114.607 38.9867 114.112 38.492L112.642 36.882L113.552 36.014L114.952 37.624C115.232 37.9507 115.466 38.2493 115.652 38.52C115.839 38.7813 115.993 39.038 116.114 39.29C116.236 39.542 116.32 39.7893 116.366 40.032C116.422 40.2747 116.45 40.5313 116.45 40.802C116.45 41.4833 116.24 42.02 115.82 42.412C115.4 42.804 114.798 43 114.014 43H112.026ZM117.883 32.64H118.919V43H117.883V32.64ZM120.28 45.156H121.022C122.04 45.156 122.824 44.9647 123.374 44.582C123.934 44.2087 124.28 43.6813 124.41 43H122.772C122.026 43 121.447 42.804 121.036 42.412C120.626 42.02 120.42 41.4693 120.42 40.76C120.42 40.34 120.481 39.9433 120.602 39.57C120.733 39.1967 120.91 38.8747 121.134 38.604C121.358 38.324 121.624 38.1047 121.932 37.946C122.25 37.778 122.595 37.694 122.968 37.694C123.743 37.694 124.35 38.0393 124.788 38.73C125.236 39.4207 125.46 40.3913 125.46 41.642V41.796H126.104V42.72L125.824 43H125.334C125.129 44.0733 124.667 44.8993 123.948 45.478C123.239 46.066 122.264 46.36 121.022 46.36H120.28V45.156ZM121.4 40.62C121.4 41.0307 121.508 41.3293 121.722 41.516C121.946 41.7027 122.296 41.796 122.772 41.796H124.48V41.362C124.48 40.606 124.336 40.0087 124.046 39.57C123.766 39.122 123.379 38.898 122.884 38.898C122.408 38.898 122.04 39.0567 121.778 39.374C121.526 39.6913 121.4 40.1067 121.4 40.62ZM125.667 42.076L125.947 41.796C126.255 41.796 126.488 41.782 126.647 41.754C126.815 41.726 126.95 41.67 127.053 41.586C127.025 41.4833 127.006 41.3807 126.997 41.278C126.988 41.1753 126.983 41.0633 126.983 40.942C126.983 40.438 127.146 39.9807 127.473 39.57C127.809 39.15 128.313 38.7207 128.985 38.282L129.671 37.834H130.763L131.757 40.536C131.85 40.788 131.934 40.998 132.009 41.166C132.093 41.3247 132.182 41.4507 132.275 41.544C132.378 41.6373 132.485 41.7027 132.597 41.74C132.718 41.7773 132.858 41.796 133.017 41.796H133.283V42.72L133.003 43C132.564 43 132.214 42.9393 131.953 42.818C131.692 42.6873 131.458 42.4353 131.253 42.062L131.169 42.09V43H129.503C128.299 43 127.524 42.65 127.179 41.95H127.123C127.002 42.3047 126.834 42.5707 126.619 42.748C126.404 42.916 126.087 43 125.667 43V42.076ZM127.907 40.816C127.907 41.152 128.042 41.3993 128.313 41.558C128.584 41.7167 129.008 41.796 129.587 41.796H131.113C131.01 41.5813 130.898 41.306 130.777 40.97L129.993 38.856L129.461 39.178C129.041 39.43 128.677 39.6913 128.369 39.962C128.061 40.2327 127.907 40.5173 127.907 40.816ZM132.849 42.076L133.129 41.796H133.535C133.983 41.796 134.305 41.6933 134.501 41.488C134.706 41.2827 134.809 40.956 134.809 40.508V32.64H135.845V40.508C135.845 41.3667 135.658 41.9967 135.285 42.398C134.921 42.7993 134.337 43 133.535 43H132.849V42.076ZM137.778 32.64H138.814V43H137.778V32.64Z" fill="#0D1530"/>
<rect x="30" y="78" width="72" height="22" rx="9" fill="#156AE1" fill-opacity="0.12"/>
<path d="M34.28 94.524H34.736C35.144 94.524 35.484 94.472 35.756 94.368C36.028 94.264 36.248 94.116 36.416 93.924C36.584 93.74 36.704 93.516 36.776 93.252C36.848 92.988 36.884 92.692 36.884 92.364C36.884 92.148 36.872 91.924 36.848 91.692C36.824 91.46 36.792 91.228 36.752 90.996L36.5 89.544L37.532 89.352L37.7 90.36C37.74 90.592 37.772 90.816 37.796 91.032C37.828 91.248 37.852 91.452 37.868 91.644H38.984V92.712L38.696 93H37.868C37.82 93.416 37.724 93.8 37.58 94.152C37.436 94.504 37.236 94.808 36.98 95.064C36.732 95.32 36.424 95.52 36.056 95.664C35.688 95.808 35.252 95.88 34.748 95.88H34.28V94.524ZM40.9164 96.24C40.7004 95.912 40.5204 95.632 40.3764 95.4C40.2404 95.176 40.1284 94.98 40.0404 94.812C39.9604 94.644 39.9044 94.492 39.8724 94.356C39.8404 94.228 39.8244 94.092 39.8244 93.948C39.8244 93.692 39.8684 93.448 39.9564 93.216C40.0524 92.984 40.1644 92.776 40.2924 92.592L40.2324 92.556C40.0724 92.708 39.8724 92.82 39.6324 92.892C39.4004 92.964 39.0484 93 38.5764 93V91.932L38.8644 91.644H39.2124C39.5404 91.644 39.7964 91.584 39.9804 91.464C40.1724 91.344 40.3444 91.132 40.4964 90.828L40.9884 89.832L41.8764 90.288L41.4204 91.212C41.3164 91.42 41.2284 91.608 41.1564 91.776C41.0844 91.944 41.0244 92.1 40.9764 92.244C40.9284 92.38 40.8924 92.512 40.8684 92.64C40.8524 92.768 40.8444 92.896 40.8444 93.024C40.8444 93.16 40.8604 93.292 40.8924 93.42C40.9244 93.548 40.9724 93.688 41.0364 93.84C41.1004 94 41.1844 94.172 41.2884 94.356C41.4004 94.54 41.5324 94.752 41.6844 94.992L42.6684 92.568C42.8044 92.216 42.9484 91.976 43.1004 91.848C43.2524 91.712 43.4684 91.644 43.7484 91.644H44.7084V92.712L44.4204 93H43.5084L42.2364 96.24H40.9164ZM44.304 91.932L44.592 91.644H44.832C45 91.644 45.148 91.632 45.276 91.608C45.404 91.584 45.516 91.54 45.612 91.476C45.708 91.412 45.796 91.328 45.876 91.224C45.956 91.12 46.036 90.988 46.116 90.828L46.608 89.832L47.508 90.288L46.968 91.356L47.052 91.404C47.292 91.54 47.52 91.64 47.736 91.704C47.96 91.768 48.188 91.8 48.42 91.8C48.78 91.8 49.044 91.72 49.212 91.56C49.38 91.392 49.464 91.104 49.464 90.696V89.832H50.508V90.696C50.508 91.088 50.56 91.368 50.664 91.536C50.776 91.696 50.968 91.776 51.24 91.776H51.456C51.712 91.776 51.896 91.696 52.008 91.536C52.128 91.368 52.188 91.088 52.188 90.696V89.352H53.232V90.696C53.232 91.328 53.544 91.644 54.168 91.644H54.624V92.712L54.324 93C53.764 93 53.328 92.9 53.016 92.7C52.712 92.492 52.504 92.172 52.392 91.74H52.332C52.284 92.244 52.152 92.604 51.936 92.82C51.728 93.036 51.432 93.144 51.048 93.144C50.232 93.144 49.748 92.676 49.596 91.74H49.524C49.388 92.676 48.944 93.144 48.192 93.144C47.96 93.144 47.72 93.1 47.472 93.012C47.232 92.924 46.944 92.78 46.608 92.58L46.284 92.388C46.044 92.636 45.772 92.8 45.468 92.88C45.164 92.96 44.776 93 44.304 93V91.932ZM50.76 88.608C50.576 88.608 50.428 88.552 50.316 88.44C50.204 88.328 50.148 88.156 50.148 87.924C50.148 87.684 50.204 87.512 50.316 87.408C50.428 87.296 50.576 87.24 50.76 87.24H50.928C51.112 87.24 51.26 87.296 51.372 87.408C51.484 87.512 51.54 87.684 51.54 87.924C51.54 88.156 51.484 88.328 51.372 88.44C51.26 88.552 51.112 88.608 50.928 88.608H50.76ZM49.056 88.608C48.872 88.608 48.724 88.552 48.612 88.44C48.508 88.328 48.456 88.156 48.456 87.924C48.456 87.684 48.508 87.512 48.612 87.408C48.724 87.296 48.872 87.24 49.056 87.24H49.236C49.42 87.24 49.568 87.296 49.68 87.408C49.792 87.512 49.848 87.684 49.848 87.924C49.848 88.156 49.792 88.328 49.68 88.44C49.568 88.552 49.42 88.608 49.236 88.608H49.056ZM49.908 87.024C49.732 87.024 49.588 86.972 49.476 86.868C49.364 86.756 49.308 86.584 49.308 86.352C49.308 86.12 49.364 85.952 49.476 85.848C49.588 85.744 49.732 85.692 49.908 85.692H50.088C50.264 85.692 50.404 85.744 50.508 85.848C50.62 85.952 50.676 86.12 50.676 86.352C50.676 86.584 50.62 86.756 50.508 86.868C50.404 86.972 50.264 87.024 50.088 87.024H49.908ZM54.2153 91.932L54.5033 91.644H54.9233C55.2753 91.644 55.5193 91.568 55.6553 91.416C55.7993 91.264 55.8713 91.024 55.8713 90.696V84.12H56.9993V90.696C56.9993 91.488 56.8393 92.072 56.5193 92.448C56.1993 92.816 55.6673 93 54.9233 93H54.2153V91.932ZM58.5394 84.12H59.6554V93H58.5394V84.12ZM63.9127 84.12H65.0287V93H63.9127V84.12ZM67.41 93C67.002 93 66.682 92.892 66.45 92.676C66.218 92.46 66.102 92.124 66.102 91.668V90.792H67.17V91.644H68.802C69.226 91.644 69.518 91.608 69.678 91.536C69.838 91.464 69.918 91.328 69.918 91.128C69.918 91.04 69.898 90.932 69.858 90.804C69.818 90.668 69.762 90.496 69.69 90.288L68.574 87.18L69.714 86.772L70.938 90.168C71.042 90.464 71.138 90.708 71.226 90.9C71.322 91.084 71.418 91.232 71.514 91.344C71.61 91.456 71.71 91.536 71.814 91.584C71.926 91.624 72.054 91.644 72.198 91.644H72.522V92.712L72.222 93C71.958 93 71.726 92.98 71.526 92.94C71.326 92.892 71.146 92.82 70.986 92.724C70.834 92.62 70.694 92.484 70.566 92.316C70.446 92.148 70.326 91.936 70.206 91.68L70.146 91.692C70.074 92.164 69.914 92.5 69.666 92.7C69.418 92.9 69.038 93 68.526 93H67.41ZM68.91 85.74C68.726 85.74 68.578 85.684 68.466 85.572C68.362 85.46 68.31 85.288 68.31 85.056C68.31 84.816 68.362 84.644 68.466 84.54C68.578 84.428 68.726 84.372 68.91 84.372H69.09C69.274 84.372 69.422 84.428 69.534 84.54C69.646 84.644 69.702 84.816 69.702 85.056C69.702 85.288 69.646 85.46 69.534 85.572C69.422 85.684 69.274 85.74 69.09 85.74H68.91ZM72.1192 91.932L72.4072 91.644H73.9552L73.9792 91.584C73.3152 91.016 72.9832 90.36 72.9832 89.616C72.9832 89.304 73.0312 89.008 73.1272 88.728C73.2312 88.448 73.3712 88.2 73.5472 87.984C73.7312 87.768 73.9432 87.592 74.1832 87.456C74.4232 87.312 74.6832 87.228 74.9632 87.204L75.3472 86.472L77.2072 87.492C77.6472 87.732 78.0232 87.988 78.3352 88.26C78.6472 88.524 78.9032 88.816 79.1032 89.136C79.3032 89.456 79.4512 89.808 79.5472 90.192C79.6432 90.568 79.6912 90.992 79.6912 91.464V91.704L78.8152 93H77.4832C77.0592 93 76.6512 92.956 76.2592 92.868C75.8752 92.772 75.5072 92.62 75.1552 92.412C74.8112 92.62 74.4432 92.772 74.0512 92.868C73.6592 92.956 73.2552 93 72.8392 93H72.1192V91.932ZM75.1552 91.368C75.5392 91.144 75.8352 90.884 76.0432 90.588C76.2592 90.292 76.3672 89.976 76.3672 89.64C76.3672 89.232 76.2632 88.912 76.0552 88.68C75.8552 88.44 75.5792 88.32 75.2272 88.32H75.0952C74.7432 88.32 74.4632 88.44 74.2552 88.68C74.0472 88.912 73.9432 89.232 73.9432 89.64C73.9432 89.976 74.0472 90.292 74.2552 90.588C74.4712 90.884 74.7712 91.144 75.1552 91.368ZM77.2312 88.932C77.2952 89.164 77.3272 89.392 77.3272 89.616C77.3272 90.36 76.9952 91.016 76.3312 91.584L76.3552 91.644H78.6952V91.536C78.6952 90.912 78.5792 90.396 78.3472 89.988C78.1232 89.58 77.7592 89.22 77.2552 88.908L77.2312 88.932ZM89.2061 93H83.5181V91.704L86.1941 89.316C86.6181 88.932 86.9421 88.568 87.1661 88.224C87.3981 87.872 87.5141 87.504 87.5141 87.12V86.964C87.5141 86.556 87.3901 86.236 87.1421 86.004C86.9021 85.772 86.5741 85.656 86.1581 85.656C85.9261 85.656 85.7221 85.692 85.5461 85.764C85.3781 85.828 85.2301 85.92 85.1021 86.04C84.9741 86.16 84.8661 86.3 84.7781 86.46C84.6981 86.62 84.6341 86.792 84.5861 86.976L83.3981 86.52C83.4861 86.256 83.6061 86.004 83.7581 85.764C83.9101 85.516 84.1021 85.296 84.3341 85.104C84.5661 84.912 84.8381 84.76 85.1501 84.648C85.4701 84.536 85.8421 84.48 86.2661 84.48C86.6901 84.48 87.0701 84.544 87.4061 84.672C87.7421 84.792 88.0221 84.964 88.2461 85.188C88.4781 85.404 88.6541 85.664 88.7741 85.968C88.8941 86.272 88.9541 86.604 88.9541 86.964C88.9541 87.3 88.9021 87.612 88.7981 87.9C88.6941 88.188 88.5501 88.46 88.3661 88.716C88.1821 88.972 87.9661 89.216 87.7181 89.448C87.4781 89.68 87.2221 89.916 86.9501 90.156L84.9821 91.848H89.2061V93ZM92.8014 92.244V89.868H90.5934V88.8H92.8014V86.424H93.9774V88.8H96.1854V89.868H93.9774V92.244H92.8014Z" fill="#156AE1"/>
<path d="M163.603 75V73.684H166.347V66.376H166.235L163.967 68.798L163.001 67.93L165.493 65.228H167.901V73.684H170.281V75H163.603ZM178.179 75H171.543V73.488L174.665 70.702C175.16 70.254 175.538 69.8293 175.799 69.428C176.07 69.0173 176.205 68.588 176.205 68.14V67.958C176.205 67.482 176.061 67.1087 175.771 66.838C175.491 66.5673 175.109 66.432 174.623 66.432C174.353 66.432 174.115 66.474 173.909 66.558C173.713 66.6327 173.541 66.74 173.391 66.88C173.242 67.02 173.116 67.1833 173.013 67.37C172.92 67.5567 172.845 67.7573 172.789 67.972L171.403 67.44C171.506 67.132 171.646 66.838 171.823 66.558C172.001 66.2687 172.225 66.012 172.495 65.788C172.766 65.564 173.083 65.3867 173.447 65.256C173.821 65.1253 174.255 65.06 174.749 65.06C175.244 65.06 175.687 65.1347 176.079 65.284C176.471 65.424 176.798 65.6247 177.059 65.886C177.33 66.138 177.535 66.4413 177.675 66.796C177.815 67.1507 177.885 67.538 177.885 67.958C177.885 68.35 177.825 68.714 177.703 69.05C177.582 69.386 177.414 69.7033 177.199 70.002C176.985 70.3007 176.733 70.5853 176.443 70.856C176.163 71.1267 175.865 71.402 175.547 71.682L173.251 73.656H178.179V75Z" fill="#0D122E"/>
<path d="M131.677 96C130.949 96 130.425 95.852 130.105 95.556C129.793 95.252 129.637 94.784 129.637 94.152V94.008H129.577C129.457 94.456 129.269 94.78 129.013 94.98C128.757 95.172 128.421 95.268 128.005 95.268C127.453 95.268 127.029 95.12 126.733 94.824C126.437 94.528 126.289 94.112 126.289 93.576C126.289 93.304 126.329 93.056 126.409 92.832C126.489 92.6 126.613 92.384 126.781 92.184C126.949 91.984 127.157 91.796 127.405 91.62C127.661 91.436 127.961 91.252 128.305 91.068L129.577 90.396V89.76H130.669V93.888C130.669 94.176 130.741 94.376 130.885 94.488C131.029 94.592 131.257 94.644 131.569 94.644H131.965V95.712L131.677 96ZM128.269 93.912C128.749 93.912 129.085 93.852 129.277 93.732C129.477 93.612 129.577 93.4 129.577 93.096V91.476L128.497 92.028C128.065 92.252 127.753 92.452 127.561 92.628C127.369 92.796 127.273 93.004 127.273 93.252C127.273 93.484 127.345 93.652 127.489 93.756C127.641 93.86 127.901 93.912 128.269 93.912ZM130.057 88.788C129.873 88.788 129.725 88.732 129.613 88.62C129.509 88.508 129.457 88.336 129.457 88.104C129.457 87.864 129.509 87.692 129.613 87.588C129.725 87.476 129.873 87.42 130.057 87.42H130.237C130.421 87.42 130.569 87.476 130.681 87.588C130.793 87.692 130.849 87.864 130.849 88.104C130.849 88.336 130.793 88.508 130.681 88.62C130.569 88.732 130.421 88.788 130.237 88.788H130.057ZM128.365 88.788C128.181 88.788 128.033 88.732 127.921 88.62C127.817 88.508 127.765 88.336 127.765 88.104C127.765 87.864 127.817 87.692 127.921 87.588C128.033 87.476 128.181 87.42 128.365 87.42H128.545C128.729 87.42 128.877 87.476 128.989 87.588C129.101 87.692 129.157 87.864 129.157 88.104C129.157 88.336 129.101 88.508 128.989 88.62C128.877 88.732 128.729 88.788 128.545 88.788H128.365ZM131.558 94.932L131.846 94.644H132.242C132.906 94.644 133.238 94.328 133.238 93.696V91.872H134.282V93.696C134.282 94.328 134.594 94.644 135.218 94.644H135.674V95.712L135.374 96C134.782 96 134.322 95.892 133.994 95.676C133.674 95.452 133.462 95.104 133.358 94.632H133.286C133.19 95.128 133.01 95.48 132.746 95.688C132.49 95.896 132.094 96 131.558 96V94.932ZM134.51 98.484C134.326 98.484 134.178 98.428 134.066 98.316C133.962 98.204 133.91 98.032 133.91 97.8C133.91 97.56 133.962 97.384 134.066 97.272C134.178 97.168 134.326 97.116 134.51 97.116H134.69C134.874 97.116 135.022 97.168 135.134 97.272C135.246 97.384 135.302 97.56 135.302 97.8C135.302 98.032 135.246 98.204 135.134 98.316C135.022 98.428 134.874 98.484 134.69 98.484H134.51ZM132.818 98.484C132.634 98.484 132.486 98.428 132.374 98.316C132.27 98.204 132.218 98.032 132.218 97.8C132.218 97.56 132.27 97.384 132.374 97.272C132.486 97.168 132.634 97.116 132.818 97.116H132.998C133.182 97.116 133.33 97.168 133.442 97.272C133.554 97.384 133.61 97.56 133.61 97.8C133.61 98.032 133.554 98.204 133.442 98.316C133.33 98.428 133.182 98.484 132.998 98.484H132.818ZM135.27 94.932L135.558 94.644H135.798C135.966 94.644 136.114 94.632 136.242 94.608C136.37 94.584 136.482 94.54 136.578 94.476C136.674 94.412 136.762 94.328 136.842 94.224C136.922 94.12 137.002 93.988 137.082 93.828L137.574 92.832L138.474 93.288L137.922 94.356L138.006 94.404C138.246 94.54 138.478 94.64 138.702 94.704C138.926 94.768 139.154 94.8 139.386 94.8C139.746 94.8 140.01 94.72 140.178 94.56C140.346 94.392 140.43 94.104 140.43 93.696V92.832H141.474V93.696C141.474 94.088 141.534 94.368 141.654 94.536C141.774 94.696 141.962 94.776 142.218 94.776H142.398C142.854 94.776 143.082 94.516 143.082 93.996C143.082 93.74 143.046 93.372 142.974 92.892L142.866 92.256L143.898 92.1L143.994 92.724C144.026 92.964 144.05 93.192 144.066 93.408C144.082 93.624 144.09 93.82 144.09 93.996C144.09 94.7 143.938 95.236 143.634 95.604C143.338 95.964 142.894 96.144 142.302 96.144C141.79 96.144 141.394 96.028 141.114 95.796C140.834 95.564 140.65 95.212 140.562 94.74H140.49C140.354 95.676 139.91 96.144 139.158 96.144C138.926 96.144 138.686 96.1 138.438 96.012C138.198 95.924 137.91 95.78 137.574 95.58L137.25 95.388C137.018 95.636 136.746 95.8 136.434 95.88C136.13 95.96 135.742 96 135.27 96V94.932ZM145.266 87.12H146.382V96H145.266V87.12ZM146.375 97.524H146.831C147.239 97.524 147.579 97.472 147.851 97.368C148.123 97.264 148.343 97.116 148.511 96.924C148.679 96.74 148.799 96.516 148.871 96.252C148.943 95.988 148.979 95.692 148.979 95.364C148.979 95.148 148.967 94.924 148.943 94.692C148.919 94.46 148.887 94.228 148.847 93.996L148.595 92.544L149.627 92.352L149.795 93.36C149.931 94.136 149.999 94.8 149.999 95.352C149.999 95.848 149.939 96.308 149.819 96.732C149.707 97.164 149.523 97.54 149.267 97.86C149.011 98.18 148.683 98.428 148.283 98.604C147.883 98.788 147.403 98.88 146.843 98.88H146.375V97.524ZM152.006 96C151.598 96 151.278 95.892 151.046 95.676C150.814 95.46 150.698 95.124 150.698 94.668V93.792H151.766V94.644H153.686C154.062 94.644 154.318 94.568 154.454 94.416C154.598 94.264 154.67 94.072 154.67 93.84C154.67 93.6 154.578 93.344 154.394 93.072C154.21 92.8 153.894 92.448 153.446 92.016L152.222 90.756L153.194 89.772L154.298 90.972C154.562 91.252 154.782 91.516 154.958 91.764C155.142 92.004 155.29 92.24 155.402 92.472C155.514 92.696 155.594 92.924 155.642 93.156C155.698 93.38 155.726 93.624 155.726 93.888C155.726 94.552 155.538 95.072 155.162 95.448C154.786 95.816 154.254 96 153.566 96H152.006ZM161.494 96.12C160.758 96.12 160.186 95.92 159.778 95.52C159.378 95.112 159.178 94.58 159.178 93.924C159.178 93.036 159.626 92.132 160.522 91.212L160.858 90.852H162.226L162.526 91.14C162.99 91.596 163.318 92.032 163.51 92.448C163.71 92.856 163.81 93.288 163.81 93.744C163.81 94.104 163.758 94.432 163.654 94.728C163.55 95.016 163.398 95.264 163.198 95.472C162.998 95.68 162.754 95.84 162.466 95.952C162.186 96.064 161.862 96.12 161.494 96.12ZM161.614 94.764C161.974 94.764 162.262 94.676 162.478 94.5C162.702 94.316 162.814 94.084 162.814 93.804C162.814 93.612 162.746 93.412 162.61 93.204C162.482 92.988 162.25 92.728 161.914 92.424L161.422 91.956H161.338L160.918 92.424C160.662 92.704 160.474 92.94 160.354 93.132C160.234 93.324 160.174 93.528 160.174 93.744C160.174 94.024 160.282 94.264 160.498 94.464C160.722 94.664 161.014 94.764 161.374 94.764H161.614ZM162.274 89.628C162.09 89.628 161.942 89.572 161.83 89.46C161.726 89.348 161.674 89.176 161.674 88.944C161.674 88.704 161.726 88.532 161.83 88.428C161.942 88.316 162.09 88.26 162.274 88.26H162.454C162.638 88.26 162.786 88.316 162.898 88.428C163.01 88.532 163.066 88.704 163.066 88.944C163.066 89.176 163.01 89.348 162.898 89.46C162.786 89.572 162.638 89.628 162.454 89.628H162.274ZM160.582 89.628C160.398 89.628 160.25 89.572 160.138 89.46C160.034 89.348 159.982 89.176 159.982 88.944C159.982 88.704 160.034 88.532 160.138 88.428C160.25 88.316 160.398 88.26 160.582 88.26H160.762C160.946 88.26 161.094 88.316 161.206 88.428C161.318 88.532 161.374 88.704 161.374 88.944C161.374 89.176 161.318 89.348 161.206 89.46C161.094 89.572 160.946 89.628 160.762 89.628H160.582ZM165.767 96C165.359 96 165.039 95.892 164.807 95.676C164.575 95.46 164.459 95.124 164.459 94.668V93.792H165.527V94.644H167.447C167.823 94.644 168.079 94.568 168.215 94.416C168.359 94.264 168.431 94.072 168.431 93.84C168.431 93.6 168.339 93.344 168.155 93.072C167.971 92.8 167.655 92.448 167.207 92.016L165.983 90.756L166.955 89.772L168.059 90.972C168.323 91.252 168.543 91.516 168.719 91.764C168.903 92.004 169.051 92.24 169.163 92.472C169.275 92.696 169.355 92.924 169.403 93.156C169.459 93.38 169.487 93.624 169.487 93.888C169.487 94.552 169.299 95.072 168.923 95.448C168.547 95.816 168.015 96 167.327 96H165.767ZM172.851 96C172.067 96 171.503 95.84 171.159 95.52C170.815 95.192 170.643 94.648 170.643 93.888V87.12H171.759V93.78C171.759 94.116 171.835 94.344 171.987 94.464C172.147 94.584 172.407 94.644 172.767 94.644H173.163V95.712L172.863 96H172.851ZM174.403 95.316C174.219 95.564 173.999 95.74 173.743 95.844C173.487 95.948 173.159 96 172.759 96V94.932L173.047 94.644C173.351 94.644 173.571 94.58 173.707 94.452C173.851 94.316 173.983 94.088 174.103 93.768L174.439 92.904C174.631 92.408 174.883 92.012 175.195 91.716C175.515 91.412 175.943 91.26 176.479 91.26C177.135 91.26 177.639 91.54 177.991 92.1C178.343 92.652 178.519 93.428 178.519 94.428V94.896L177.619 96.216L174.403 95.316ZM174.967 94.056L177.487 94.764V94.428C177.487 93.86 177.379 93.416 177.163 93.096C176.947 92.776 176.647 92.616 176.263 92.616C175.983 92.616 175.755 92.7 175.579 92.868C175.411 93.028 175.271 93.252 175.159 93.54L174.967 94.056Z" fill="#6B7280"/>
</g>
<defs>
<filter id="filter0_d_2052_25773" x="0" y="0" width="209" height="144" filterUnits="userSpaceOnUse" color-interpolation-filters="sRGB">
<feFlood flood-opacity="0" result="BackgroundImageFix"/>
<feColorMatrix in="SourceAlpha" type="matrix" values="0 0 0 0 0 0 0 0 0 0 0 0 0 0 0 0 0 0 127 0" result="hardAlpha"/>
<feOffset dy="8"/>
<feGaussianBlur stdDeviation="12"/>
<feColorMatrix type="matrix" values="0 0 0 0 0.05 0 0 0 0 0.12 0 0 0 0 0.3 0 0 0 0.1 0"/>
<feBlend mode="normal" in2="BackgroundImageFix" result="effect1_dropShadow_2052_25773"/>
<feBlend mode="normal" in="SourceGraphic" in2="effect1_dropShadow_2052_25773" result="shape"/>
</filter>
</defs>
</svg>
