<svg width="69" height="49" viewBox="0 0 69 49" fill="none" xmlns="http://www.w3.org/2000/svg">
<rect width="69" height="48.7998" fill="#006923"/>
<path fill-rule="evenodd" clip-rule="evenodd" d="M30.5415 17.8364C30.5132 17.8364 30.4706 17.85 30.4162 17.8817C30.2886 17.9631 30.038 18.2142 30.0286 18.5037C30.0215 18.6688 29.9884 18.6688 30.0995 18.7751C30.1799 18.8837 30.265 18.8746 30.4257 18.7909C30.5203 18.7231 30.551 18.6846 30.5841 18.5738C30.6219 18.3928 30.3784 18.6643 30.3477 18.4562C30.2933 18.2662 30.4493 18.1848 30.5959 18.0038C30.6006 17.9133 30.6006 17.8455 30.5415 17.8409V17.8364ZM32.9124 17.8477C32.8652 17.8568 32.8108 17.9156 32.7328 18.0468C32.6784 18.187 32.4397 18.3996 32.6146 18.8384C32.7517 19.1166 32.8108 19.5668 32.747 20.0712C32.6477 20.2137 32.6288 20.2634 32.4988 20.4059C32.3191 20.5937 32.1206 20.5462 31.974 20.4738C31.8322 20.3833 31.7234 20.3381 31.6596 20.0531C31.6714 19.6007 31.6998 18.8497 31.6123 18.6914C31.4847 18.4471 31.2719 18.5331 31.1821 18.6077C30.7495 18.9922 30.5344 19.6324 30.4021 20.1458C30.2839 20.5167 30.1539 20.4082 30.064 20.2589C29.8442 20.0598 29.8277 18.5173 29.5629 18.7728C29.1374 19.9354 29.8064 21.2089 30.2721 21.0845C30.603 21.2202 30.8157 20.6095 30.9528 19.9422C31.0474 19.7545 31.1183 19.7319 31.1656 19.8291C31.1538 20.7158 31.2365 20.9148 31.4729 21.1817C32.0024 21.5753 32.442 21.2315 32.4775 21.1998L32.8912 20.8063C32.9857 20.7158 33.1039 20.7067 33.2339 20.7882C33.3616 20.9013 33.345 21.089 33.6121 21.2179C33.8438 21.3084 34.3284 21.2405 34.4395 21.0528C34.5931 20.804 34.6286 20.7181 34.6995 20.6231C34.8082 20.4873 34.995 20.5484 34.995 20.5914C34.9784 20.6706 34.8697 20.7497 34.9429 20.8854C35.073 20.9759 35.1037 20.9171 35.1793 20.8967C35.4488 20.7746 35.6521 20.2137 35.6521 20.2137C35.6639 20.0056 35.541 20.0214 35.463 20.0644C35.3566 20.1254 35.3519 20.1458 35.2502 20.2069C35.1155 20.225 34.8602 20.3087 34.7349 20.1209C34.6049 19.8947 34.6049 19.5826 34.5056 19.3519C34.5056 19.3383 34.3331 18.9968 34.4915 18.9764C34.5695 18.99 34.7444 19.033 34.7704 18.895C34.8555 18.7593 34.5884 18.3748 34.4064 18.1848C34.2504 18.0196 34.0329 17.9993 33.8225 18.1667C33.6736 18.2978 33.6972 18.4426 33.6665 18.5806C33.631 18.7389 33.6381 18.9357 33.8083 19.1461C33.9549 19.422 34.222 19.7794 34.1322 20.2815C34.1322 20.2815 33.9785 20.5213 33.7067 20.4896C33.5885 20.467 33.4041 20.4217 33.3048 19.7206C33.2339 19.1936 33.3237 18.4539 33.0921 18.1079C33.0377 17.9789 32.9928 17.8523 32.9172 17.859L32.9124 17.8477ZM32.1607 17.9065C32.0898 17.9133 32.0118 17.9925 31.948 18.144C31.8936 18.2617 31.8251 18.8678 31.8369 18.8678C31.7896 19.0488 32.0331 19.1257 32.1442 18.895C32.3097 18.4652 32.3097 18.2843 32.3191 18.1079C32.2955 17.9721 32.2317 17.902 32.1607 17.9065ZM34.9335 17.9518C34.8626 17.9608 34.8035 18.0015 34.7822 18.1056C34.7515 18.3453 34.768 18.4788 34.8106 18.6801C34.8413 18.8158 35.047 19.0375 35.1462 19.1687C35.6261 19.7862 36.0918 20.4059 36.5362 21.046C36.6071 21.5255 36.6543 21.9915 36.6898 22.4574C36.7654 23.4753 36.7844 24.7419 36.7205 25.8163C36.9191 25.8231 37.2406 25.5064 37.3517 25.0473C37.4226 24.4049 37.328 23.1021 37.3186 22.7221L37.2949 22.1837C37.815 22.998 38.3161 23.8575 38.8078 24.7985C38.9898 24.717 38.9496 23.7467 38.8456 23.611C38.4485 22.7967 37.9001 21.9915 37.7275 21.6816C37.6637 21.5685 37.4486 21.2586 37.1957 20.899C37.1484 20.3833 37.0964 19.949 37.0633 19.8178C36.9806 19.275 37.2949 19.8789 37.2524 19.5645C37.1484 19.0216 36.8364 18.6552 36.4676 18.1576C36.3494 17.9993 36.3494 17.9631 36.1674 18.1983C36.061 18.4358 36.061 18.6349 36.0965 18.8203C36.0445 18.7525 35.9854 18.6756 35.9003 18.5761L35.2975 18.0875C35.2148 18.0309 35.054 17.945 34.9335 17.9518ZM43.1501 18.0355C43.1146 18.0309 43.0792 18.0468 43.0319 18.1079C42.9492 18.1757 42.8617 18.3046 42.8664 18.4698C42.883 18.7525 42.9374 19.0443 42.9563 19.3293L42.9799 19.4424C42.9468 19.4062 42.9184 19.3745 42.9019 19.3609C42.318 18.7728 43.169 19.2614 42.7884 18.8113C42.4693 18.472 42.3748 18.368 42.1029 18.1644C41.9611 18.083 41.8807 17.9201 41.8358 18.1961C41.8169 18.4381 41.798 18.7208 41.8122 18.9244C41.8122 19.0375 41.9375 19.2524 42.0438 19.3768C42.4315 19.8359 42.8286 20.3222 43.2257 20.8289C43.3108 21.8626 43.3321 22.8103 43.4149 23.8462C43.4054 24.2896 43.2636 24.8776 43.1312 24.9319C43.1312 24.9319 42.9232 25.045 42.7861 24.9206C42.6844 24.8822 42.2849 24.2805 42.2849 24.2805C42.0793 24.0996 41.9422 24.1516 41.798 24.2805C41.3962 24.6515 41.2118 25.3481 40.9399 25.8276C40.869 25.9339 40.6728 26.0267 40.453 25.8186C39.8928 25.0857 40.2166 24.043 40.1504 24.3122C39.654 24.8505 39.8715 25.7417 39.985 25.9339C40.1504 26.2506 40.2828 26.4542 40.5996 26.6057C40.895 26.8093 41.1196 26.6849 41.2472 26.5379C41.5403 26.2483 41.5451 25.5042 41.6822 25.3572C41.7767 25.0857 42.0202 25.131 42.1384 25.2531C42.2566 25.4114 42.389 25.5132 42.5568 25.5992C42.831 25.8299 43.1572 25.8706 43.4787 25.6603C43.6985 25.5426 43.8427 25.3888 43.9703 25.0857C44.1122 24.7329 44.0413 22.8781 44.0105 21.8467L44.6251 22.6972C44.7102 23.6019 44.7504 24.4954 44.7197 25.3504C44.7008 25.52 45.3414 24.8437 45.3343 24.5225C45.3343 24.2443 45.339 23.9887 45.3343 23.7535C45.6487 24.2285 45.9489 24.7103 46.2325 25.2011C46.4098 25.1106 46.3507 24.1538 46.2396 24.0249C45.9418 23.5454 45.5588 23.0297 45.2634 22.6271C45.2043 22.1227 45.1262 21.5278 45.0884 21.3446C45.0341 21.0596 44.9773 20.6321 44.8922 20.2951C44.8686 20.1662 44.7977 19.7454 44.8213 19.707C44.8544 19.6097 44.9868 19.707 45.0506 19.5984C45.1452 19.4966 44.7149 18.4223 44.4951 18.1192C44.4171 17.9834 44.2729 18.0287 44.098 18.2549C43.9325 18.3996 43.994 18.7344 44.0554 19.0533C44.2162 19.8676 44.3627 20.6909 44.4762 21.5188C44.2635 21.2134 44.0034 20.847 43.7481 20.4964L43.7151 20.3381C43.7151 20.32 43.682 19.6708 43.6512 19.517C43.6441 19.4537 43.6276 19.4356 43.6985 19.4446C43.7694 19.5034 43.7789 19.5057 43.8238 19.526C43.8994 19.5351 43.9656 19.4175 43.9183 19.3066L43.2328 18.0988C43.2092 18.0694 43.1761 18.0423 43.1383 18.0377L43.1501 18.0355ZM21.9467 18.0581C21.8167 18.0536 21.6796 18.1259 21.734 18.273C21.7009 18.3521 21.9798 18.619 22.0294 18.7661C22.0696 18.8724 21.9822 19.2071 22.0767 19.2411C22.1595 19.275 22.2753 19.0058 22.3178 18.7593C22.3415 18.6236 22.3249 18.1576 21.994 18.0626C21.9774 18.0581 21.9609 18.0581 21.942 18.0558L21.9467 18.0581ZM46.1049 18.0581C46.0741 18.0626 46.0387 18.1033 45.9867 18.2164C45.8567 18.42 45.8118 18.7819 45.8638 19.0986C46.1711 21.1116 46.4074 23.0614 46.4547 24.8437C46.4263 25.0156 46.4169 25.1061 46.3365 25.3187C46.1521 25.5449 45.9489 25.8254 45.7574 25.9611C45.5683 26.0968 45.1617 26.228 45.0293 26.3275C44.6038 26.5582 44.6038 26.8251 44.9442 26.8364C45.5305 26.7686 46.2254 26.7233 46.7029 26.0335C46.8306 25.8412 46.9818 25.3164 46.9866 24.993C47.0338 23.1156 46.9629 21.2722 46.6675 19.9128C46.6485 19.7771 46.5871 19.4763 46.6107 19.4378C46.6462 19.3428 46.8377 19.4446 46.9062 19.3383C47.0078 19.2388 46.4098 18.5082 46.2018 18.1961C46.1592 18.1192 46.1309 18.0536 46.0978 18.0604L46.1049 18.0581ZM39.9519 18.0898C39.9282 18.0943 39.8951 18.1305 39.8289 18.2142C39.6635 18.7253 39.6067 19.1415 39.6706 19.4627C40.0961 21.5663 40.5215 23.4775 40.4554 25.4793C40.6539 25.4793 40.8856 25.0428 40.9849 24.6085C41.0392 24.0091 40.947 23.6449 40.9328 23.2966C40.9163 22.9437 40.5168 20.0938 40.4364 19.8291C40.3372 19.327 40.8241 19.7613 40.7721 19.4718C40.6019 19.1008 40.1812 18.567 40.0535 18.2436C40.0062 18.1576 39.9968 18.0784 39.959 18.0852L39.9519 18.0898ZM24.9795 18.1305C24.9322 18.1395 24.8778 18.1802 24.8613 18.2436C24.8495 18.2888 24.8802 18.3634 24.8377 18.3861C24.814 18.4087 24.7242 18.3928 24.7289 18.273C24.7289 18.2323 24.6982 18.1915 24.6816 18.1667C24.6627 18.1576 24.6509 18.1554 24.6178 18.1554C24.5776 18.1554 24.5776 18.1667 24.5564 18.2006C24.5469 18.2323 24.5327 18.2639 24.5327 18.3001C24.528 18.3453 24.5091 18.3567 24.4784 18.3634C24.4405 18.3634 24.4476 18.368 24.4193 18.3476C24.3956 18.3318 24.3767 18.325 24.3767 18.2933C24.3767 18.2594 24.3673 18.2028 24.3578 18.1848C24.3413 18.1621 24.3152 18.1531 24.2869 18.1463C24.1309 18.1463 24.1214 18.3227 24.1285 18.3861C24.1167 18.3996 24.112 18.7027 24.3247 18.7887C24.6084 18.9199 25.1473 18.8633 25.1284 18.4223C25.1284 18.3838 25.1166 18.2526 25.1119 18.2187C25.0835 18.1508 25.0291 18.1282 24.9771 18.135L24.9795 18.1305ZM28.823 18.135C28.7238 18.1395 28.6339 18.1667 28.563 18.2028C28.3739 18.377 28.3266 18.6552 28.4779 18.8294C28.6198 18.8972 28.7687 19.033 28.6718 19.1121C28.2605 19.5306 27.1896 20.234 27.1353 20.3629V20.3765H27.1447V20.381C27.1991 20.415 27.8704 20.415 27.9437 20.381H27.9484C28.1801 20.2973 29.2722 19.1031 29.2722 19.1031C29.2154 19.0578 29.1634 19.0216 29.1067 18.9741C29.0452 18.9244 29.0523 18.8746 29.1067 18.8249C29.3762 18.6756 29.2911 18.3431 29.1492 18.1915C29.0311 18.1418 28.9223 18.1237 28.823 18.1305V18.135ZM38.8692 18.135C38.8409 18.1418 38.8054 18.1802 38.751 18.2933C38.621 18.4969 38.5336 18.8475 38.5454 19.1755C38.8243 21.0302 38.9094 22.652 39.0938 24.5067C39.108 24.6876 39.0796 24.9455 38.9567 25.0495C38.4934 25.511 37.8292 26.0764 37.1058 26.3388C37.0278 26.4225 37.2997 26.7776 37.6495 26.7776C38.2357 26.7098 38.751 26.3976 39.2333 25.5675C39.3585 25.3753 39.5831 24.9613 39.5878 24.6401C39.6351 22.7583 39.4933 21.2926 39.1954 19.9354C39.1789 19.7997 39.1907 19.6414 39.2144 19.6052C39.2522 19.56 39.3798 19.6052 39.4507 19.4989C39.55 19.3994 39.1813 18.5874 38.9732 18.2775C38.9307 18.1983 38.9071 18.1327 38.8692 18.135ZM23.3059 18.1961C23.2255 18.2051 23.1499 18.2639 23.1121 18.3544C23.1002 18.6484 23.0979 18.9425 23.1357 19.2184C23.2775 19.7002 23.3177 20.1232 23.3863 20.614C23.4099 21.2745 22.9892 20.899 23.0081 20.5733C23.1026 20.1481 23.079 19.4808 22.9939 19.3112C22.923 19.1415 22.8473 19.1008 22.6819 19.1302C22.5518 19.1212 22.2138 19.4695 22.1193 20.0576C22.1193 20.0576 22.0389 20.3562 22.0058 20.6231C21.9585 20.9239 21.7505 21.1388 21.604 20.5823C21.4787 20.1752 21.403 19.18 21.1927 19.4107C21.1312 20.1888 21.0603 21.5595 21.7505 21.6997C22.5873 21.7766 22.124 20.3471 22.4266 20.087C22.4857 19.9626 22.592 19.9603 22.5991 20.1209V21.3355C22.5897 21.7291 22.8591 21.8467 23.0719 21.9282C23.2917 21.9123 23.4359 21.9191 23.521 22.1227L23.6274 24.2262C23.6274 24.2262 24.1332 24.3619 24.1569 23.0433C24.1805 22.2674 23.9914 21.6183 24.1025 21.4667C24.1072 21.3175 24.3058 21.3084 24.4429 21.383C24.6627 21.5301 24.7596 21.711 25.1 21.6386C25.6201 21.5029 25.9274 21.2632 25.9345 20.8832C25.9108 20.5213 25.8635 20.1594 25.6981 19.7975C25.7217 19.7341 25.6035 19.5645 25.6272 19.4989C25.717 19.6346 25.8588 19.6256 25.8872 19.4989C25.8021 19.2207 25.665 18.9561 25.4428 18.843C25.2608 18.6846 24.9937 18.7186 24.8944 19.0397C24.8471 19.4107 25.0362 19.8495 25.3199 20.2091C25.3766 20.3494 25.4617 20.5823 25.4239 20.7927C25.275 20.8741 25.126 20.8379 24.9984 20.7135C24.9984 20.7135 24.5895 20.4195 24.5895 20.3516C24.7006 19.6844 24.6131 19.6052 24.554 19.4243C24.5114 19.1664 24.3838 19.085 24.2822 18.9086C24.1781 18.8022 24.0387 18.8022 23.9749 18.9086C23.7905 19.2094 23.8756 19.8585 24.008 20.1458C24.1025 20.4127 24.2491 20.5801 24.1805 20.5801C24.1238 20.7271 24.0056 20.6932 23.9205 20.519C23.8023 20.1571 23.7739 19.6233 23.7739 19.3813C23.7385 19.0827 23.6983 18.4426 23.4903 18.2798C23.4359 18.2074 23.3721 18.1825 23.3083 18.1893L23.3059 18.1961ZM26.2418 18.1961C26.2016 18.2051 26.1543 18.2277 26.0999 18.2413C25.9226 18.2933 25.7572 18.4403 25.8092 18.7253C26.0219 19.9468 26.1567 20.8809 26.367 22.1023C26.3978 22.2471 26.2725 22.4348 26.1117 22.419C25.8375 22.238 25.769 21.8761 25.301 21.8942C24.9606 21.8942 24.5729 22.2516 24.5256 22.5909C24.4689 22.8623 24.45 23.1564 24.5256 23.3916C24.762 23.663 25.0504 23.6359 25.301 23.5725C25.5066 23.4934 25.6792 23.3011 25.7501 23.3464C25.7974 23.421 25.7454 24.0566 24.7809 24.5451C24.1852 24.803 23.7125 24.8618 23.4572 24.4004C23.3012 24.1109 23.4714 23.0071 23.0837 23.2604C21.9349 26.0923 25.7714 26.4858 26.1992 23.378C26.2276 23.2875 26.3103 23.2016 26.3718 23.2242C26.3954 23.2355 26.419 23.2694 26.4285 23.3328C26.3387 26.1466 23.4595 26.3411 22.9726 25.4544C22.8497 25.2463 22.8142 24.7804 22.8024 24.5044C22.7788 24.3348 22.7362 24.2375 22.6842 24.1991C22.566 24.1154 22.41 24.3348 22.3769 24.7125C22.3296 25.0179 22.3415 25.1016 22.3415 25.3956C22.4975 27.619 26.2016 26.6623 26.8043 24.8301C27.1022 23.8802 26.7973 23.1631 26.8989 23.0749L26.906 23.0704H26.9131L26.9249 23.0659C27.2937 23.4459 27.809 23.1111 27.9224 22.9822C27.9697 22.9143 28.0926 22.8691 28.1777 22.9596C28.4614 23.1541 28.9672 23.0614 29.0712 22.7108C29.1327 22.3715 29.1847 22.0232 29.1965 21.659C29.0074 21.7155 28.8561 21.7563 28.7947 21.8173C28.7805 21.8332 28.771 21.8513 28.7663 21.8693L28.719 22.1702C28.719 22.1815 28.7143 22.1883 28.7096 22.1928C28.7025 22.2086 28.6859 22.2199 28.6765 22.2267C28.6103 22.2607 28.4945 22.2426 28.4874 22.1498C28.3999 21.7653 28.0335 21.7155 27.8113 22.3149C27.6624 22.428 27.3858 22.4507 27.3622 22.2787C27.3977 21.8761 27.2275 21.8218 26.8894 22.0118L26.5632 19.6595C26.7051 19.6527 26.8327 19.75 26.9651 19.5962C26.8233 19.18 26.5278 18.334 26.3599 18.2526H26.3552L26.3316 18.23C26.3316 18.2255 26.3245 18.2232 26.3198 18.2209L26.3103 18.2074C26.3009 18.2074 26.2914 18.2028 26.2867 18.2006C26.2701 18.1961 26.2583 18.1961 26.2418 18.1961ZM37.6873 18.2051C37.5408 18.2006 37.38 18.2888 37.4415 18.4652C37.4037 18.5625 37.7559 18.8882 37.8126 19.0646C37.9143 19.336 37.7346 19.6007 37.841 19.6391C37.9403 19.6799 38.0774 19.3564 38.1246 19.0556C38.1861 18.8113 38.0064 18.3137 37.7464 18.2119L37.6873 18.2074V18.2051ZM28.7687 18.5014C28.8349 18.4969 28.9152 18.5557 28.9578 18.6371C28.998 18.7276 28.9767 18.8113 28.9105 18.8271C28.8396 18.843 28.7498 18.7864 28.7072 18.6959C28.6647 18.6055 28.6836 18.5218 28.7545 18.5059H28.7687V18.5014ZM45.3083 18.9131C45.1735 18.9086 45.0246 19.0036 45.0861 19.1958C45.053 19.2999 45.3697 19.6527 45.4241 19.8472C45.4714 19.9829 45.3532 20.4263 45.4477 20.467C45.5376 20.5122 45.6605 20.1594 45.7077 19.8337C45.7361 19.6527 45.599 19.0307 45.365 18.9199C45.3484 18.9153 45.3295 18.9108 45.3106 18.9108L45.3083 18.9131ZM36.1603 19.1302C36.1769 19.1822 36.1887 19.2343 36.1958 19.2885C36.2241 19.4016 36.2478 19.5147 36.2714 19.6324C36.1674 19.4921 36.0823 19.379 36.0421 19.3383C35.8057 19.0669 36.0468 19.1619 36.1603 19.1302ZM38.2712 20.1209C38.2192 20.13 38.1696 20.1729 38.153 20.2408C38.1388 20.2815 38.1719 20.3539 38.1294 20.3765C38.1057 20.3991 38.0112 20.3856 38.0183 20.2634C38.0183 20.2227 37.9875 20.1797 37.971 20.1571C37.9521 20.1458 37.9403 20.1413 37.9072 20.1413C37.867 20.1413 37.867 20.1526 37.8457 20.1865C37.8363 20.2182 37.8221 20.2498 37.8221 20.2883C37.8221 20.3335 37.8032 20.3471 37.7701 20.3562C37.7322 20.3562 37.7393 20.3562 37.7086 20.3403C37.6897 20.3177 37.6684 20.3132 37.6684 20.2815C37.6684 20.2476 37.6613 20.1956 37.6495 20.1729C37.633 20.1503 37.6093 20.1435 37.5786 20.1345C37.4249 20.1345 37.4131 20.3064 37.4226 20.3697C37.4131 20.3833 37.406 20.6909 37.6188 20.7769C37.9072 20.9058 38.4461 20.8447 38.4225 20.4059C38.4225 20.3675 38.4107 20.2363 38.4083 20.2023C38.3776 20.1345 38.3232 20.1119 38.2736 20.1187L38.2712 20.1209ZM28.6505 20.2114C28.6174 20.2114 28.5701 20.2204 28.5157 20.2521C28.2628 20.3833 28.1659 20.7723 28.3266 20.9985C28.4685 21.2021 28.7048 21.1275 28.7356 21.1275C28.9838 21.1591 29.1303 20.6841 29.1303 20.6841C29.1303 20.6841 29.1374 20.5484 28.8467 20.8017C28.719 20.8244 28.7048 20.7791 28.6718 20.7113C28.6434 20.5914 28.6481 20.4625 28.7072 20.3426C28.7356 20.2679 28.7072 20.2204 28.6505 20.2159V20.2114ZM42.2495 20.2725C42.1077 20.2657 41.9587 20.3539 41.9186 20.5371C41.9186 20.6457 41.9706 20.7045 41.9611 20.804C41.9493 20.8606 41.8902 20.8945 41.7436 20.8311C41.7673 20.8085 41.6491 20.6547 41.6491 20.6547C41.538 20.5869 41.3891 20.6547 41.2898 20.7181C41.2354 20.8131 41.1952 20.9736 41.2567 21.1365C41.4174 21.4238 41.9729 21.9123 42.2377 21.9168C42.2424 21.659 42.2684 21.3152 42.2849 21.1026C42.2897 21.0211 42.3086 20.9329 42.3913 20.9126C42.4717 20.89 42.6112 20.9895 42.6112 20.9058C42.597 20.7429 42.5639 20.4987 42.4693 20.3856C42.4173 20.3177 42.3346 20.277 42.2519 20.2725H42.2495ZM30.9907 21.1704L30.9836 21.1772C30.9836 21.1772 30.9788 21.1772 30.9765 21.1817C30.9481 21.2044 30.915 21.2496 30.8417 21.2948C30.7165 21.4305 30.6952 21.5278 30.6999 21.7992C30.7094 21.8286 30.9363 22.4393 31.1325 22.8668C31.2649 23.3124 31.3854 23.8236 31.298 24.3054C30.9907 24.9432 30.3761 25.5155 29.778 25.8276C29.4707 25.9181 29.2107 25.8864 29.1398 25.8231C28.9649 25.71 28.9625 25.5064 28.9743 25.4748V25.468C29.4755 25.1332 30.0499 24.8618 30.499 23.9593C30.6314 23.6133 30.6739 23.4052 30.5415 22.8736C30.4895 22.6701 30.4233 22.5117 30.2815 22.367H30.2862C30.3713 22.3285 30.5935 22.4846 30.629 22.3896C30.5746 22.1317 30.3926 21.7902 30.1917 21.6138C30.012 21.4554 29.8135 21.4396 29.6527 21.5821C29.4684 21.6816 29.4305 22.0345 29.518 22.3421C29.6173 22.5728 29.8844 22.6135 30.0735 23.0817C30.0782 23.1134 30.1373 23.4323 30.0428 23.5635C29.9624 23.7942 28.9672 24.5451 28.8963 24.5904L28.8892 24.5949L28.8845 24.5994H28.8798H28.875V24.5926C28.8703 24.5746 28.875 24.5248 28.875 24.4501C28.868 24.3099 28.9294 23.991 28.9223 23.9344V23.9299C28.5914 24.1335 28.4803 24.7555 28.4212 24.941C27.5868 25.4906 26.6412 25.9 26.0952 26.4564C25.8115 26.8862 28.0524 25.9724 28.3125 25.8616L28.3195 25.8683C28.3716 25.9204 28.3739 26.1013 28.5228 26.2664C28.7592 26.5673 29.2509 26.7527 29.7331 26.6374C30.5415 26.3592 31.0096 25.8322 31.4823 25.2463C31.5485 25.1559 31.6549 25.0789 31.7542 25.1513C32.078 25.848 33.0188 26.3456 34.2314 26.3954C34.5151 26.0696 34.3804 25.9091 34.2669 25.8412C34.2314 25.8186 33.6641 25.606 33.5743 25.3956C33.5199 25.2011 33.6547 25.0269 33.9241 24.898C34.7042 24.8075 35.4701 24.7057 36.2123 24.4773C36.2194 24.2375 36.366 23.8824 36.4652 23.7263C36.5362 23.62 36.5763 23.6087 36.5929 23.5952V23.5906H36.5976V23.5838V23.5612L36.47 23.4889L33.9809 23.4798C33.9501 23.4685 33.9289 23.4572 33.9147 23.4459L33.91 23.4391C33.91 23.4391 33.9052 23.4391 33.9052 23.4346C33.9052 23.43 33.9005 23.43 33.9005 23.43V23.4278V23.4233V23.4187L33.9052 23.4119C33.9171 23.3984 33.9478 23.3825 33.9832 23.3667C34.5789 23.2921 35.6332 23.127 35.7041 22.1566C35.6923 21.6499 35.4772 21.3197 34.8295 21.2292C34.352 21.2632 34.0116 21.7042 34.066 22.1883C34.0423 22.3172 34.1132 22.5728 33.9714 22.6022C33.059 22.6836 32.0615 23.231 32.0284 23.6246H32.0236H32.0189H32.0142C32.0142 23.6291 32.0071 23.6291 32.0071 23.6291H31.9976H31.9929H31.9835C31.9244 23.611 31.8487 23.516 31.8605 23.3871C31.8251 22.7085 31.5934 21.9395 31.2341 21.3514C31.1041 21.227 31.045 21.1772 31.0119 21.1704H31.0048H30.9977H30.9907ZM33.3734 21.5278C33.3261 21.5369 33.2717 21.5776 33.2552 21.6454C33.2434 21.6907 33.2788 21.763 33.2363 21.7857C33.2126 21.8083 33.1181 21.7947 33.1228 21.6726C33.1228 21.6341 33.0921 21.5911 33.0755 21.5663C33.0566 21.5549 33.0448 21.5527 33.0141 21.5527C32.9739 21.5527 32.9715 21.5617 32.9503 21.5934C32.9384 21.6251 32.9266 21.6613 32.9266 21.6952C32.9219 21.7404 32.903 21.754 32.8722 21.7585C32.8344 21.7585 32.8439 21.7653 32.8132 21.7472C32.7942 21.7291 32.7706 21.7201 32.7706 21.6884C32.7706 21.6545 32.7635 21.5979 32.7541 21.5753C32.7375 21.5595 32.7115 21.5527 32.6831 21.5436C32.5248 21.5436 32.5177 21.7133 32.5248 21.7789C32.5129 21.7902 32.5059 22.0955 32.7186 22.1815C33.0023 22.3127 33.6878 22.2358 33.5223 21.8128C33.5223 21.7743 33.5105 21.6432 33.5081 21.6092C33.4774 21.5414 33.423 21.5188 33.371 21.5255L33.3734 21.5278ZM42.9823 21.9055H42.9586C42.9586 21.9055 41.6302 22.8103 41.5994 22.842C41.4671 22.955 41.5333 23.3464 41.5994 23.3011C41.694 23.335 43.0295 22.4687 43.0035 22.367C43.0626 22.3715 43.091 21.9214 42.9799 21.9033L42.9823 21.9055ZM34.6286 22.0413C34.6806 22.0345 34.7515 22.0526 34.8177 22.0865C34.9193 22.1453 34.9831 22.2267 34.9713 22.2901V22.2991C34.9666 22.2991 34.9666 22.2991 34.9666 22.3036V22.3082C34.9666 22.3082 34.9619 22.3082 34.9619 22.3127C34.9619 22.3172 34.9548 22.3217 34.95 22.3262C34.9028 22.3715 34.794 22.3624 34.69 22.3036C34.5907 22.2516 34.5316 22.1679 34.5364 22.1091V22.1023L34.5482 22.0797C34.5482 22.0797 34.5482 22.0752 34.5529 22.0729L34.5647 22.0593C34.5813 22.048 34.6026 22.0367 34.6286 22.0367V22.0413ZM23.0033 22.2674C22.3178 22.281 21.3085 23.1315 21.2825 23.6019L23.4572 22.6067C23.339 22.4348 23.4501 22.281 23.0033 22.2674ZM25.2324 22.5615C25.2986 22.566 25.3695 22.5977 25.4073 22.6881C25.4404 22.7718 25.4073 22.8578 25.3671 22.9008V22.9075C25.3341 22.9437 25.2348 22.9302 25.1615 22.9302C25.074 22.9256 25.0315 22.9121 24.9795 22.8442C24.9511 22.7651 25.0268 22.6904 25.0622 22.6361L25.0788 22.6135C25.1024 22.5909 25.1497 22.5728 25.197 22.5683L25.2277 22.5637L25.2324 22.5615ZM42.7246 22.8261C42.5993 22.8397 42.4835 22.9505 42.5355 23.127C42.5024 23.231 42.701 23.5952 42.7553 23.7874C42.8026 23.9231 42.6939 24.3144 42.7908 24.3529C42.8806 24.3981 43.1146 24.1267 43.1076 23.7784C43.1312 23.5974 43.0414 22.9415 42.8074 22.8329C42.779 22.8261 42.753 22.8239 42.7246 22.8261ZM27.8704 23.4685C27.7617 23.4753 27.6648 23.5296 27.7097 23.6766C27.7026 23.7806 28.017 23.9096 28.0335 24.1516C28.0761 24.2556 27.9626 24.5813 28.0572 24.6085C28.1423 24.6424 28.2605 24.3823 28.3054 24.1471C28.329 24.0159 28.1966 23.559 27.9744 23.4753C27.939 23.4662 27.9035 23.464 27.8681 23.4662L27.8704 23.4685ZM32.3144 24.0475H32.3428C32.6217 24.1199 33.0283 24.129 33.3828 24.1606C33.6736 24.1832 33.8154 24.3959 33.5483 24.4886C33.2788 24.5746 33.0212 24.6469 33.0212 25.0134C33.0543 25.1943 33.0448 25.2893 33.0164 25.33C33.0164 25.3368 33.007 25.3436 33.007 25.3436C33.007 25.3436 33.007 25.3481 33.0023 25.3481V25.3526H32.9952L32.9786 25.3594H32.9668C32.903 25.3707 32.8108 25.3142 32.7422 25.278C32.5768 25.1649 32.1158 24.8935 32.0496 24.3054C32.0402 24.1697 32.1442 24.0566 32.3097 24.0453L32.3144 24.0475ZM21.455 24.4999C21.4385 24.4999 21.4078 24.5497 21.3605 24.6062C20.9492 25.2282 20.9114 26.1579 21.1383 26.4383C21.2565 26.5673 21.455 26.6261 21.6016 26.5854C21.8616 26.479 21.9727 25.9792 21.9089 25.7982C21.8262 25.6693 21.7576 25.6489 21.6725 25.7575C21.4905 26.1081 21.4125 25.8661 21.4007 25.667C21.3723 25.2984 21.4101 24.9545 21.4527 24.6831C21.4763 24.5474 21.4763 24.4954 21.4527 24.4954L21.455 24.4999ZM35.3944 25.3187C35.3637 25.3187 35.333 25.3232 35.2999 25.3413C35.2928 25.3413 35.0068 25.5223 34.9146 25.6535C34.8579 25.6942 34.8673 25.7281 34.8815 25.8005C34.924 25.8977 34.9997 25.8683 35.0895 25.8231C35.2077 25.805 35.2621 25.8797 35.255 26.0131C35.2006 26.1827 35.2786 26.2438 35.2786 26.2551C35.2786 26.2642 35.3897 26.3569 35.5221 26.2845C35.7986 26.1827 35.9712 26.081 36.3612 26.0018C36.4629 26.0018 36.4558 25.7394 36.295 25.7304C36.0823 25.7394 35.8932 25.753 35.6805 25.9113C35.5504 25.9385 35.5292 25.8616 35.4984 25.7937C35.4654 25.6263 35.5741 25.5087 35.5504 25.382C35.5552 25.3888 35.4843 25.3278 35.3921 25.3232L35.3944 25.3187ZM44.3202 25.6354L44.1311 25.6535C44.046 25.6693 44.0176 25.7055 44.0011 25.805C44.0082 25.952 44.1027 25.9452 44.202 26.0041C44.2587 26.0719 44.2966 26.1352 44.1973 26.2529C44.1027 26.332 44.0389 26.3773 43.9443 26.4564C43.9042 26.5288 43.8734 26.6374 44.0105 26.6736C44.2587 26.7414 44.8331 26.3841 44.8331 26.3795C44.9277 26.3117 44.8946 26.1827 44.8875 26.1827C44.8308 26.1239 44.7079 26.1601 44.6275 26.1488C44.5873 26.1488 44.462 26.1307 44.5187 26.0222C44.5708 25.9543 44.5897 25.9158 44.6251 25.8322C44.6606 25.7507 44.6251 25.6964 44.488 25.6512C44.4171 25.6376 44.3698 25.6331 44.3155 25.6354H44.3202Z" fill="white"/>
<path d="M39.5158 28.6446H39.3288H38.207V28.3914C38.207 28.2515 38.1233 28.1382 38.0201 28.1382C37.9168 28.1382 37.8331 28.2514 37.8331 28.3914V28.6446L27.9238 28.6446C28.2977 29.1509 29.0456 29.4042 29.6065 29.4042C30.0088 29.4042 35.0267 29.4042 37.8331 29.4042V29.9105C37.8331 30.0504 37.9168 30.1637 38.0201 30.1637H39.5158C39.8251 30.1637 40.0767 29.8229 40.0767 29.4041C40.0767 28.9852 39.8251 28.6446 39.5158 28.6446ZM39.5158 29.6573H38.207V29.4041C39.108 29.4041 39.7027 29.4041 39.7027 29.4041L39.6691 29.2678C39.6886 29.3077 39.7027 29.3527 39.7027 29.4041C39.7027 29.5438 39.6188 29.6573 39.5158 29.6573Z" fill="white"/>
</svg>
